<svg width="37" height="38" viewBox="0 0 37 38" fill="none" xmlns="http://www.w3.org/2000/svg">
<path d="M18.5 0.5C8.3 0.5 0 8.8 0 19C0 29.2 8.3 37.5 18.5 37.5C28.7 37.5 37 29.2 37 19C37 8.8 28.7 0.5 18.5 0.5Z" fill="#1A1A1A"/>
<path fill-rule="evenodd" clip-rule="evenodd" d="M16.3896 9.82349C19.8443 9.82349 22.8501 11.677 24.4834 14.4436H26.1904V14.4534C28.5471 14.4536 30.5347 16.3489 30.54 18.7542H30.5498C30.5496 21.1439 28.59 23.1037 26.2002 23.1038H24.9365C23.5054 26.2358 20.4102 28.4478 16.7793 28.5959L16.3896 28.6038L15.9062 28.5911C10.9416 28.3397 7.0002 24.2417 7 19.2141V19.2034C7.00022 14.0137 11.1999 9.81391 16.3896 9.81372V9.82349ZM16.3896 12.6741C12.7899 12.6743 9.86057 15.5937 9.86035 19.2034V19.2141C9.86056 22.8138 12.7799 25.7432 16.3896 25.7434C19.2896 25.7434 21.7496 23.8536 22.5996 21.2336L22.9199 20.2434H26.2002C26.9968 20.2433 27.6837 19.5694 27.6895 18.7639H27.6797C27.6797 17.9741 27.0202 17.3042 26.1904 17.304H22.7002L22.3203 16.4739C21.2903 14.2239 19.0196 12.6741 16.3896 12.6741Z" fill="#2EAFFF"/>
</svg>
