<svg width="181" height="91" viewBox="0 0 181 91" fill="none" xmlns="http://www.w3.org/2000/svg">
<path fill-rule="evenodd" clip-rule="evenodd" d="M1.49886 68.0933H5.64866C6.20625 68.0933 6.66021 68.5455 6.66021 69.1077V84.5227C6.66021 85.0818 6.2093 85.5372 5.64866 85.5372H1.49886C0.941284 85.5372 0.487305 85.0849 0.487305 84.5227V69.1077C0.487305 68.5486 0.938239 68.0933 1.49886 68.0933ZM11.0903 47.8351H14.3383C15.1457 47.8351 15.7977 48.4922 15.7977 49.2988V68.0933C15.7977 68.9029 15.1426 69.5569 14.3383 69.5569H11.0903C10.2829 69.5569 9.6309 68.8998 9.6309 68.0933V49.2988C9.6309 48.4892 10.286 47.8351 11.0903 47.8351ZM10.6394 72.0409H14.7892C15.3468 72.0409 15.8008 72.4931 15.8008 73.0554V89.3779C15.8008 89.937 15.3498 90.3924 14.7892 90.3924H10.6394C10.0818 90.3924 9.62785 89.9401 9.62785 89.3779V73.0554C9.62785 72.4962 10.0788 72.0409 10.6394 72.0409ZM19.783 27.3877H23.9328C24.4904 27.3877 24.9443 27.8399 24.9443 28.4021V58.9663C24.9443 59.5255 24.4934 59.9808 23.9328 59.9808H19.783C19.2254 59.9808 18.7714 59.5286 18.7714 58.9663V28.4021C18.7714 27.843 19.2224 27.3877 19.783 27.3877ZM19.783 62.8499H23.9328C24.4904 62.8499 24.9443 63.3021 24.9443 63.8644V73.3425C24.9443 73.9016 24.4934 74.357 23.9328 74.357H19.783C19.2254 74.357 18.7714 73.9047 18.7714 73.3425V63.8644C18.7714 63.3052 19.2224 62.8499 19.783 62.8499ZM20.2339 82.0812H23.4819C24.2893 82.0812 24.9413 82.7384 24.9413 83.5449V88.9226C24.9413 89.7325 24.2862 90.3862 23.4819 90.3862H20.2339C19.4265 90.3862 18.7745 89.7294 18.7745 88.9226V83.5449C18.7745 82.7353 19.4296 82.0812 20.2339 82.0812ZM28.9266 12.8924H33.0763C33.6341 12.8924 34.0879 13.3446 34.0879 13.9068V35.5246C34.0879 36.0837 33.6372 36.5391 33.0763 36.5391H28.9266C28.369 36.5391 27.915 36.0868 27.915 35.5246V13.9007C27.915 13.3415 28.366 12.8863 28.9266 12.8863V12.8924ZM28.9266 39.1697H33.0794C33.6372 39.1697 34.0879 39.6219 34.0879 40.1811V69.4836C34.0879 70.0427 33.6372 70.495 33.0794 70.495H28.9266C28.369 70.495 27.9181 70.0427 27.9181 69.4836V40.1811C27.9181 39.6219 28.369 39.1697 28.9266 39.1697ZM38.0701 8.43132H42.2201C42.7776 8.43132 43.2314 8.88354 43.2314 9.44574V23.8617C43.2314 24.4208 42.7806 24.8761 42.2201 24.8761H38.0701C37.5126 24.8761 37.0588 24.4239 37.0588 23.8617V9.44269C37.0588 8.88354 37.5095 8.42827 38.0701 8.42827V8.43132ZM38.0701 27.4091H42.2201C42.7776 27.4091 43.2314 27.8613 43.2314 28.4235V49.1644C43.2314 49.7236 42.7806 50.1789 42.2201 50.1789H38.0701C37.5126 50.1789 37.0588 49.7267 37.0588 49.1644V28.4235C37.0588 27.8644 37.5095 27.4091 38.0701 27.4091ZM38.0701 53.1641H42.2201C42.7776 53.1641 43.2314 53.6164 43.2314 54.1783V72.8141C43.2314 73.3733 42.7806 73.8283 42.2201 73.8283H38.0701C37.5126 73.8283 37.0588 73.3764 37.0588 72.8141V54.1783C37.0588 53.6192 37.5095 53.1641 38.0701 53.1641ZM47.6585 4.81358H50.9067C51.7141 4.81358 52.3661 5.47054 52.3661 6.2772V33.3428C52.3661 34.1527 51.711 34.8065 50.9067 34.8065H47.6585C46.8511 34.8065 46.1992 34.1497 46.1992 33.3428V6.2772C46.1992 5.46746 46.8542 4.81358 47.6585 4.81358ZM47.6585 37.7978H50.9067C51.7141 37.7978 52.3661 38.4547 52.3661 39.2615V45.5437C52.3661 46.3533 51.711 47.007 50.9067 47.007H47.6585C46.8511 47.007 46.1992 46.3502 46.1992 45.5437V39.2615C46.1992 38.4519 46.8542 37.7978 47.6585 37.7978ZM47.6585 49.0973H50.9037C51.711 49.0973 52.363 49.7541 52.363 50.5606V78.531C52.363 79.3406 51.708 79.9944 50.9037 79.9944H47.6585C46.8511 79.9944 46.1992 79.3376 46.1992 78.531V50.5606C46.1992 49.751 46.8542 49.0973 47.6585 49.0973ZM56.8023 1.19892H60.0502C60.8576 1.19892 61.5095 1.85586 61.5095 2.66251V8.04023C61.5095 8.84993 60.8545 9.50381 60.0502 9.50381H56.8023C55.9949 9.50381 55.3427 8.84688 55.3427 8.04023V2.66557C55.3427 1.85586 55.998 1.20198 56.8023 1.20198V1.19892ZM56.8023 12.0399H60.0502C60.8576 12.0399 61.5095 12.6968 61.5095 13.5035V55.028C61.5095 55.8376 60.8545 56.4916 60.0502 56.4916H56.8023C55.9949 56.4916 55.3427 55.8345 55.3427 55.028V13.5065C55.3427 12.6968 55.998 12.0429 56.8023 12.0429V12.0399ZM56.8023 59.4827H60.0502C60.8576 59.4827 61.5095 60.1398 61.5095 60.9463V72.1968C61.5095 73.0064 60.8545 73.6604 60.0502 73.6604H56.8023C55.9949 73.6604 55.3427 73.0033 55.3427 72.1968V60.9463C55.3427 60.1367 55.998 59.4827 56.8023 59.4827ZM56.8023 76.6549H60.0502C60.8576 76.6549 61.5095 77.3117 61.5095 78.1185V85.3049C61.5095 86.1148 60.8545 86.7685 60.0502 86.7685H56.8023C55.9949 86.7685 55.3427 86.1117 55.3427 85.3049V78.1185C55.3427 77.3086 55.998 76.6549 56.8023 76.6549ZM65.9458 74.3936H69.1936C70.001 74.3936 70.6533 75.0507 70.6533 75.8573V88.9195C70.6533 89.7294 69.998 90.3831 69.1936 90.3831H65.9458C65.1384 90.3831 64.4864 89.7263 64.4864 88.9195V75.8573C64.4864 75.0477 65.1414 74.3936 65.9458 74.3936ZM65.9458 29.2119H69.1936C70.001 29.2119 70.6533 29.8688 70.6533 30.6755V62.7094C70.6533 63.519 69.998 64.1731 69.1936 64.1731H65.9458C65.1384 64.1731 64.4864 63.5159 64.4864 62.7094V30.6755C64.4864 29.8658 65.1414 29.2119 65.9458 29.2119ZM65.9458 0.743652H69.1936C70.001 0.743652 70.6533 1.40059 70.6533 2.20724V24.7539C70.6533 25.5636 69.998 26.2174 69.1936 26.2174H65.9458C65.1384 26.2174 64.4864 25.5605 64.4864 24.7539V2.2103C64.4864 1.40059 65.1414 0.746708 65.9458 0.746708V0.743652ZM75.0892 81.1709H78.3374C79.1448 81.1709 79.7968 81.8277 79.7968 82.6345V88.9167C79.7968 89.7263 79.1418 90.3801 78.3374 90.3801H75.0892C74.2819 90.3801 73.6299 89.7233 73.6299 88.9167V82.6345C73.6299 81.8246 74.2849 81.1709 75.0892 81.1709ZM75.0892 1.19587H78.3374C79.1448 1.19587 79.7968 1.8528 79.7968 2.65946V41.0215C79.7968 41.8311 79.1418 42.4851 78.3374 42.4851H75.0892C74.2819 42.4851 73.6299 41.828 73.6299 41.0215V2.66251C73.6299 1.8528 74.2849 1.19892 75.0892 1.19892V1.19587ZM75.0892 45.4762H78.3374C79.1448 45.4762 79.7968 46.1333 79.7968 46.9399V62.7094C79.7968 63.519 79.1418 64.1731 78.3374 64.1731H75.0892C74.2819 64.1731 73.6299 63.5159 73.6299 62.7094V46.9399C73.6299 46.1302 74.2849 45.4762 75.0892 45.4762ZM84.2269 3.00473H87.4748C88.2822 3.00473 88.9342 3.66167 88.9342 4.46833V15.2665C88.9342 16.0762 88.2791 16.7301 87.4748 16.7301H84.2269C83.4195 16.7301 82.7676 16.0732 82.7676 15.2665V4.47138C82.7676 3.66167 83.4226 3.00779 84.2269 3.00779V3.00473ZM84.2269 19.7214H87.4748C88.2822 19.7214 88.9342 20.3784 88.9342 21.185V62.7094C88.9342 63.519 88.2791 64.1731 87.4748 64.1731H84.2269C83.4195 64.1731 82.7676 63.5159 82.7676 62.7094V21.1881C82.7676 20.3784 83.4226 19.7245 84.2269 19.7245V19.7214ZM93.3674 3.90918H96.6152C97.4229 3.90918 98.0749 4.56611 98.0749 5.37276V29.276C98.0749 30.0857 97.4199 30.7396 96.6152 30.7396H93.3674C92.56 30.7396 91.908 30.0827 91.908 29.276V5.37581C91.908 4.56611 92.563 3.91223 93.3674 3.91223V3.90918ZM93.3674 33.731H96.6152C97.4229 33.731 98.0749 34.3878 98.0749 35.1946V55.0341C98.0749 55.8437 97.4199 56.4975 96.6152 56.4975H93.3674C92.56 56.4975 91.908 55.8407 91.908 55.0341V35.1946C91.908 34.3847 92.563 33.731 93.3674 33.731ZM93.3674 59.4827H96.6152C97.4229 59.4827 98.0749 60.1398 98.0749 60.9463V69.9389C98.0749 70.7485 97.4199 71.4023 96.6152 71.4023H93.3674C92.56 71.4023 91.908 70.7455 91.908 69.9389V60.9463C91.908 60.1367 92.563 59.4827 93.3674 59.4827ZM102.453 5.2658H105.701C106.508 5.2658 107.16 5.92273 107.16 6.72941V43.7347C107.16 44.5443 106.505 45.1983 105.701 45.1983H102.453C101.646 45.1983 100.994 44.5412 100.994 43.7347V6.73246C100.994 5.92273 101.649 5.26888 102.453 5.26888V5.2658ZM102.453 48.1897H105.701C106.508 48.1897 107.16 48.8465 107.16 49.6534V78.9771C107.16 79.7867 106.505 80.4405 105.701 80.4405H102.453C101.646 80.4405 100.994 79.7836 100.994 78.9771V49.6534C100.994 48.8434 101.649 48.1897 102.453 48.1897ZM111.533 3.90918H114.781C115.588 3.90918 116.24 4.56611 116.24 5.37276V21.1423C116.24 21.952 115.585 22.6058 114.781 22.6058H111.533C110.725 22.6058 110.073 21.9489 110.073 21.1423V5.37581C110.073 4.56611 110.728 3.91223 111.533 3.91223V3.90918ZM111.533 25.5972H114.781C115.588 25.5972 116.24 26.2541 116.24 27.0608V73.1074C116.24 73.917 115.585 74.5711 114.781 74.5711H111.533C110.725 74.5711 110.073 73.914 110.073 73.1074V27.0638C110.073 26.2541 110.728 25.6003 111.533 25.6003V25.5972ZM111.533 77.5594H114.781C115.588 77.5594 116.24 78.2162 116.24 79.0227V87.5631C116.24 88.3727 115.585 89.0267 114.781 89.0267H111.533C110.725 89.0267 110.073 88.3696 110.073 87.5631V79.0227C110.073 78.2131 110.728 77.5594 111.533 77.5594ZM120.673 74.849H123.921C124.729 74.849 125.381 75.5058 125.381 76.3126V88.9195C125.381 89.7294 124.726 90.3831 123.921 90.3831H120.673C119.866 90.3831 119.214 89.7263 119.214 88.9195V76.3126C119.214 75.503 119.869 74.849 120.673 74.849ZM120.673 36.4442H123.921C124.729 36.4442 125.381 37.1013 125.381 37.9078V46.451C125.381 47.2609 124.726 47.9146 123.921 47.9146H120.673C119.866 47.9146 119.214 47.2578 119.214 46.451V37.9078C119.214 37.0982 119.869 36.4442 120.673 36.4442ZM120.673 3.46H123.921C124.729 3.46 125.381 4.11694 125.381 4.92359V31.9895C125.381 32.7991 124.726 33.4528 123.921 33.4528H120.673C119.866 33.4528 119.214 32.796 119.214 31.9895V4.92359C119.214 4.11389 119.869 3.46 120.673 3.46ZM129.939 5.72107H133.187C133.994 5.72107 134.646 6.37803 134.646 7.18468V41.4796C134.646 42.2895 133.991 42.9432 133.187 42.9432H129.939C129.131 42.9432 128.479 42.2864 128.479 41.4796V7.18468C128.479 6.37495 129.134 5.72107 129.939 5.72107ZM129.939 82.0812H133.187C133.994 82.0812 134.646 82.7384 134.646 83.5449V88.9226C134.646 89.7325 133.991 90.3862 133.187 90.3862H129.939C129.131 90.3862 128.479 89.7294 128.479 88.9226V83.5449C128.479 82.7353 129.134 82.0812 129.939 82.0812ZM138.951 8.43437H142.199C143.007 8.43437 143.659 9.0913 143.659 9.89796V18.4412C143.659 19.2509 143.004 19.9048 142.199 19.9048H138.951C138.144 19.9048 137.492 19.2478 137.492 18.4412V9.89796C137.492 9.08825 138.147 8.43437 138.951 8.43437ZM138.951 22.89H142.199C143.007 22.89 143.659 23.5469 143.659 24.3536V40.5754C143.659 41.385 143.004 42.0388 142.199 42.0388H138.951C138.144 42.0388 137.492 41.382 137.492 40.5754V24.3536C137.492 23.5439 138.147 22.89 138.951 22.89ZM148.208 10.6893H151.456C152.263 10.6893 152.915 11.3463 152.915 12.1529V17.5306C152.915 18.3403 152.26 18.9942 151.456 18.9942H148.208C147.4 18.9942 146.748 18.3373 146.748 17.5306V12.1529C146.748 11.3432 147.403 10.6893 148.208 10.6893ZM148.208 21.5333H151.456C152.263 21.5333 152.915 22.1903 152.915 22.997V27.9224C152.915 28.7321 152.26 29.386 151.456 29.386H148.208C147.4 29.386 146.748 28.7291 146.748 27.9224V22.997C146.748 22.1872 147.403 21.5333 148.208 21.5333ZM148.208 31.9251H151.456C152.263 31.9251 152.915 32.5822 152.915 33.3887V41.4768C152.915 42.2864 152.26 42.9402 151.456 42.9402H148.208C147.4 42.9402 146.748 42.2834 146.748 41.4768V33.3887C146.748 32.5791 147.403 31.9251 148.208 31.9251ZM157.348 13.4026H160.596C161.403 13.4026 162.056 14.0596 162.056 14.8662V42.8363C162.056 43.646 161.4 44.3 160.596 44.3H157.348C156.541 44.3 155.889 43.6432 155.889 42.8363V14.8632C155.889 14.0535 156.544 13.3996 157.348 13.3996V13.4026ZM166.431 21.5333H169.679C170.486 21.5333 171.138 22.1903 171.138 22.997V41.9288C171.138 42.7387 170.483 43.3924 169.679 43.3924H166.431C165.623 43.3924 164.971 42.7356 164.971 41.9288V22.997C164.971 22.1872 165.626 21.5333 166.431 21.5333ZM175.443 31.9251H178.691C179.499 31.9251 180.151 32.5822 180.151 33.3887V38.7664C180.151 39.576 179.496 40.2301 178.691 40.2301H175.443C174.636 40.2301 173.984 39.573 173.984 38.7664V33.3887C173.984 32.5791 174.639 31.9251 175.443 31.9251Z" fill="url(#paint0_radial_62_3)"/>
<path fill-rule="evenodd" clip-rule="evenodd" d="M1.49886 68.0933H5.64866C6.20625 68.0933 6.66021 68.5455 6.66021 69.1077V84.5227C6.66021 85.0818 6.2093 85.5372 5.64866 85.5372H1.49886C0.941284 85.5372 0.487305 85.0849 0.487305 84.5227V69.1077C0.487305 68.5486 0.938239 68.0933 1.49886 68.0933ZM11.0903 47.8351H14.3383C15.1457 47.8351 15.7977 48.4922 15.7977 49.2988V68.0933C15.7977 68.9029 15.1426 69.5569 14.3383 69.5569H11.0903C10.2829 69.5569 9.6309 68.8998 9.6309 68.0933V49.2988C9.6309 48.4892 10.286 47.8351 11.0903 47.8351ZM10.6394 72.0409H14.7892C15.3468 72.0409 15.8008 72.4931 15.8008 73.0554V89.3779C15.8008 89.937 15.3498 90.3924 14.7892 90.3924H10.6394C10.0818 90.3924 9.62785 89.9401 9.62785 89.3779V73.0554C9.62785 72.4962 10.0788 72.0409 10.6394 72.0409ZM19.783 27.3877H23.9328C24.4904 27.3877 24.9443 27.8399 24.9443 28.4021V58.9663C24.9443 59.5255 24.4934 59.9808 23.9328 59.9808H19.783C19.2254 59.9808 18.7714 59.5286 18.7714 58.9663V28.4021C18.7714 27.843 19.2224 27.3877 19.783 27.3877ZM19.783 62.8499H23.9328C24.4904 62.8499 24.9443 63.3021 24.9443 63.8644V73.3425C24.9443 73.9016 24.4934 74.357 23.9328 74.357H19.783C19.2254 74.357 18.7714 73.9047 18.7714 73.3425V63.8644C18.7714 63.3052 19.2224 62.8499 19.783 62.8499ZM20.2339 82.0812H23.4819C24.2893 82.0812 24.9413 82.7384 24.9413 83.5449V88.9226C24.9413 89.7325 24.2862 90.3862 23.4819 90.3862H20.2339C19.4265 90.3862 18.7745 89.7294 18.7745 88.9226V83.5449C18.7745 82.7353 19.4296 82.0812 20.2339 82.0812ZM28.9266 12.8924H33.0763C33.6341 12.8924 34.0879 13.3446 34.0879 13.9068V35.5246C34.0879 36.0837 33.6372 36.5391 33.0763 36.5391H28.9266C28.369 36.5391 27.915 36.0868 27.915 35.5246V13.9007C27.915 13.3415 28.366 12.8863 28.9266 12.8863V12.8924ZM28.9266 39.1697H33.0794C33.6372 39.1697 34.0879 39.6219 34.0879 40.1811V69.4836C34.0879 70.0427 33.6372 70.495 33.0794 70.495H28.9266C28.369 70.495 27.9181 70.0427 27.9181 69.4836V40.1811C27.9181 39.6219 28.369 39.1697 28.9266 39.1697ZM38.0701 8.43132H42.2201C42.7776 8.43132 43.2314 8.88354 43.2314 9.44574V23.8617C43.2314 24.4208 42.7806 24.8761 42.2201 24.8761H38.0701C37.5126 24.8761 37.0588 24.4239 37.0588 23.8617V9.44269C37.0588 8.88354 37.5095 8.42827 38.0701 8.42827V8.43132ZM38.0701 27.4091H42.2201C42.7776 27.4091 43.2314 27.8613 43.2314 28.4235V49.1644C43.2314 49.7236 42.7806 50.1789 42.2201 50.1789H38.0701C37.5126 50.1789 37.0588 49.7267 37.0588 49.1644V28.4235C37.0588 27.8644 37.5095 27.4091 38.0701 27.4091ZM38.0701 53.1641H42.2201C42.7776 53.1641 43.2314 53.6164 43.2314 54.1783V72.8141C43.2314 73.3733 42.7806 73.8283 42.2201 73.8283H38.0701C37.5126 73.8283 37.0588 73.3764 37.0588 72.8141V54.1783C37.0588 53.6192 37.5095 53.1641 38.0701 53.1641ZM47.6585 4.81358H50.9067C51.7141 4.81358 52.3661 5.47054 52.3661 6.2772V33.3428C52.3661 34.1527 51.711 34.8065 50.9067 34.8065H47.6585C46.8511 34.8065 46.1992 34.1497 46.1992 33.3428V6.2772C46.1992 5.46746 46.8542 4.81358 47.6585 4.81358ZM47.6585 37.7978H50.9067C51.7141 37.7978 52.3661 38.4547 52.3661 39.2615V45.5437C52.3661 46.3533 51.711 47.007 50.9067 47.007H47.6585C46.8511 47.007 46.1992 46.3502 46.1992 45.5437V39.2615C46.1992 38.4519 46.8542 37.7978 47.6585 37.7978ZM47.6585 49.0973H50.9037C51.711 49.0973 52.363 49.7541 52.363 50.5606V78.531C52.363 79.3406 51.708 79.9944 50.9037 79.9944H47.6585C46.8511 79.9944 46.1992 79.3376 46.1992 78.531V50.5606C46.1992 49.751 46.8542 49.0973 47.6585 49.0973ZM56.8023 1.19892H60.0502C60.8576 1.19892 61.5095 1.85586 61.5095 2.66251V8.04023C61.5095 8.84993 60.8545 9.50381 60.0502 9.50381H56.8023C55.9949 9.50381 55.3427 8.84688 55.3427 8.04023V2.66557C55.3427 1.85586 55.998 1.20198 56.8023 1.20198V1.19892ZM56.8023 12.0399H60.0502C60.8576 12.0399 61.5095 12.6968 61.5095 13.5035V55.028C61.5095 55.8376 60.8545 56.4916 60.0502 56.4916H56.8023C55.9949 56.4916 55.3427 55.8345 55.3427 55.028V13.5065C55.3427 12.6968 55.998 12.0429 56.8023 12.0429V12.0399ZM56.8023 59.4827H60.0502C60.8576 59.4827 61.5095 60.1398 61.5095 60.9463V72.1968C61.5095 73.0064 60.8545 73.6604 60.0502 73.6604H56.8023C55.9949 73.6604 55.3427 73.0033 55.3427 72.1968V60.9463C55.3427 60.1367 55.998 59.4827 56.8023 59.4827ZM56.8023 76.6549H60.0502C60.8576 76.6549 61.5095 77.3117 61.5095 78.1185V85.3049C61.5095 86.1148 60.8545 86.7685 60.0502 86.7685H56.8023C55.9949 86.7685 55.3427 86.1117 55.3427 85.3049V78.1185C55.3427 77.3086 55.998 76.6549 56.8023 76.6549ZM65.9458 74.3936H69.1936C70.001 74.3936 70.6533 75.0507 70.6533 75.8573V88.9195C70.6533 89.7294 69.998 90.3831 69.1936 90.3831H65.9458C65.1384 90.3831 64.4864 89.7263 64.4864 88.9195V75.8573C64.4864 75.0477 65.1414 74.3936 65.9458 74.3936ZM65.9458 29.2119H69.1936C70.001 29.2119 70.6533 29.8688 70.6533 30.6755V62.7094C70.6533 63.519 69.998 64.1731 69.1936 64.1731H65.9458C65.1384 64.1731 64.4864 63.5159 64.4864 62.7094V30.6755C64.4864 29.8658 65.1414 29.2119 65.9458 29.2119ZM65.9458 0.743652H69.1936C70.001 0.743652 70.6533 1.40059 70.6533 2.20724V24.7539C70.6533 25.5636 69.998 26.2174 69.1936 26.2174H65.9458C65.1384 26.2174 64.4864 25.5605 64.4864 24.7539V2.2103C64.4864 1.40059 65.1414 0.746708 65.9458 0.746708V0.743652ZM75.0892 81.1709H78.3374C79.1448 81.1709 79.7968 81.8277 79.7968 82.6345V88.9167C79.7968 89.7263 79.1418 90.3801 78.3374 90.3801H75.0892C74.2819 90.3801 73.6299 89.7233 73.6299 88.9167V82.6345C73.6299 81.8246 74.2849 81.1709 75.0892 81.1709ZM75.0892 1.19587H78.3374C79.1448 1.19587 79.7968 1.8528 79.7968 2.65946V41.0215C79.7968 41.8311 79.1418 42.4851 78.3374 42.4851H75.0892C74.2819 42.4851 73.6299 41.828 73.6299 41.0215V2.66251C73.6299 1.8528 74.2849 1.19892 75.0892 1.19892V1.19587ZM75.0892 45.4762H78.3374C79.1448 45.4762 79.7968 46.1333 79.7968 46.9399V62.7094C79.7968 63.519 79.1418 64.1731 78.3374 64.1731H75.0892C74.2819 64.1731 73.6299 63.5159 73.6299 62.7094V46.9399C73.6299 46.1302 74.2849 45.4762 75.0892 45.4762ZM84.2269 3.00473H87.4748C88.2822 3.00473 88.9342 3.66167 88.9342 4.46833V15.2665C88.9342 16.0762 88.2791 16.7301 87.4748 16.7301H84.2269C83.4195 16.7301 82.7676 16.0732 82.7676 15.2665V4.47138C82.7676 3.66167 83.4226 3.00779 84.2269 3.00779V3.00473ZM84.2269 19.7214H87.4748C88.2822 19.7214 88.9342 20.3784 88.9342 21.185V62.7094C88.9342 63.519 88.2791 64.1731 87.4748 64.1731H84.2269C83.4195 64.1731 82.7676 63.5159 82.7676 62.7094V21.1881C82.7676 20.3784 83.4226 19.7245 84.2269 19.7245V19.7214ZM93.3674 3.90918H96.6152C97.4229 3.90918 98.0749 4.56611 98.0749 5.37276V29.276C98.0749 30.0857 97.4199 30.7396 96.6152 30.7396H93.3674C92.56 30.7396 91.908 30.0827 91.908 29.276V5.37581C91.908 4.56611 92.563 3.91223 93.3674 3.91223V3.90918ZM93.3674 33.731H96.6152C97.4229 33.731 98.0749 34.3878 98.0749 35.1946V55.0341C98.0749 55.8437 97.4199 56.4975 96.6152 56.4975H93.3674C92.56 56.4975 91.908 55.8407 91.908 55.0341V35.1946C91.908 34.3847 92.563 33.731 93.3674 33.731ZM93.3674 59.4827H96.6152C97.4229 59.4827 98.0749 60.1398 98.0749 60.9463V69.9389C98.0749 70.7485 97.4199 71.4023 96.6152 71.4023H93.3674C92.56 71.4023 91.908 70.7455 91.908 69.9389V60.9463C91.908 60.1367 92.563 59.4827 93.3674 59.4827ZM102.453 5.2658H105.701C106.508 5.2658 107.16 5.92273 107.16 6.72941V43.7347C107.16 44.5443 106.505 45.1983 105.701 45.1983H102.453C101.646 45.1983 100.994 44.5412 100.994 43.7347V6.73246C100.994 5.92273 101.649 5.26888 102.453 5.26888V5.2658ZM102.453 48.1897H105.701C106.508 48.1897 107.16 48.8465 107.16 49.6534V78.9771C107.16 79.7867 106.505 80.4405 105.701 80.4405H102.453C101.646 80.4405 100.994 79.7836 100.994 78.9771V49.6534C100.994 48.8434 101.649 48.1897 102.453 48.1897ZM111.533 3.90918H114.781C115.588 3.90918 116.24 4.56611 116.24 5.37276V21.1423C116.24 21.952 115.585 22.6058 114.781 22.6058H111.533C110.725 22.6058 110.073 21.9489 110.073 21.1423V5.37581C110.073 4.56611 110.728 3.91223 111.533 3.91223V3.90918ZM111.533 25.5972H114.781C115.588 25.5972 116.24 26.2541 116.24 27.0608V73.1074C116.24 73.917 115.585 74.5711 114.781 74.5711H111.533C110.725 74.5711 110.073 73.914 110.073 73.1074V27.0638C110.073 26.2541 110.728 25.6003 111.533 25.6003V25.5972ZM111.533 77.5594H114.781C115.588 77.5594 116.24 78.2162 116.24 79.0227V87.5631C116.24 88.3727 115.585 89.0267 114.781 89.0267H111.533C110.725 89.0267 110.073 88.3696 110.073 87.5631V79.0227C110.073 78.2131 110.728 77.5594 111.533 77.5594ZM120.673 74.849H123.921C124.729 74.849 125.381 75.5058 125.381 76.3126V88.9195C125.381 89.7294 124.726 90.3831 123.921 90.3831H120.673C119.866 90.3831 119.214 89.7263 119.214 88.9195V76.3126C119.214 75.503 119.869 74.849 120.673 74.849ZM120.673 36.4442H123.921C124.729 36.4442 125.381 37.1013 125.381 37.9078V46.451C125.381 47.2609 124.726 47.9146 123.921 47.9146H120.673C119.866 47.9146 119.214 47.2578 119.214 46.451V37.9078C119.214 37.0982 119.869 36.4442 120.673 36.4442ZM120.673 3.46H123.921C124.729 3.46 125.381 4.11694 125.381 4.92359V31.9895C125.381 32.7991 124.726 33.4528 123.921 33.4528H120.673C119.866 33.4528 119.214 32.796 119.214 31.9895V4.92359C119.214 4.11389 119.869 3.46 120.673 3.46ZM129.939 5.72107H133.187C133.994 5.72107 134.646 6.37803 134.646 7.18468V41.4796C134.646 42.2895 133.991 42.9432 133.187 42.9432H129.939C129.131 42.9432 128.479 42.2864 128.479 41.4796V7.18468C128.479 6.37495 129.134 5.72107 129.939 5.72107ZM129.939 82.0812H133.187C133.994 82.0812 134.646 82.7384 134.646 83.5449V88.9226C134.646 89.7325 133.991 90.3862 133.187 90.3862H129.939C129.131 90.3862 128.479 89.7294 128.479 88.9226V83.5449C128.479 82.7353 129.134 82.0812 129.939 82.0812ZM138.951 8.43437H142.199C143.007 8.43437 143.659 9.0913 143.659 9.89796V18.4412C143.659 19.2509 143.004 19.9048 142.199 19.9048H138.951C138.144 19.9048 137.492 19.2478 137.492 18.4412V9.89796C137.492 9.08825 138.147 8.43437 138.951 8.43437ZM138.951 22.89H142.199C143.007 22.89 143.659 23.5469 143.659 24.3536V40.5754C143.659 41.385 143.004 42.0388 142.199 42.0388H138.951C138.144 42.0388 137.492 41.382 137.492 40.5754V24.3536C137.492 23.5439 138.147 22.89 138.951 22.89ZM148.208 10.6893H151.456C152.263 10.6893 152.915 11.3463 152.915 12.1529V17.5306C152.915 18.3403 152.26 18.9942 151.456 18.9942H148.208C147.4 18.9942 146.748 18.3373 146.748 17.5306V12.1529C146.748 11.3432 147.403 10.6893 148.208 10.6893ZM148.208 21.5333H151.456C152.263 21.5333 152.915 22.1903 152.915 22.997V27.9224C152.915 28.7321 152.26 29.386 151.456 29.386H148.208C147.4 29.386 146.748 28.7291 146.748 27.9224V22.997C146.748 22.1872 147.403 21.5333 148.208 21.5333ZM148.208 31.9251H151.456C152.263 31.9251 152.915 32.5822 152.915 33.3887V41.4768C152.915 42.2864 152.26 42.9402 151.456 42.9402H148.208C147.4 42.9402 146.748 42.2834 146.748 41.4768V33.3887C146.748 32.5791 147.403 31.9251 148.208 31.9251ZM157.348 13.4026H160.596C161.403 13.4026 162.056 14.0596 162.056 14.8662V42.8363C162.056 43.646 161.4 44.3 160.596 44.3H157.348C156.541 44.3 155.889 43.6432 155.889 42.8363V14.8632C155.889 14.0535 156.544 13.3996 157.348 13.3996V13.4026ZM166.431 21.5333H169.679C170.486 21.5333 171.138 22.1903 171.138 22.997V41.9288C171.138 42.7387 170.483 43.3924 169.679 43.3924H166.431C165.623 43.3924 164.971 42.7356 164.971 41.9288V22.997C164.971 22.1872 165.626 21.5333 166.431 21.5333ZM175.443 31.9251H178.691C179.499 31.9251 180.151 32.5822 180.151 33.3887V38.7664C180.151 39.576 179.496 40.2301 178.691 40.2301H175.443C174.636 40.2301 173.984 39.573 173.984 38.7664V33.3887C173.984 32.5791 174.639 31.9251 175.443 31.9251Z" fill="url(#paint1_radial_62_3)"/>
<defs>
<radialGradient id="paint0_radial_62_3" cx="0" cy="0" r="1" gradientUnits="userSpaceOnUse" gradientTransform="translate(154.712 20.4602) rotate(157.043) scale(182.056 371.547)">
<stop stop-color="#0075FF"/>
<stop offset="1" stop-color="#0075FF" stop-opacity="0"/>
</radialGradient>
<radialGradient id="paint1_radial_62_3" cx="0" cy="0" r="1" gradientUnits="userSpaceOnUse" gradientTransform="translate(154.712 20.4602) rotate(157.043) scale(182.056 371.547)">
<stop stop-color="#0075FF"/>
<stop offset="1" stop-color="#0075FF" stop-opacity="0"/>
</radialGradient>
</defs>
</svg>
