<?xml version="1.0" encoding="UTF-8"?>
<svg xmlns="http://www.w3.org/2000/svg" height="250" width="250">
  <g fill="none" fill-rule="evenodd" transform="translate(50 49)">
    <path d="m0 0h150v150h-150z"></path>
    <g fill="#0d6efd" fill-rule="nonzero">
      <path d="m133.595 0h-116.19c-7.403 0-13.405 5.988-13.405 13.375v80.25c0 7.387 6.002 13.375 13.405 13.375h116.19c7.403 0 13.405-5.988 13.405-13.375v-80.25c0-7.387-6.002-13.375-13.405-13.375zm8.937 91.643-42.268-42.173 42.268-26.874zm-125.127-87.185h116.19c4.928 0 8.937 4 8.937 8.917v3.938l-61.519 39.115a9.861 9.861 0 0 1 -10.834-.157l-61.71-41.85v-1.046c0-4.917 4.008-8.917 8.936-8.917zm-8.937 15.349 42.864 29.068-42.864 42.768zm125.127 82.735h-116.19c-3.68 0-6.845-2.234-8.213-5.413l45.844-45.742 12.634 8.568a14.346 14.346 0 0 0 15.742.23l13.052-8.299 45.344 45.243c-1.368 3.179-4.532 5.413-8.213 5.413z"></path>
      <text font-family="LucidaGrande-Bold, Lucida Grande" font-size="38" font-weight="bold">
        <tspan x="23" y="144">SMTP</tspan>
      </text>
    </g>
  </g>
</svg>
