<?xml version="1.0" encoding="UTF-8"?>
<svg id="logosandtypes_com" data-name="logosandtypes com" xmlns="http://www.w3.org/2000/svg" viewBox="0 0 150 150">
  <defs>
    <style>
      .cls-1 {
        fill: none;
      }

      .cls-2 {
        fill: #018ffa;
        fill-rule: evenodd;
      }
    </style>
  </defs>
  <path class="cls-1" d="M0,0H150V150H0V0Z"/>
  <g>
    <path class="cls-2" d="M75.78,7.82C38.74,7.82,8.71,37.84,8.71,74.88c0,7.57,1.25,14.84,3.56,21.63,5.97-5.39,13.87-8.67,22.54-8.67,6.17,0,11.96,1.67,16.94,4.58,9.79,5.71,10.91,13.81,17.29,17.53,5.01,3.07,12.2,2.08,16.18-2.11,5.18-4.98,5.18-13.93,0-18.91-7.63-7.63-19.64-.16-33.24-13.77-6.09-6.09-9.86-14.5-9.86-23.79s3.77-17.7,9.86-23.79c6.09-6.09,14.5-9.86,23.79-9.86,6.17,0,11.96,1.67,16.95,4.58,5.1,2.98,9.36,7.32,12.33,12.57,4.32,7.63,15,9.1,21.14,2.86,1.1-1.1,2.01-2.4,2.68-3.83-12.27-15.87-31.49-26.09-53.09-26.09h0Z"/>
    <path class="cls-2" d="M99.57,74.6c6.09,6.09,9.86,14.5,9.86,23.79s-3.77,17.7-9.86,23.79c-6.09,6.09-14.5,9.86-23.79,9.86-6.17,0-11.96-1.67-16.94-4.58-5.1-2.98-9.36-7.32-12.33-12.57-4.32-7.63-15-9.1-21.14-2.86-1.1,1.1-2.01,2.4-2.68,3.83,12.27,15.87,31.49,26.09,53.09,26.09,37.04,0,67.07-30.03,67.07-67.07,0-7.57-1.25-14.84-3.56-21.63-5.97,5.39-13.87,8.67-22.54,8.67-6.17,0-11.96-1.67-16.95-4.58-9.79-5.72-10.91-13.81-17.29-17.53-5.01-3.07-12.2-2.08-16.18,2.11-5.18,4.98-5.18,13.93,0,18.91,7.63,7.63,19.64,.17,33.24,13.77h0Z"/>
  </g>
</svg>