<?xml version="1.0" encoding="UTF-8"?>
<svg id="Calque_1" data-name="Calque 1" xmlns="http://www.w3.org/2000/svg" viewBox="30 190 970 350">
  <defs>
    <style>
      .cls-1 {
        fill: #000;
      }
    </style>
  </defs>
  <path class="cls-1" d="M419.5,204.19c-1.29,3.33-.04,8.41-.37,14.31l.15,346.75c5.67,1.22,10.11,1.05,15.93.1,0,0-.48-346.02-2.03-362.2-4.84-2.03-12.67-1.57-13.69,1.04Z"/>
  <polygon class="cls-1" points="209.53 462.86 254.85 462.43 254.73 350.49 209.53 350.51 209.53 462.86"/>
  <polygon class="cls-1" points="87.02 462.86 132.34 462.43 132.22 350.49 87.02 350.51 87.02 462.86"/>
  <path class="cls-1" d="M271.2,463.02l44.98-.18s-.52-107.38-.92-112.3l-44.49-.02s-.15,105.91.42,112.51Z"/>
  <path class="cls-1" d="M148.1,462.62l16.59.05c9.08.03,17.84.87,28.86.09l-.15-112.33-44.81-.03c-.82,4.99-.5,112.22-.5,112.22Z"/>
  <path class="cls-1" d="M351.43,498.84c-.52-6.92-6.85-11.27-10.07-19.1l-4.28-10.4-271.41.51c-5.03,0-6.13,12.22-6.9,15.67-7.12,3.27-9.32,10.91-13.59,19.19-.37.52-.69,1-.98,1.47-2.51,3.12-6.95,5.7-5.15,11.52l321.8-.18c2.2-8.38-3.83-12.94-9.41-18.66Z"/>
  <path class="cls-1" d="M73.31,341.07h252.34l.04-.16h8.25v-29.65l.04-.15-.04-.02v-.79h-1.3l-119.97-72.35-16.2-.27-130.06,72.62h-1.72v30.61h8.58l.04.16ZM204.03,270.43l63.62,38.37h-132.33l68.71-38.37Z"/>
  <path class="cls-1" d="M535.25,349.32h9.6l-23.75-69.61h-10.85l-23.65,69.61h9.3l7.23-21.89h24.68l7.44,21.89ZM504.98,320.4l6.82-20.14c1.34-4.23,2.48-8.47,3.51-12.6h.21c1.03,4.03,2.06,8.16,3.61,12.7l6.82,20.04h-20.97Z"/>
  <path class="cls-1" d="M555.81,333.52c0,5.89.93,10.33,3.51,13.01,2.17,2.48,5.58,3.82,9.81,3.82,3.51,0,6.3-.52,8.06-1.24l-.41-6.81c-1.14.31-2.89.62-5.27.62-5.06,0-6.82-3.51-6.82-9.71v-26.96h13.02v-6.92h-13.02v-14.35l-8.88,2.38v11.98h-7.74v6.92h7.74v27.27Z"/>
  <path class="cls-1" d="M621.39,320.61v28.71h9.09v-29.74c0-17.25-10.74-21.38-17.45-21.38-3.41,0-6.61,1.03-9.3,2.58-2.79,1.55-5.06,3.82-6.51,6.41h-.21v-31.19h-9.09v73.33h9.09v-30.16c0-1.76.1-3.1.62-4.34,1.65-4.96,6.3-9.09,12.19-9.09,8.57,0,11.57,6.81,11.57,14.87Z"/>
  <path class="cls-1" d="M667.46,343.33c-9.09,0-16.94-5.06-17.14-17.35h35.12c.1-.93.31-2.38.31-4.23,0-9.19-4.34-23.55-20.66-23.55-14.56,0-23.45,11.88-23.45,26.96s9.19,25.2,24.58,25.2c7.95,0,13.43-1.65,16.63-3.1l-1.55-6.51c-3.41,1.45-7.33,2.58-13.84,2.58ZM664.36,304.7c10.22,0,12.7,8.99,12.6,14.77h-26.54c.72-6.3,4.75-14.77,13.95-14.77Z"/>
  <path class="cls-1" d="M730.46,349.32h9.09v-29.85c0-17.14-10.74-21.28-17.66-21.28-8.26,0-14.05,4.65-16.52,9.4h-.21l-.51-8.26h-8.06c.31,4.13.41,8.37.41,13.53v36.46h9.09v-30.06c0-1.55.21-3.1.62-4.23,1.55-5.06,6.2-9.3,12.19-9.3,8.57,0,11.57,6.71,11.57,14.77v28.82Z"/>
  <path class="cls-1" d="M789.44,337.34v-18.69c0-10.02-3.72-20.45-19-20.45-6.3,0-12.29,1.76-16.42,4.44l2.06,5.99c3.51-2.27,8.37-3.72,13.01-3.72,10.23,0,11.36,7.44,11.36,11.57v1.03c-19.32-.1-30.06,6.51-30.06,18.59,0,7.23,5.16,14.35,15.28,14.35,7.13,0,12.5-3.51,15.28-7.44h.31l.72,6.3h8.26c-.62-3.41-.83-7.64-.83-11.98ZM780.66,332.49c0,.93-.2,1.96-.52,2.89-1.44,4.23-5.58,8.37-12.08,8.37-4.65,0-8.57-2.79-8.57-8.68,0-9.71,11.26-11.46,21.17-11.26v8.67Z"/>
  <rect class="cls-1" x="491.87" y="415.28" width="8.99" height="69.61"/>
  <path class="cls-1" d="M542.17,433.77c-8.26,0-14.05,4.65-16.52,9.4h-.21l-.51-8.26h-8.06c.31,4.13.41,8.37.41,13.53v36.46h9.09v-30.06c0-1.55.21-3.1.62-4.23,1.55-5.06,6.2-9.3,12.19-9.3,8.57,0,11.57,6.71,11.57,14.77v28.82h9.09v-29.85c0-17.14-10.74-21.28-17.66-21.28Z"/>
  <path class="cls-1" d="M585.13,420.55l-8.88,2.38v11.98h-7.74v6.92h7.74v27.27c0,5.89.93,10.33,3.51,13.01,2.17,2.48,5.58,3.82,9.81,3.82,3.51,0,6.3-.52,8.06-1.24l-.41-6.81c-1.14.31-2.89.62-5.27.62-5.06,0-6.82-3.51-6.82-9.71v-26.96h13.02v-6.92h-13.02v-14.35Z"/>
  <path class="cls-1" d="M627.59,433.77c-14.56,0-23.45,11.88-23.45,26.96s9.19,25.2,24.58,25.2c7.95,0,13.43-1.65,16.63-3.1l-1.55-6.51c-3.41,1.45-7.33,2.58-13.84,2.58-9.09,0-16.94-5.06-17.14-17.35h35.12c.1-.93.31-2.38.31-4.23,0-9.19-4.34-23.55-20.66-23.55ZM612.92,455.04c.72-6.3,4.75-14.77,13.95-14.77,10.22,0,12.7,8.99,12.6,14.77h-26.54Z"/>
  <rect class="cls-1" x="659.5" y="411.56" width="9.09" height="73.33"/>
  <rect class="cls-1" x="683.88" y="411.56" width="9.09" height="73.33"/>
  <rect class="cls-1" x="708.25" y="434.9" width="9.09" height="49.99"/>
  <path class="cls-1" d="M712.8,415.17c-3.31,0-5.68,2.48-5.68,5.68s2.27,5.58,5.48,5.58c3.62,0,5.89-2.48,5.78-5.58,0-3.2-2.17-5.68-5.58-5.68Z"/>
  <path class="cls-1" d="M767.13,442.44h-.2c-2.17-4.13-6.92-8.67-15.6-8.67-11.46,0-22.52,9.6-22.52,26.54,0,13.84,8.88,24.37,21.28,24.37,7.74,0,13.12-3.72,15.91-8.37h.2v5.58c0,12.6-6.81,17.45-16.11,17.45-6.2,0-11.36-1.86-14.67-3.92l-2.27,6.92c4.03,2.69,10.64,4.13,16.63,4.13,6.3,0,13.32-1.45,18.18-5.99,4.85-4.34,7.13-11.36,7.13-22.83v-29.02c0-6.09.21-10.12.41-13.74h-7.95l-.41,7.54ZM766.09,463.61c0,1.55-.2,3.31-.72,4.85-1.96,5.78-7.02,9.3-12.6,9.3-9.81,0-14.77-8.16-14.77-17.97,0-11.57,6.2-18.9,14.87-18.9,6.61,0,11.05,4.34,12.71,9.6.41,1.24.51,2.58.51,4.13v8.98Z"/>
  <path class="cls-1" d="M809.99,433.77c-14.56,0-23.45,11.88-23.45,26.96s9.19,25.2,24.58,25.2c7.95,0,13.43-1.65,16.63-3.1l-1.55-6.51c-3.41,1.45-7.33,2.58-13.84,2.58-9.09,0-16.94-5.06-17.15-17.35h35.12c.1-.93.31-2.38.31-4.23,0-9.19-4.34-23.55-20.66-23.55ZM795.32,455.04c.72-6.3,4.75-14.77,13.95-14.77,10.22,0,12.7,8.99,12.6,14.77h-26.54Z"/>
  <path class="cls-1" d="M866.8,433.77c-8.26,0-14.05,4.65-16.52,9.4h-.21l-.51-8.26h-8.06c.31,4.13.41,8.37.41,13.53v36.46h9.09v-30.06c0-1.55.21-3.1.62-4.23,1.55-5.06,6.2-9.3,12.19-9.3,8.57,0,11.57,6.71,11.57,14.77v28.82h9.09v-29.85c0-17.14-10.74-21.28-17.66-21.28Z"/>
  <path class="cls-1" d="M922.47,441.1c4.96,0,8.37,1.14,10.53,2.38l2.07-7.02c-2.48-1.24-7.23-2.58-12.6-2.58-16.32,0-26.85,11.15-26.85,26.54s9.81,25.51,24.89,25.51c6.71,0,11.98-1.65,14.35-2.89l-1.55-6.81c-2.58,1.13-5.99,2.48-11.16,2.48-9.92,0-17.35-7.13-17.35-18.7,0-10.43,6.2-18.9,17.66-18.9Z"/>
  <path class="cls-1" d="M985.38,457.31c0-9.19-4.34-23.55-20.66-23.55-14.56,0-23.45,11.88-23.45,26.96s9.19,25.2,24.58,25.2c7.95,0,13.43-1.65,16.63-3.1l-1.55-6.51c-3.41,1.45-7.33,2.58-13.84,2.58-9.09,0-16.94-5.06-17.14-17.35h35.12c.1-.93.31-2.38.31-4.23ZM950.05,455.04c.72-6.3,4.75-14.77,13.95-14.77,10.22,0,12.7,8.99,12.6,14.77h-26.54Z"/>
</svg>