<?xml version="1.0" standalone="no"?>
<!DOCTYPE svg PUBLIC "-//W3C//DTD SVG 20010904//EN"
 "http://www.w3.org/TR/2001/REC-SVG-20010904/DTD/svg10.dtd">
<svg version="1.0" xmlns="http://www.w3.org/2000/svg"
 width="3874.000000pt" height="1144.000000pt" viewBox="300 200 3400 750"
 preserveAspectRatio="xMidYMid meet">

<g transform="translate(0.000000,1144.000000) scale(0.100000,-0.100000)"
fill="#000000" stroke="none">
<path d="M32730 8293 c-379 -22 -811 -101 -1109 -205 -376 -130 -685 -375
-844 -668 -135 -248 -172 -610 -96 -915 122 -479 498 -808 1106 -965 217 -57
311 -69 1178 -150 1151 -109 1318 -145 1499 -325 106 -105 155 -242 141 -395
-29 -335 -292 -516 -845 -585 -676 -83 -1502 2 -2141 221 -156 54 -223 81
-414 168 -111 51 -171 59 -232 30 -49 -24 -427 -491 -441 -546 -15 -57 1 -100
51 -143 56 -48 401 -218 607 -298 650 -255 1325 -371 2050 -354 590 15 1049
95 1440 252 234 94 406 201 551 344 192 189 300 412 350 716 20 121 17 420 -5
529 -53 267 -147 448 -325 627 -237 236 -594 399 -1096 498 -157 31 -268 44
-1106 135 -432 47 -822 93 -868 101 -273 52 -440 136 -506 256 -30 53 -30 56
-30 204 l0 150 34 63 c46 84 114 142 236 202 395 194 1275 212 2089 43 327
-67 594 -154 849 -275 168 -80 213 -90 278 -61 50 22 85 60 296 323 148 184
171 227 159 293 -11 58 -71 101 -290 208 -618 300 -1258 471 -1946 519 -132 9
-485 11 -620 3z"/>
<path d="M5540 8283 c-691 -38 -1294 -196 -1917 -504 -234 -115 -267 -139
-279 -205 -13 -70 9 -108 207 -356 158 -197 197 -240 235 -258 71 -35 125 -25
276 49 460 223 977 339 1664 373 456 22 865 -26 1129 -131 216 -87 360 -228
394 -389 7 -33 11 -174 11 -374 0 -301 -1 -320 -17 -313 -157 63 -292 98 -449
115 -79 8 -410 10 -1204 8 -1069 -4 -1097 -5 -1192 -25 -647 -142 -1116 -612
-1245 -1250 -28 -136 -25 -463 5 -599 33 -151 66 -246 137 -389 230 -466 667
-780 1192 -857 68 -10 337 -13 1178 -13 1168 0 1157 0 1360 52 519 134 936
528 1098 1038 75 237 72 170 72 1500 l0 1190 -23 105 c-53 240 -151 417 -328
593 -232 229 -498 372 -904 486 -426 120 -960 178 -1400 154z m1294 -2883
c218 -56 397 -224 472 -445 36 -105 44 -267 20 -377 -44 -199 -179 -374 -357
-464 -146 -73 -67 -69 -1309 -69 l-1115 0 -75 23 c-209 65 -379 231 -450 438
-112 325 40 697 347 849 131 66 87 63 1294 64 1059 1 1098 0 1173 -19z"/>
<path d="M9050 8279 c-106 -13 -140 -27 -176 -75 l-29 -37 0 -363 c0 -352 1
-363 21 -391 49 -66 62 -69 291 -76 634 -20 1209 -154 1643 -383 193 -102 489
-308 725 -505 200 -168 622 -601 684 -704 14 -22 10 -28 -84 -142 -122 -145
-410 -435 -565 -567 -146 -125 -381 -301 -535 -402 -483 -316 -1115 -492
-1835 -513 -221 -6 -237 -8 -272 -29 -21 -13 -45 -40 -57 -66 -20 -40 -21 -59
-21 -377 0 -327 0 -336 23 -379 28 -57 64 -77 163 -91 115 -17 453 -14 619 5
758 90 1528 421 2260 973 247 186 438 354 707 622 l246 246 214 -216 c527
-532 1030 -905 1609 -1193 488 -244 950 -384 1439 -437 145 -15 469 -16 575 0
86 12 117 28 153 81 22 33 22 36 22 390 0 354 0 357 -22 390 -50 73 -53 74
-321 82 -441 12 -834 80 -1200 204 -319 109 -578 251 -902 494 -311 234 -670
578 -897 860 l-37 46 55 69 c281 353 723 749 1147 1026 485 318 1113 491 1865
516 225 7 248 13 290 73 22 33 22 36 22 394 l0 361 -24 36 c-14 20 -40 43 -58
52 -87 41 -488 47 -753 12 -1037 -137 -2049 -693 -2983 -1638 l-192 -196 -233
232 c-348 348 -657 604 -1017 842 -641 425 -1261 670 -1925 760 -145 20 -517
28 -635 14z"/>
<path d="M17720 8267 c-25 -13 -51 -37 -61 -57 -18 -34 -19 -117 -19 -2486 l0
-2451 23 -33 c12 -19 38 -43 57 -54 34 -20 50 -21 415 -21 365 0 381 1 415 21
48 28 78 75 85 137 3 29 5 1132 3 2452 l-3 2400 -24 39 c-46 74 -56 76 -477
76 -367 0 -371 0 -414 -23z"/>
<path d="M21645 8283 c-697 -40 -1300 -198 -1915 -501 -209 -103 -264 -143
-280 -202 -19 -71 2 -108 197 -351 194 -241 213 -262 256 -278 64 -24 118 -14
238 45 497 244 1048 365 1784 390 294 9 590 -16 821 -71 270 -64 447 -163 541
-303 71 -105 73 -121 73 -502 l0 -337 -127 43 c-251 83 -181 79 -1468 79
-1247 0 -1194 2 -1407 -59 -506 -147 -918 -559 -1063 -1063 -98 -341 -80 -695
50 -1024 181 -456 569 -800 1049 -930 195 -52 169 -51 1261 -56 1075 -5 1235
0 1412 38 644 140 1133 668 1222 1322 7 52 11 469 11 1230 0 1252 0 1240 -56
1419 -55 173 -143 316 -284 459 -213 216 -442 349 -800 464 -440 141 -1042
216 -1515 188z m1278 -2878 c235 -50 436 -248 503 -495 23 -88 24 -263 1 -350
-50 -192 -189 -366 -357 -447 -148 -72 -75 -68 -1305 -68 -1237 0 -1158 -4
-1304 69 -179 91 -315 268 -357 467 -24 111 -15 271 20 374 74 219 253 388
468 445 70 18 123 19 1168 19 917 1 1106 -2 1163 -14z"/>
<path d="M27120 8284 c-393 -26 -581 -49 -787 -94 -644 -141 -1080 -488 -1248
-993 -76 -228 -70 -60 -70 -2092 l0 -1820 22 -35 c12 -19 37 -44 55 -55 31
-19 51 -20 388 -20 337 0 357 1 389 20 19 11 43 33 55 48 l21 28 5 1797 5
1797 31 65 c91 191 309 319 639 375 465 79 1450 68 1836 -19 273 -62 463 -186
542 -353 l32 -68 5 -1797 5 -1797 21 -28 c12 -15 36 -37 55 -48 32 -19 52 -20
390 -20 l355 0 41 27 c80 53 74 -111 70 1933 l-3 1820 -21 86 c-115 462 -377
779 -819 991 -258 124 -587 199 -1044 239 -121 10 -860 20 -970 13z"/>
</g>
</svg>
