<svg width="212" height="29" viewBox="0 0 212 29" fill="none" xmlns="http://www.w3.org/2000/svg">
<g clip-path="url(#clip0_832_11)">
<path d="M64.9 3H68.9V23.4H64.9V3ZM71.4 16.9C71.4 15.9 71.6 14.9 72 14.1C72.4 13.3 72.9 12.5 73.6 11.9C74.3 11.3 75 10.8 75.9 10.5C76.8 10.2 77.7 10 78.7 10C79.7 10 80.7 10.2 81.5 10.5C82.4 10.8 83.2 11.3 83.8 11.9C84.4 12.5 85 13.2 85.4 14.1C85.8 14.9 86 15.9 86 16.9C86 17.9 85.8 18.9 85.4 19.7C85 20.5 84.5 21.3 83.8 21.9C83.1 22.5 82.4 23 81.5 23.3C80.6 23.6 79.7 23.8 78.7 23.8C77.7 23.8 76.7 23.6 75.9 23.3C75.1 23 74.2 22.5 73.6 21.9C73 21.3 72.4 20.6 72 19.7C71.6 18.8 71.4 17.9 71.4 16.9ZM75.5 16.9C75.5 17.9 75.8 18.7 76.4 19.3C77 19.9 77.8 20.2 78.8 20.2C79.8 20.2 80.6 19.9 81.2 19.3C81.8 18.7 82.1 17.9 82.1 16.9C82.1 15.9 81.8 15.1 81.2 14.5C80.6 13.9 79.8 13.6 78.8 13.6C77.8 13.6 77 13.9 76.4 14.5C75.8 15.1 75.5 15.9 75.5 16.9ZM87.9 16.9C87.9 15.9 88.1 14.9 88.5 14.1C88.9 13.3 89.4 12.5 90.1 11.9C90.8 11.3 91.5 10.8 92.4 10.5C93.3 10.2 94.2 10 95.2 10C96.2 10 97.2 10.2 98 10.5C98.9 10.8 99.7 11.3 100.3 11.9C101 12.5 101.5 13.2 101.9 14.1C102.3 14.9 102.5 15.9 102.5 16.9C102.5 17.9 102.3 18.9 101.9 19.7C101.5 20.5 101 21.3 100.3 21.9C99.6 22.5 98.9 23 98 23.3C97.1 23.6 96.2 23.8 95.2 23.8C94.2 23.8 93.2 23.6 92.4 23.3C91.6 23 90.7 22.5 90.1 21.9C89.5 21.3 88.9 20.6 88.5 19.7C88.1 18.9 87.9 17.9 87.9 16.9ZM91.9 16.9C91.9 17.9 92.2 18.7 92.8 19.3C93.4 19.9 94.2 20.2 95.2 20.2C96.2 20.2 97 19.9 97.6 19.3C98.2 18.7 98.5 17.9 98.5 16.9C98.5 15.9 98.2 15.1 97.6 14.5C97 13.9 96.2 13.6 95.2 13.6C94.2 13.6 93.4 13.9 92.8 14.5C92.2 15.1 91.9 15.9 91.9 16.9ZM104.8 10.3H108.7V12.1H108.8C108.9 11.8 109.1 11.6 109.3 11.3C109.5 11 109.8 10.8 110.1 10.6C110.4 10.4 110.8 10.2 111.2 10.1C111.6 10 112.1 9.9 112.5 9.9C113.4 9.9 114.2 10.1 114.9 10.5C115.6 10.9 116.1 11.5 116.5 12.3C117 11.5 117.5 10.9 118.2 10.5C118.9 10.1 119.7 10 120.7 10C121.6 10 122.3 10.1 122.9 10.4C123.5 10.7 124 11.1 124.3 11.6C124.7 12.1 124.9 12.7 125.1 13.4C125.3 14.1 125.3 14.8 125.3 15.6V23.3H121.3V15.7C121.3 15.1 121.2 14.6 120.9 14.1C120.6 13.7 120.2 13.4 119.5 13.4C119 13.4 118.6 13.5 118.3 13.6C118 13.7 117.7 14 117.5 14.2C117.3 14.5 117.2 14.8 117.1 15.1C117 15.4 117 15.8 117 16.2V23.1H113V16.2C113 16 113 15.7 113 15.3C113 14.9 112.9 14.6 112.8 14.3C112.7 14 112.5 13.7 112.3 13.5C112.1 13.3 111.7 13.2 111.2 13.2C110.7 13.2 110.3 13.3 109.9 13.5C109.5 13.7 109.3 13.9 109.2 14.3C109 14.6 108.9 15 108.9 15.4C108.8 15.8 108.8 16.2 108.8 16.6V23.1H104.8V10.3ZM152.3 10.3H156.3V12.4H156.4C156.8 11.6 157.3 11 157.9 10.6C158.5 10.2 159.2 10 160.1 10C160.3 10 160.6 10 160.8 10C161 10 161.2 10.1 161.4 10.1V13.8C161.1 13.7 160.8 13.6 160.5 13.6C160.2 13.6 159.9 13.5 159.6 13.5C158.8 13.5 158.2 13.6 157.8 13.8C157.4 14 157 14.3 156.8 14.7C156.6 15.1 156.4 15.6 156.3 16.1C156.2 16.6 156.2 17.2 156.2 17.9V23.4H152.2V10.3H152.3ZM175.2 21.2C174.6 22 173.7 22.7 172.7 23.1C171.7 23.5 170.7 23.8 169.6 23.8C168.6 23.8 167.6 23.6 166.8 23.3C165.9 23 165.1 22.5 164.5 21.9C163.8 21.3 163.3 20.6 162.9 19.7C162.5 18.8 162.3 17.9 162.3 16.9C162.3 15.9 162.5 14.9 162.9 14.1C163.3 13.3 163.8 12.5 164.5 11.9C165.2 11.3 165.9 10.8 166.8 10.5C167.7 10.2 168.6 10 169.6 10C170.5 10 171.4 10.2 172.2 10.5C173 10.8 173.6 11.3 174.1 11.9C174.6 12.5 175 13.2 175.3 14.1C175.6 14.9 175.7 15.9 175.7 16.9V18.2H166.3C166.5 19 166.8 19.6 167.4 20C167.9 20.5 168.6 20.7 169.4 20.7C170.1 20.7 170.6 20.6 171.1 20.3C171.6 20 172 19.6 172.3 19.2L175.2 21.2ZM171.8 15.4C171.8 14.7 171.6 14.1 171.1 13.6C170.6 13.1 170 12.9 169.3 12.9C168.9 12.9 168.5 13 168.1 13.1C167.8 13.2 167.5 13.4 167.2 13.7C167 13.9 166.8 14.2 166.6 14.5C166.5 14.8 166.4 15.1 166.4 15.4H171.8ZM192.1 23.4H188.4V21.7H188.3C188.1 21.9 187.9 22.2 187.7 22.4C187.4 22.6 187.1 22.9 186.8 23.1C186.5 23.3 186.1 23.5 185.6 23.6C185.2 23.7 184.7 23.8 184.3 23.8C183.3 23.8 182.4 23.6 181.7 23.3C180.9 23 180.2 22.5 179.7 21.9C179.2 21.3 178.7 20.6 178.4 19.8C178.1 19 177.9 18.1 177.9 17.1C177.9 16.2 178 15.3 178.3 14.5C178.6 13.7 179 12.9 179.5 12.3C180 11.7 180.6 11.1 181.4 10.7C182.1 10.3 183 10.1 183.9 10.1C184.7 10.1 185.5 10.2 186.3 10.5C187.1 10.8 187.6 11.2 188.1 11.8H188.2V3H192.2V23.4H192.1ZM188.3 16.9C188.3 15.9 188 15.1 187.4 14.5C186.8 13.9 186 13.6 185 13.6C184 13.6 183.2 13.9 182.6 14.5C182 15.1 181.7 15.9 181.7 16.9C181.7 17.9 182 18.7 182.6 19.3C183.2 19.9 184 20.2 185 20.2C186 20.2 186.8 19.9 187.4 19.3C188 18.7 188.3 17.9 188.3 16.9ZM195.4 10.3H199.4V23.4H195.4V10.3ZM195 6.2C195 5.6 195.2 5 195.7 4.5C196.2 4 196.7 3.8 197.4 3.8C198.1 3.8 198.6 4 199.1 4.5C199.6 5 199.8 5.5 199.8 6.2C199.8 6.9 199.6 7.4 199.1 7.9C198.6 8.4 198.1 8.6 197.4 8.6C196.7 8.6 196.2 8.4 195.7 7.9C195.3 7.4 195 6.9 195 6.2ZM211.3 13.6H207.7V18C207.7 18.4 207.7 18.7 207.8 19C207.9 19.3 207.9 19.6 208 19.8C208.1 20 208.3 20.2 208.6 20.3C208.9 20.4 209.2 20.5 209.6 20.5C209.8 20.5 210.1 20.5 210.5 20.4C210.9 20.4 211.1 20.3 211.3 20.1V23.5C210.9 23.7 210.4 23.8 209.9 23.8C209.4 23.8 208.9 23.9 208.5 23.9C207.8 23.9 207.2 23.8 206.6 23.7C206 23.6 205.5 23.3 205.1 23C204.7 22.7 204.3 22.3 204.1 21.8C203.9 21.3 203.7 20.7 203.7 20V13.8H201.1V10.6H203.7V6.4H207.7V10.3H211.3V13.6Z" fill="white"/>
<path d="M134.3 9.69995C135.1 8.29995 136.2 7.19995 137.6 6.39995C139 5.59995 140.6 5.19995 142.3 5.19995C144.5 5.19995 146.3 5.79995 147.9 6.89995C149.5 7.99995 150.5 9.59995 151 11.6H146.1C145.7 10.8 145.2 10.3 144.6 9.89995C143.9 9.49995 143.2 9.29995 142.3 9.29995C140.9 9.29995 139.8 9.79995 139 10.7C138.2 11.7 137.7 12.9 137.7 14.5C137.7 16.1 138.1 17.4 139 18.3C139.8 19.3 141 19.7 142.3 19.7C143.1 19.7 143.9 19.5 144.6 19.1C145.3 18.7 145.8 18.1 146.1 17.4H151C150.5 19.4 149.4 20.9 147.9 22.1C146.4 23.2 144.5 23.7999 142.3 23.7999C140.5 23.7999 139 23.4 137.6 22.6C136.2 21.8 135.1 20.7 134.3 19.3C133.5 17.9 133.1 16.3 133.1 14.5C133.1 12.7 133.5 11.1 134.3 9.69995Z" fill="white"/>
<path d="M61.4 14.9999C62.1 15.8999 62.5 16.9999 62.5 18.1999C62.5 19.2999 62.2 20.2999 61.7 21.0999C61.2 21.8999 60.4 22.5999 59.4 22.9999C58.4 23.4999 57.2 23.6999 55.8 23.6999H47V3.3999H55.4C56.8 3.3999 58 3.5999 59 3.9999C60 4.3999 60.8 5.0999 61.3 5.8999C61.8 6.6999 62 7.5999 62 8.5999C62 9.7999 61.7 10.7999 61 11.5999C60.4 12.3999 59.5 12.9999 58.5 13.2999C59.7 13.4999 60.7 14.0999 61.4 14.9999ZM51.1 11.7999H54.8C55.8 11.7999 56.5 11.5999 57.1 11.0999C57.6 10.6999 57.9 9.9999 57.9 9.1999C57.9 8.3999 57.6 7.6999 57.1 7.2999C56.6 6.8999 55.8 6.5999 54.8 6.5999H51.1V11.7999ZM57.5 19.7999C58.1 19.2999 58.3 18.6999 58.3 17.7999C58.3 16.8999 58 16.1999 57.4 15.6999C56.8 15.1999 56 14.9999 55 14.9999H51V20.4999H55.1C56.2 20.4999 57 20.1999 57.5 19.7999Z" fill="white"/>
<path d="M8.20005 25.7C10.5 28.3 14.6 29 17.7001 26.3C20.7001 23.6 20.2 18.8 17.8 16.1C15.3 13.3 10.6 11 0.300049 16.6C5.50005 19.5 5.90005 23.1 8.20005 25.7Z" fill="#1581E6"/>
<path d="M21.9 9.10002C19.9 12 19.9001 16.8 22.7001 19.6C25.3001 22.6 28.5 22.3 30.5 19.4C32.7001 16.4 33.2001 12.3 38.5 8.50002C28.8 3.00002 24 6.00002 21.9 9.10002Z" fill="#1581E6"/>
<path d="M12.9 11.3C15.3 12.4 17.8 11.2 18.9 8.30002C20.3 5.70002 18.9 3.00002 16.4 1.60002C13.7 -0.0999835 8.90005 -1.69998 3.10005 5.30002C8.50005 6.90002 10.3 9.90002 12.9 11.3Z" fill="#1581E6"/>
</g>
<defs>
<clipPath id="clip0_832_11">
<rect width="211.4" height="28.1" fill="white"/>
</clipPath>
</defs>
</svg>
