<?xml version="1.0" encoding="UTF-8"?> <svg xmlns="http://www.w3.org/2000/svg" xmlns:xlink="http://www.w3.org/1999/xlink" version="1.1" x="0px" y="0px" viewBox="0 0 211 27.8" style="enable-background:new 0 0 211 27.8;" xml:space="preserve"> <style type="text/css"> .st0{fill-rule:evenodd;clip-rule:evenodd;fill:#3C7CBE;} .st1{fill:#3C7CBE;} </style> <g id="Layer_1"> </g> <g id="Layer_2"> <g> <path id="Combined-Shape-Copy-2_00000168093866356742324400000010613095767488145081_" class="st0" d="M64.7,2.9h4v20.4h-4V2.9z M71.2,16.8c0-1,0.2-2,0.6-2.8c0.4-0.8,0.9-1.6,1.6-2.2s1.4-1.1,2.3-1.4c0.9-0.3,1.8-0.5,2.8-0.5s2,0.2,2.8,0.5 c0.9,0.3,1.7,0.8,2.3,1.4s1.2,1.3,1.6,2.2c0.4,0.8,0.6,1.8,0.6,2.8s-0.2,2-0.6,2.8c-0.4,0.8-0.9,1.6-1.6,2.2s-1.4,1.1-2.3,1.4 c-0.9,0.3-1.8,0.5-2.8,0.5s-2-0.2-2.8-0.5s-1.7-0.8-2.3-1.4s-1.2-1.3-1.6-2.2S71.2,17.8,71.2,16.8z M75.2,16.8 c0,1,0.3,1.8,0.9,2.4s1.4,0.9,2.4,0.9s1.8-0.3,2.4-0.9c0.6-0.6,0.9-1.4,0.9-2.4s-0.3-1.8-0.9-2.4c-0.6-0.6-1.4-0.9-2.4-0.9 s-1.8,0.3-2.4,0.9C75.5,15,75.2,15.8,75.2,16.8z M87.6,16.8c0-1,0.2-2,0.6-2.8c0.4-0.8,0.9-1.6,1.6-2.2s1.4-1.1,2.3-1.4 c0.9-0.3,1.8-0.5,2.8-0.5s2,0.2,2.8,0.5c0.9,0.3,1.7,0.8,2.3,1.4c0.7,0.6,1.2,1.3,1.6,2.2c0.4,0.8,0.6,1.8,0.6,2.8s-0.2,2-0.6,2.8 c-0.4,0.8-0.9,1.6-1.6,2.2c-0.7,0.6-1.4,1.1-2.3,1.4s-1.8,0.5-2.8,0.5s-2-0.2-2.8-0.5s-1.7-0.8-2.3-1.4s-1.2-1.3-1.6-2.2 C87.8,18.8,87.6,17.8,87.6,16.8z M91.7,16.8c0,1,0.3,1.8,0.9,2.4c0.6,0.6,1.4,0.9,2.4,0.9c1,0,1.8-0.3,2.4-0.9s0.9-1.4,0.9-2.4 s-0.3-1.8-0.9-2.4c-0.6-0.6-1.4-0.9-2.4-0.9c-1,0-1.8,0.3-2.4,0.9C92,15,91.7,15.8,91.7,16.8z M104.6,10.2h3.9V12h0.1 c0.1-0.3,0.3-0.5,0.5-0.8c0.2-0.3,0.5-0.5,0.8-0.7c0.3-0.2,0.7-0.4,1.1-0.5c0.4-0.1,0.9-0.2,1.3-0.2c0.9,0,1.7,0.2,2.4,0.6 c0.7,0.4,1.2,1,1.6,1.8c0.5-0.8,1-1.4,1.7-1.8s1.5-0.5,2.5-0.5c0.9,0,1.6,0.1,2.2,0.4c0.6,0.3,1.1,0.7,1.4,1.2 c0.4,0.5,0.6,1.1,0.8,1.8c0.2,0.7,0.2,1.4,0.2,2.2v7.7h-4v-7.6c0-0.6-0.1-1.1-0.4-1.6c-0.3-0.4-0.7-0.7-1.4-0.7 c-0.5,0-0.9,0.1-1.2,0.2s-0.6,0.4-0.8,0.6c-0.2,0.3-0.3,0.6-0.4,0.9s-0.1,0.7-0.1,1.1v6.9h-4v-6.9c0-0.2,0-0.5,0-0.9 s-0.1-0.7-0.2-1c-0.1-0.3-0.3-0.6-0.5-0.8c-0.2-0.2-0.6-0.3-1.1-0.3c-0.5,0-0.9,0.1-1.3,0.3s-0.6,0.4-0.7,0.8 c-0.2,0.3-0.3,0.7-0.3,1.1c-0.1,0.4-0.1,0.8-0.1,1.2v6.5h-4V10.2z M152.1,10.2h4v2.1h0.1c0.4-0.8,0.9-1.4,1.5-1.8 c0.6-0.4,1.3-0.6,2.2-0.6c0.2,0,0.5,0,0.7,0s0.4,0.1,0.6,0.1v3.7c-0.3-0.1-0.6-0.2-0.9-0.2s-0.6-0.1-0.9-0.1 c-0.8,0-1.4,0.1-1.8,0.3c-0.4,0.2-0.8,0.5-1,0.9c-0.2,0.4-0.4,0.9-0.5,1.4c-0.1,0.5-0.1,1.1-0.1,1.8v5.5h-4V10.2z M175,21.1 c-0.6,0.8-1.5,1.5-2.5,1.9c-1,0.4-2,0.7-3.1,0.7c-1,0-2-0.2-2.8-0.5c-0.9-0.3-1.7-0.8-2.3-1.4c-0.7-0.6-1.2-1.3-1.6-2.2 s-0.6-1.8-0.6-2.8s0.2-2,0.6-2.8c0.4-0.8,0.9-1.6,1.6-2.2c0.7-0.6,1.4-1.1,2.3-1.4c0.9-0.3,1.8-0.5,2.8-0.5c0.9,0,1.8,0.2,2.6,0.5 c0.8,0.3,1.4,0.8,1.9,1.4s0.9,1.3,1.2,2.2c0.3,0.8,0.4,1.8,0.4,2.8V18h-9.4c0.2,0.8,0.5,1.4,1.1,1.8c0.5,0.5,1.2,0.7,2,0.7 c0.7,0,1.2-0.1,1.7-0.4c0.5-0.3,0.9-0.7,1.2-1.1L175,21.1z M171.5,15.3c0-0.7-0.2-1.3-0.7-1.8c-0.5-0.5-1.1-0.7-1.8-0.7 c-0.4,0-0.8,0.1-1.2,0.2c-0.3,0.1-0.6,0.3-0.9,0.6c-0.2,0.2-0.4,0.5-0.6,0.8c-0.1,0.3-0.2,0.6-0.2,0.9H171.5z M191.8,23.3h-3.7 v-1.7H188c-0.2,0.2-0.4,0.5-0.6,0.7c-0.3,0.2-0.6,0.5-0.9,0.7s-0.7,0.4-1.2,0.5c-0.4,0.1-0.9,0.2-1.3,0.2c-1,0-1.9-0.2-2.6-0.5 c-0.8-0.3-1.5-0.8-2-1.4s-1-1.3-1.3-2.1c-0.3-0.8-0.5-1.7-0.5-2.7c0-0.9,0.1-1.8,0.4-2.6c0.3-0.8,0.7-1.6,1.2-2.2 c0.5-0.6,1.1-1.2,1.9-1.6c0.7-0.4,1.6-0.6,2.5-0.6c0.8,0,1.6,0.1,2.4,0.4s1.3,0.7,1.8,1.3h0.1V2.9h4V23.3z M188.1,16.8 c0-1-0.3-1.8-0.9-2.4c-0.6-0.6-1.4-0.9-2.4-0.9c-1,0-1.8,0.3-2.4,0.9c-0.6,0.6-0.9,1.4-0.9,2.4s0.3,1.8,0.9,2.4 c0.6,0.6,1.4,0.9,2.4,0.9c1,0,1.8-0.3,2.4-0.9S188.1,17.8,188.1,16.8z M195.1,10.2h4v13.1h-4V10.2z M194.8,6.1 c0-0.6,0.2-1.2,0.7-1.7c0.5-0.5,1-0.7,1.7-0.7s1.2,0.2,1.7,0.7s0.7,1,0.7,1.7s-0.2,1.2-0.7,1.7c-0.5,0.5-1,0.7-1.7,0.7 s-1.2-0.2-1.7-0.7C195,7.3,194.8,6.7,194.8,6.1z M211,13.4h-3.6v4.4c0,0.4,0,0.7,0.1,1s0.1,0.6,0.2,0.8c0.1,0.2,0.3,0.4,0.6,0.5 c0.3,0.1,0.6,0.2,1,0.2c0.2,0,0.5,0,0.9-0.1c0.4,0,0.6-0.1,0.8-0.3v3.4c-0.4,0.2-0.9,0.3-1.4,0.3s-1,0.1-1.4,0.1 c-0.7,0-1.3-0.1-1.9-0.2c-0.6-0.1-1.1-0.4-1.5-0.7c-0.4-0.3-0.8-0.7-1-1.2c-0.2-0.5-0.4-1.1-0.4-1.8v-6.2h-2.6v-3.2h2.6V6.3h4v3.9 h3.6V13.4z M17.4,26.1c-3.1,2.7-7.2,2-9.5-0.6S5.3,19.3,0,16.4c10.3-5.6,15-3.3,17.5-0.5S20.5,23.5,17.4,26.1z M22.4,19.4 c-2.8-2.8-2.8-7.6-0.8-10.5c2.2-3.1,6.9-6.1,16.6-0.6c-5.3,3.8-5.8,7.9-8,10.9C28.3,22.1,25,22.5,22.4,19.4z M18.6,8.2 c-1.1,2.9-3.6,4.1-6,3c-2.6-1.4-4.4-4.4-9.8-6c5.8-7,10.6-5.4,13.3-3.7C18.6,2.9,20,5.6,18.6,8.2z"></path> <path class="st1" d="M134,9.5c0.8-1.4,1.9-2.5,3.3-3.3s3-1.2,4.7-1.2c2.2,0,4,0.6,5.6,1.7s2.6,2.7,3.1,4.7h-4.9 c-0.4-0.8-0.9-1.3-1.5-1.7c-0.7-0.4-1.4-0.6-2.3-0.6c-1.4,0-2.5,0.5-3.3,1.4c-0.8,1-1.3,2.2-1.3,3.8s0.4,2.9,1.3,3.8 c0.8,1,2,1.4,3.3,1.4c0.8,0,1.6-0.2,2.3-0.6c0.7-0.4,1.2-1,1.5-1.7h4.9c-0.5,2-1.6,3.5-3.1,4.7c-1.5,1.1-3.4,1.7-5.6,1.7 c-1.8,0-3.3-0.4-4.7-1.2c-1.4-0.8-2.5-1.9-3.3-3.3c-0.8-1.4-1.2-3-1.2-4.8S133.3,11,134,9.5z"></path> <g> <path class="st1" d="M61.1,14.9c0.7,0.9,1.1,2,1.1,3.2c0,1.1-0.3,2.1-0.8,2.9s-1.3,1.5-2.3,1.9c-1,0.5-2.2,0.7-3.6,0.7h-8.8V3.2 h8.4c1.4,0,2.6,0.2,3.6,0.7c1,0.4,1.8,1.1,2.3,1.9c0.5,0.8,0.8,1.7,0.8,2.7c0,1.2-0.3,2.2-1,3c-0.6,0.8-1.5,1.4-2.5,1.7 C59.5,13.4,60.4,14,61.1,14.9z M50.8,11.7h3.7c1,0,1.7-0.2,2.3-0.7c0.5-0.4,0.8-1.1,0.8-1.9s-0.3-1.5-0.8-1.9 c-0.5-0.4-1.3-0.7-2.3-0.7h-3.7V11.7z M57.3,19.6c0.6-0.5,0.8-1.1,0.8-2c0-0.9-0.3-1.6-0.9-2.1c-0.6-0.5-1.4-0.7-2.4-0.7h-4v5.5 h4.1C55.9,20.3,56.7,20.1,57.3,19.6z"></path> </g> </g> </g> </svg> 