<?xml version="1.0" encoding="UTF-8"?> <svg xmlns="http://www.w3.org/2000/svg" xmlns:xlink="http://www.w3.org/1999/xlink" version="1.1" x="0px" y="0px" viewBox="0 0 211.4 28.1" style="enable-background:new 0 0 211.4 28.1;" xml:space="preserve"> <style type="text/css"> .st0{fill-rule:evenodd;clip-rule:evenodd;fill:#FFFFFF;} .st1{fill:#FFFFFF;} </style> <g id="Layer_1"> </g> <g id="Layer_2"> <g> <path id="Combined-Shape-Copy-2_00000000936669827761487850000000200104226005483689_" class="st0" d="M64.9,3h4v20.4h-4V3z M71.4,16.9c0-1,0.2-2,0.6-2.8c0.4-0.8,0.9-1.6,1.6-2.2s1.4-1.1,2.3-1.4c0.9-0.3,1.8-0.5,2.8-0.5s2,0.2,2.8,0.5 c0.9,0.3,1.7,0.8,2.3,1.4s1.2,1.3,1.6,2.2c0.4,0.8,0.6,1.8,0.6,2.8s-0.2,2-0.6,2.8c-0.4,0.8-0.9,1.6-1.6,2.2s-1.4,1.1-2.3,1.4 c-0.9,0.3-1.8,0.5-2.8,0.5s-2-0.2-2.8-0.5s-1.7-0.8-2.3-1.4s-1.2-1.3-1.6-2.2S71.4,17.9,71.4,16.9z M75.5,16.9 c0,1,0.3,1.8,0.9,2.4s1.4,0.9,2.4,0.9s1.8-0.3,2.4-0.9c0.6-0.6,0.9-1.4,0.9-2.4s-0.3-1.8-0.9-2.4c-0.6-0.6-1.4-0.9-2.4-0.9 s-1.8,0.3-2.4,0.9C75.8,15.1,75.5,15.9,75.5,16.9z M87.9,16.9c0-1,0.2-2,0.6-2.8c0.4-0.8,0.9-1.6,1.6-2.2s1.4-1.1,2.3-1.4 c0.9-0.3,1.8-0.5,2.8-0.5s2,0.2,2.8,0.5c0.9,0.3,1.7,0.8,2.3,1.4c0.7,0.6,1.2,1.3,1.6,2.2c0.4,0.8,0.6,1.8,0.6,2.8s-0.2,2-0.6,2.8 c-0.4,0.8-0.9,1.6-1.6,2.2c-0.7,0.6-1.4,1.1-2.3,1.4s-1.8,0.5-2.8,0.5s-2-0.2-2.8-0.5s-1.7-0.8-2.3-1.4s-1.2-1.3-1.6-2.2 C88.1,18.9,87.9,17.9,87.9,16.9z M91.9,16.9c0,1,0.3,1.8,0.9,2.4c0.6,0.6,1.4,0.9,2.4,0.9c1,0,1.8-0.3,2.4-0.9s0.9-1.4,0.9-2.4 s-0.3-1.8-0.9-2.4c-0.6-0.6-1.4-0.9-2.4-0.9c-1,0-1.8,0.3-2.4,0.9C92.2,15.1,91.9,15.9,91.9,16.9z M104.8,10.3h3.9v1.8h0.1 c0.1-0.3,0.3-0.5,0.5-0.8c0.2-0.3,0.5-0.5,0.8-0.7c0.3-0.2,0.7-0.4,1.1-0.5c0.4-0.1,0.9-0.2,1.3-0.2c0.9,0,1.7,0.2,2.4,0.6 c0.7,0.4,1.2,1,1.6,1.8c0.5-0.8,1-1.4,1.7-1.8s1.5-0.5,2.5-0.5c0.9,0,1.6,0.1,2.2,0.4c0.6,0.3,1.1,0.7,1.4,1.2 c0.4,0.5,0.6,1.1,0.8,1.8c0.2,0.7,0.2,1.4,0.2,2.2v7.7h-4v-7.6c0-0.6-0.1-1.1-0.4-1.6c-0.3-0.4-0.7-0.7-1.4-0.7 c-0.5,0-0.9,0.1-1.2,0.2s-0.6,0.4-0.8,0.6c-0.2,0.3-0.3,0.6-0.4,0.9s-0.1,0.7-0.1,1.1v6.9h-4v-6.9c0-0.2,0-0.5,0-0.9 s-0.1-0.7-0.2-1c-0.1-0.3-0.3-0.6-0.5-0.8c-0.2-0.2-0.6-0.3-1.1-0.3c-0.5,0-0.9,0.1-1.3,0.3s-0.6,0.4-0.7,0.8 c-0.2,0.3-0.3,0.7-0.3,1.1c-0.1,0.4-0.1,0.8-0.1,1.2v6.5h-4V10.3z M152.3,10.3h4v2.1h0.1c0.4-0.8,0.9-1.4,1.5-1.8 c0.6-0.4,1.3-0.6,2.2-0.6c0.2,0,0.5,0,0.7,0s0.4,0.1,0.6,0.1v3.7c-0.3-0.1-0.6-0.2-0.9-0.2s-0.6-0.1-0.9-0.1 c-0.8,0-1.4,0.1-1.8,0.3c-0.4,0.2-0.8,0.5-1,0.9c-0.2,0.4-0.4,0.9-0.5,1.4c-0.1,0.5-0.1,1.1-0.1,1.8v5.5h-4V10.3z M175.2,21.2 c-0.6,0.8-1.5,1.5-2.5,1.9c-1,0.4-2,0.7-3.1,0.7c-1,0-2-0.2-2.8-0.5c-0.9-0.3-1.7-0.8-2.3-1.4c-0.7-0.6-1.2-1.3-1.6-2.2 s-0.6-1.8-0.6-2.8s0.2-2,0.6-2.8c0.4-0.8,0.9-1.6,1.6-2.2c0.7-0.6,1.4-1.1,2.3-1.4c0.9-0.3,1.8-0.5,2.8-0.5c0.9,0,1.8,0.2,2.6,0.5 c0.8,0.3,1.4,0.8,1.9,1.4s0.9,1.3,1.2,2.2c0.3,0.8,0.4,1.8,0.4,2.8v1.3h-9.4c0.2,0.8,0.5,1.4,1.1,1.8c0.5,0.5,1.2,0.7,2,0.7 c0.7,0,1.2-0.1,1.7-0.4c0.5-0.3,0.9-0.7,1.2-1.1L175.2,21.2z M171.8,15.4c0-0.7-0.2-1.3-0.7-1.8c-0.5-0.5-1.1-0.7-1.8-0.7 c-0.4,0-0.8,0.1-1.2,0.2c-0.3,0.1-0.6,0.3-0.9,0.6c-0.2,0.2-0.4,0.5-0.6,0.8c-0.1,0.3-0.2,0.6-0.2,0.9H171.8z M192.1,23.4h-3.7 v-1.7h-0.1c-0.2,0.2-0.4,0.5-0.6,0.7c-0.3,0.2-0.6,0.5-0.9,0.7s-0.7,0.4-1.2,0.5c-0.4,0.1-0.9,0.2-1.3,0.2c-1,0-1.9-0.2-2.6-0.5 c-0.8-0.3-1.5-0.8-2-1.4s-1-1.3-1.3-2.1c-0.3-0.8-0.5-1.7-0.5-2.7c0-0.9,0.1-1.8,0.4-2.6c0.3-0.8,0.7-1.6,1.2-2.2 c0.5-0.6,1.1-1.2,1.9-1.6c0.7-0.4,1.6-0.6,2.5-0.6c0.8,0,1.6,0.1,2.4,0.4s1.3,0.7,1.8,1.3h0.1V3h4V23.4z M188.3,16.9 c0-1-0.3-1.8-0.9-2.4c-0.6-0.6-1.4-0.9-2.4-0.9c-1,0-1.8,0.3-2.4,0.9c-0.6,0.6-0.9,1.4-0.9,2.4s0.3,1.8,0.9,2.4 c0.6,0.6,1.4,0.9,2.4,0.9c1,0,1.8-0.3,2.4-0.9S188.3,17.9,188.3,16.9z M195.4,10.3h4v13.1h-4V10.3z M195,6.2 c0-0.6,0.2-1.2,0.7-1.7c0.5-0.5,1-0.7,1.7-0.7s1.2,0.2,1.7,0.7c0.5,0.5,0.7,1,0.7,1.7s-0.2,1.2-0.7,1.7c-0.5,0.5-1,0.7-1.7,0.7 s-1.2-0.2-1.7-0.7C195.3,7.4,195,6.9,195,6.2z M211.3,13.6h-3.6v4.4c0,0.4,0,0.7,0.1,1s0.1,0.6,0.2,0.8c0.1,0.2,0.3,0.4,0.6,0.5 c0.3,0.1,0.6,0.2,1,0.2c0.2,0,0.5,0,0.9-0.1c0.4,0,0.6-0.1,0.8-0.3v3.4c-0.4,0.2-0.9,0.3-1.4,0.3s-1,0.1-1.4,0.1 c-0.7,0-1.3-0.1-1.9-0.2c-0.6-0.1-1.1-0.4-1.5-0.7c-0.4-0.3-0.8-0.7-1-1.2c-0.2-0.5-0.4-1.1-0.4-1.8v-6.2h-2.6v-3.2h2.6V6.4h4v3.9 h3.6V13.6z M17.7,26.3c-3.1,2.7-7.2,2-9.5-0.6s-2.7-6.2-7.9-9.1c10.3-5.6,15-3.3,17.5-0.5C20.2,18.8,20.7,23.6,17.7,26.3z M22.7,19.6c-2.8-2.8-2.8-7.6-0.8-10.5C24,6,28.8,3,38.5,8.5c-5.3,3.8-5.8,7.9-8,10.9C28.5,22.3,25.3,22.6,22.7,19.6z M18.9,8.3 c-1.1,2.9-3.6,4.1-6,3c-2.6-1.4-4.4-4.4-9.8-6c5.8-7,10.6-5.4,13.3-3.7C18.9,3,20.3,5.7,18.9,8.3z"></path> <path class="st1" d="M134.3,9.7c0.8-1.4,1.9-2.5,3.3-3.3s3-1.2,4.7-1.2c2.2,0,4,0.6,5.6,1.7s2.6,2.7,3.1,4.7h-4.9 c-0.4-0.8-0.9-1.3-1.5-1.7c-0.7-0.4-1.4-0.6-2.3-0.6c-1.4,0-2.5,0.5-3.3,1.4c-0.8,1-1.3,2.2-1.3,3.8s0.4,2.9,1.3,3.8 c0.8,1,2,1.4,3.3,1.4c0.8,0,1.6-0.2,2.3-0.6c0.7-0.4,1.2-1,1.5-1.7h4.9c-0.5,2-1.6,3.5-3.1,4.7c-1.5,1.1-3.4,1.7-5.6,1.7 c-1.8,0-3.3-0.4-4.7-1.2c-1.4-0.8-2.5-1.9-3.3-3.3c-0.8-1.4-1.2-3-1.2-4.8S133.5,11.1,134.3,9.7z"></path> <g> <path class="st1" d="M61.4,15c0.7,0.9,1.1,2,1.1,3.2c0,1.1-0.3,2.1-0.8,2.9c-0.5,0.8-1.3,1.5-2.3,1.9c-1,0.5-2.2,0.7-3.6,0.7H47 V3.4h8.4C56.8,3.4,58,3.6,59,4c1,0.4,1.8,1.1,2.3,1.9C61.8,6.7,62,7.6,62,8.6c0,1.2-0.3,2.2-1,3c-0.6,0.8-1.5,1.4-2.5,1.7 C59.7,13.5,60.7,14.1,61.4,15z M51.1,11.8h3.7c1,0,1.7-0.2,2.3-0.7c0.5-0.4,0.8-1.1,0.8-1.9s-0.3-1.5-0.8-1.9 c-0.5-0.4-1.3-0.7-2.3-0.7h-3.7V11.8z M57.5,19.8c0.6-0.5,0.8-1.1,0.8-2c0-0.9-0.3-1.6-0.9-2.1c-0.6-0.5-1.4-0.7-2.4-0.7h-4v5.5 h4.1C56.2,20.5,57,20.2,57.5,19.8z"></path> </g> </g> </g> </svg> 