<?xml version="1.0" standalone="no"?>
<!DOCTYPE svg PUBLIC "-//W3C//DTD SVG 20010904//EN"
 "http://www.w3.org/TR/2001/REC-SVG-20010904/DTD/svg10.dtd">
<svg version="1.0" xmlns="http://www.w3.org/2000/svg"
 width="500.000000pt" height="171.000000pt" viewBox="38 42 425 88"
 preserveAspectRatio="xMidYMid meet">

<g transform="translate(0.000000,171.000000) scale(0.100000,-0.100000)"
fill="#000000" stroke="none">
<path d="M747 1282 c-14 -6 -6 -19 52 -76 64 -63 69 -66 74 -44 5 18 -4 33
-45 75 -29 29 -55 53 -58 52 -3 0 -13 -4 -23 -7z"/>
<path d="M939 1287 c-1 -1 -13 -88 -28 -194 -25 -176 -25 -191 -10 -182 28 14
30 22 50 167 10 76 21 151 24 168 4 26 2 33 -15 37 -11 3 -20 4 -21 4z"/>
<path d="M661 1251 c-11 -7 8 -33 84 -115 54 -58 102 -106 107 -106 4 0 8 10
8 23 0 14 -31 55 -86 115 -47 50 -89 92 -92 92 -4 0 -13 -4 -21 -9z"/>
<path d="M1011 1178 c-26 -182 -30 -212 -27 -215 2 -2 12 4 24 14 17 15 24 42
37 142 13 102 14 125 3 132 -23 15 -25 10 -37 -73z"/>
<path d="M1091 1124 c-7 -53 -11 -98 -8 -100 2 -3 13 3 25 13 15 13 22 35 27
83 5 57 4 68 -13 83 -18 16 -19 14 -31 -79z"/>
<path d="M585 1200 c-8 -12 14 -39 150 -183 98 -104 103 -107 109 -82 6 23 -6
40 -110 148 -116 122 -136 138 -149 117z"/>
<path d="M514 1073 c-31 -3 -44 -10 -52 -27 -11 -26 -17 -25 136 -10 52 5 53
6 36 25 -17 19 -29 20 -120 12z"/>
<path d="M1075 964 c-88 -53 -161 -97 -163 -98 -1 -2 8 -8 21 -13 21 -10 42 0
172 78 82 49 150 91 152 92 1 2 -3 11 -10 20 -11 15 -28 8 -172 -79z"/>
<path d="M3420 1015 c0 -33 2 -35 35 -35 33 0 35 2 35 35 0 33 -2 35 -35 35
-33 0 -35 -2 -35 -35z"/>
<path d="M1638 1030 c-87 -26 -132 -89 -132 -186 0 -43 6 -71 20 -95 36 -61
128 -97 214 -83 35 6 40 10 40 34 0 27 -1 27 -65 26 -60 -1 -67 1 -97 32 -30
29 -33 38 -33 92 0 51 4 63 29 89 34 36 84 48 132 33 34 -10 34 -10 34 23 0
28 -4 33 -31 39 -40 8 -77 6 -111 -4z"/>
<path d="M1830 850 l0 -180 40 0 40 0 0 80 0 80 61 0 c60 0 60 0 57 28 -3 26
-6 27 -60 30 l-58 3 0 39 0 39 63 3 c59 3 62 4 65 31 l3 27 -105 0 -106 0 0
-180z"/>
<path d="M2102 903 c-28 -71 -59 -152 -71 -180 l-21 -53 39 0 c35 0 39 3 54
40 l15 40 75 0 74 0 12 -40 c11 -38 14 -40 51 -40 22 0 40 3 40 7 0 4 -30 85
-67 180 l-68 173 -42 0 -42 0 -49 -127z m132 -70 c7 -22 5 -23 -43 -23 -28 0
-51 1 -51 3 0 2 28 77 47 127 5 13 19 -20 47 -107z"/>
<path d="M2520 850 l0 -180 35 0 35 0 0 180 0 180 -35 0 -35 0 0 -180z"/>
<path d="M4502 1018 c-22 -22 -11 -78 16 -78 13 0 13 2 -2 13 -11 8 -17 23
-14 38 2 19 9 24 33 24 24 0 31 -5 33 -24 3 -16 -3 -30 -15 -39 -17 -13 -17
-14 2 -10 24 4 33 51 14 74 -14 17 -51 18 -67 2z"/>
<path d="M3258 998 c-20 -7 -28 -17 -28 -34 0 -19 -5 -24 -26 -24 -22 0 -25
-4 -22 -27 2 -20 9 -29 26 -31 21 -3 22 -8 22 -77 0 -41 5 -85 11 -98 26 -56
129 -65 129 -11 0 20 -5 24 -29 24 -35 0 -41 13 -41 96 l0 64 30 0 c27 0 30 3
30 30 0 27 -3 30 -30 30 -28 0 -30 3 -30 35 0 38 -1 38 -42 23z"/>
<path d="M3610 1001 c-18 -5 -26 -15 -28 -34 -3 -21 -9 -27 -26 -27 -17 0 -25
-7 -28 -25 -6 -30 -2 -35 29 -35 22 0 23 -2 23 -88 0 -72 3 -92 18 -104 43
-39 112 -34 112 7 0 18 -6 24 -27 27 -28 3 -28 4 -31 80 l-3 77 28 3 c22 2 28
8 28 28 0 20 -6 26 -27 28 -25 3 -28 8 -28 38 0 19 -3 34 -7 33 -5 -1 -19 -4
-33 -8z"/>
<path d="M4108 998 c-20 -7 -28 -17 -28 -34 0 -19 -5 -24 -25 -24 -21 0 -25
-5 -25 -30 0 -25 4 -30 25 -30 24 0 25 -2 25 -75 0 -41 5 -85 11 -98 26 -56
129 -65 129 -11 0 20 -5 24 -29 24 -35 0 -41 13 -41 96 l0 64 30 0 c27 0 30 3
30 30 0 27 -3 30 -30 30 -28 0 -30 3 -30 35 0 38 -1 38 -42 23z"/>
<path d="M4520 985 c0 -27 21 -30 31 -5 8 19 2 30 -17 30 -8 0 -14 -10 -14
-25z"/>
<path d="M550 986 c-109 -10 -115 -12 -118 -35 -3 -21 -1 -23 35 -17 21 3 74
8 118 11 126 10 137 13 122 36 -6 10 -19 18 -27 18 -8 -1 -67 -7 -130 -13z"/>
<path d="M1149 906 c-63 -39 -117 -75 -120 -81 -2 -5 7 -11 19 -13 33 -5 232
115 232 139 0 10 -3 20 -7 22 -5 2 -60 -28 -124 -67z"/>
<path d="M2670 805 l0 -135 35 0 35 0 0 84 c0 69 4 88 21 110 22 28 50 34 67
13 6 -7 13 -56 14 -108 l3 -94 38 -3 37 -3 0 83 c0 99 -13 152 -43 173 -27 19
-86 19 -114 0 -19 -13 -22 -13 -27 0 -3 9 -18 15 -36 15 l-30 0 0 -135z"/>
<path d="M3008 925 c-55 -31 -49 -106 10 -132 63 -26 67 -30 67 -49 0 -16 -8
-19 -52 -19 -44 1 -53 -2 -57 -19 -8 -31 8 -40 68 -40 72 -1 110 25 114 78 4
46 -16 72 -69 88 -70 20 -52 65 22 55 39 -5 40 -4 37 21 -3 25 -7 27 -58 29
-34 2 -65 -3 -82 -12z"/>
<path d="M3420 805 l0 -135 35 0 35 0 0 135 0 135 -35 0 -35 0 0 -135z"/>
<path d="M3757 933 c-11 -10 -8 -164 4 -205 17 -65 100 -87 151 -41 17 15 18
15 18 0 0 -13 9 -17 35 -17 l35 0 0 135 0 135 -35 0 -35 0 0 -80 c0 -105 -17
-143 -63 -138 -39 4 -45 22 -46 136 l-1 82 -28 0 c-16 0 -32 -3 -35 -7z"/>
<path d="M4294 921 c-41 -25 -58 -68 -52 -138 4 -47 10 -61 35 -84 37 -33 96
-44 152 -29 36 9 41 14 41 39 l0 29 -45 -14 c-62 -18 -114 2 -115 44 0 9 25
12 91 12 l92 0 -7 40 c-9 58 -26 90 -57 106 -39 20 -98 17 -135 -5z m108 -48
c33 -30 23 -43 -37 -43 -59 0 -70 13 -39 44 20 21 53 20 76 -1z"/>
<path d="M670 908 c-236 -20 -245 -21 -248 -45 -3 -20 0 -22 25 -18 15 2 96 9
178 16 167 13 185 17 158 40 -15 12 -35 14 -113 7z"/>
<path d="M1200 834 c-41 -26 -76 -47 -78 -49 -1 -1 9 -7 22 -13 20 -9 32 -5
84 26 46 28 62 43 62 60 0 12 -3 22 -7 22 -5 0 -42 -21 -83 -46z"/>
<path d="M663 686 c-51 -79 -93 -148 -93 -153 0 -6 7 -13 15 -17 11 -4 36 27
92 112 42 64 89 136 105 160 l29 42 -28 0 c-25 -1 -38 -17 -120 -144z"/>
<path d="M577 714 c-46 -73 -66 -112 -62 -125 4 -10 9 -19 13 -19 4 0 44 57
90 125 81 123 82 125 55 125 -24 0 -37 -14 -96 -106z"/>
<path d="M898 795 c3 -20 22 -31 111 -66 193 -74 212 -81 226 -75 36 13 7 34
-103 75 -64 24 -144 54 -178 67 l-61 23 5 -24z"/>
<path d="M495 749 c-30 -48 -35 -65 -28 -82 9 -19 14 -14 61 55 29 43 52 80
52 83 0 3 -11 5 -24 5 -19 0 -33 -13 -61 -61z"/>
<path d="M830 779 c-9 -16 -1 -51 41 -185 47 -147 55 -164 75 -164 21 0 22 1
9 43 -33 109 -107 327 -110 327 -2 0 -9 -9 -15 -21z"/>
<path d="M770 689 c-10 -18 -6 -42 26 -145 34 -112 40 -124 60 -124 14 0 22 5
19 13 -2 6 -22 70 -45 142 -23 72 -43 132 -45 133 -2 2 -9 -6 -15 -19z"/>
<path d="M930 699 c0 -29 20 -41 136 -85 111 -42 119 -44 131 -27 11 15 11 18
-4 24 -36 14 -228 88 -245 94 -12 5 -18 2 -18 -6z"/>
<path d="M712 598 c-16 -16 -15 -43 7 -108 13 -41 23 -56 39 -58 12 -2 22 0
22 5 0 9 -50 166 -54 170 -1 2 -8 -3 -14 -9z"/>
<path d="M969 578 c11 -30 127 -81 153 -67 10 5 18 13 18 18 0 7 -155 71 -173
71 -3 0 -3 -10 2 -22z"/>
</g>
</svg>
