<svg width="257" height="32" viewBox="0 0 257 32" fill="none" xmlns="http://www.w3.org/2000/svg">
<g clip-path="url(#clip0_1495_2)">
<path d="M11.71 5.18994L13.5725 8.55244H30.9325L16.2 31.4999H20.2475L37.695 5.18994H11.71Z" fill="#4E5F79"/>
<path d="M2.2425 0.94043L0 4.24043L15.31 31.0354L29.1025 9.55293H24.7L15.3125 23.5804L2.2425 0.94043Z" fill="#4E5F79"/>
<path d="M35.6776 0.5H3.14258L15.3751 21.6875L17.7451 18.15L10.0151 4.19H37.7701L35.6776 0.5Z" fill="#4E5F79"/>
<path d="M229.593 0.599121H256.93V6.13922H246.555V31.4012H239.967V6.13922H229.593V0.599121Z" fill="#A1A1AA"/>
<path d="M200.294 0.599121H207.438L220.444 21.5403H220.786V0.599121H227.011V31.4012H219.866L206.861 10.46H206.519V31.4012H200.294V0.599121Z" fill="#A1A1AA"/>
<path d="M174.756 0.599121H197.023V5.92532H181.28V13.2194H194.884V18.5456H181.28V26.075H197.323V31.4012H174.756V0.599121Z" fill="#A1A1AA"/>
<path d="M163.841 0.599121H170.429V31.4012H163.841V0.599121Z" fill="#A1A1AA"/>
<path d="M144.962 0.599121C154.673 0.599121 160.897 6.48147 160.897 16.0001C160.897 25.5189 154.673 31.4012 144.962 31.4012H132.662V0.599121H144.962ZM139.208 25.9253H144.705C150.352 25.9253 154.288 22.6098 154.288 16.0001C154.288 9.39056 150.352 6.07505 144.705 6.07505H139.208V25.9253Z" fill="#A1A1AA"/>
<path d="M111.481 0.599121H119.823L130.347 30.7595V31.4012H123.738L121.342 24.1285H109.791L107.417 31.4012H100.957V30.7595L111.481 0.599121ZM111.502 18.6739H119.652L115.738 6.73816H115.396L111.502 18.6739Z" fill="#A1A1AA"/>
<path d="M90.1076 0.599121C95.7974 0.599121 100.311 3.72211 100.311 9.77559C100.311 15.7649 96.0969 18.9092 90.9418 18.9092H89.6156L100.525 30.7595V31.4012H93.2092L81.915 18.8023H81.4872V31.4012H75.0273V0.599121H90.1076ZM81.4872 13.9895H89.0808C91.9685 13.9895 93.9364 12.6419 93.9364 9.94671C93.9364 7.25152 91.9685 5.92532 89.0808 5.92532H81.4872V13.9895Z" fill="#A1A1AA"/>
<path d="M41.7695 16C41.7695 5.88235 47.6519 0 57.6198 0C67.4808 0 71.4594 5.92513 71.6947 10.7166V11.3583H65.7054C65.3845 8.83422 63.7374 5.34759 57.7695 5.34759C51.7161 5.34759 48.4219 9.26203 48.4219 16C48.4219 22.7594 51.5877 26.6096 57.7268 26.6096C63.823 26.6096 65.684 22.738 65.8551 20.1497H56.5931V15.0374H72.1439V16.984C72.1439 25.9251 67.5449 32 57.577 32C47.6305 32 41.7695 26.1176 41.7695 16Z" fill="#A1A1AA"/>
</g>
<defs>
<clipPath id="clip0_1495_2">
<rect width="257" height="32" fill="white"/>
</clipPath>
</defs>
</svg>
