<svg width="828" height="542" viewBox="0 0 828 542" fill="none" xmlns="http://www.w3.org/2000/svg">
<path d="M541.817 334C528.938 334 519.485 331.505 513.222 326.515C507.905 322.475 504.951 316.178 504.951 309.405H530.592C531.774 314.396 533.9 317.247 542.172 317.247C551.27 317.247 555.051 312.257 555.051 300.969V290.989H554.578C551.388 299.187 543.117 304.296 534.255 303.465C513.104 303.465 502.352 291.345 502.352 267.701C501.879 257.602 505.306 247.859 511.923 240.255C517.831 234.077 526.102 230.631 534.728 230.75C542.999 229.918 551.034 234.196 554.933 241.562H555.405V232.413H580.692V298.593C580.692 310.712 577.738 319.386 571.593 324.851C564.976 331.03 555.405 334 541.817 334ZM542.644 248.691C534.373 248.691 529.41 255.82 529.41 267.82C529.41 280.296 533.9 286.949 542.172 286.949C549.261 286.949 554.933 281.127 554.933 273.999V264.493C554.933 254.513 550.443 248.691 542.644 248.691ZM301.008 308.93C291.909 309.762 282.929 307.386 275.367 302.276C270.404 297.999 267.45 291.821 267.096 285.167H290.728C291.2 290.157 294.509 292.652 300.653 292.652C306.443 292.652 310.106 290.514 310.106 286.474C310.106 283.147 307.979 281.484 302.662 280.652L290.61 278.989C276.194 277.325 268.277 269.008 268.277 256.057C268.159 249.404 270.877 243.107 275.721 238.592C290.019 228.611 308.924 228.136 323.694 237.404C328.657 241.562 331.493 247.622 331.493 254.038H308.215C308.097 249.76 304.552 246.433 300.417 246.552H299.944C293.327 246.552 292.027 249.523 292.027 252.374C292.027 255.226 293.209 257.364 299.117 258.196L311.996 259.86C317.668 260.097 323.103 262.355 327.357 266.038C331.493 270.078 333.62 275.781 333.147 281.484C334.21 298.593 321.331 309.049 301.008 308.93ZM226.567 308.574C202.581 308.574 188.874 294.435 188.874 269.008C188.519 258.79 192.064 248.81 198.799 241.087C206.125 233.839 216.287 230.037 226.567 230.631C239.446 230.631 249.372 234.314 255.516 241.443C261.779 249.523 264.969 259.503 264.614 269.721V275.543H215.342C216.169 286.355 219.477 291.346 227.394 291.346C232.12 292.177 236.729 289.088 237.792 284.217H263.905C262.133 299.781 249.254 308.574 226.567 308.574ZM226.567 246.552C219.477 246.552 216.169 251.542 215.342 261.523H237.674V260.691C236.847 251.186 233.184 246.552 226.567 246.552ZM701.096 308.217C693.062 308.692 685.263 305.603 679.591 299.9C674.156 293.603 671.32 285.405 671.675 276.969C671.202 268.771 674.038 260.691 679.591 254.513C685.381 248.929 693.062 245.958 701.096 246.196C719.293 246.196 730.518 257.84 730.518 276.969C730.518 296.098 718.82 308.217 701.096 308.217ZM701.096 258.315C691.525 258.315 689.517 268.771 689.517 277.444C689.517 290.395 693.652 296.573 701.096 296.573C708.54 296.573 712.676 289.92 712.676 277.444C712.676 264.969 708.54 258.315 701.096 258.315ZM641.898 308.217C633.864 308.692 626.065 305.603 620.393 299.9C615.194 293.603 612.477 285.642 612.949 277.444C612.949 258.315 624.174 246.671 642.371 246.671C658.913 246.671 668.839 254.988 669.311 269.127H652.415C652.06 264.137 649.933 258.315 642.489 258.315C632.091 258.315 630.91 270.315 630.91 277.444C630.91 290.395 634.691 296.573 642.489 296.573C648.161 296.573 652.769 292.058 652.887 286.355C652.887 286.236 652.887 286.236 652.887 286.118V284.929H669.43C669.43 291.702 666.594 297.999 661.513 302.514C655.605 306.316 648.87 308.336 641.898 308.217ZM363.869 307.742C357.488 308.336 351.107 306.435 346.026 302.395C341.064 297.167 338.464 290.039 338.937 282.791V212.096H364.696V232.532H380.056V250.83H365.168V277.919C365.168 285.761 367.65 288.732 374.739 288.732C376.393 288.85 378.048 288.613 379.702 288.256V306.91C374.267 307.267 369.304 307.742 363.869 307.742ZM791.252 306.554H773.883V271.979C774.237 268.652 773.647 265.444 772.229 262.473C770.574 259.978 767.739 258.671 764.785 259.147C757.695 259.147 753.559 264.137 753.559 272.454V306.554H736.19V247.859H752.732V257.483C756.159 250.592 763.248 246.315 770.929 246.671C780.854 246.671 786.644 250.83 789.125 258.79H789.48C792.788 251.186 800.351 246.433 808.504 246.671C821.738 246.671 828 253.8 828 268.295V306.554H810.631V272.097C810.985 268.771 810.394 265.563 808.976 262.592C807.322 260.097 804.486 258.79 801.532 259.265C794.443 259.265 790.307 264.256 790.307 272.573L791.252 306.554ZM447.88 306.554H421.412V232.532H447.053V244.532H447.526C452.134 235.74 461.587 230.393 471.512 231.225C480.965 231.225 487.7 233.72 491.836 238.71C496.089 245.126 497.98 252.731 497.153 260.335V306.554H470.685V264.493C471.039 260.81 470.33 257.008 468.558 253.681C466.668 251.067 463.477 249.641 460.287 249.998C452.488 249.998 448.353 254.988 448.353 264.969L447.88 306.554ZM64.6881 306.554H38.2203V232.532H63.861V244.532H64.2155C68.8237 235.74 78.2765 230.393 88.2019 231.225C97.6547 231.225 104.39 233.72 108.525 238.71C112.779 245.126 114.67 252.731 113.961 260.335V306.554H87.4929V264.493C87.8474 260.81 87.1384 257.008 85.366 253.681C83.4755 251.067 80.2852 249.641 77.0949 249.998C69.1782 249.998 65.0426 254.988 65.0426 264.969L64.6881 306.554ZM607.632 306.554H589.435V289.088H607.632V306.554ZM412.669 306.554H386.201V232.532H412.669V306.554ZM166.069 306.554H138.774L112.661 232.532H139.247L148.7 264.612C151.181 273.761 153.308 283.385 153.308 283.741H153.781C155.08 277.444 156.262 271.266 157.916 264.969L167.487 232.889H193.128L166.069 306.554ZM28.2949 306.554H1V201.759H28.2949V306.554Z" fill="white"/>
<path d="M384.894 224.457L412.526 219.545V192.877L384.894 197.79V224.457Z" fill="#FF883D"/>
</svg>
