<svg width="1500" height="750" viewBox="0 0 1500 750" fill="none" xmlns="http://www.w3.org/2000/svg">
<mask id="mask0_1234_2" style="mask-type:luminance" maskUnits="userSpaceOnUse" x="188" y="184" width="1125" height="383">
<path d="M188 184H1312.08V567H188V184Z" fill="white"/>
</mask>
<g mask="url(#mask0_1234_2)">
<path d="M453.691 486.825L454.969 409.459C413.071 403.333 412.305 459.507 412.305 459.507C416.392 495.762 453.691 486.825 453.691 486.825ZM386.247 311.411C386.247 311.411 487.669 266.728 499.676 347.158L498.144 520.018H421.246C421.246 520.018 387.524 521.295 377.05 484.016C377.05 484.016 350.991 389.032 453.691 370.906L453.947 347.668C453.947 347.668 434.531 326.986 400.042 347.668L386.247 311.411ZM1312.08 234.556L1271.71 491.676L1207.34 214.64L1312.08 234.556ZM1116.39 234.045L1115.62 306.56L1172.59 310.39V345.881L1117.15 348.945L1121.75 456.185C1121.75 456.185 1122.01 464.613 1139.38 464.613C1156.75 464.613 1172.85 455.166 1172.85 455.166V509.805C1173.61 526.402 1149.85 533.553 1149.85 533.553C1073.72 544.786 1079.34 494.996 1079.34 494.996L1076.79 356.35H1041.02L1032.59 298.136L1076.79 299.666V217.706L1116.39 234.045ZM1248.72 511.339H1282.95L1295.98 548.873L1265.33 567L1234.16 545.552L1248.72 511.339ZM561.501 309.626C616.683 292.261 646.062 292.516 653.982 372.691L673.653 509.805H621.537L618.216 430.396L613.362 373.968C612.084 334.391 576.063 344.349 565.077 349.203L567.888 509.55L518.07 507.762L509.895 197.279L560.479 184L561.501 309.626ZM398.765 277.452L325.955 357.371L374.239 531.253H321.868L283.291 397.969L246.759 433.205L247.27 531.253L188 529.213V249.11L247.27 234.045V353.286L347.415 257.791L398.765 277.452ZM949.308 464.103C975.622 467.167 998.103 443.163 996.57 413.036C995.037 382.649 982.775 363.754 957.994 363.246C933.213 362.733 918.14 391.075 920.95 424.013C923.25 449.036 938.834 462.826 949.308 464.103ZM955.184 322.901C1003.21 323.922 1044.34 364.01 1047.15 412.523C1050.22 461.292 1011.39 504.698 960.549 509.805C909.71 514.912 868.579 474.827 868.579 420.183C868.579 365.542 907.41 322.135 955.184 322.901ZM801.645 418.906C799.601 444.187 783.762 457.972 773.287 458.996C746.974 462.06 724.492 438.312 726.025 407.929C727.558 377.542 739.82 358.648 764.601 358.139C789.382 357.626 804.455 385.968 801.645 418.906ZM767.412 318.05C719.638 318.816 678.507 359.158 675.441 407.672C672.631 456.443 711.463 499.849 762.047 504.956C812.886 510.063 854.017 469.72 854.017 415.332C854.017 360.693 815.185 317.286 767.412 318.05Z" fill="#46178F"/>
</g>
</svg>
