<svg width="1500" height="750" viewBox="0 0 1500 750" fill="none" xmlns="http://www.w3.org/2000/svg">
<rect width="1500" height="750"/>
<g clip-path="url(#clip0_1228_794)">
<path d="M748.762 418.254V509.703H716.599V418.254C716.599 390.446 694.334 367.569 666.505 367.569C639.287 367.569 616.403 390.429 616.403 418.254V509.703H584.885V339.787H617.048V355.851C631.272 344.726 649.211 336.093 667.15 336.093C688.796 336.093 709.822 344.125 725.284 359.571C740.102 375.619 748.762 396.013 748.762 418.254ZM954.726 424.431C954.726 447.91 945.447 470.151 928.127 487.453C919.944 495.682 910.211 502.212 899.489 506.666C888.768 511.12 877.27 513.411 865.658 513.405C842.155 513.405 819.89 504.136 802.57 487.453C785.87 470.151 776.599 447.935 776.599 424.431C776.599 400.927 785.87 378.711 802.57 361.41C819.469 345.04 842.12 335.944 865.658 336.076C889.161 336.076 911.426 344.726 928.127 361.41C945.447 378.711 954.726 400.953 954.726 424.431ZM922.563 424.431C922.563 413.188 919.225 402.198 912.973 392.85C906.72 383.502 897.833 376.216 887.435 371.913C877.037 367.611 865.595 366.485 854.557 368.679C843.518 370.872 833.379 376.286 825.421 384.236C817.462 392.186 812.043 402.315 809.847 413.341C807.651 424.368 808.778 435.798 813.085 446.185C817.392 456.572 824.686 465.45 834.044 471.696C843.402 477.942 854.404 481.276 865.658 481.276C897.202 481.895 922.563 455.942 922.563 424.431Z" fill="#FFFFFF"/>
<path d="M1147.08 476.946C1143.99 480.657 1140.89 484.36 1137.8 487.453C1121.11 504.136 1098.83 512.787 1075.33 512.787C1051.83 512.787 1028.94 504.136 1012.25 487.453C995.549 470.151 986.27 447.935 986.27 424.431C986.27 400.927 995.549 378.711 1012.25 361.41C1028.94 344.726 1051.81 336.076 1075.33 336.076C1098.85 336.076 1121.11 344.726 1137.8 361.41C1141.01 364.625 1143.91 368.144 1146.45 371.916L1121.1 391.065C1110.58 376.856 1093.88 367.586 1075.32 367.586C1043.78 367.586 1018.42 393.539 1018.42 425.05C1018.42 456.561 1043.78 482.505 1075.32 482.505C1084.33 482.475 1093.19 480.273 1101.16 476.085C1109.13 471.897 1115.97 465.847 1121.1 458.45L1147.08 476.946ZM1312.84 237.222H1345V509.076H1312.84V489.317C1296.76 502.907 1276.97 512.795 1255.93 512.795C1232.41 512.913 1209.77 503.815 1192.89 487.453C1176.2 470.151 1166.92 447.935 1166.92 424.431C1166.92 400.927 1176.2 378.711 1192.89 361.41C1209.79 345.04 1232.44 335.944 1255.98 336.076C1277.01 336.076 1297.42 345.964 1312.88 359.554L1312.84 237.222ZM1312.84 424.431C1312.84 392.92 1287.48 366.968 1255.93 366.968C1224.39 366.968 1199.04 392.92 1199.04 424.431C1199.04 455.942 1224.39 481.895 1255.93 481.895C1287.48 481.895 1312.84 455.942 1312.84 424.431Z" fill="#FFFFFF"/>
<path d="M292.919 312.335C296.537 293.568 284.241 275.426 265.455 271.812C246.669 268.198 228.507 280.482 224.89 299.248C221.272 318.014 233.568 336.157 252.354 339.77C271.14 343.384 289.302 331.101 292.919 312.335Z" fill="#00A3AD"/>
<path d="M397.453 340.405C416.584 340.405 432.093 324.913 432.093 305.802C432.093 286.691 416.584 271.198 397.453 271.198C378.322 271.198 362.813 286.691 362.813 305.802C362.813 324.913 378.322 340.405 397.453 340.405Z" fill="#00A3AD"/>
<path d="M328.182 271.207C347.313 271.207 362.822 255.714 362.822 236.603C362.822 217.492 347.313 202 328.182 202C309.051 202 293.542 217.492 293.542 236.603C293.542 255.714 309.051 271.207 328.182 271.207Z" fill="#FF5D47"/>
<path d="M328.182 409.603C347.313 409.603 362.822 394.111 362.822 375C362.822 355.889 347.313 340.396 328.182 340.396C309.051 340.396 293.542 355.889 293.542 375C293.542 394.111 309.051 409.603 328.182 409.603Z" fill="#FF5D47"/>
<path d="M466.724 409.603C485.855 409.603 501.364 394.111 501.364 375C501.364 355.889 485.855 340.396 466.724 340.396C447.593 340.396 432.084 355.889 432.084 375C432.084 394.111 447.593 409.603 466.724 409.603Z" fill="#FF5D47"/>
<path d="M328.182 548C347.313 548 362.822 532.507 362.822 513.396C362.822 494.285 347.313 478.793 328.182 478.793C309.051 478.793 293.542 494.285 293.542 513.396C293.542 532.507 309.051 548 328.182 548Z" fill="#FF5D47"/>
<path d="M189.64 409.603C208.771 409.603 224.28 394.111 224.28 375C224.28 355.889 208.771 340.396 189.64 340.396C170.509 340.396 155 355.889 155 375C155 394.111 170.509 409.603 189.64 409.603Z" fill="#FF5D47"/>
<path d="M397.453 478.802C416.584 478.802 432.093 463.309 432.093 444.198C432.093 425.087 416.584 409.595 397.453 409.595C378.322 409.595 362.813 425.087 362.813 444.198C362.813 463.309 378.322 478.802 397.453 478.802Z" fill="#00A3AD"/>
<path d="M293.533 448.631C296.591 429.766 283.762 411.996 264.877 408.94C245.992 405.885 228.203 418.701 225.144 437.566C222.086 456.431 234.915 474.202 253.8 477.257C272.685 480.313 290.474 467.496 293.533 448.631Z" fill="#00A3AD"/>
</g>
<defs>
<clipPath id="clip0_1228_794">
<rect width="1190" height="346" fill="white" transform="translate(155 202)"/>
</clipPath>
</defs>
</svg>
