<svg xmlns="http://www.w3.org/2000/svg" id="Layer_1" data-name="Layer 1" viewBox="0 0 1383.76 402.76"><defs><style>.cls-1{fill:white}.cls-2{fill:white}</style></defs><path d="M713.56 266.55V373h-37.4V266.55c0-32.37-25.89-59-58.25-59-31.65 0-58.26 26.61-58.26 59V373H523V175.21h37.4v18.7c16.54-12.95 37.4-23 58.26-23 25.17 0 49.62 9.35 67.6 27.33 17.23 18.68 27.3 42.42 27.3 68.31zm239.5 7.19c0 27.33-10.79 53.22-30.93 73.36a102.32 102.32 0 0 1-72.64 30.21c-27.33 0-53.22-10.79-73.36-30.21-19.42-20.14-30.2-46-30.2-73.36s10.78-53.22 30.2-73.36a104.54 104.54 0 0 1 73.36-29.49c27.33 0 53.22 10.07 72.64 29.49 20.14 20.14 30.93 46.03 30.93 73.36zm-37.4 0a66.17 66.17 0 1 0-66.17 66.17c36.68.72 66.17-29.49 66.17-66.17z" class="cls-1" transform="translate(-23.12 -14.82)"/><path d="M1176.73 334.87c-3.59 4.32-7.19 8.63-10.79 12.23-19.41 19.42-45.31 29.49-72.64 29.49s-53.94-10.07-73.35-29.49c-19.42-20.14-30.21-46-30.21-73.36s10.79-53.22 30.21-73.36c19.41-19.42 46-29.49 73.35-29.49s53.23 10.07 72.64 29.49a82.11 82.11 0 0 1 10.06 12.23l-29.48 22.29c-12.23-16.54-31.65-27.33-53.23-27.33-36.68 0-66.16 30.21-66.16 66.89s29.48 66.88 66.16 66.88a65 65 0 0 0 53.23-28zm192.75-279.05h37.4v316.45h-37.4v-23c-18.7 15.82-41.71 27.33-66.17 27.33a104.54 104.54 0 0 1-73.31-29.5c-19.41-20.14-30.2-46-30.2-73.36s10.79-53.22 30.2-73.36a104.54 104.54 0 0 1 73.36-29.49c24.46 0 48.19 11.51 66.17 27.33zm0 217.92c0-36.68-29.49-66.89-66.17-66.89s-66.16 30.21-66.16 66.89 29.48 66.89 66.16 66.89 66.17-30.21 66.17-66.89z" class="cls-2" transform="translate(-23.12 -14.82)"/><circle cx="143.95" cy="135.65" r="40.28" class="cls-1" transform="rotate(-79.1 123.406 142.237)"/><circle cx="281.93" cy="120.83" r="40.28" class="cls-1"/><circle cx="201.38" cy="40.28" r="40.28" class="cls-2"/><circle cx="201.38" cy="201.38" r="40.28" class="cls-2"/><circle cx="362.48" cy="201.38" r="40.28" class="cls-2"/><circle cx="201.38" cy="362.48" r="40.28" class="cls-2"/><circle cx="40.28" cy="201.38" r="40.28" class="cls-2"/><circle cx="281.93" cy="281.93" r="40.28" class="cls-1"/><circle cx="143.95" cy="296.75" r="40.28" class="cls-1" transform="rotate(-80.8 123.18 301.991)"/></svg>