<?xml version="1.0" encoding="UTF-8"?>
<svg id="Calque_1" data-name="Calque 1" xmlns="http://www.w3.org/2000/svg" viewBox="20 250 1000 280">
  <defs>
    <style>
      .cls-1 {
        fill: #000;
      }
    </style>
  </defs>
  <path class="cls-1" d="M248.85,301.77c-17.77-19.03-28.11,6.65-43.83,5.66-17.48-1.1-33.83-13.78-51.95-13.36-19.16.44-36.23,11.46-54.92,13.52-11.63,1.29-15.41-18.78-36.05-10.58-6.54,2.6-8.82,10.33-8.73,18.79.11,11.37,9.45,21.52,14.79,31.53,6.01,11.26-4.51,38.84-3.41,53.11,10.29,10.98,28.97,13.91,35.36,26.72l19.98,40.03c21.47,7.94,46.2,7.72,67.18-.56,7.71-12.95,7.69-30.81,18.7-39.46l35.26-27.71c-.57-16.33-5.49-31.32-4.71-46.34.72-13.73,26.8-35.83,12.32-51.34Z"/>
  <path class="cls-1" d="M479.83,332.15c-1.49,2.29-.01,6.19-1.34,9.11-12.31-9.86-27.51-15.25-43.11-10.6-31.72,9.45-48.01,42.92-35.73,72.97,6.59,16.13,19.15,27.15,33.08,30.94,17.24,4.69,34.03,1.37,45.63-10.2,1.66,2.95-.53,8.99,2.68,9.23,8.35.61,15.34,1.18,23.97-1.11l-.38-99.65c-8.73-2.01-16.87-1.74-24.8-.7ZM461.82,410.71c-16.93,6.1-36.7-.35-39.97-20.71-2.12-13.22,1.87-26.2,11.74-32.05,15.89-9.41,35.29-3.04,42.71,11.36,8.34,16.18.87,35.87-14.49,41.4Z"/>
  <path class="cls-1" d="M766.84,332.54c-15.25-7.32-31.64-3.42-44.53,6.51l-1.34-45.26c-2.64,0-25.18,0-25.18,0l-.04,25.96v49.93l.1,63.04c8.47,2.35,16.67,2.33,23.61,2.33,9.09,0-11.84-69.55,15.5-79.93,8.46-3.21,19.32-3.25,25.48,4.55,5.29,6.69,4.29,15.99,4.35,24.18l.35,49.27c8.92,1.27,16.47,1.33,25.64-.05l-.17-65.43c-.04-16.91-11.32-29.11-23.78-35.1Z"/>
  <path class="cls-1" d="M883.82,341.65c-15.73-13.37-37.35-15.7-55.61-6.13-19.86,10.41-28.9,28.35-28.19,51.28.9,28.95,25.81,50.9,55.18,50.04,18.47-.54,36.54-7.47,45.41-23.81-6.64-5.79-13.76-8.3-21.14-12.32-6.75,10.56-18.09,13.75-29.1,12.89-11.35-.9-21.12-7.67-24.18-19.97l34.3-.91,44.47.7c.5-12.27-2.72-22.84-7.25-34.62-.6-1.56-4.17-8.88-13.89-17.14ZM827.23,372.1c2.35-11.95,11.17-18.61,23.29-19.22,12.44-.63,24.79,4.13,27.9,19.04l-51.2.18ZM894.89,377.02s.02,0,.03,0c0,0,.01.02.02.03-.02,0-.03-.02-.05-.03Z"/>
  <path class="cls-1" d="M594.26,334.09c-26.57-13.84-42.01,3.43-47.3,4.17-1.12.16-.94-5.23-2.27-5.67-7.22-2.42-14.65-.59-22.74-.74v101.83s23.74.03,23.74.03l.07-59.05c.01-12.69,9.31-20.78,21.62-21.55,11.38-.71,21.35,6.24,21.26,18.95l.11,61.83,19.73-.32c1.21.02,2.47,0,3.8-.06.7-20.59,2.23-44.99,1.41-67.78-.54-14.99-10.01-26.74-19.42-31.64Z"/>
  <path class="cls-1" d="M969.55,332.17c-12.36-3.25-21.18,2.44-30.18,9.26l-1.47-9.63-23.15.04v101.74c8.19.58,15.45.79,23.4-.41l1.09-52.95c.17-8.22,3.45-17.65,8.81-19.11l22.45-6.11c.52-7.56-.53-15.85-.94-22.83Z"/>
  <path class="cls-1" d="M667.41,331.51l-.47-28.66c-7.76,1.27-21.43,4.92-24.14,7.27.57.05-1.23,21.57-1.8,21.52l-21.19.15c-.92,5.68-.55,9.74-.4,13.94.07,1.83-1.17,9.2,2.08,9.59,7.08.86,12.71-.97,19.53.55l-.03,77.82c9.11.31,16.75.66,25.95-.42l.27-77.34c3.98-1.18,6.79-.82,9.5-.8l11.75.13c.03-9.06.23-13.54-.07-22.81-5.59-1.77-13.76-.18-20.98-.95Z"/>
  <path class="cls-1" d="M347.75,330.21c-14.71-2.96-29.4-.5-40.06,12.3-3.74-3.49-1.78-6.48-2.98-10.74-7.81-.35-14.79-.37-23.2.13l.03,140.57c7.29,2.69,14.99,1.66,23.46.9l.16-47.09c.01-2.85,4.73-1,5.71.25,6.81,8.69,18.13,10.54,30.62,9.91,24.18-1.23,44.44-21.17,47.41-44.85,3.69-29.4-13.18-55.74-41.15-61.38ZM363.66,389.39c-3.65,13.03-12.47,21.38-24.17,23.08-11.8,1.71-24.45-3.08-30.18-14.53-6.36-12.71-4.26-27.04,5.31-36.49,9.19-9.07,22.85-10.77,35.18-4.24,10.45,5.54,17.48,19.27,13.86,32.17Z"/>
</svg>