<svg width="1500" height="750" viewBox="0 0 1500 750" fill="none" xmlns="http://www.w3.org/2000/svg">
<rect width="1500" height="750"/>
<path d="M1168.65 259.749L1110.79 408.471C1110.07 410.315 1108.77 411.768 1107.23 412.473C1105.51 413.238 1103.64 413.276 1101.93 412.572C1100.23 411.867 1098.88 410.492 1098.24 408.786L1041.38 259.749H995.992L1056.29 418.183C1062.07 433.387 1074.38 445.099 1089.18 449.534C1093.89 450.946 1098.66 451.613 1103.38 451.613C1123.67 451.613 1142.78 439.118 1150.31 419.263L1210.7 259.769H1168.65V259.749Z" fill="#101014"/>
<path d="M929.599 259.741V277.947C912.82 264.785 892.205 257.604 870.951 257.604C817.818 257.604 774.598 301.608 774.598 355.693C774.598 409.78 817.815 453.781 870.951 453.781C892.205 453.781 912.82 446.6 929.599 433.438V451.644H971.96V259.762H929.599V259.741ZM931.987 355.693C931.987 388.925 905.685 415.96 873.338 415.96C840.992 415.96 814.69 388.927 814.69 355.693C814.69 322.458 840.992 295.425 873.338 295.425C905.685 295.425 931.987 322.461 931.987 355.693Z" fill="#101014"/>
<path d="M1308.56 257.607C1255.42 257.607 1212.2 301.611 1212.2 355.696C1212.2 409.781 1255.42 453.784 1308.56 453.784C1345.93 453.784 1383.09 429.047 1396.93 394.97L1398.52 391.065H1355.55L1354.71 392.184C1343.17 407.288 1326.36 415.96 1308.56 415.96C1283.06 415.96 1260.04 398.325 1252.53 373.547H1403.45L1403.72 371.016C1403.78 370.585 1404.91 360.227 1404.91 355.676C1404.91 301.588 1361.69 257.587 1308.56 257.587V257.607H1308.56ZM1252.53 337.845C1260.04 313.067 1283.06 295.432 1308.55 295.432C1334.06 295.432 1357.05 313.07 1364.58 337.845H1252.53Z" fill="#101014"/>
<path d="M652.802 257.604C631.544 257.604 610.933 264.785 594.154 277.947V259.741H551.796V530.999H594.154V433.441C610.933 446.603 631.544 453.784 652.802 453.784C705.935 453.784 749.155 409.78 749.155 355.695C749.155 301.608 705.938 257.604 652.802 257.604ZM709.065 355.693C709.065 388.925 682.764 415.96 650.417 415.96C618.073 415.96 591.769 388.927 591.769 355.693C591.769 322.458 618.073 295.425 650.417 295.425C682.764 295.428 709.065 322.461 709.065 355.693Z" fill="#101014"/>
<path d="M225.448 219H128.527C110.502 219 95.8892 233.659 95.8892 251.743V313.029C95.8892 331.113 110.502 345.772 128.527 345.772H225.445C243.471 345.772 258.083 331.113 258.083 313.029V251.743C258.086 233.659 243.473 219 225.448 219Z" fill="#4065FF"/>
<path d="M340.479 345.772C375.373 345.772 403.664 317.394 403.664 282.386C403.664 247.381 375.373 219 340.479 219C305.581 219 277.293 247.378 277.293 282.386C277.293 317.391 305.581 345.772 340.479 345.772Z" fill="#4065FF"/>
<path d="M273.321 492.398H371.023C389.048 492.398 403.661 477.739 403.661 459.655V397.76C403.661 379.677 389.048 365.018 371.023 365.018H273.321C255.296 365.018 240.683 379.677 240.683 397.76V459.655C240.68 477.739 255.293 492.398 273.321 492.398Z" fill="#4065FF"/>
<path d="M157.979 492.398C193.037 492.398 221.458 463.886 221.458 428.718C221.458 393.549 193.037 365.038 157.979 365.038C122.921 365.038 94.5 393.549 94.5 428.718C94.5 463.886 122.921 492.398 157.979 492.398Z" fill="#4065FF"/>
</svg>