<svg width="941" height="201" viewBox="0 0 820 201" fill="none" xmlns="http://www.w3.org/2000/svg">
<path d="M153.942 110.839L148.073 147.654L182.988 161.009L182.983 127.556L153.942 110.839Z" fill="#A299FF"/>
<path d="M1.82437 144.28V56.6901L30.879 65.878V127.55L77.8882 154.616L81.4004 167.969L77.8882 188.073L1.82437 144.28Z" fill="#7366FF"/>
<path d="M77.8953 46.3572L30.8792 73.4176L1.82449 56.6902L77.8779 12.9006L153.942 56.6902L137.893 69.4412L124.904 73.4228L77.8953 46.3572Z" fill="#7366FF"/>
<path d="M182.997 160.997L153.942 177.736L124.905 160.997V127.552L182.997 160.997Z" fill="#5219FF"/>
<path d="M77.8953 67.1164L77.878 100.564L106.941 117.287L106.936 83.8335L77.8953 67.1164Z" fill="#A299FF"/>
<path d="M77.878 100.565L48.8337 117.287L77.8832 134.018L106.941 117.287L77.878 100.565Z" fill="#5219FF"/>
<path d="M77.8953 67.1164L48.8372 83.8473L48.8337 117.287L77.8779 100.564L77.8953 67.1164Z" fill="#7366FF"/>
<path d="M153.942 56.6901V110.839L124.905 127.552V73.4228L153.942 56.6901Z" fill="url(#paint0_linear)"/>
<path d="M153.95 110.821L77.8882 154.616V188.073L153.942 144.275L153.95 110.821Z" fill="url(#paint1_linear)"/>
<path d="M334.543 138.718C329.574 133.818 326.184 127.551 324.805 120.718C323.427 113.886 324.123 106.799 326.805 100.363C329.487 93.9277 334.032 88.4359 339.86 84.5902C345.688 80.7444 352.534 78.7194 359.522 78.7741C364.155 78.7248 368.752 79.5964 373.044 81.338C377.336 83.0795 381.237 85.6562 384.52 88.9175C387.803 92.1789 390.401 96.0596 392.164 100.333C393.926 104.607 394.817 109.188 394.786 113.809C394.729 120.743 392.626 127.508 388.74 133.259C384.854 139.01 379.356 143.494 372.932 146.15C366.508 148.806 359.443 149.518 352.616 148.196C345.789 146.875 339.504 143.578 334.543 138.718V138.718ZM359.522 134.856C362.273 134.92 365.008 134.42 367.558 133.389C370.107 132.358 372.419 130.817 374.349 128.862C378.209 124.795 380.36 119.408 380.36 113.809C380.36 108.209 378.209 102.822 374.349 98.7554C370.376 94.911 365.057 92.7608 359.522 92.7608C353.986 92.7608 348.667 94.911 344.694 98.7554C340.834 102.822 338.683 108.209 338.683 113.809C338.683 119.408 340.834 124.795 344.694 128.862C346.624 130.818 348.936 132.359 351.486 133.39C354.036 134.42 356.771 134.92 359.522 134.856Z" fill="#FFFFFF"/>
<path d="M448.068 80.5059H463.83L437.782 147.111H421.085L395.038 80.5059H410.801L429.501 131.125L448.068 80.5059Z" fill="#FFFFFF"/>
<path d="M479.244 119.937C481.382 130.061 489.53 135.656 500.617 135.656C508.23 135.656 513.974 132.857 517.847 127.396L529.736 134.323C523.191 144.047 513.44 148.843 500.483 148.843C489.663 148.843 480.847 145.513 474.169 138.986C470.864 135.693 468.271 131.761 466.548 127.431C464.825 123.101 464.009 118.465 464.15 113.809C464.029 109.207 464.842 104.627 466.541 100.346C468.239 96.0656 470.788 92.1714 474.035 88.898C480.58 82.1043 489.129 78.7744 499.415 78.7744C503.927 78.6543 508.411 79.5088 512.561 81.2792C516.711 83.0497 520.428 85.6943 523.457 89.0316C529.732 95.7985 533.131 104.728 532.941 113.942C532.918 115.951 532.739 117.955 532.407 119.937L479.244 119.937ZM518.382 108.214C516.378 97.4234 508.765 91.8284 499.281 91.8284C488.595 91.8284 481.114 98.0901 479.111 108.214H518.382Z" fill="#FFFFFF"/>
<path d="M556.859 91.6958C560.465 83.4363 567.411 80.5059 577.429 80.5059V94.6777C572.285 94.4492 567.211 95.9304 563.003 98.889C558.862 101.819 556.859 106.748 556.859 113.543V147.111H542.432V80.5059H556.859V91.6958Z" fill="#FFFFFF"/>
<path d="M633.155 80.506H648.516L622.869 149.243C616.458 166.426 605.638 174.685 590.276 173.753V160.299C599.36 160.832 604.436 156.436 608.043 147.244L608.71 145.913L580.392 80.5059H596.155L616.057 128.862L633.155 80.506Z" fill="#FFFFFF"/>
<path d="M319.514 135.651L306.474 128.143C312.214 120.068 315.236 110.384 315.102 100.487C315.09 90.9243 312.238 81.5789 306.907 73.6301C301.575 65.6813 294.002 59.4852 285.144 55.8232C276.285 52.1612 266.538 51.1974 257.131 53.0533C247.724 54.9093 239.078 59.5019 232.285 66.2519C227.687 70.6774 224.056 76.003 221.619 81.8944C219.183 87.7859 217.993 94.116 218.126 100.487C218.077 106.851 219.298 113.161 221.717 119.05C224.136 124.939 227.706 130.29 232.218 134.79C236.731 139.29 242.096 142.85 248.001 145.263C253.906 147.675 260.234 148.892 266.615 148.843C275.4 148.846 284.026 146.5 291.593 142.049C293.228 141.114 294.785 140.049 296.248 138.865L319.514 152.253L319.514 135.651ZM266.615 133.924C262.248 134.007 257.909 133.199 253.867 131.55C249.824 129.9 246.162 127.444 243.105 124.332C236.934 117.92 233.487 109.376 233.487 100.487C233.487 91.5992 236.934 83.0552 243.105 76.6428C249.378 70.4964 257.821 67.0524 266.615 67.0524C275.409 67.0524 283.851 70.4964 290.124 76.6428C293.272 79.7544 295.748 83.4745 297.402 87.5748C299.055 91.6751 299.851 96.0692 299.741 100.487C299.83 107.697 297.573 114.74 293.309 120.562L266.615 105.192V121.809L281.542 130.402C280.982 130.697 280.64 130.859 280.64 130.859C276.241 132.878 271.457 133.923 266.615 133.924Z" fill="#FFFFFF"/>
<defs>
<linearGradient id="paint0_linear" x1="139.424" y1="56.69" x2="139.424" y2="127.553" gradientUnits="userSpaceOnUse">
<stop offset="0.25" stop-color="#7366FF"/>
<stop offset="1" stop-color="#5219FF"/>
</linearGradient>
<linearGradient id="paint1_linear" x1="77.8874" y1="149.448" x2="153.95" y2="149.448" gradientUnits="userSpaceOnUse">
<stop stop-color="#7366FF"/>
<stop offset="1" stop-color="#A299FF"/>
</linearGradient>
</defs>
</svg>
