<svg width="1500" height="750" viewBox="0 0 1500 750" fill="none" xmlns="http://www.w3.org/2000/svg">
<path d="M413.408 395.76L401.856 468.218L470.579 494.503L470.569 428.662L413.408 395.76Z" fill="#A299FF"/>
<path d="M114 461.577V289.185L171.187 307.268V428.65L263.714 481.92L270.627 508.201L263.714 547.769L114 461.577Z" fill="#7366FF"/>
<path d="M263.728 268.848L171.188 322.108L114 289.186L263.694 203L413.408 289.186L381.82 314.282L356.254 322.118L263.728 268.848Z" fill="#7366FF"/>
<path d="M470.596 494.479L413.408 527.425L356.256 494.479V428.654L470.596 494.479Z" fill="#5219FF"/>
<path d="M263.728 309.707L263.694 375.537L320.898 408.451L320.888 342.609L263.728 309.707Z" fill="#A299FF"/>
<path d="M263.694 375.539L206.527 408.45L263.704 441.38L320.898 408.45L263.694 375.539Z" fill="#5219FF"/>
<path d="M263.728 309.707L206.534 342.636L206.527 408.451L263.694 375.537L263.728 309.707Z" fill="#7366FF"/>
<path d="M413.408 289.185V395.759L356.256 428.654V322.118L413.408 289.185Z" fill="url(#paint0_linear_1234_2)"/>
<path d="M413.424 395.724L263.714 481.92V547.769L413.408 461.567L413.424 395.724Z" fill="url(#paint1_linear_1234_2)"/>
<path d="M768.879 450.63C759.099 440.986 752.427 428.652 749.712 415.203C747 401.757 748.37 387.808 753.649 375.141C758.928 362.475 767.874 351.666 779.345 344.097C790.816 336.528 804.291 332.543 818.045 332.65C827.164 332.553 836.212 334.269 844.66 337.697C853.108 341.124 860.786 346.196 867.248 352.614C873.709 359.033 878.823 366.671 882.293 375.082C885.761 383.494 887.515 392.51 887.454 401.605C887.342 415.252 883.202 428.567 875.554 439.886C867.905 451.205 857.083 460.03 844.439 465.258C831.795 470.485 817.889 471.887 804.452 469.285C791.015 466.685 778.644 460.196 768.879 450.63ZM818.045 443.029C823.46 443.155 828.843 442.171 833.862 440.142C838.879 438.113 843.43 435.08 847.228 431.232C854.826 423.227 859.06 412.625 859.06 401.605C859.06 390.583 854.826 379.981 847.228 371.977C839.408 364.411 828.939 360.179 818.045 360.179C807.149 360.179 796.679 364.411 788.859 371.977C781.262 379.981 777.028 390.583 777.028 401.605C777.028 412.625 781.262 423.227 788.859 431.232C792.658 435.082 797.209 438.115 802.228 440.144C807.247 442.171 812.63 443.155 818.045 443.029Z" fill="#131326"/>
<path d="M992.327 336.059H1023.35L972.082 467.149H939.217L887.95 336.059H918.976L955.782 435.686L992.327 336.059Z" fill="#131326"/>
<path d="M1053.69 413.666C1057.9 433.592 1073.94 444.604 1095.76 444.604C1110.74 444.604 1122.05 439.095 1129.67 428.347L1153.07 441.981C1140.19 461.119 1121 470.558 1095.49 470.558C1074.2 470.558 1056.85 464.004 1043.7 451.158C1037.2 444.677 1032.09 436.938 1028.7 428.416C1025.31 419.894 1023.7 410.769 1023.98 401.605C1023.74 392.548 1025.34 383.534 1028.69 375.108C1032.03 366.683 1037.05 359.019 1043.44 352.576C1056.32 339.205 1073.15 332.651 1093.39 332.651C1102.27 332.415 1111.1 334.097 1119.27 337.581C1127.44 341.066 1134.75 346.271 1140.71 352.839C1153.06 366.158 1159.75 383.732 1159.38 401.867C1159.33 405.821 1158.98 409.765 1158.33 413.666H1053.69ZM1130.72 390.593C1126.78 369.356 1111.8 358.344 1093.13 358.344C1072.1 358.344 1057.37 370.668 1053.43 390.593H1130.72Z" fill="#131326"/>
<path d="M1206.46 358.083C1213.55 341.827 1227.23 336.059 1246.94 336.059V363.952C1236.82 363.502 1226.83 366.417 1218.55 372.24C1210.4 378.007 1206.46 387.708 1206.46 401.082V467.149H1178.06V336.059H1206.46V358.083Z" fill="#131326"/>
<path d="M1356.63 336.059H1386.86L1336.38 471.346C1323.76 505.165 1302.47 521.42 1272.23 519.586V493.106C1290.11 494.155 1300.1 485.503 1307.2 467.411L1308.51 464.792L1252.78 336.059H1283.8L1322.97 431.232L1356.63 336.059Z" fill="#131326"/>
<path d="M739.298 444.594L713.632 429.817C724.93 413.924 730.878 394.864 730.614 375.385C730.591 356.564 724.977 338.171 714.484 322.526C703.989 306.882 689.084 294.687 671.649 287.479C654.212 280.272 635.027 278.375 616.512 282.028C597.996 285.681 580.979 294.72 567.608 308.005C558.558 316.715 551.411 327.197 546.615 338.792C541.82 350.387 539.478 362.846 539.739 375.385C539.643 387.911 542.046 400.33 546.808 411.921C551.569 423.511 558.595 434.043 567.476 442.9C576.359 451.756 586.919 458.763 598.541 463.512C610.164 468.259 622.619 470.655 635.179 470.558C652.47 470.564 669.448 465.947 684.342 457.187C687.56 455.346 690.625 453.25 693.504 450.92L739.298 477.27V444.594ZM635.179 441.195C626.583 441.358 618.043 439.768 610.087 436.523C602.13 433.275 594.922 428.441 588.905 422.316C576.759 409.696 569.974 392.88 569.974 375.385C569.974 357.893 576.759 341.077 588.905 328.456C601.252 316.359 617.87 309.58 635.179 309.58C652.488 309.58 669.104 316.359 681.451 328.456C687.647 334.58 692.52 341.902 695.776 349.972C699.029 358.042 700.596 366.69 700.38 375.385C700.555 389.576 696.112 403.438 687.72 414.896L635.179 384.646V417.351L664.559 434.263C663.457 434.844 662.784 435.163 662.784 435.163C654.125 439.136 644.709 441.193 635.179 441.195Z" fill="#131326"/>
<defs>
<linearGradient id="paint0_linear_1234_2" x1="384.833" y1="289.185" x2="384.833" y2="428.655" gradientUnits="userSpaceOnUse">
<stop offset="0.25" stop-color="#7366FF"/>
<stop offset="1" stop-color="#5219FF"/>
</linearGradient>
<linearGradient id="paint1_linear_1234_2" x1="263.712" y1="471.749" x2="413.424" y2="471.749" gradientUnits="userSpaceOnUse">
<stop stop-color="#7366FF"/>
<stop offset="1" stop-color="#A299FF"/>
</linearGradient>
</defs>
</svg>
