<svg width="125" height="36" viewBox="0 0 125 36" fill="none" xmlns="http://www.w3.org/2000/svg" id="svg-1735274024_1379">
<g clip-path="url(#svg-1735274024_1379_clip0_49_259)">
<path d="M0 0.543106V7.00159H10.1483V35.4996H17.5136V7.00159H27.6624V0.543106H0Z" fill="white"></path>
<path d="M33.7441 0.543106V35.4996H57.1859V29.0137H41.1098V21.0481H54.0362V14.6343H41.1098V7.00135H57.1859V0.543106H33.7441Z" fill="white"></path>
<path d="M90.4521 35.5L83.635 22.1784C87.0092 20.1776 88.1905 17.5459 88.1905 17.5459L88.1812 17.5476C88.9644 16.0638 89.4596 14.1854 89.4596 11.7901C89.4596 4.67222 85.1178 0.54317 76.5542 0.54317H63.2681V35.5H70.7275V23.2124H76.1296L82.4325 35.5H90.4521ZM70.7784 6.64019H76.3612C76.8786 6.64019 77.3541 6.66923 77.7922 6.72439C79.0299 6.91168 81.3918 7.62399 81.9484 10.3219C81.9632 10.4028 82.0048 10.6473 82.01 10.6893C82.0575 11.0582 82.081 11.4499 82.081 11.8653C82.081 12.0523 82.0723 12.2328 82.0615 12.4108C81.9555 13.6478 81.2571 17.0514 76.825 17.3253C76.689 17.3314 76.5542 17.3392 76.4127 17.3392H70.7784V6.64019Z" fill="white"></path>
<path d="M106.822 20.7073H113.767V8.2667L106.822 20.7073ZM121.161 35.5H113.767V27.2388H99.3255L102.018 29.2853L98.5436 35.5H90.4268L109.992 0.499077H121.161V20.6715H124.231V27.2752H121.161V35.5Z" fill="#EC412A"></path>
</g>
<defs>
<clipPath id="svg-1735274024_1379_clip0_49_259">
<rect width="124.231" height="35" fill="white" transform="translate(0 0.5)"></rect>
</clipPath>
</defs>
</svg>