<?xml version="1.0" encoding="utf-8"?>
<!-- Generator: Adobe Illustrator 24.1.0, SVG Export Plug-In . SVG Version: 6.00 Build 0)  -->
<svg version="1.1" id="Layer_1" xmlns="http://www.w3.org/2000/svg" xmlns:xlink="http://www.w3.org/1999/xlink" x="0px" y="0px"
	 width="317px" height="317px" viewBox="0 0 60.1329956 60.1510048" enable-background="new 0 0 60.1329956 60.1510048" xml:space="preserve">
<g>
	<path fill="#173B65" d="M30.0263977,8.8999023c-11.684021,0-21.1560059,9.4720001-21.1560059,21.1560059
		s9.4719849,21.1569939,21.1560059,21.1569939c11.6839905,0,21.1559753-9.4729958,21.1559753-21.1569939
		S41.7103882,8.8999023,30.0263977,8.8999023"/>
	<path fill="none" stroke="#173B65" stroke-width="0.261" d="M30.0263977,8.8999023
		c-11.684021,0-21.1560059,9.4720001-21.1560059,21.1560059s9.4719849,21.1569939,21.1560059,21.1569939
		c11.6839905,0,21.1559753-9.4729958,21.1559753-21.1569939S41.7103882,8.8999023,30.0263977,8.8999023z"/>
	<path fill="#173B65" d="M30.7319031,7.250206c0.2469788,0.4560013,0.8139954,1.7590027,0.8139954,1.7590027
		s0.1019897,0.3909988,0.8119812,0.4520035c0.7109985,0.0599976,0.6410217-0.3880005,0.6410217-0.3880005
		s-0.6950073-2.4380035-0.9320068-3.1310043c-0.2369995-0.6940002-0.5960083-1.3040009-0.5960083-1.3040009
		s0.0639954-0.798996,0.1889954-0.9419937c0.125-0.1430054,0.2600098-0.4940033,0.2600098-0.4940033l1.8710022,0.0230026
		c0,0,1.2049866,0.1829987,1.2349854-0.201004c0.0400085-0.5359955-1.1990051-0.6940002-1.1990051-0.6940002
		S32.099884,1.814209,31.7468872,1.739212c-0.3540039-0.0750046-1.1470032-0.2890015-1.1470032-0.2890015
		s0.1669922-0.4080048,0.1560059-0.8239975c-0.0119934-0.4169998-0.1799927-0.6450043-0.6700134-0.6260071
		c-0.4889832,0.0200043-0.6459961,0.2050018-0.6589966,0.6210022c-0.0119934,0.4160004,0.1520081,0.826004,0.1520081,0.826004
		s-0.7940063,0.2089996-1.1470032,0.2829971s-2.0589905,0.5279999-2.0589905,0.5279999s-1.3280029,0.2310028-1.2780151,0.7330017
		c0.0390015,0.3850021,1.2860107,0.2169952,1.2860107,0.2169952l1.8720093-0.0149994c0,0,0.1319885,0.3510056,0.2569885,0.4950027
		c0.1239929,0.1429977,0.1860046,0.9430008,0.1860046,0.9430008s-0.3619995,0.6080017-0.6019897,1.3010025
		c-0.2400208,0.6919937-0.9440002,3.1269989-0.9440002,3.1269989s-0.0720215,0.4489975,0.6389771,0.3909988
		c0.710022-0.0579987,0.8130188-0.4489975,0.8130188-0.4489975s0.571991-1.3000031,0.821991-1.7560043
		c0.2489929-0.4550018,0.6470032-0.8860016,0.6470032-0.8860016S30.4848938,6.7942123,30.7319031,7.250206"/>
	<path fill="#173B65" d="M16.0973816,48.1402054c0.0689697-0.5139999,0.3769836-1.9009972,0.3769836-1.9009972
		s0.1480103-0.3759995-0.3899841-0.8430023c-0.5380249-0.4679985-0.7460022-0.0639992-0.7460022-0.0639992
		s-0.8730164,2.3780022-1.0900269,3.0790024c-0.21698,0.7009964-0.2859802,1.4049988-0.2859802,1.4049988
		s-0.5230103,0.6069984-0.7090149,0.6499977c-0.1849976,0.0419998-0.5,0.2460022-0.5,0.2460022l-1.4989929-1.1199989
		c0,0-0.8659973-0.8590012-1.1159973-0.564003c-0.348999,0.4080009,0.5599976,1.2660027,0.5599976,1.2660027
		s1.0920105,1.4349976,1.3340149,1.7029991c0.2409973,0.2679977,0.7559814,0.9080009,0.7559814,0.9080009
		s-0.375,0.2319984-0.6109924,0.5760002c-0.2359924,0.3429985-0.2340088,0.6259995,0.1730042,0.8979988
		c0.4069824,0.2729988,0.6419983,0.2159996,0.8979797-0.112999c0.256012-0.3290024,0.3630066-0.757,0.3630066-0.757
		s0.7660217,0.2979965,1.0939941,0.4469986c0.32901,0.1479988,1.973999,0.7859993,1.973999,0.7859993
		s1.210022,0.5950012,1.4660034,0.1590004c0.1950073-0.3330002-0.9129944-0.9319992-0.9129944-0.9319992l-1.519989-1.0890007
		c0,0,0.098999-0.362999,0.0830078-0.5519981c-0.0160217-0.1900024,0.4049988-0.8720016,0.4049988-0.8720016
		s0.651001-0.2779999,1.2529907-0.6980019c0.6019897-0.4179993,2.605011-1.9699974,2.605011-1.9699974
		s0.321991-0.3199997-0.2870178-0.6920013c-0.6090088-0.3719978-0.9219971-0.1170006-0.9219971-0.1170006
		s-1.2279968,0.7140007-1.697998,0.9350014c-0.4689941,0.2210007-1.04599,0.3359985-1.04599,0.3359985
		S16.0283813,48.6552086,16.0973816,48.1402054"/>
	<path fill="#173B65" d="M22.252594,51.5359039c-0.0910034-0.5119972-0.2180176-1.9259987-0.2180176-1.9259987
		s0.026001-0.4029999-0.6289978-0.6839981c-0.6539917-0.2820015-0.730011,0.1660004-0.730011,0.1660004
		s-0.1080017,2.5309982-0.1019897,3.2649994c0.006012,0.7329979,0.1549988,1.4249992,0.1549988,1.4249992
		s-0.3129883,0.737999-0.4769897,0.8339996c-0.1640015,0.0970001-0.4020081,0.387001-0.4020081,0.387001l-1.7680054-0.6100006
		c0,0-1.0870056-0.5540009-1.2359924-0.1990013c-0.2070007,0.4950027,0.9190063,1.0359993,0.9190063,1.0359993
		s1.4769897,1.0349998,1.7890015,1.2170029c0.3119812,0.1819992,0.9960022,0.6349983,0.9960022,0.6349983
		s-0.2860107,0.3349991-0.4070129,0.7340012c-0.1199951,0.3979988-0.0320129,0.6679993,0.4389954,0.8040009
		c0.4700012,0.1349983,0.6759949,0.0089989,0.8210144-0.382c0.1430054-0.3910027,0.1159973-0.8310013,0.1159973-0.8310013
		s0.8200073,0.0509987,1.177002,0.0919991c0.3589783,0.0419998,2.1199951,0.1490021,2.1199951,0.1490021
		s1.3330078,0.197998,1.4450073-0.295002c0.0849915-0.3759995-1.1520081-0.6100006-1.1520081-0.6100006l-1.7810059-0.5760002
		c0,0-0.0149841-0.3740005-0.0889893-0.5499992c-0.0720215-0.1759987,0.1210022-0.9539986,0.1210022-0.9539986
		s0.5350037-0.4630013,0.9809875-1.045002c0.4460144-0.5820007,1.8819885-2.6699982,1.8819885-2.6699982
		s0.210022-0.4029999-0.4829712-0.5720024c-0.6930237-0.1679993-0.9150085,0.1690025-0.9150085,0.1690025
		s-0.9519958,1.0540009-1.3320007,1.4080009c-0.3800049,0.3529968-0.8940125,0.6369972-0.8940125,0.6369972
		S22.3435669,52.0469055,22.252594,51.5359039"/>
	<path fill="#173B65" d="M28.9647827,52.8895073c-0.2380066-0.4609985-0.7800293-1.7749977-0.7800293-1.7749977
		s-0.0939941-0.3920021-0.8029785-0.4669991c-0.7090149-0.0750008-0.6480103,0.375-0.6480103,0.375
		s0.6480103,2.4499969,0.8699951,3.1489983c0.223999,0.6980019,0.5720215,1.3149986,0.5720215,1.3149986
		s-0.0800171,0.7980003-0.2090149,0.939003c-0.1279907,0.1399994-0.2690125,0.487999-0.2690125,0.487999l-1.8699951-0.0590019
		c0,0-1.2019958-0.2069969-1.2389832,0.177002c-0.0500183,0.5340004,1.1849976,0.7169991,1.1849976,0.7169991
		s1.71698,0.5499992,2.0700073,0.632c0.3509827,0.0810013,1.1389771,0.3100014,1.1389771,0.3100014
		s-0.1739807,0.4049988-0.17099,0.8219986c0.0029907,0.4160004,0.1679993,0.6479988,0.6570129,0.6380005
		c0.4909973-0.0099983,0.6499939-0.1920013,0.67099-0.6080017c0.0209961-0.4149971-0.1350098-0.8279991-0.1350098-0.8279991
		s0.7969971-0.1949997,1.1520081-0.2609978c0.355011-0.0670013,2.0679932-0.4869995,2.0679932-0.4869995
		s1.3320007-0.2060013,1.2919922-0.7100029c-0.0299988-0.3839989-1.2809753-0.2409973-1.2809753-0.2409973l-1.8710022-0.0209999
		c0,0-0.1260071-0.3540001-0.2480164-0.5c-0.1219788-0.1459999-0.1679993-0.946003-0.1679993-0.946003
		s0.3739929-0.6019974,0.6280212-1.2899971c0.2529907-0.6879997,1.0049744-3.1080017,1.0049744-3.1080017
		s0.0800171-0.4469986-0.6319885-0.4029999c-0.7109985,0.0439987-0.821991,0.4329987-0.821991,0.4329987
		s-0.5970154,1.2890015-0.8560181,1.7390022c-0.2569885,0.4510002-0.6640015,0.8740005-0.6640015,0.8740005
		S29.2027588,53.3515091,28.9647827,52.8895073"/>
	<path fill="#173B65" d="M35.6421814,52.2260056c-0.36203-0.3719978-1.2620239-1.4709969-1.2620239-1.4709969
		s-0.2049866-0.3490028-0.9049988-0.2140007c-0.6999817,0.1349983-0.5099792,0.5480003-0.5099792,0.5480003
		s1.3320007,2.1549988,1.7479858,2.7589989c0.4169922,0.6030006,0.9290161,1.0919991,0.9290161,1.0919991
		s0.1549988,0.7870026,0.072998,0.9589996c-0.0810242,0.1720009-0.1150208,0.545002-0.1150208,0.545002l-1.8059998,0.4869995
		c0,0-1.2099915,0.1520004-1.1340027,0.5299988c0.1060181,0.526001,1.3420105,0.3409996,1.3420105,0.3409996
		s1.803009,0.0279999,2.1629944,0.0040016c0.3600159-0.0250015,1.1820068-0.0349998,1.1820068-0.0349998
		s-0.0499878,0.4389992,0.0740051,0.8359985c0.1239929,0.3980026,0.348999,0.571003,0.8139954,0.4190025
		c0.4670105-0.1520004,0.5660095-0.3720016,0.4660034-0.776001c-0.1010132-0.4049988-0.3710022-0.7530022-0.3710022-0.7530022
		s0.7070007-0.4179993,1.0270081-0.5849991c0.3199768-0.1669998,1.8369751-1.0680008,1.8369751-1.0680008
		s1.2150269-0.5829964,1.0299988-1.053997c-0.1409912-0.3590012-1.2969971,0.1419983-1.2969971,0.1419983l-1.7949829,0.5229988
		c0,0-0.223999-0.3019981-0.382019-0.4059982c-0.1589966-0.1030006-0.4359741-0.8569984-0.4359741-0.8569984
		s0.1829834-0.6840019,0.2249756-1.4160004c0.0420227-0.7310028,0.0580139-3.2660027,0.0580139-3.2660027
		s-0.052002-0.4510002-0.7210083-0.2010002c-0.6679993,0.2490005-0.6619873,0.6529999-0.6619873,0.6529999
		s-0.1960144,1.406002-0.3120117,1.913002c-0.1159973,0.5060005-0.3819885,1.0289993-0.3819885,1.0289993
		S36.0041809,52.5980072,35.6421814,52.2260056"/>
	<path fill="#173B65" d="M42.0447083,49.5241051c-0.4570007-0.2459984-1.6460266-1.0229988-1.6460266-1.0229988
		s-0.2989807-0.2709999-0.9259949,0.0680008c-0.6279907,0.3400002-0.322998,0.6759987-0.322998,0.6759987
		s1.9190063,1.6550026,2.4980164,2.1049995c0.5780029,0.4500008,1.2139893,0.7630005,1.2139893,0.7630005
		s0.3850098,0.7040024,0.3580017,0.8910027c-0.026001,0.1889992,0.0539856,0.5559998,0.0539856,0.5559998l-1.5759888,1.007
		c0,0-1.1080017,0.5089989-0.9219971,0.8470001c0.2600098,0.468998,1.3819885-0.0780029,1.3819885-0.0780029
		s1.7279968-0.5159988,2.0650024-0.6479988c0.3359985-0.132,1.1159973-0.3880005,1.1159973-0.3880005
		s0.085022,0.4319992,0.322998,0.7740021c0.2380066,0.3419991,0.5050049,0.4389992,0.9030151,0.1549988
		c0.3980103-0.2849998,0.427002-0.5250015,0.2099915-0.8810005c-0.2179871-0.3549995-0.5809937-0.605999-0.5809937-0.605999
		s0.5490112-0.6119995,0.8039856-0.8660011c0.2550049-0.2560005,1.4309998-1.5719986,1.4309998-1.5719986
		s0.9820251-0.9220009,0.6650085-1.3139992c-0.242981-0.3000031-1.1940002,0.5249977-1.1940002,0.5249977l-1.5549927,1.0390015
		c0,0-0.3040161-0.2200012-0.4869995-0.2719994c-0.1830139-0.0510025-0.6730042-0.6860008-0.6730042-0.6860008
		s-0.0310059-0.7080002-0.2120056-1.4179993c-0.1789856-0.7110023-0.9259949-3.1330032-0.9259949-3.1330032
		s-0.1870117-0.4139977-0.7489929,0.0250015c-0.5620117,0.4379997-0.434021,0.8209991-0.434021,0.8209991
		s0.2350159,1.401001,0.2770081,1.9190025c0.0419922,0.5169983-0.0549927,1.0970001-0.0549927,1.0970001
		S42.5016785,49.7701073,42.0447083,49.5241051"/>
	<path fill="#173B65" d="M47.4893799,44.8447075c-0.5110168-0.0919991-1.882019-0.461998-1.882019-0.461998
		s-0.368988-0.1650009-0.8609924,0.3530006c-0.4899902,0.5169983-0.0960083,0.743-0.0960083,0.743
		s2.3380127,0.9780006,3.0289917,1.2249985c0.6890259,0.2480011,1.3900146,0.3479996,1.3900146,0.3479996
		s0.5839844,0.5489998,0.6180115,0.7369995c0.0339966,0.1870003,0.2229919,0.5110016,0.2229919,0.5110016l-1.1849976,1.4469986
		c0,0-0.8959961,0.8280029-0.6130066,1.0909996c0.3930054,0.3650017,1.2900085-0.5039978,1.2900085-0.5039978
		s1.4819946-1.0279999,1.7609863-1.257c0.2780151-0.2290001,0.9400024-0.7159996,0.9400024-0.7159996
		s0.2149963,0.3859978,0.5480042,0.6369972c0.3320007,0.25,0.6159973,0.2600021,0.9049988-0.1339989
		c0.2909851-0.394001,0.243988-0.632-0.072998-0.9020004c-0.3179932-0.2700005-0.7399902-0.3969994-0.7399902-0.3969994
		s0.3309937-0.75,0.4949951-1.0719986c0.1629944-0.3220024,0.8719788-1.9389992,0.8719788-1.9389992
		s0.6480103-1.1809998,0.223999-1.4560013c-0.3239746-0.2099991-0.9719849,0.8699989-0.9719849,0.8699989l-1.1549988,1.4710007
		c0,0-0.3569946-0.1150017-0.5480042-0.1069984c-0.1889954,0.007-0.8519897-0.4440002-0.8519897-0.4440002
		s-0.2510071-0.6620026-0.6419983-1.281002c-0.3919983-0.6199989-1.8540039-2.6899986-1.8540039-2.6899986
		s-0.3059998-0.3359985-0.7030029,0.2550049c-0.3990173,0.5919952-0.1589966,0.916996-0.1589966,0.916996
		s0.6589966,1.257,0.8599854,1.7369995c0.2000122,0.4790001,0.2890015,1.0589981,0.2890015,1.0589981
		S48.0013733,44.9357109,47.4893799,44.8447075"/>
	<path fill="#173B65" d="M11.2006836,42.9366074c0.223999-0.4679985,0.946991-1.6909943,0.946991-1.6909943
		s0.2559814-0.3120041-0.1109924-0.9230042c-0.3670044-0.6110001-0.6900024-0.2910004-0.6900024-0.2910004
		s-1.5660095,1.9920006-1.9890137,2.5909996c-0.4219971,0.5990028-0.7049866,1.2480011-0.7049866,1.2480011
		s-0.6860046,0.4169998-0.875,0.3989983c-0.1900024-0.0169983-0.552002,0.0790024-0.552002,0.0790024l-1.07901-1.5279999
		c0,0-0.5589905-1.0839996-0.8869934-0.882c-0.4580078,0.2809982,0.1399841,1.3769989,0.1399841,1.3769989
		s0.5960083,1.7019997,0.7430115,2.0320015c0.1459961,0.3309975,0.4389954,1.0970001,0.4389954,1.0970001
		s-0.4289856,0.1049995-0.7600098,0.3589973c-0.3309937,0.2540016-0.4159851,0.5230026-0.1129761,0.9090004
		c0.3029785,0.3839989,0.5429993,0.4029999,0.8880005,0.1690025c0.3450012-0.2340012,0.5799866-0.6070023,0.5799866-0.6070023
		s0.6360168,0.5200005,0.9020081,0.762001c0.2669983,0.2439995,1.6349792,1.3579979,1.6349792,1.3579979
		s0.9660034,0.9400024,1.3440247,0.6050034c0.2890015-0.257-0.5780029-1.1690025-0.5780029-1.1690025l-1.1109924-1.5060005
		c0,0,0.2070007-0.3129997,0.25-0.4979973c0.0439758-0.1850014,0.6549988-0.7040024,0.6549988-0.7040024
		s0.7049866-0.0639992,1.4069824-0.2759972c0.7010193-0.2130013,3.0870056-1.0690002,3.0870056-1.0690002
		s0.4049988-0.2060013-0.0589905-0.7470016c-0.4640198-0.5419998-0.8410034-0.3969994-0.8410034-0.3969994
		s-1.3880005,0.2989998-1.9030151,0.3660011c-0.5159912,0.0639992-1.098999-0.0050011-1.098999-0.0050011
		S10.9766541,43.4046097,11.2006836,42.9366074"/>
	<path fill="#173B65" d="M8.1421814,36.4393082c0.3589783-0.375,1.4249878-1.3139954,1.4249878-1.3139954
		s0.3410034-0.2160034,0.1820068-0.9110031s-0.5660095-0.4919968-0.5660095-0.4919968S7.077179,35.1313095,6.4881592,35.569313
		c-0.5879822,0.4369965-1.0579834,0.9659958-1.0579834,0.9659958s-0.7810059,0.1830063-0.9560242,0.1070023
		c-0.1739807-0.0749969-0.5489807-0.0950012-0.5489807-0.0950012l-0.5500183-1.7879944c0,0-0.1949768-1.2040024-0.5709839-1.114006
		c-0.5209961,0.125-0.2919922,1.352005-0.2919922,1.352005s0.0350037,1.8040009,0.071991,2.1619949
		c0.0379944,0.3600006,0.0780029,1.1800003,0.0780029,1.1800003s-0.4410095-0.0339966-0.8340149,0.1050034
		c-0.3929749,0.1380005-0.5579834,0.3689957-0.3899841,0.8290024c0.1679993,0.4599991,0.3919983,0.5519943,0.7919922,0.4369965
		s0.7399902-0.3980026,0.7399902-0.3980026s0.4420166,0.6920013,0.6210022,1.0060043
		c0.178009,0.3129959,1.132019,1.7979965,1.132019,1.7979965s0.6259766,1.1930008,1.0899963,0.9920006
		c0.3540039-0.1539993-0.1880188-1.2910004-0.1880188-1.2910004l-0.5869751-1.7759972c0,0,0.2939758-0.2340012,0.3929749-0.3970032
		c0.0980225-0.1619949,0.8410034-0.4649963,0.8410034-0.4649963s0.6900024,0.1579971,1.4230042,0.1749954
		c0.7319946,0.0160065,3.2659912-0.0569992,3.2659912-0.0569992s0.4480286-0.0699997,0.1760254-0.7289963
		c-0.2730103-0.6590042-0.6760254-0.6380005-0.6760254-0.6380005s-1.4129944-0.1460037-1.9229736-0.2440033
		c-0.5100098-0.0979996-1.0429993-0.3450012-1.0429993-0.3450012S7.7831726,36.8143082,8.1421814,36.4393082"/>
	<path fill="#173B65" d="M51.2364807,38.6435089c-0.5140076,0.0730057-1.9320068,0.1520004-1.9320068,0.1520004
		s-0.4020081-0.0410004-0.7059937,0.6030045c-0.3040161,0.6449966,0.1399841,0.7360001,0.1399841,0.7360001
		s2.5270081,0.1959991,3.2600098,0.2159958c0.7330017,0.0190048,1.4289856-0.1059952,1.4289856-0.1059952
		s0.7270203,0.3379974,0.8179932,0.5059967c0.0910034,0.1669998,0.3730164,0.4150009,0.3730164,0.4150009l-0.6719971,1.7459984
		c0,0-0.5910034,1.0660019-0.2409973,1.2270012c0.4879761,0.2249985,1.0669861-0.882,1.0669861-0.882
		s1.0849915-1.4400024,1.2780151-1.7449989c0.1940002-0.3050003,0.6689758-0.9749985,0.6689758-0.9749985
		s0.3250122,0.298996,0.7200012,0.4329987c0.3940125,0.1340027,0.6670227,0.0550003,0.8180237-0.4110031
		c0.1519775-0.4649963,0.0339966-0.6759949-0.3520203-0.8330002c-0.3859863-0.1559982-0.8269958-0.1449966-0.8269958-0.1449966
		s0.07901-0.8160019,0.1329956-1.1729965c0.0550232-0.3570023,0.2210083-2.114006,0.2210083-2.114006
		s0.2460022-1.3249969-0.2430115-1.4529953c-0.3729858-0.098999-0.6499939,1.1289978-0.6499939,1.1289978l-0.6369934,1.7600021
		c0,0-0.375,0.0019989-0.553009,0.0690002c-0.1779785,0.0680008-0.9490051-0.1529999-0.9490051-0.1529999
		s-0.4440002-0.5510025-1.0099792-1.0170059c-0.5670166-0.4649963-2.6040039-1.9729996-2.6040039-1.9729996
		s-0.394989-0.2229996-0.5889893,0.4630051c-0.1920166,0.6869965,0.1380005,0.9199982,0.1380005,0.9199982
		s1.019989,0.987999,1.3599854,1.3799973c0.3399963,0.3920059,0.6059875,0.9160004,0.6059875,0.9160004
		S51.7504578,38.5705109,51.2364807,38.6435089"/>
	<path fill="#173B65" d="M52.8728943,31.2204056c-0.4620056,0.2370071-1.776001,0.7770004-1.776001,0.7770004
		s-0.3920288,0.0940018-0.4680176,0.8030014c-0.0749817,0.7089996,0.375,0.6480026,0.375,0.6480026
		s2.4500122-0.6439972,3.1490173-0.8659973c0.6989746-0.2229996,1.315979-0.5699997,1.315979-0.5699997
		s0.7980042,0.0819931,0.9389954,0.2099991c0.1390076,0.1279984,0.4869995,0.2689972,0.4869995,0.2689972l-0.0599976,1.8710022
		c0,0-0.2089844,1.2009964,0.1740112,1.237999c0.5350037,0.0530014,0.7189941-1.1829987,0.7189941-1.1829987
		s0.552002-1.7180023,0.6350098-2.0690002c0.0820007-0.352005,0.3110046-1.1389999,0.3110046-1.1389999
		s0.4049988,0.1749954,0.821991,0.1719971s0.6480103-0.1669998,0.6390076-0.6569977
		c-0.0100098-0.4889984-0.1920166-0.6490021-0.6080017-0.6710052c-0.4150085-0.0219955-0.8280029,0.1350021-0.8280029,0.1350021
		s-0.1940002-0.798996-0.2590027-1.1539993c-0.0660095-0.3539963-0.4850159-2.0680008-0.4850159-2.0680008
		s-0.2039795-1.3320007-0.7079773-1.2939987c-0.3840027,0.0309982-0.2420044,1.2819977-0.2420044,1.2819977l-0.0240173,1.8710022
		c0,0-0.3539734,0.125-0.5009766,0.2470016c-0.1450195,0.1210022-0.9450073,0.1660004-0.9450073,0.1660004
		s-0.6019897-0.3740005-1.2890015-0.6279984c-0.6889954-0.2540054-3.1069946-1.0090027-3.1069946-1.0090027
		s-0.4470215-0.0810013-0.4039917,0.6309967c0.0429993,0.7110062,0.4309998,0.8220062,0.4309998,0.8220062
		s1.2879944,0.598999,1.7379761,0.8579941c0.4510193,0.2580032,0.8740234,0.6660004,0.8740234,0.6660004
		S53.3348694,30.9834061,52.8728943,31.2204056"/>
	<path fill="#173B65" d="M52.0162048,23.7920074c-0.3600159,0.3740005-1.4290161,1.3090057-1.4290161,1.3090057
		s-0.3410034,0.2159958-0.1839905,0.9109955c0.1579895,0.6949997,0.5639954,0.4930038,0.5639954,0.4930038
		s2.1119995-1.401001,2.6999817-1.8380051c0.5900269-0.435997,1.0620117-0.9629974,1.0620117-0.9629974
		s0.7810059-0.1819992,0.9550171-0.1059952c0.1749878,0.0759964,0.5489807,0.0970001,0.5489807,0.0970001l0.5469971,1.7899933
		c0,0,0.1900024,1.2050018,0.5660095,1.1160049c0.5220032-0.1240005,0.2969971-1.3530045,0.2969971-1.3530045
		s-0.0320129-1.8019943-0.0669861-2.1619949c-0.0360107-0.3580017-0.0740051-1.1790009-0.0740051-1.1790009
		s0.4400024,0.034996,0.8329773-0.102005c0.3940125-0.1380005,0.5600281-0.3679962,0.3920288-0.8279953
		c-0.1660156-0.4599991-0.3900146-0.5530014-0.7900085-0.439003c-0.401001,0.112999-0.7399902,0.3950043-0.7399902,0.3950043
		s-0.4420166-0.6930008-0.6190186-1.0080032c-0.177002-0.314003-1.1279907-1.8010025-1.1279907-1.8010025
		s-0.6220093-1.1949997-1.0859985-0.9949951c-0.355011,0.1529999,0.1839905,1.2910004,0.1839905,1.2910004l0.5809937,1.7779999
		c0,0-0.2940063,0.2329941-0.3930054,0.3959961c-0.098999,0.1620026-0.84198,0.4630051-0.84198,0.4630051
		s-0.6889954-0.1600037-1.4230042-0.1790009c-0.7319946-0.0170059-3.2659912,0.048996-3.2659912,0.048996
		s-0.4490051,0.0680008-0.177002,0.7280045c0.269989,0.6589966,0.6730042,0.6389999,0.6730042,0.6389999
		s1.4119873,0.151001,1.9229736,0.25c0.5090027,0.098999,1.0420227,0.3479996,1.0420227,0.3479996
		S52.3771973,23.4180145,52.0162048,23.7920074"/>
	<path fill="#173B65" d="M48.8672791,17.1279068c-0.2220154,0.4690018-0.9370117,1.6960068-0.9370117,1.6960068
		s-0.2550049,0.3129959,0.1149902,0.9219971c0.3710022,0.6090012,0.6920166,0.288002,0.6920166,0.288002
		s1.5549927-2.0019989,1.9749756-2.602005c0.4190063-0.6019974,0.6980286-1.2529984,0.6980286-1.2529984
		s0.6829834-0.4199982,0.8719788-0.4029999c0.1900024,0.0159988,0.552002-0.0830002,0.552002-0.0830002l1.0870056,1.5220032
		c0,0,0.5650024,1.0810013,0.8940125,0.8769989c0.4549866-0.2829971-0.1500244-1.3759995-0.1500244-1.3759995
		s-0.6049805-1.6990051-0.7539978-2.0279999c-0.1479797-0.3290024-0.4440002-1.0950012-0.4440002-1.0950012
		s0.428009-0.1070023,0.757019-0.3619995c0.3289795-0.2560043,0.4129944-0.5270004,0.1080017-0.9100037
		c-0.3059998-0.3829956-0.5460205-0.3999939-0.8900146-0.1650009c-0.3429871,0.2360001-0.5759888,0.6110001-0.5759888,0.6110001
		s-0.6380005-0.5159988-0.9070129-0.7579956c-0.2689819-0.2409973-1.6419983-1.3479996-1.6419983-1.3479996
		s-0.9719849-0.9339981-1.3479919-0.5970001c-0.2870178,0.2579956,0.5859985,1.1650009,0.5859985,1.1650009l1.1180115,1.5
		c0,0-0.20401,0.3149948-0.2470093,0.5009995c-0.0419922,0.1849976-0.6499939,0.7070007-0.6499939,0.7070007
		s-0.7050171,0.0680008-1.4060059,0.2839966c-0.7000122,0.2160034-3.0800171,1.0859985-3.0800171,1.0859985
		s-0.4039917,0.2080002,0.0630188,0.7470016c0.46698,0.5390015,0.8429871,0.3909988,0.8429871,0.3909988
		s1.3869934-0.3069992,1.901001-0.375c0.5150146-0.0680008,1.098999-0.0019989,1.098999-0.0019989
		S49.0892639,16.6589127,48.8672791,17.1279068"/>
	<path fill="#173B65" d="M43.9104919,11.9286041c-0.0650024,0.515007-0.3630066,1.9030075-0.3630066,1.9030075
		s-0.1459961,0.3779984,0.3959961,0.8409958c0.5419922,0.4639969,0.7460022,0.0579987,0.7460022,0.0579987
		s0.8559875-2.3839951,1.0679932-3.0859985c0.2120056-0.7019958,0.2749939-1.4079971,0.2749939-1.4079971
		s0.5190125-0.6119995,0.70401-0.6549988c0.1849976-0.0430069,0.4989929-0.2490005,0.4989929-0.2490005l1.506012,1.1079941
		c0,0,0.8729858,0.852005,1.1210022,0.5559998c0.3450012-0.409996-0.5690002-1.260994-0.5690002-1.260994
		s-1.1029968-1.427002-1.3460083-1.6940002c-0.243988-0.2670059-0.7640076-0.9020004-0.7640076-0.9020004
		s0.3739929-0.2350006,0.6080017-0.5800018c0.2319946-0.3450012,0.2290039-0.6279984-0.1809998-0.8980026
		c-0.4079895-0.2699966-0.6430054-0.2109985-0.8959961,0.1200027c-0.2539978,0.3310013-0.3590088,0.7590027-0.3590088,0.7590027
		s-0.7659912-0.2910004-1.0959778-0.4380035c-0.3310242-0.1470032-1.9810181-0.7710037-1.9810181-0.7710037
		s-1.2139893-0.5859985-1.4660034-0.147995c-0.1929932,0.3339996,0.9190063,0.9249954,0.9190063,0.9249954l1.5289917,1.0780029
		c0,0-0.0969849,0.362999-0.0799866,0.552002c0.0180054,0.1889954-0.3980103,0.8740005-0.3980103,0.8740005
		S43.134491,8.8976059,42.5354919,9.32061c-0.5980225,0.4229965-2.5900269,1.9899979-2.5900269,1.9899979
		s-0.3199768,0.322998,0.2910156,0.6900024c0.6109924,0.3669968,0.9230042,0.1090012,0.9230042,0.1090012
		s1.2229919-0.7220001,1.6900024-0.9470062c0.4689941-0.2249985,1.0439758-0.3439941,1.0439758-0.3439941
		S43.9754639,11.4136047,43.9104919,11.9286041"/>
	<path fill="#173B65" d="M37.5975952,8.5319061c0.0979919,0.5100021,0.2449951,1.9230042,0.2449951,1.9230042
		s-0.0209961,0.4029999,0.6369934,0.6760025c0.6589966,0.2719955,0.7279968-0.177002,0.7279968-0.177002
		s0.0750122-2.5319977,0.0580139-3.2659988c-0.0170288-0.7330017-0.1750183-1.4230042-0.1750183-1.4230042
		s0.3040161-0.7419968,0.4670105-0.8409958c0.1619873-0.0979996,0.3959961-0.3920059,0.3959961-0.3920059l1.776001,0.5870056
		c0,0,1.0939941,0.5390015,1.2380066,0.1819992c0.2009888-0.4980011-0.9330139-1.0240021-0.9330139-1.0240021
		s-1.4899902-1.0139999-1.8039856-1.1920013c-0.3150024-0.1780014-1.006012-0.6209946-1.006012-0.6209946
		s0.2820129-0.3390045,0.3970032-0.7400055c0.1149902-0.4000015,0.0230103-0.6679993-0.4500122-0.7979965
		c-0.4719849-0.1289978-0.6759949,0-0.8139954,0.3929977c-0.1390076,0.3929977-0.1049805,0.8320007-0.1049805,0.8320007
		S37.4315796,2.611908,37.0735779,2.574913c-0.3599854-0.0370026-2.1220093-0.1190033-2.1220093-0.1190033
		s-1.3359985-0.1809998-1.440979,0.3130035c-0.07901,0.3779984,1.1609802,0.5949936,1.1609802,0.5949936l1.7880249,0.5510025
		c0,0,0.0209961,0.375,0.0969849,0.5500031c0.0740051,0.173996-0.1080017,0.9549942-0.1080017,0.9549942
		s-0.5289917,0.4710007-0.9670105,1.0590057c-0.4379883,0.586998-1.8459778,2.6949997-1.8459778,2.6949997
		s-0.2030029,0.4059982,0.4920044,0.5649948c0.6940002,0.1600037,0.9109802-0.1809998,0.9109802-0.1809998
		s0.9380188-1.0659943,1.3130188-1.4249954c0.3759766-0.3600006,0.8859863-0.651001,0.8859863-0.651001
		S37.4995728,8.0219116,37.5975952,8.5319061"/>
	<path fill="#173B65" d="M7.2539978,29.300209c0.4579773-0.2449951,1.76297-0.8039932,1.76297-0.8039932
		s0.3920288-0.1000061,0.4560242-0.8100052c0.0650024-0.7099991-0.3840027-0.6429977-0.3840027-0.6429977
		s-2.4410095,0.6819992-3.1360168,0.9150009c-0.6949768,0.2330017-1.3069763,0.5889969-1.3069763,0.5889969
		s-0.7990112-0.0690002-0.9410095-0.1949997c-0.1430054-0.1259995-0.4930115-0.262001-0.4930115-0.262001l0.0339966-1.8699951
		c0,0,0.1890259-1.2050018-0.1949768-1.2369995c-0.5350037-0.0429993-0.7000122,1.1949997-0.7000122,1.1949997
		s-0.526001,1.7249985-0.6029968,2.0779953c-0.0769958,0.3530045-0.2940063,1.1440048-0.2940063,1.1440048
		S1.04599,29.2312164,0.6289978,29.2402115c-0.4160156,0.0090027-0.6450195,0.1780014-0.6280212,0.6669998
		c0.0169983,0.4899979,0.2000122,0.6460037,0.6170044,0.6620026c0.4160156,0.0149994,0.8259888-0.1480026,0.8259888-0.1480026
		s0.2060242,0.7949982,0.2770081,1.1490021c0.071991,0.3539963,0.5169983,2.060997,0.5169983,2.060997
		s0.223999,1.3290024,0.7270203,1.2820053c0.3839722-0.0360031,0.223999-1.2840042,0.223999-1.2840042l-0.006012-1.8720016
		c0,0,0.3519897-0.1299973,0.4970093-0.2549973c0.1429749-0.1230011,0.9440002-0.1800003,0.9440002-0.1800003
		s0.6059875,0.3649979,1.2980042,0.6090012c0.690979,0.2429962,3.1209717,0.961998,3.1209717,0.961998
		s0.4480286,0.072998,0.3940125-0.6380005C9.3829956,31.5452118,8.993988,31.439209,8.993988,31.439209
		s-1.2969971-0.5789948-1.7520142-0.8309937c-0.4539795-0.2519989-0.8829956-0.6520004-0.8829956-0.6520004
		S6.79599,29.5452118,7.2539978,29.300209"/>
	<path fill="#173B65" d="M8.6721802,22.128006c0.5119934-0.086998,1.9269714-0.2059937,1.9269714-0.2059937
		s0.4030151,0.0289993,0.6890259-0.6240005c0.2859802-0.6529999-0.1610107-0.7310028-0.1610107-0.7310028
		s-2.5310059-0.125-3.2650146-0.1240005c-0.7330017,0.0019989-1.4259949,0.1470032-1.4259949,0.1470032
		s-0.7369995-0.3190002-0.8309937-0.4830017c-0.0960083-0.1650009-0.3850098-0.4039993-0.3850098-0.4039993l0.6230164-1.7649994
		c0,0,0.5610046-1.0830002,0.2059937-1.2330017c-0.493988-0.2109985-1.0409851,0.9110031-1.0409851,0.9110031
		s-1.0450134,1.4699936-1.2290039,1.7809982c-0.1849976,0.3099976-0.6410217,0.9919968-0.6410217,0.9919968
		s-0.3339844-0.2890015-0.7309875-0.4109955c-0.3989868-0.1230011-0.6690063-0.0370026-0.8070068,0.4329987
		c-0.1390076,0.4690018-0.0149841,0.6760025,0.375,0.822998c0.3900146,0.1460037,0.8309937,0.1210022,0.8309937,0.1210022
		s-0.0559998,0.8199997-0.0999756,1.1780014c-0.0440063,0.3590012-0.1620178,2.1189957-0.1620178,2.1189957
		s-0.2070007,1.3310013,0.2850037,1.4459991c0.375,0.0870056,0.6170044-1.147995,0.6170044-1.147995l0.5870056-1.7770004
		c0,0,0.3760071-0.0130005,0.5509949-0.0849991c0.1759949-0.0720062,0.95401,0.1269989,0.95401,0.1269989
		s0.4599915,0.5379944,1.0379944,0.987999c0.5799866,0.4489975,2.6579895,1.8990021,2.6579895,1.8990021
		s0.4020081,0.2109985,0.5750122-0.4800034c0.1739807-0.6920013-0.1629944-0.9140015-0.1629944-0.9140015
		s-1.0480042-0.9609985-1.3980103-1.3429947c-0.3519897-0.3820038-0.632019-0.8980026-0.632019-0.8980026
		S8.1601563,22.2150116,8.6721802,22.128006"/>
	<path fill="#173B65" d="M12.3010864,15.7519073c0.51297,0.0790024,1.8929749,0.4160004,1.8929749,0.4160004
		s0.3730164,0.1550064,0.8510132-0.3739929c0.4779968-0.5279999,0.07901-0.7440033,0.07901-0.7440033
		s-2.3610229-0.9209976-3.0570068-1.1529999c-0.6950073-0.2310028-1.3990173-0.3130035-1.3990173-0.3130035
		s-0.5969849-0.5359955-0.6349792-0.7220001c-0.0380249-0.185997-0.2360229-0.5049973-0.2360229-0.5049973l1.1500244-1.4749985
		c0,0,0.8759766-0.8499985,0.5869751-1.1050034c-0.401001-0.3569946-1.2769775,0.5340042-1.2769775,0.5340042
		s-1.4570007,1.0629959-1.730011,1.2979965c-0.2739868,0.2369995-0.9230042,0.7389984-0.9230042,0.7389984
		s-0.2250061-0.3799973-0.5639954-0.6229935c-0.3380127-0.2430038-0.6210022-0.2450027-0.9020081,0.1559982
		c-0.2809753,0.401001-0.2279968,0.6360016,0.0960083,0.8990021c0.322998,0.2629929,0.7480164,0.3789978,0.7480164,0.3789978
		s-0.3120117,0.7589951-0.4680176,1.0849991c-0.1549988,0.3259964-0.8250122,1.9580002-0.8250122,1.9580002
		s-0.618988,1.1969986-0.1889954,1.461998c0.32901,0.201004,0.9510193-0.8939972,0.9510193-0.8939972l1.118988-1.4980011
		c0,0,0.3600159,0.1060028,0.5499878,0.0940018c0.1900024-0.012001,0.8630066,0.4229965,0.8630066,0.4229965
		s0.2660217,0.6559982,0.6730042,1.2659988c0.4060059,0.6100006,1.9169922,2.6440048,1.9169922,2.6440048
		s0.3150024,0.3279953,0.6990051-0.2730026c0.3829956-0.6009979,0.1350098-0.9189987,0.1350098-0.9189987
		s-0.6889954-1.2430038-0.901001-1.7160034c-0.2120056-0.473999-0.3150024-1.0530014-0.3150024-1.0530014
		S11.7880859,15.6729126,12.3010864,15.7519073"/>
	<path fill="#173B65" d="M17.5431824,10.9169083c0.4639893,0.2330017,1.6729736,0.9780045,1.6729736,0.9780045
		s0.3070068,0.262001,0.9250183-0.0940018c0.6170044-0.3559952,0.3049927-0.6839981,0.3049927-0.6839981
		s-1.9649963-1.6030045-2.5549927-2.0360031c-0.5920105-0.4349976-1.2350159-0.7289963-1.2350159-0.7289963
		s-0.4039917-0.6930008-0.3829956-0.8820038c0.0209961-0.1889954-0.0700073-0.5530014-0.0700073-0.5530014l1.5490112-1.0509949
		c0,0,1.0939941-0.5390015,0.8980103-0.8710022c-0.2730103-0.4629974-1.3800049,0.1159973-1.3800049,0.1159973
		s-1.7130127,0.564003-2.0450134,0.7040024c-0.3329773,0.1399994-1.1049805,0.4189987-1.1049805,0.4189987
		s-0.0970154-0.4300003-0.3450012-0.7649994c-0.2470093-0.3359985-0.5160217-0.4259949-0.9070129-0.1299973
		c-0.3899841,0.2949982-0.4129944,0.5359955-0.1849976,0.8850021c0.2269897,0.3499985,0.5970154,0.5909958,0.5970154,0.5909958
		s-0.5320129,0.625-0.7800293,0.8880005c-0.2479858,0.2630005-1.3869934,1.6100006-1.3869934,1.6100006
		s-0.9579773,0.947998-0.6289978,1.3330002c0.2510071,0.2929993,1.178009-0.5579987,1.178009-0.5579987l1.5270081-1.0820007
		c0,0,0.3099976,0.211998,0.493988,0.2590027c0.1849976,0.0469971,0.6919861,0.6679993,0.6919861,0.6679993
		s0.0510254,0.7049942,0.2510071,1.4109955c0.197998,0.7050018,1.0119934,3.1060028,1.0119934,3.1060028
		s0.1970215,0.4079971,0.7480164-0.0459976c0.5490112-0.4540024,0.4110107-0.8330002,0.4110107-0.8330002
		s-0.2740173-1.3940048-0.32901-1.9100037c-0.0570068-0.5159988,0.0230103-1.0979996,0.0230103-1.0979996
		S17.0791626,10.6839142,17.5431824,10.9169083"/>
	<path fill="#173B65" d="M24.1304932,8.0417023c0.367981,0.3660049,1.2859802,1.4500046,1.2859802,1.4500046
		s0.2099915,0.3450012,0.9079895,0.1989975c0.6980286-0.1469955,0.5030212-0.5569992,0.5030212-0.5569992
		s-1.3690186-2.1329956-1.7950134-2.7299957c-0.427002-0.5950012-0.946991-1.076004-0.946991-1.076004
		s-0.1679993-0.7839966-0.0889893-0.9570007c0.0779724-0.1729965,0.1049805-0.5469971,0.1049805-0.5469971l1.7980042-0.5169983
		c0,0,1.2080078-0.1720047,1.125-0.5490036c-0.1159973-0.5240021-1.3469849-0.3190002-1.3469849-0.3190002
		s-1.8040161,0.0029984-2.1630249,0.0329971C23.15448,2.501709,22.3334656,2.5267029,22.3334656,2.5267029
		s0.0420227-0.4399948-0.0889893-0.8359985c-0.131012-0.3939972-0.3580017-0.5649948-0.821991-0.4049988
		c-0.4620056,0.1600037-0.559021,0.3809967-0.4510193,0.7839966c0.1070251,0.4020004,0.3830261,0.7470016,0.3830261,0.7470016
		s-0.7000122,0.4290009-1.0170288,0.602005c-0.3179932,0.1719971-1.8190002,1.0979996-1.8190002,1.0979996
		s-1.2039795,0.6029968-1.0119934,1.0709991c0.1470032,0.3559952,1.2940063-0.163002,1.2940063-0.163002l1.7860107-0.5540009
		c0,0,0.2290039,0.2980042,0.3889771,0.4000015c0.1610107,0.1009979,0.4500122,0.848999,0.4500122,0.848999
		s-0.17099,0.6870041-0.2009888,1.4199982c-0.0299988,0.7320023-0.0039978,3.2670059-0.0039978,3.2670059
		s0.0609741,0.4489975,0.7249756,0.1889954c0.6630249-0.2600021,0.6500244-0.663002,0.6500244-0.663002
		s0.1729736-1.4109955,0.2809753-1.9179993c0.1070251-0.5079956,0.3640137-1.0369949,0.3640137-1.0369949
		S23.7624817,7.675705,24.1304932,8.0417023"/>
	<polygon fill="#FFFFFF" points="30.3743896,46.2250061 30.8563843,44.8620071 31.6573792,44.8060074 32.3933716,46.0580063 
		33.5223694,45.8260078 33.7073669,44.4020081 34.4813843,44.1970062 35.3953857,45.2420082 36.4963684,44.8020096 
		36.4433594,43.4060097 37.2773743,42.935009 38.4303894,43.803009 39.4133606,43.1250076 39.0343628,41.7870102 
		39.6303711,41.3150101 40.8443604,41.9440079 41.7093811,41.1180115 41.0903625,39.8260117 41.6183777,39.2210083 
		43.0223694,39.5850067 43.6573792,38.6230087 42.7813721,37.4850082 43.1843872,36.7950058 44.5693665,36.8860092 
		45.036377,35.7970123 44.0133667,34.8470078 44.2703857,33.9250107 45.6983643,33.7230072 45.9153748,32.5480118 
		44.7003784,31.8700104 44.7893677,31.1160126 46.0923767,30.7030106 46.1203613,29.506012 44.7973633,29.0630112 
		44.7423706,28.2610092 45.9923706,27.5260086 45.7613831,26.3960114 44.3373718,26.2110062 44.1343689,25.4380112 
		45.1773682,24.5230103 44.7373657,23.4230118 43.3423767,23.4750061 42.8713684,22.6420059 43.7383728,21.4880066 
		43.0613708,20.5050125 41.7233887,20.8850098 41.2513733,20.2880096 41.8803711,19.0750122 41.0543823,18.2090073 
		39.7633667,18.8280106 39.1573792,18.3000107 39.5223694,16.8960114 38.5593872,16.2620087 37.4213867,17.1360092 
		36.7303772,16.7340088 36.8223877,15.3500061 35.7333679,14.8820114 34.7843628,15.9050064 33.8623657,15.6480103 
		33.6593628,14.2200089 32.484375,14.0040054 31.806366,15.2170105 31.0513611,15.1290054 30.6393738,13.8250046 
		29.4773865,13.8200073 29.0023804,15.1850052 28.2013855,15.2450104 27.4593811,13.9980087 26.3313599,14.2360077 
		26.1523743,15.6610107 25.3813782,15.8680115 24.4603882,14.82901 23.3633728,15.2740097 23.4223633,16.6700058 
		22.5913696,17.1450119 21.4333801,16.2840118 20.4543762,16.966011 20.839386,18.3020096 20.2463684,18.7770081 
		19.0293884,18.154007 18.1683655,18.9850082 18.7943726,20.2730103 18.2693787,20.881012 16.8633728,20.5240097 
		16.2333679,21.4900055 17.1143799,22.6230087 16.7153625,23.3150101 15.3293762,23.2310104 14.8673706,24.3230057 
		15.8963623,25.2670059 15.6443787,26.1900101 14.2163696,26.4000092 14.0063782,27.5760117 15.2233887,28.2470093 
		15.1393738,29.003006 13.8383789,29.4220123 13.8173828,30.6180115 15.1413879,31.0550079 15.2003784,31.8560104 
		13.9543762,32.5990067 14.1913757,33.7270126 15.615387,33.904007 15.8233643,34.6760101 14.7853699,35.5960083 
		15.2303772,36.6950073 16.6253662,36.6360092 17.0993652,37.4670105 16.2393799,38.6240082 16.9213867,39.6040115 
		18.2573853,39.2180099 18.7313843,39.8120117 18.109375,41.029007 18.9393616,41.890007 20.2273865,41.2640076 
		20.8363647,41.7890091 20.478363,43.1950073 21.4443665,43.8250084 22.5783691,42.9440079 23.2703857,43.3430061 
		23.1853638,44.7280083 24.2773743,45.1900063 25.2223816,44.1620064 26.1453857,44.4140091 26.3553772,45.8410072 
		27.5293884,46.0520096 28.2023621,44.8350067 28.9573669,44.9200096 29.3773804,46.2200089 	"/>
	<path fill="#FFFFFF" d="M27.0915833,48.5105057c0.0169983-0.1259995,0.0339966-0.257,0.1429749-0.3379974
		c0.105011-0.0790024,0.2449951-0.0880013,0.3710022-0.0699997c0.1210022,0.0159988,0.2579956,0.0550003,0.3390198,0.1479988
		c0.0999756,0.1150017,0.0859985,0.2480011,0.065979,0.3889999l-0.0969849,0.6959991l-0.2919922-0.0410004l0.0969849-0.6959991
		c0.0079956-0.0540009,0.0209961-0.1300011,0-0.1809998c-0.026001-0.0649986-0.0960083-0.0929985-0.1619873-0.1020012
		c-0.053009-0.007-0.1350098-0.0019989-0.1740112,0.0390015c-0.0440063,0.0470009-0.0509949,0.1279984-0.0589905,0.1879997
		l-0.0980225,0.6969986l-0.2319946-0.0329971L27.0915833,48.5105057z"/>
	<polygon fill="#FFFFFF" points="25.5534058,47.7120056 25.7793884,47.765007 26.0333862,48.6270065 26.0404053,48.6290092 
		26.2193909,47.8690071 26.4234009,47.9170074 26.1573792,49.0490074 25.8713989,48.9820061 25.6513977,48.2270088 
		25.6473999,48.2270088 25.490387,48.8910065 25.286377,48.8430061 	"/>
	
		<rect x="23.9261341" y="47.8730888" transform="matrix(0.3029059 -0.9530205 0.9530205 0.3029059 -28.6688747 56.8222427)" fill="#FFFFFF" width="1.162425" height="0.2702338"/>
	<polygon fill="#FFFFFF" points="22.7555847,47.7394066 23.0255737,47.8474083 23.370575,46.9814072 23.6225586,47.0814095 
		23.2785645,47.9474068 23.5525818,48.0554085 23.4675598,48.2704086 22.6705627,47.9534073 	"/>
	<polygon fill="#FFFFFF" points="21.8150024,47.3133049 21.9199829,47.1013069 21.5239868,46.9063072 21.6219788,46.7103081 
		22.0159912,46.9053078 22.1309814,46.6753082 21.6299744,46.4273071 21.7289734,46.2263069 22.473999,46.5943069 
		21.9579773,47.6353073 21.2139893,47.2673073 21.3150024,47.0653076 	"/>
	<path fill="#FFFFFF" d="M20.229187,46.7085075c-0.1439819-0.0880013-0.2619934-0.170002-0.3079834-0.3400002
		c-0.0460205-0.1660004-0.0080261-0.3320007,0.0789795-0.4750023c0.0810242-0.1329994,0.2000122-0.2369995,0.348999-0.2840004
		c0.1650085-0.0480003,0.3040161-0.0029984,0.4440002,0.0820007l0.3269958,0.1990013l-0.6039734,0.9939995L20.229187,46.7085075z
		 M20.7752075,45.9365044l-0.0780029-0.0469971c-0.0970154-0.0600014-0.1700134-0.0780029-0.2770081-0.0240021
		c-0.0780029,0.0400009-0.1409912,0.1070023-0.1849976,0.1800003c-0.0480042,0.0790024-0.0750122,0.177002-0.0660095,0.2680016
		c0.0119934,0.1019974,0.0650024,0.1479988,0.1470032,0.197998l0.0799866,0.0489998L20.7752075,45.9365044z"/>
	<path fill="#FFFFFF" d="M18.1288757,43.7506065l0.2259827,0.1879997l-0.0979919,0.2290001l0.2900085,0.2400017l0.2080078-0.137001
		l0.1839905,0.1520004l-1.0289917,0.6559982l-0.2420044-0.1999969L18.1288757,43.7506065z M18.1688843,44.3716049
		l-0.1660156,0.394001l0.3559875-0.2360001L18.1688843,44.3716049z"/>
	<path fill="#FFFFFF" d="M16.6782837,42.9980049c0.0889893-0.0899963,0.1809998-0.1849976,0.315979-0.1849976
		c0.132019-0.0009995,0.25,0.0760002,0.3399963,0.1650009c0.0859985,0.0849991,0.1740112,0.1969986,0.1830139,0.3209991
		c0.0109863,0.1520004-0.07901,0.25-0.1790161,0.3509979l-0.492981,0.5l-0.210022-0.2069969l0.4940186-0.5
		c0.0369873-0.038002,0.0939941-0.0930023,0.1069946-0.1450005c0.0180054-0.0690002-0.0220032-0.132-0.0690002-0.1790009
		c-0.0379944-0.0369987-0.1069946-0.0810013-0.1629944-0.0719986c-0.0639954,0.0109978-0.1170044,0.0719986-0.1589966,0.1159973
		l-0.4949951,0.4990005l-0.1660156-0.1640015L16.6782837,42.9980049z"/>
	<polygon fill="#FFFFFF" points="15.2940063,42.1533051 15.4839783,42.3743057 16.1900024,41.7683105 16.3670044,41.9733086 
		15.6600037,42.580307 15.8519897,42.8033066 15.6779785,42.9533081 15.118988,42.3033066 	"/>
	<path fill="#FFFFFF" d="M15.408783,41.0630035c-0.0469971,0.1389999-0.1470032,0.2580032-0.2650146,0.3440018
		c-0.25,0.1800003-0.5740051,0.223999-0.7749939-0.0540009c-0.0899963-0.125-0.1220093-0.2529984-0.072998-0.4039993
		c0.0429993-0.1329956,0.151001-0.2639999,0.2649841-0.3460007c0.1070251-0.0779953,0.2590027-0.1429977,0.3910217-0.147995
		c0.1600037-0.0050049,0.2929993,0.0679932,0.3849792,0.1959991C15.4297791,40.7780075,15.4597778,40.9140091,15.408783,41.0630035
		 M14.7587891,41.288002c0.071991-0.0179977,0.1589966-0.0689926,0.2179871-0.1119995
		c0.1180115-0.0859985,0.2929993-0.2389984,0.1799927-0.3949966c-0.0539856-0.0749969-0.1210022-0.0889969-0.2080078-0.0630035
		c-0.0739746,0.0200043-0.1579895,0.0699997-0.2189941,0.114006c-0.0690002,0.0499954-0.144989,0.1159973-0.1879883,0.1879959
		c-0.0429993,0.0740051-0.0429993,0.1350021,0.0059814,0.2030029C14.6037598,41.2980042,14.6717834,41.3120041,14.7587891,41.288002
		"/>
	<polygon fill="#FFFFFF" points="14.2919922,39.0759048 14.3859863,39.236908 13.710968,39.9589081 13.7129822,39.9619064 
		14.5309753,39.4839096 14.6459656,39.6809082 13.6429749,40.2679062 13.4279785,39.9009094 13.9269714,39.373909 
		13.2179871,39.5419083 13.0039673,39.173912 14.0069885,38.5869064 14.1429749,38.821907 13.3259888,39.2999115 
		13.3299866,39.3049088 	"/>
	<path fill="#FFFFFF" d="M13.4915771,37.9293137c-0.0750122,0.1269989-0.1959839,0.223999-0.32901,0.2839966
		c-0.2789917,0.1290054-0.6059875,0.1090012-0.75-0.2039948c-0.0639954-0.140007-0.0690002-0.2710037,0.0090027-0.4090042
		c0.0680237-0.1240005,0.2000122-0.2299957,0.3269958-0.2890015c0.1210022-0.0540009,0.2820129-0.0889969,0.4130249-0.0680008
		c0.1579895,0.026001,0.2739868,0.125,0.3389893,0.2670059C13.5665894,37.6543121,13.5705872,37.7923126,13.4915771,37.9293137
		 M12.8085938,38.0223083c0.0749817-0.0049973,0.1689758-0.0369949,0.2359924-0.0669937
		c0.1319885-0.0610046,0.3339844-0.1780014,0.2539978-0.352005c-0.0379944-0.0839996-0.1020203-0.1119995-0.1929932-0.1039963
		c-0.0750122,0.0059967-0.1670227,0.038002-0.2360229,0.0699997c-0.0780029,0.034996-0.164978,0.0849991-0.2209778,0.1480026
		c-0.0570068,0.0629959-0.0690002,0.1229935-0.03302,0.1999969C12.6535645,38.0023117,12.7185669,38.0283127,12.8085938,38.0223083"
		/>
	<path fill="#FFFFFF" d="M11.7481689,36.3131104c-0.0310059-0.0859985-0.0620117-0.1759949-0.0410156-0.2679977
		c0.0250244-0.1070023,0.0890198-0.1819992,0.1930237-0.2190018c0.125-0.0439987,0.2369995,0.0100021,0.3059998,0.1149979
		l0.0039978-0.0009995c-0.0209961-0.1449966,0.0489807-0.2749939,0.1919861-0.3249969
		c0.0960083-0.0329971,0.2010193-0.0059967,0.2839966,0.0510025c0.0870056,0.0589981,0.125,0.1660004,0.15802,0.260994
		l0.1730042,0.4900055l-1.0960083,0.3860016L11.7481689,36.3131104z M12.2661743,36.3951111l-0.0620117-0.1749954
		c-0.0149841-0.0440063-0.0310059-0.0979996-0.072998-0.1270065c-0.0339966-0.0219955-0.07901-0.0239944-0.1149902-0.010994
		c-0.0410156,0.0149994-0.0720215,0.0469971-0.0800171,0.0889969c-0.0090027,0.0449982,0.0200195,0.1100006,0.0350037,0.1529999
		l0.0549927,0.1559982L12.2661743,36.3951111z M12.7241821,36.2331085l-0.0630188-0.1779938
		c-0.0159912-0.0460052-0.0339966-0.1060028-0.0749817-0.137001c-0.0370178-0.0279999-0.0880127-0.0330048-0.1330261-0.0169983
		c-0.0419922,0.0149994-0.0759888,0.0559998-0.0839844,0.098999c-0.007019,0.0439987,0.0100098,0.0960007,0.0249939,0.137001
		l0.0670166,0.1889954L12.7241821,36.2331085z"/>
	
		<rect x="11.3293343" y="34.7394333" transform="matrix(0.9652029 -0.2615022 0.2615022 0.9652029 -8.7053919 4.3282285)" fill="#FFFFFF" width="1.1628044" height="0.270837"/>
	<polygon fill="#FFFFFF" points="11.883606,33.1563034 12.1095886,33.1123047 12.252594,33.8363037 11.1125793,34.0603104 
		11.0605774,33.7943039 11.9736023,33.6143036 	"/>
	<polygon fill="#FFFFFF" points="11.0516052,32.3143082 11.2855835,32.2873154 11.2366028,31.8493118 11.4535828,31.8253098 
		11.502594,32.2633133 11.7585754,32.234314 11.6955872,31.6783142 11.9195862,31.6533127 12.0126038,32.4783096 
		10.8585815,32.6083145 10.7655945,31.7833099 10.9885864,31.7583084 	"/>
	<path fill="#FFFFFF" d="M11.8902893,28.9746094l-0.0109863,0.2919998l-0.2409973,0.0620041l-0.0140076,0.3759995
		l0.2369995,0.0820007l-0.0090027,0.237999l-1.1480103-0.4150009l0.0120239-0.314003L11.8902893,28.9746094z M11.4233093,29.383606
		l-0.4120178,0.1090012l0.4030151,0.1380005L11.4233093,29.383606z"/>
	<polygon fill="#FFFFFF" points="11.0527039,27.9234085 11.2866821,27.9524155 11.3406982,27.5154114 11.5576782,27.5414124 
		11.5036926,27.9784088 11.7596741,28.0104141 11.8276978,27.4564133 12.0516968,27.4834137 11.9487,28.3084106 
		10.7956848,28.1644135 10.8976746,27.3414154 11.1216736,27.3684158 	"/>
	<path fill="#FFFFFF" d="M12.2241821,26.5281067l-0.0570068,0.265007l-1.1349792-0.2440033l0.1019897-0.4779968
		c0.0220032-0.1010056,0.04599-0.2040024,0.1199951-0.279007c0.0809937-0.0799942,0.20401-0.1069946,0.3150024-0.0839996
		c0.1289978,0.0279999,0.2319946,0.128006,0.25,0.2610016l0.5480042-0.1029968l-0.0639954,0.2949982l-0.4859924,0.0770035
		l-0.0420227,0.1940002L12.2241821,26.5281067z M11.5802002,26.3901062l0.0309753-0.1459961
		c0.0120239-0.0550003,0.0299988-0.112999,0.0120239-0.1669998c-0.0170288-0.0490036-0.0650024-0.0839996-0.1150208-0.0950012
		c-0.0449829-0.0090027-0.0979919,0.0080032-0.1300049,0.0410004c-0.0379944,0.0390015-0.0469971,0.1159973-0.0569763,0.1660004
		l-0.0310059,0.1380005L11.5802002,26.3901062z"/>
	<path fill="#FFFFFF" d="M12.4120789,25.0611038c-0.1399841,0.0450058-0.2949829,0.0360031-0.4339905-0.0079956
		c-0.2940063-0.0920029-0.5229797-0.3250046-0.4199829-0.6529999c0.04599-0.1460037,0.1299744-0.2480011,0.2789917-0.2990036
		c0.1340027-0.0449982,0.303009-0.0369949,0.4370117,0.0050049c0.1259766,0.0399933,0.2689819,0.121994,0.3519897,0.2259979
		c0.098999,0.125,0.118988,0.2750015,0.072998,0.4249954C12.6520996,24.9081039,12.5610962,25.0131073,12.4120789,25.0611038
		 M11.8431091,24.6741028c0.0579834,0.0470047,0.1509705,0.0860062,0.2199707,0.1080017
		c0.1390076,0.0429993,0.3670044,0.0920029,0.4240112-0.0909958c0.0280151-0.0890045-0.0010071-0.151001-0.0740051-0.2070007
		c-0.0599976-0.0459976-0.1499939-0.0830002-0.2219849-0.1050034c-0.0809937-0.026001-0.1790161-0.0479965-0.2630005-0.0390015
		c-0.0849915,0.0090027-0.1329956,0.0460052-0.1589966,0.1270065C11.7420959,24.5551071,11.7710876,24.618103,11.8431091,24.6741028
		"/>
	<path fill="#FFFFFF" d="M12.536499,22.743103c-0.1040039-0.0059967-0.1640015,0.0370026-0.2030029,0.1320038
		c-0.0280151,0.0680008-0.0440063,0.1559982,0.0379944,0.1910019c0.0780029,0.0309982,0.1359863-0.0540009,0.1719971-0.1110001
		c0.0559998-0.0800018,0.1260071-0.1880035,0.2070007-0.2420044c0.0939941-0.0639954,0.2049866-0.0799942,0.3119812-0.0359955
		c0.105011,0.0429993,0.184021,0.1339951,0.2150269,0.2439957c0.0309753,0.114006,0.0029907,0.2400055-0.0420227,0.3470001
		c-0.0839844,0.2020035-0.2460022,0.348999-0.4759827,0.3110046l0.0419922-0.2540054
		c0.1260071,0.0160065,0.1990051-0.048996,0.2449951-0.1609955c0.0289917-0.0709991,0.0419922-0.1780014-0.0469971-0.215004
		c-0.0899963-0.0369949-0.1569824,0.0780029-0.197998,0.1380005c-0.118988,0.1750031-0.2520142,0.340004-0.4869995,0.2420044
		c-0.1000061-0.0410004-0.1719971-0.1170044-0.20401-0.2200012c-0.0339966-0.1060028-0.0169983-0.2070007,0.0230103-0.3050003
		c0.0780029-0.1880035,0.2070007-0.314003,0.4200134-0.3030014L12.536499,22.743103z"/>
	<path fill="#FFFFFF" d="M13.8302917,21.9300156l-0.125,0.2409973l-1.0310059-0.5350037l0.2009888-0.3880005
		c0.052002-0.1009979,0.098999-0.1919937,0.2030029-0.2479935c0.1059875-0.0559998,0.2189941-0.0559998,0.3259888-0.0010071
		c0.0980225,0.0510025,0.1790161,0.137001,0.20401,0.2470016c0.0270081,0.1269989-0.0230103,0.2210007-0.0799866,0.3310013
		l-0.0800171,0.1549988L13.8302917,21.9300156z M13.3302917,21.4990082
		c0.0289917-0.0569992,0.0539856-0.1059952,0.0309753-0.1709976c-0.0139771-0.0359955-0.0409851-0.0639954-0.0740051-0.0800018
		c-0.0409851-0.0209961-0.0909729-0.0270004-0.1349792-0.0069962c-0.0469971,0.0220032-0.072998,0.072998-0.0960083,0.1179962
		l-0.0700073,0.1340027l0.2740173,0.1409988L13.3302917,21.4990082z"/>
	<path fill="#FFFFFF" d="M14.9705811,19.9804077l-0.1570129,0.2480011l-0.2409973-0.0680008l-0.2009888,0.3170013
		l0.1629944,0.1899948l-0.1279907,0.2000046l-0.7810059-0.9360046l0.1690063-0.2659988L14.9705811,19.9804077z
		 M14.3595886,20.0984039l-0.4100037-0.1139984l0.2769775,0.3230057L14.3595886,20.0984039z"/>
	<path fill="#FFFFFF" d="M15.1791077,18.4954071c-0.1030273-0.0769958-0.2250061-0.1149979-0.3160095,0.003006
		c-0.1159973,0.1520004,0.0709839,0.3190002,0.1829834,0.4049988c0.1260071,0.0970001,0.3000183,0.2070007,0.4250183,0.0439987
		c0.0769958-0.1009979,0.0279846-0.2129974-0.0509949-0.2929993l0.1739807-0.1989975
		c0.1940002,0.1839981,0.2080078,0.4249954,0.0450134,0.6380005c-0.2109985,0.2739944-0.5360107,0.2360001-0.7879944,0.0429993
		c-0.2539978-0.1959991-0.3680115-0.5009995-0.1560059-0.7779999c0.177002-0.2310028,0.4020081-0.2460022,0.6419983-0.1000061
		L15.1791077,18.4954071z"/>
	<polygon fill="#FFFFFF" points="15.8621826,17.3356094 16.0361633,17.4946136 16.3331604,17.1696167 16.4941711,17.3176117 
		16.1971741,17.6416168 16.3871765,17.8156128 16.7651672,17.4036102 16.9301758,17.5556107 16.3711548,18.1686096 
		15.5121765,17.3836136 16.0731812,16.7716141 16.2391663,16.9236145 	"/>
	<path fill="#FFFFFF" d="M18.9357605,15.7533112l-0.2269897,0.1860046l-0.2059937-0.1399994l-0.2919922,0.2369995
		l0.0950012,0.2309952l-0.1850281,0.1520004l-0.446991-1.1360016l0.2440186-0.1989975L18.9357605,15.7533112z
		 M18.3187866,15.6733093l-0.3540039-0.2369995l0.1629944,0.3930054L18.3187866,15.6733093z"/>
	<polygon fill="#FFFFFF" points="20.1980896,14.8652039 20.006073,14.9962082 19.1990662,14.599205 19.1930847,14.6032104 
		19.631073,15.250206 19.4570618,15.3672104 18.8050842,14.4052048 19.0480652,14.2402039 19.7520752,14.5882111 
		19.7550659,14.5862045 19.3720703,14.0202103 19.5460815,13.9032059 	"/>
	<path fill="#FFFFFF" d="M20.5640869,13.296608c0.1470032-0.0810013,0.2770081-0.1420059,0.447998-0.0979996
		c0.1659851,0.0429993,0.2909851,0.1569977,0.3729858,0.3050003c0.0750122,0.135994,0.1070251,0.2910004,0.0720215,0.4430008
		c-0.0400085,0.1679993-0.1470032,0.2659988-0.2920227,0.3449936l-0.3349915,0.1850052l-0.5619812-1.0180054L20.5640869,13.296608z
		 M20.9620972,14.1546021l0.0799866-0.0439987c0.098999-0.0550003,0.1529846-0.1100006,0.1579895-0.2289963
		c0.0050049-0.0879974-0.0229797-0.1750031-0.0639954-0.25c-0.0440063-0.0810013-0.1159973-0.1539993-0.1999817-0.1910019
		c-0.0940247-0.0400009-0.1610107-0.0169983-0.2450256,0.0299988l-0.0820007,0.0449982L20.9620972,14.1546021z"/>
	<path fill="#FFFFFF" d="M24.1364746,12.965004l-0.2739868,0.102005l-0.1499939-0.1990051l-0.3520203,0.1310043l0.0150146,0.2490005
		l-0.223999,0.0830002l-0.0559998-1.2180023l0.2949829-0.1090012L24.1364746,12.965004z M23.5794983,12.6900024
		l-0.2590027-0.3389969l0.0269775,0.4250031L23.5794983,12.6900024z"/>
	<path fill="#FFFFFF" d="M25.0640869,12.2659073l-0.0570068-0.2089996l0.4609985-0.1259995l0.1640015,0.6000061L25.512085,12.562912
		l-0.072998-0.1190033c-0.0560303,0.125-0.1350098,0.1940002-0.2660217,0.2300034
		c-0.3280029,0.0889969-0.5390015-0.1470032-0.618988-0.4410019c-0.0820007-0.3040009-0.0110168-0.6279984,0.3269958-0.7200012
		c0.2430115-0.0659943,0.4459839,0.0370026,0.5450134,0.2639999l-0.2400208,0.1030045
		c-0.0409851-0.1100006-0.1279907-0.1880035-0.2539978-0.1539993c-0.1839905,0.0509949-0.1470032,0.2979965-0.1080017,0.4369965
		c0.0390015,0.1450043,0.1360168,0.340004,0.3190002,0.2910004c0.1149902-0.0319977,0.1710205-0.1340027,0.1329956-0.2460022
		L25.0640869,12.2659073z"/>
	<path fill="#FFFFFF" d="M26.6191711,12.3221054l-0.2659912,0.0470047l-0.20401-1.1430054l0.4819946-0.086998
		c0.1010132-0.0169983,0.2049866-0.034996,0.3040161,0.0070038c0.1039734,0.0449982,0.1749878,0.1469955,0.1959839,0.2589951
		c0.0230103,0.1300049-0.0310059,0.2630005-0.1470032,0.3310013l0.302002,0.4670029l-0.29599,0.0519943l-0.256012-0.4199982
		l-0.1950073,0.0350037L26.6191711,12.3221054z M26.5041809,11.6731033l0.1469727-0.0259933
		c0.0540161-0.0100021,0.1150208-0.0149994,0.1590271-0.052002c0.0379944-0.0350037,0.0519714-0.0920029,0.0439758-0.1429977
		c-0.0090027-0.0450058-0.0439758-0.0880051-0.0859985-0.1050034c-0.0509949-0.0199966-0.1260071,0-0.1759949,0.0100021
		l-0.1399841,0.0239944L26.5041809,11.6731033z"/>
	<polygon fill="#FFFFFF" points="28.2485962,12.0890045 27.9785767,12.1180115 27.8575745,10.9620056 28.127594,10.9330063 	"/>
	<path fill="#FFFFFF" d="M29.637207,11.2921066c-0.006012-0.1289978-0.0540161-0.246994-0.2030029-0.2419968
		c-0.1910095,0.0060043-0.2010193,0.2580032-0.1960144,0.3980026c0.0050049,0.1589966,0.0310059,0.362999,0.2350159,0.3559952
		c0.1269836-0.0039978,0.1829834-0.112999,0.1940002-0.2249985l0.2639771,0.0070038
		c-0.0189819,0.2669983-0.1959839,0.4309998-0.4629822,0.4399948c-0.3450012,0.012001-0.5230103-0.2630005-0.5339966-0.5789948
		c-0.0110168-0.3220062,0.1529846-0.6040039,0.5009766-0.6160049c0.2910156-0.0089951,0.4460144,0.1549988,0.4860229,0.4319992
		L29.637207,11.2921066z"/>
	<path fill="#FFFFFF" d="M31.5911865,11.5881042c-0.006012,0.1270065-0.0120239,0.2590027-0.1130066,0.3490067
		c-0.0980225,0.0879974-0.2369995,0.1100006-0.3640137,0.1029968c-0.1210022-0.0059967-0.2609863-0.0319977-0.348999-0.1179962
		c-0.1109924-0.1060028-0.1090088-0.239006-0.1009827-0.3820038l0.0359802-0.7020035l0.2940063,0.015007l-0.0360107,0.7029953
		c-0.0029907,0.0540009-0.0079956,0.1310043,0.0169983,0.1800003c0.0320129,0.0630035,0.1040039,0.0839996,0.1700134,0.086998
		c0.0539856,0.0020065,0.1340027-0.010994,0.1700134-0.0539932c0.039978-0.0500031,0.039978-0.1320038,0.0419922-0.1930008
		l0.0359802-0.7020035l0.2340088,0.012001L31.5911865,11.5881042z"/>
	<polygon fill="#FFFFFF" points="33.0603027,11.989502 33.0302734,12.2175064 32.2973022,12.1205063 32.4512939,10.9685059 
		32.7202759,11.004509 32.596283,11.9275055 	"/>
	<polygon fill="#FFFFFF" points="34.6242981,11.5838089 34.340271,11.5228119 34.1442871,12.433815 33.8792725,12.3768158 
		34.0742798,11.4658127 33.7872925,11.4048157 33.8352966,11.1788101 34.6732788,11.3588104 	"/>
	<path fill="#FFFFFF" d="M36.0917969,12.4921036c-0.0370178,0.1210022-0.0750122,0.2480011-0.1940002,0.3110046
		c-0.1170044,0.0619965-0.257019,0.048996-0.3780212,0.012001c-0.1170044-0.0360031-0.2460022-0.0950012-0.3099976-0.2000046
		c-0.0809937-0.1289978-0.0469971-0.2589951-0.0059814-0.3949966L35.40979,11.548111l0.2829895,0.086998l-0.2059937,0.6709976
		c-0.0159912,0.052002-0.0410156,0.1259995-0.0289917,0.1800003c0.0159912,0.0690002,0.0809937,0.1050034,0.1439819,0.1259995
		c0.052002,0.0149994,0.1329956,0.0220032,0.1790161-0.0110016c0.0509949-0.0400009,0.0699768-0.1189957,0.0869751-0.1779938
		l0.2060242-0.6720047l0.223999,0.0690002L36.0917969,12.4921036z"/>
	<path fill="#FFFFFF" d="M36.914093,13.2879105l-0.25-0.1029968l0.4419861-1.0749969l0.4530029,0.185997
		c0.0950012,0.0400009,0.1920166,0.0810013,0.2529907,0.1689987c0.0640259,0.0940018,0.0690002,0.2190018,0.026001,0.3239975
		c-0.0499878,0.1230011-0.1669922,0.2060013-0.2999878,0.201004l0.0029907,0.5569992l-0.2789917-0.1149979l0.0109863-0.4930038
		l-0.1839905-0.0749969L36.914093,13.2879105z M37.1651001,12.6789093l0.13797,0.0570068
		c0.052002,0.0209961,0.1060181,0.048996,0.1630249,0.0410004c0.0499878-0.0080032,0.0929871-0.0490036,0.1119995-0.0960007
		c0.0180054-0.0419998,0.0119934-0.098999-0.0160217-0.1350021c-0.0309753-0.0449982-0.1049805-0.0680008-0.1519775-0.086998
		l-0.132019-0.0540009L37.1651001,12.6789093z"/>
	<path fill="#FFFFFF" d="M39.0260925,14.2923126l-0.2590027-0.1360016l0.0479736-0.2450027l-0.3329773-0.1749954
		l-0.1759949,0.1779938l-0.2120056-0.1110001l0.8699951-0.8559952l0.2789917,0.1459961L39.0260925,14.2923126z
		 M38.8580933,13.693306l0.0799866-0.4189987l-0.2990112,0.3040009L38.8580933,13.693306z"/>
	<polygon fill="#FFFFFF" points="40.3439941,14.8360062 40.2199707,15.0300064 39.5979919,14.6330109 40.2229919,13.654007 
		40.4509888,13.7990112 39.9499817,14.5850067 	"/>
	
		<rect x="41.4973183" y="15.5661259" transform="matrix(0.6416112 -0.7670301 0.7670301 0.6416112 3.0365651 37.9020271)" fill="#FFFFFF" width="1.160513" height="0.2708659"/>
	<polygon fill="#FFFFFF" points="42.9024963,17.2366028 42.7704773,17.1056061 43.2344666,16.2336044 43.2314758,16.2306061 
		42.5664673,16.9046097 42.4034729,16.7436066 43.2194824,15.9176102 43.5224915,16.2166061 43.1774902,16.8536072 
		43.8184814,16.508606 44.1214905,16.8076096 43.305481,17.633606 43.1124878,17.4436035 43.7774963,16.770607 
		43.7724915,16.7656097 	"/>
	<path fill="#FFFFFF" d="M43.9697876,18.3967133l-0.1719971-0.2080002l0.8939819-0.7430038l0.2780151,0.3359985
		c0.072998,0.0870056,0.1390076,0.1669998,0.1489868,0.2830048c0.0100098,0.1209946-0.0339966,0.2249985-0.1259766,0.3009949
		c-0.0840149,0.0709991-0.1950073,0.1119995-0.3059998,0.0920029c-0.1280212-0.0240021-0.1950073-0.1070023-0.2740173-0.2020035
		l-0.1109924-0.1339951L43.9697876,18.3967133z M44.5617981,18.1037064c0.0409851,0.0500031,0.0749817,0.0910034,0.144989,0.0960007
		c0.0379944,0.0009995,0.0749817-0.0139999,0.1029968-0.0379944c0.0350037-0.0289993,0.0599976-0.0740051,0.0580139-0.1210022
		c-0.0010071-0.0530014-0.0370178-0.0960007-0.0700073-0.1350021l-0.0960083-0.1159973l-0.2380066,0.1959991L44.5617981,18.1037064z
		"/>
	<polygon fill="#FFFFFF" points="45.3862,19.8878021 45.1971741,20.0198059 44.7731934,19.4158096 45.7251892,18.7478027 
		45.880188,18.9708023 45.1171875,19.5048065 	"/>
	<polygon fill="#FFFFFF" points="46.4898071,20.3167038 46.2877808,20.4367065 46.5117798,20.8167038 46.3227844,20.9267044 
		46.0987854,20.5477066 45.8768005,20.6787109 46.1618042,21.1607056 45.967804,21.2757111 45.5447998,20.5607071 
		46.5458069,19.9687042 46.967804,20.6837082 46.7738037,20.7977066 	"/>
	<polygon fill="#FFFFFF" points="46.5877991,22.5029068 46.5087891,22.3349075 47.2477722,21.6769104 47.2457886,21.673912 
		46.3867798,22.074913 46.2907715,21.8679123 47.3427734,21.3759079 47.5237732,21.76091 46.9787903,22.2399139 
		47.6997986,22.1389084 47.8807983,22.5229111 46.8277893,23.0149078 46.7127991,22.7699127 47.5707703,22.3689117 
		47.5677795,22.3629074 	"/>
	<polygon fill="#FFFFFF" points="48.0724792,23.6479034 47.8504639,23.7269058 47.997467,24.1409073 47.7914734,24.2149048 
		47.6444702,23.7999039 47.4024658,23.88591 47.5894775,24.4129105 47.3764648,24.4879074 47.0994568,23.7059097 
		48.1934509,23.3169098 48.4714661,24.0989075 48.2594604,24.1739044 	"/>
	<polygon fill="#FFFFFF" points="47.8021851,25.9996033 47.7431641,25.7756042 48.3871765,25.1466064 48.3851624,25.1406097 
		47.6291809,25.3376083 47.577179,25.133606 48.7011719,24.8406067 48.775177,25.1246033 48.2121582,25.671608 
		48.2131653,25.6746063 48.874176,25.5026093 48.9271851,25.706604 	"/>
	<polygon fill="#FFFFFF" points="49.0047913,27.3357086 48.95578,27.0487137 48.0377808,27.2057114 47.9917908,26.9387131 
		48.90979,26.7817154 48.8597717,26.490715 49.0867615,26.452713 49.231781,27.2967148 	"/>
	<polygon fill="#FFFFFF" points="48.2833862,30.2952042 48.2783813,30.0272064 49.0443726,29.8252106 49.0443726,29.8212051 
		48.2723694,29.651207 48.2673645,29.387207 49.4253845,29.0682068 49.4293823,29.3462067 48.7073669,29.5222092 
		48.6493835,29.5362091 48.6493835,29.5402069 49.4363708,29.7142105 49.4393616,29.96521 48.6603699,30.1742096 
		48.6603699,30.1762085 48.7123718,30.1862106 49.4463806,30.3432083 49.4503784,30.5662079 	"/>
	<path fill="#FFFFFF" d="M48.408783,31.3342133c0.1259766-0.072998,0.2799988-0.0970001,0.4249878-0.0839996
		c0.3070068,0.026001,0.5799866,0.2050018,0.5499878,0.5479965c-0.0130005,0.1529999-0.0749817,0.2700043-0.2089844,0.3510056
		c-0.1210022,0.072998-0.2879944,0.1009979-0.428009,0.0889969c-0.131012-0.012001-0.2890015-0.0619965-0.3919983-0.1459961
		c-0.1229858-0.1000061-0.1759949-0.2420044-0.1619873-0.4000015C48.2067566,31.5362167,48.271759,31.4142151,48.408783,31.3342133
		 M49.0467834,31.5912094c-0.0670166-0.0329971-0.1660156-0.0519943-0.2380066-0.0589981
		c-0.1450195-0.012001-0.3780212-0.0110016-0.3950195,0.1800003c-0.0079956,0.0920029,0.03302,0.1480026,0.1159973,0.1850052
		c0.0690002,0.0329971,0.1650085,0.0509949,0.2400208,0.0569992c0.0849915,0.0079956,0.1849976,0.0079956,0.2649841-0.0190048
		c0.0809937-0.0270004,0.1210022-0.072998,0.1280212-0.1569977C49.1707764,31.6852112,49.1287537,31.6312103,49.0467834,31.5912094"
		/>
	<path fill="#FFFFFF" d="M48.0170898,33.168808l0.0499878-0.2659988l1.1430054,0.2089996l-0.0889893,0.4820023
		c-0.0180054,0.1019974-0.0390015,0.2049942-0.1119995,0.2829971c-0.07901,0.0820007-0.2000122,0.112999-0.3120117,0.0930023
		c-0.1289978-0.0240021-0.2349854-0.1220016-0.2579956-0.253006l-0.5440063,0.1190033l0.0540161-0.2969971l0.4840088-0.0920029
		l0.0359802-0.1949997L48.0170898,33.168808z M48.6661072,33.2878036l-0.0270081,0.1470032
		c-0.0100098,0.0540009-0.026001,0.1139984-0.007019,0.1679993c0.0190125,0.0470047,0.0680237,0.0810013,0.1180115,0.090004
		c0.0450134,0.0079956,0.0979919-0.0090027,0.1289978-0.0429993c0.0360107-0.0410004,0.0440063-0.1180038,0.053009-0.1680069
		l0.026001-0.1409988L48.6661072,33.2878036z"/>
	<polygon fill="#FFFFFF" points="48.2504883,34.9509048 48.6784668,35.4499054 48.6084595,35.7009048 48.2844849,35.3189087 
		47.4714661,35.4529114 47.5524597,35.1639099 48.0984802,35.0789108 47.9164734,34.8569107 47.6584778,34.783905 
		47.7294617,34.5309067 48.8484802,34.8439102 48.7764587,35.0989075 	"/>
	<polygon fill="#FFFFFF" points="48.0354004,36.6694031 47.8153992,36.5854034 47.6593933,36.997406 47.4543762,36.9204102 
		47.6113892,36.5084076 47.3703918,36.4174042 47.1723938,36.9394073 46.9613953,36.8594055 47.2563782,36.084404 
		48.3414001,36.4954071 48.0483704,37.2724075 47.8373718,37.1924057 	"/>
	<path fill="#FFFFFF" d="M46.5762634,37.7317123l0.1170044-0.2450027l1.0480042,0.503006l-0.2120056,0.4419937
		c-0.0440063,0.0930023-0.0910034,0.1870041-0.1820068,0.2430038c-0.0979919,0.0589981-0.2229919,0.0569992-0.3249817,0.0069962
		c-0.1199951-0.0569992-0.196991-0.1779938-0.1830139-0.310997l-0.5559998-0.0279999l0.1300049-0.2730026l0.4909973,0.0390015
		l0.0859985-0.1780014L46.5762634,37.7317123z M47.1702881,38.0167084l-0.0640259,0.1340027
		c-0.0239868,0.0510025-0.0559998,0.1030045-0.0509949,0.1600037c0.006012,0.0519943,0.0440063,0.0970001,0.0899963,0.1179962
		c0.0420227,0.0200043,0.0970154,0.0179977,0.1350098-0.0069962c0.04599-0.0300064,0.0740051-0.102005,0.0950012-0.1480026
		l0.0629883-0.1279984L47.1702881,38.0167084z"/>
	<path fill="#FFFFFF" d="M46.3697815,39.8753052c0.1019897,0.0210037,0.1669922-0.0129929,0.2199707-0.1019974
		c0.0380249-0.0629959,0.0660095-0.1480026-0.0109863-0.1940002c-0.0740051-0.0429993-0.1430054,0.0340042-0.1870117,0.0839996
		c-0.0650024,0.0719986-0.151001,0.1699982-0.2379761,0.211998c-0.1020203,0.0500031-0.2150269,0.0510025-0.3150024-0.0079956
		c-0.0970154-0.0579987-0.1629944-0.1600037-0.1759949-0.2730026c-0.0160217-0.1169968,0.0299988-0.237999,0.0889893-0.3379974
		c0.1109924-0.189003,0.2940063-0.310997,0.5159912-0.2399979l-0.0780029,0.2439957
		c-0.1219788-0.0329971-0.2039795,0.0230026-0.2639771,0.1259995c-0.0410156,0.0670013-0.0680237,0.1700058,0.0139771,0.2190018
		c0.0840149,0.0500031,0.1679993-0.0550003,0.2170105-0.1080017c0.1409912-0.1569977,0.2969971-0.2999954,0.5159912-0.1709976
		c0.0939941,0.0550003,0.1530151,0.1399994,0.1710205,0.2460022c0.0179749,0.1100006-0.0120239,0.2080002-0.0660095,0.298996
		c-0.1040039,0.1760025-0.25,0.2830048-0.4599915,0.2410049L46.3697815,39.8753052z"/>
	<path fill="#FFFFFF" d="M44.5948792,41.2976074c0.1459961,0.0100021,0.2870178,0.0749969,0.401001,0.1660004
		c0.2390137,0.1940002,0.3670044,0.4939995,0.1520081,0.7619972c-0.0979919,0.1199989-0.2139893,0.1830025-0.3710022,0.1760025
		c-0.1409912-0.007-0.2949829-0.0770035-0.4049988-0.1650009c-0.1029968-0.0830002-0.2049866-0.2120018-0.2449951-0.3390007
		c-0.04599-0.1520004-0.0100098-0.2999954,0.0889893-0.4229965C44.3148804,41.3526077,44.4368896,41.2876053,44.5948792,41.2976074
		 M44.9819031,41.8666039c-0.0370178-0.0639992-0.1090088-0.1349983-0.1650085-0.1809959
		c-0.1140137-0.0910034-0.3080139-0.2200012-0.428009-0.0709991c-0.0579834,0.072998-0.0549927,0.1409988-0.0069885,0.218998
		c0.0390015,0.0649986,0.1089783,0.132,0.1679993,0.1800003c0.065979,0.053997,0.1489868,0.1100006,0.2299805,0.1329994
		c0.0820007,0.0219994,0.1410217,0.0060005,0.1950073-0.0600014C45.0328979,42.013607,45.0278931,41.9446068,44.9819031,41.8666039"
		/>
	<polygon fill="#FFFFFF" points="43.9458008,43.2341042 43.7547913,43.0521049 43.4497986,43.3721046 43.2917786,43.2211075 
		43.5957947,42.9011078 43.2677917,42.5881042 43.4547729,42.3911057 44.2967834,43.1941071 43.7257996,43.7921066 
		43.5627747,43.6371078 	"/>
	<path fill="#FFFFFF" d="M40.8747559,44.728508l0.2310181-0.182003l0.2039795,0.1430016l0.2940063-0.2330017l-0.0899963-0.2319984
		l0.1870117-0.1479988l0.4279785,1.1419983l-0.2469788,0.1959991L40.8747559,44.728508z M41.4907837,44.8185043l0.3499756,0.2440033
		l-0.1560059-0.3980026L41.4907837,44.8185043z"/>
	<polygon fill="#FFFFFF" points="39.7604065,45.4884071 39.9163818,45.3884087 40.6663818,46.0324097 40.6694031,46.0304108 
		40.1573792,45.2324104 40.3513794,45.1094093 40.9783936,46.08741 40.6203918,46.3174095 40.0733948,45.8404083 
		40.2703857,46.542408 39.912384,46.7714081 39.2843933,45.7934074 39.5133972,45.6474075 40.0233765,46.4444084 
		40.0293884,46.4404106 	"/>
	<polygon fill="#FFFFFF" points="38.8215027,47.1100044 38.713501,46.9000053 38.3224792,47.1010056 38.2224731,46.9070053 
		38.614502,46.7060051 38.4974976,46.477005 37.9994812,46.7320061 37.8964844,46.5310059 38.635498,46.1530075 
		39.1654968,47.1870079 38.4264832,47.5650063 38.3234863,47.3650055 	"/>
	<path fill="#FFFFFF" d="M37.0274658,46.9178085l0.2510071-0.1020012l0.4379883,1.0750008l-0.4539795,0.1849976
		c-0.0960083,0.0390015-0.1930237,0.0780029-0.2980042,0.057003c-0.1119995-0.0220032-0.2030029-0.1070023-0.2460022-0.2120018
		c-0.0490112-0.1230011-0.0249939-0.2639999,0.0740051-0.3530006l-0.3930054-0.3950005l0.2799988-0.112999l0.3370056,0.3580017
		l0.1839905-0.0750008L37.0274658,46.9178085z M37.2754822,47.5278053l-0.1380005,0.0560036
		c-0.052002,0.0209999-0.1100159,0.0399971-0.1450195,0.0849991c-0.0310059,0.0410004-0.0319824,0.1009979-0.0130005,0.1479988
		c0.0169983,0.0419998,0.0599976,0.0769997,0.1060181,0.0849991c0.0529785,0.0090027,0.1229858-0.0259972,0.1699829-0.0459976
		l0.131012-0.0530014L37.2754822,47.5278053z"/>
	
		<rect x="35.6534729" y="47.4111481" transform="matrix(0.9519541 -0.3062406 0.3062406 0.9519541 -12.9775791 13.2659311)" fill="#FFFFFF" width="0.2714969" height="1.1617259"/>
	<path fill="#FFFFFF" d="M34.2829895,48.5417061c0.0309753,0.125,0.1019897,0.2310028,0.2469788,0.1970024
		c0.1860046-0.045002,0.1459961-0.2939987,0.1140137-0.4300003c-0.0370178-0.1539993-0.1029968-0.348999-0.303009-0.302002
		c-0.1229858,0.0300026-0.1560059,0.1480026-0.144989,0.2600021l-0.2610168,0.0449982
		c-0.0339966-0.2649994,0.1080017-0.4609985,0.3670044-0.5229988c0.3359985-0.0810013,0.5650024,0.1529999,0.6390076,0.4609985
		c0.0749817,0.3130035-0.0289917,0.6210022-0.3680115,0.7030029c-0.2839966,0.067997-0.4679871-0.0620003-0.5619812-0.3260002
		L34.2829895,48.5417061z"/>
	<path fill="#FFFFFF" d="M32.2054749,48.1834068l0.2900085-0.0419998l0.105011,0.2259979l0.3720093-0.053997l0.0369873-0.2460022
		l0.2369995-0.0349998l-0.2030029,1.2029991l-0.3110046,0.045002L32.2054749,48.1834068z M32.6925049,48.5694046
		l0.1799927,0.3860016L32.9375,48.5344048L32.6925049,48.5694046z"/>
	<path fill="#173B65" d="M20.7207947,32.994606v-8.4589996h-2.2260132v9.765007
		c0,0.8019943,0.3259888,1.6619949,1.1870117,1.6619949h3.2059937c0.7129822,0,1.1869812-0.8310013,1.1869812-1.6920013v-9.7060013
		h-2.2559814v8.4300003c0,0.4450073-0.2669983,0.7120056-0.5630188,0.7120056
		C20.9577942,33.7066116,20.7207947,33.7066116,20.7207947,32.994606"/>
	<path fill="#173B65" d="M31.7923889,35.9480133h-2.2709961l-0.3559875-0.9499969h-2.0180054l-0.3560181,0.9499969h-2.2709961
		l2.434021-11.3680038h2.4029846L31.7923889,35.9480133z M27.5924072,32.5940094h1.1279907l-0.5639954-2.7009964
		L27.5924072,32.5940094z"/>
	<polygon fill="#173B65" points="37.2240906,24.5800095 38.3520813,29.4480133 39.5400696,24.5800095 41.8540649,24.5800095 
		39.4500732,35.9480133 37.3720703,35.9480133 36.3040771,31.7180099 35.236084,35.9630127 33.1580811,35.9630127 
		30.7540894,24.5950165 33.0680847,24.5950165 34.256073,29.4620132 35.3840637,24.5950165 	"/>
</g>
</svg>
