<svg width="74" height="74" viewBox="0 0 74 74" fill="none" xmlns="http://www.w3.org/2000/svg">
<path d="M38.9599 4.11035L33.0427 13.9356L29.2907 20.162H45.7355L51.4445 10.6807L55.4046 4.11035H38.9599Z" fill="#E3E3E4" fill-opacity="0.8"/>
<path d="M65.7762 20.1621H53.942H29.2907L37.5145 34.4042H45.7181H66.0826H74L65.7762 20.1621Z" fill="#C5C5C5" fill-opacity="0.8"/>
<path d="M39.5813 38.292L33.6642 48.5421L21.3386 69.8894H37.7834L41.8852 62.7842L52.0688 45.1456L56.0261 38.2891L39.5813 38.292Z" fill="#C5C5C5" fill-opacity="0.8"/>
<path d="M35.1789 38.1418L29.2618 27.8917L16.9362 6.5415L8.71524 20.7865L12.817 27.8917L23.0007 45.5274L26.958 52.3839L35.1789 38.1418Z" fill="#C5C5C5" fill-opacity="0.8"/>
<path d="M18.7341 38.1418L7.26992 37.9279L0 37.792L8.22094 52.0341L19.2891 52.2393L26.958 52.381L18.7341 38.1418Z" fill="#E3E3E4" fill-opacity="0.8"/>
<path d="M47.8052 52.5341L53.3552 62.5703L56.873 68.9326L65.094 54.6905L59.7377 45.004L56.029 38.2891L47.8052 52.5341Z" fill="#E3E3E4" fill-opacity="0.8"/>
</svg>
