<?xml version="1.0" encoding="iso-8859-1"?>
<!-- Generator: Adobe Illustrator 19.0.0, SVG Export Plug-In . SVG Version: 6.00 Build 0)  -->
<svg version="1.1" id="Capa_1" xmlns="http://www.w3.org/2000/svg" xmlns:xlink="http://www.w3.org/1999/xlink" x="0px" y="0px"
	 viewBox="0 0 485 485" style="enable-background:new 0 0 485 485;" xml:space="preserve">
<path d="M443.673,229.344v-27.539c7.005-3.565,13.489-8.234,19.208-13.953c14.264-14.264,22.119-33.228,22.119-53.4
	s-7.855-39.136-22.12-53.399l-54.408-54.408c-14.263-14.264-33.227-22.119-53.399-22.119c-20.17,0-39.136,7.856-53.399,22.119
	c-29.444,29.444-29.444,77.354,0,106.799l54.408,54.407c14.263,14.264,33.227,22.119,53.399,22.119c1.404,0,2.801-0.047,4.192-0.123
	v0.647l-59.748,28.774c-23.38-36.921-64.586-61.487-111.426-61.487c-46.84,0-88.045,24.566-111.425,61.486l-59.747-28.773v-0.647
	c1.391,0.076,2.786,0.123,4.19,0.123c0.003,0,0.005,0,0.007,0c20.168,0,39.131-7.855,53.393-22.118l54.408-54.408
	c29.444-29.444,29.444-77.354,0-106.799c-14.263-14.264-33.227-22.119-53.399-22.119S90.79,12.381,76.527,26.644L22.119,81.052
	C7.855,95.316,0,114.28,0,134.452s7.855,39.136,22.119,53.399c5.719,5.719,12.203,10.387,19.208,13.953v27.54l76.693,36.934
	c-3.15,9.029-5.341,18.502-6.456,28.297h-75.7v30h75.714c1.104,9.658,3.265,19.153,6.441,28.302l-68.212,32.849l13.017,27.03
	l68.304-32.893l15.964,25.268l-45.166,56.633l23.454,18.705l47.303-59.313h139.634l47.309,59.32l23.454-18.705l-45.168-56.636
	l15.965-25.257l68.294,32.889l13.017-27.03l-68.211-32.849c3.178-9.152,5.34-18.651,6.445-28.312h75.715v-30h-75.701
	c-1.115-9.796-3.306-19.268-6.456-28.297L443.673,229.344z M322.887,112.231c-14.032-14.032-16.959-35.017-8.802-51.962
	l74.183,74.183l-21.58,21.58L322.887,112.231z M389.688,175.458l41.007-41.006L335.28,39.037c6.095-2.948,12.823-4.511,19.794-4.511
	c12.158,0,23.589,4.734,32.186,13.332l54.408,54.407c8.597,8.598,13.332,20.029,13.332,32.187s-4.733,23.589-13.331,32.186
	c-8.598,8.597-20.028,13.332-32.187,13.332C402.511,179.97,395.783,178.406,389.688,175.458z M162.113,112.23l-43.802,43.801
	l-21.58-21.579l74.184-74.184C179.072,77.213,176.145,98.197,162.113,112.23z M43.331,102.266l54.408-54.408
	c8.598-8.597,20.028-13.332,32.187-13.332c6.971,0,13.699,1.563,19.794,4.511l-95.415,95.415l41.008,41.007
	c-6.094,2.948-12.82,4.511-19.789,4.511c-0.001,0-0.004,0-0.004,0c-12.161-0.001-23.592-4.736-32.188-13.332
	C34.735,158.041,30,146.61,30,134.452C30,122.293,34.735,110.863,43.331,102.266z M242.501,207.781
	c56.129,0,101.794,45.664,101.794,101.794c0,17.719-4.613,35.148-13.345,50.427l-19.693,31.153H173.744l-19.692-31.153
	c-8.732-15.279-13.345-32.708-13.345-50.427C140.707,253.446,186.372,207.781,242.501,207.781z"/>
<g>
</g>
<g>
</g>
<g>
</g>
<g>
</g>
<g>
</g>
<g>
</g>
<g>
</g>
<g>
</g>
<g>
</g>
<g>
</g>
<g>
</g>
<g>
</g>
<g>
</g>
<g>
</g>
<g>
</g>
</svg>
