<svg width="364" height="33" viewBox="0 0 364 33" fill="none" xmlns="http://www.w3.org/2000/svg">
<rect width="154" height="33" rx="6" fill="#758FF8"/>
<path d="M19.3333 11.8332C19.3332 11.5986 19.395 11.3682 19.5125 11.1651C19.63 10.962 19.799 10.7936 20.0024 10.6767C20.2058 10.5598 20.4365 10.4987 20.6711 10.4995C20.9057 10.5003 21.136 10.563 21.3386 10.6812L29.3366 15.3466C29.5384 15.4637 29.706 15.6317 29.8225 15.8339C29.9391 16.0361 30.0005 16.2653 30.0007 16.4987C30.0009 16.732 29.9399 16.9614 29.8237 17.1637C29.7075 17.3661 29.5402 17.5344 29.3386 17.6519L21.3386 22.3186C21.136 22.4368 20.9057 22.4995 20.6711 22.5003C20.4365 22.5011 20.2058 22.44 20.0024 22.3231C19.799 22.2062 19.63 22.0378 19.5125 21.8347C19.395 21.6317 19.3332 21.4012 19.3333 21.1666V11.8332Z" stroke="#D4D8DD" stroke-width="1.33333" stroke-linecap="round" stroke-linejoin="round"/>
<path d="M43.9787 22H42.348L46.0121 11.8182H47.7869L51.451 22H49.8203L46.9418 13.6676H46.8622L43.9787 22ZM44.2521 18.0128H49.5419V19.3054H44.2521V18.0128ZM55.8956 22.1541C55.1565 22.1541 54.5201 21.9867 53.9865 21.652C53.4562 21.3139 53.0485 20.8482 52.7635 20.255C52.4785 19.6617 52.3359 18.9822 52.3359 18.2166C52.3359 17.4411 52.4818 16.7566 52.7734 16.1634C53.0651 15.5668 53.4761 15.1011 54.0064 14.7663C54.5367 14.4316 55.1615 14.2642 55.8807 14.2642C56.4607 14.2642 56.9777 14.3719 57.4318 14.5874C57.8859 14.7995 58.2521 15.0978 58.5305 15.4822C58.8123 15.8667 58.9796 16.3158 59.0327 16.8295H57.5859C57.5064 16.4716 57.3241 16.1634 57.0391 15.9048C56.7573 15.6463 56.3795 15.517 55.9055 15.517C55.4912 15.517 55.1283 15.6264 54.8168 15.8452C54.5085 16.0606 54.2682 16.3688 54.0959 16.7699C53.9235 17.1676 53.8374 17.6383 53.8374 18.1818C53.8374 18.7386 53.9219 19.2192 54.0909 19.6236C54.2599 20.0279 54.4986 20.3411 54.8068 20.5632C55.1184 20.7853 55.4846 20.8963 55.9055 20.8963C56.1873 20.8963 56.4425 20.8449 56.6712 20.7422C56.9032 20.6361 57.0971 20.4853 57.2528 20.2898C57.4119 20.0942 57.523 19.8589 57.5859 19.5838H59.0327C58.9796 20.0777 58.8189 20.5185 58.5504 20.9062C58.282 21.294 57.9223 21.599 57.4716 21.821C57.0241 22.0431 56.4988 22.1541 55.8956 22.1541ZM63.839 22.1541C63.0998 22.1541 62.4635 21.9867 61.9299 21.652C61.3996 21.3139 60.9919 20.8482 60.7069 20.255C60.4218 19.6617 60.2793 18.9822 60.2793 18.2166C60.2793 17.4411 60.4251 16.7566 60.7168 16.1634C61.0085 15.5668 61.4194 15.1011 61.9498 14.7663C62.4801 14.4316 63.1048 14.2642 63.824 14.2642C64.4041 14.2642 64.9211 14.3719 65.3752 14.5874C65.8292 14.7995 66.1955 15.0978 66.4739 15.4822C66.7556 15.8667 66.923 16.3158 66.976 16.8295H65.5293C65.4498 16.4716 65.2675 16.1634 64.9824 15.9048C64.7007 15.6463 64.3229 15.517 63.8489 15.517C63.4346 15.517 63.0717 15.6264 62.7601 15.8452C62.4519 16.0606 62.2116 16.3688 62.0392 16.7699C61.8669 17.1676 61.7807 17.6383 61.7807 18.1818C61.7807 18.7386 61.8652 19.2192 62.0343 19.6236C62.2033 20.0279 62.4419 20.3411 62.7502 20.5632C63.0617 20.7853 63.428 20.8963 63.8489 20.8963C64.1306 20.8963 64.3858 20.8449 64.6145 20.7422C64.8465 20.6361 65.0404 20.4853 65.1962 20.2898C65.3553 20.0942 65.4663 19.8589 65.5293 19.5838H66.976C66.923 20.0777 66.7623 20.5185 66.4938 20.9062C66.2253 21.294 65.8657 21.599 65.415 21.821C64.9675 22.0431 64.4422 22.1541 63.839 22.1541ZM71.8569 22.1541C71.1045 22.1541 70.4566 21.9934 69.913 21.6719C69.3728 21.3471 68.9551 20.8913 68.6602 20.3047C68.3685 19.7147 68.2227 19.0237 68.2227 18.2315C68.2227 17.4493 68.3685 16.7599 68.6602 16.1634C68.9551 15.5668 69.3661 15.1011 69.8931 14.7663C70.4234 14.4316 71.0432 14.2642 71.7525 14.2642C72.1834 14.2642 72.601 14.3355 73.0053 14.478C73.4097 14.6205 73.7726 14.8442 74.0941 15.1491C74.4156 15.4541 74.6692 15.8501 74.8548 16.3374C75.0404 16.8213 75.1332 17.4096 75.1332 18.1023V18.6293H69.0629V17.5156H73.6765C73.6765 17.1245 73.5969 16.7782 73.4379 16.4766C73.2788 16.1716 73.055 15.9313 72.7667 15.7557C72.4817 15.58 72.1469 15.4922 71.7624 15.4922C71.3448 15.4922 70.9802 15.5949 70.6687 15.8004C70.3604 16.0026 70.1218 16.2678 69.9528 16.5959C69.7871 16.9207 69.7042 17.2737 69.7042 17.6548V18.5249C69.7042 19.0353 69.7937 19.4695 69.9727 19.8274C70.1549 20.1854 70.4085 20.4588 70.7333 20.6477C71.0581 20.8333 71.4376 20.9261 71.8718 20.9261C72.1535 20.9261 72.4104 20.8864 72.6424 20.8068C72.8744 20.724 73.0749 20.6013 73.244 20.4389C73.413 20.2765 73.5423 20.076 73.6317 19.8374L75.0387 20.0909C74.926 20.5052 74.7238 20.8681 74.4322 21.1797C74.1438 21.4879 73.7809 21.7282 73.3434 21.9006C72.9092 22.0696 72.4137 22.1541 71.8569 22.1541ZM78.269 17.4659V22H76.7825V14.3636H78.2093V15.6065H78.3038C78.4795 15.2022 78.7546 14.8774 79.1291 14.6321C79.5069 14.3868 79.9825 14.2642 80.5559 14.2642C81.0763 14.2642 81.532 14.3736 81.9231 14.5923C82.3142 14.8078 82.6175 15.1293 82.8329 15.5568C83.0484 15.9844 83.1561 16.513 83.1561 17.1428V22H81.6696V17.3217C81.6696 16.7682 81.5254 16.3357 81.237 16.0241C80.9487 15.7093 80.5526 15.5518 80.0488 15.5518C79.7041 15.5518 79.3975 15.6264 79.1291 15.7756C78.8639 15.9247 78.6535 16.1435 78.4977 16.4318C78.3452 16.7169 78.269 17.0616 78.269 17.4659ZM88.7143 14.3636V15.5568H84.5431V14.3636H88.7143ZM85.6618 12.5341H87.1483V19.7578C87.1483 20.0462 87.1913 20.2633 87.2775 20.4091C87.3637 20.5516 87.4747 20.6494 87.6106 20.7024C87.7498 20.7521 87.9006 20.777 88.063 20.777C88.1824 20.777 88.2868 20.7687 88.3762 20.7521C88.4657 20.7356 88.5353 20.7223 88.585 20.7124L88.8535 21.9403C88.7673 21.9735 88.6447 22.0066 88.4856 22.0398C88.3265 22.0762 88.1277 22.0961 87.889 22.0994C87.4979 22.1061 87.1333 22.0365 86.7953 21.8906C86.4572 21.7448 86.1838 21.5194 85.975 21.2145C85.7662 20.9096 85.6618 20.5268 85.6618 20.0661V12.5341ZM94.1831 22V11.8182H95.6696V15.6016H95.7591C95.8452 15.4425 95.9695 15.2585 96.1319 15.0497C96.2943 14.8409 96.5197 14.6586 96.8081 14.5028C97.0964 14.3438 97.4776 14.2642 97.9515 14.2642C98.568 14.2642 99.1182 14.42 99.6021 14.7315C100.086 15.0431 100.465 15.4922 100.741 16.0788C101.019 16.6655 101.158 17.3714 101.158 18.1967C101.158 19.022 101.021 19.7296 100.746 20.3196C100.47 20.9062 100.093 21.3587 99.612 21.6768C99.1315 21.9917 98.5829 22.1491 97.9664 22.1491C97.5024 22.1491 97.1229 22.0713 96.8279 21.9155C96.5363 21.7597 96.3076 21.5774 96.1419 21.3686C95.9761 21.1598 95.8485 20.9742 95.7591 20.8118H95.6348V22H94.1831ZM95.6397 18.1818C95.6397 18.7187 95.7176 19.1894 95.8734 19.5938C96.0292 19.9981 96.2546 20.3146 96.5495 20.5433C96.8445 20.7687 97.2058 20.8814 97.6333 20.8814C98.0775 20.8814 98.4487 20.7637 98.747 20.5284C99.0453 20.2898 99.2707 19.9666 99.4231 19.5589C99.5789 19.1513 99.6568 18.6922 99.6568 18.1818C99.6568 17.678 99.5806 17.2256 99.4281 16.8246C99.2789 16.4235 99.0536 16.107 98.752 15.875C98.4537 15.643 98.0808 15.527 97.6333 15.527C97.2025 15.527 96.8379 15.638 96.5396 15.8601C96.2446 16.0821 96.0209 16.392 95.8684 16.7898C95.716 17.1875 95.6397 17.6515 95.6397 18.1818ZM107.665 18.8331V14.3636H109.156V22H107.695V20.6776H107.615C107.439 21.0852 107.158 21.425 106.77 21.6967C106.385 21.9652 105.906 22.0994 105.333 22.0994C104.843 22.0994 104.408 21.9917 104.031 21.7763C103.656 21.5575 103.361 21.2344 103.146 20.8068C102.933 20.3793 102.827 19.8506 102.827 19.2209V14.3636H104.314V19.0419C104.314 19.5623 104.458 19.9766 104.746 20.2848C105.035 20.593 105.409 20.7472 105.87 20.7472C106.148 20.7472 106.425 20.6776 106.7 20.5384C106.979 20.3991 107.209 20.1887 107.391 19.907C107.577 19.6252 107.668 19.2673 107.665 18.8331ZM114.718 14.3636V15.5568H110.547V14.3636H114.718ZM111.666 12.5341H113.152V19.7578C113.152 20.0462 113.195 20.2633 113.281 20.4091C113.368 20.5516 113.479 20.6494 113.615 20.7024C113.754 20.7521 113.905 20.777 114.067 20.777C114.186 20.777 114.291 20.7687 114.38 20.7521C114.47 20.7356 114.539 20.7223 114.589 20.7124L114.857 21.9403C114.771 21.9735 114.649 22.0066 114.49 22.0398C114.33 22.0762 114.132 22.0961 113.893 22.0994C113.502 22.1061 113.137 22.0365 112.799 21.8906C112.461 21.7448 112.188 21.5194 111.979 21.2145C111.77 20.9096 111.666 20.5268 111.666 20.0661V12.5341ZM119.927 14.3636V15.5568H115.756V14.3636H119.927ZM116.875 12.5341H118.361V19.7578C118.361 20.0462 118.404 20.2633 118.49 20.4091C118.577 20.5516 118.688 20.6494 118.824 20.7024C118.963 20.7521 119.114 20.777 119.276 20.777C119.395 20.777 119.5 20.7687 119.589 20.7521C119.679 20.7356 119.748 20.7223 119.798 20.7124L120.066 21.9403C119.98 21.9735 119.858 22.0066 119.699 22.0398C119.539 22.0762 119.341 22.0961 119.102 22.0994C118.711 22.1061 118.346 22.0365 118.008 21.8906C117.67 21.7448 117.397 21.5194 117.188 21.2145C116.979 20.9096 116.875 20.5268 116.875 20.0661V12.5341ZM124.706 22.1541C123.99 22.1541 123.365 21.9901 122.832 21.6619C122.298 21.3338 121.884 20.8748 121.589 20.2848C121.294 19.6948 121.146 19.0054 121.146 18.2166C121.146 17.4245 121.294 16.7318 121.589 16.1385C121.884 15.5452 122.298 15.0845 122.832 14.7564C123.365 14.4283 123.99 14.2642 124.706 14.2642C125.422 14.2642 126.047 14.4283 126.58 14.7564C127.114 15.0845 127.528 15.5452 127.823 16.1385C128.118 16.7318 128.266 17.4245 128.266 18.2166C128.266 19.0054 128.118 19.6948 127.823 20.2848C127.528 20.8748 127.114 21.3338 126.58 21.6619C126.047 21.9901 125.422 22.1541 124.706 22.1541ZM124.711 20.9062C125.175 20.9062 125.56 20.7836 125.865 20.5384C126.169 20.2931 126.395 19.9666 126.541 19.5589C126.69 19.1513 126.764 18.7022 126.764 18.2116C126.764 17.7244 126.69 17.277 126.541 16.8693C126.395 16.4583 126.169 16.1286 125.865 15.88C125.56 15.6314 125.175 15.5071 124.711 15.5071C124.244 15.5071 123.856 15.6314 123.548 15.88C123.243 16.1286 123.016 16.4583 122.867 16.8693C122.721 17.277 122.648 17.7244 122.648 18.2116C122.648 18.7022 122.721 19.1513 122.867 19.5589C123.016 19.9666 123.243 20.2931 123.548 20.5384C123.856 20.7836 124.244 20.9062 124.711 20.9062ZM131.412 17.4659V22H129.925V14.3636H131.352V15.6065H131.446C131.622 15.2022 131.897 14.8774 132.272 14.6321C132.65 14.3868 133.125 14.2642 133.699 14.2642C134.219 14.2642 134.675 14.3736 135.066 14.5923C135.457 14.8078 135.76 15.1293 135.975 15.5568C136.191 15.9844 136.299 16.513 136.299 17.1428V22H134.812V17.3217C134.812 16.7682 134.668 16.3357 134.38 16.0241C134.091 15.7093 133.695 15.5518 133.191 15.5518C132.847 15.5518 132.54 15.6264 132.272 15.7756C132.007 15.9247 131.796 16.1435 131.64 16.4318C131.488 16.7169 131.412 17.0616 131.412 17.4659Z" fill="#D4D8DD"/>
<rect x="158" width="154" height="33" rx="6" fill="#758FF8"/>
<path d="M177.333 11.8332C177.333 11.5986 177.395 11.3682 177.513 11.1651C177.63 10.962 177.799 10.7936 178.002 10.6767C178.206 10.5598 178.437 10.4987 178.671 10.4995C178.906 10.5003 179.136 10.563 179.339 10.6812L187.337 15.3466C187.538 15.4637 187.706 15.6317 187.823 15.8339C187.939 16.0361 188.001 16.2653 188.001 16.4987C188.001 16.732 187.94 16.9614 187.824 17.1637C187.708 17.3661 187.54 17.5344 187.339 17.6519L179.339 22.3186C179.136 22.4368 178.906 22.4995 178.671 22.5003C178.437 22.5011 178.206 22.44 178.002 22.3231C177.799 22.2062 177.63 22.0378 177.513 21.8347C177.395 21.6317 177.333 21.4012 177.333 21.1666V11.8332Z" stroke="#D4D8DD" stroke-width="1.33333" stroke-linecap="round" stroke-linejoin="round"/>
<path d="M201.979 22H200.348L204.012 11.8182H205.787L209.451 22H207.82L204.942 13.6676H204.862L201.979 22ZM202.252 18.0128H207.542V19.3054H202.252V18.0128ZM213.896 22.1541C213.156 22.1541 212.52 21.9867 211.987 21.652C211.456 21.3139 211.049 20.8482 210.763 20.255C210.478 19.6617 210.336 18.9822 210.336 18.2166C210.336 17.4411 210.482 16.7566 210.773 16.1634C211.065 15.5668 211.476 15.1011 212.006 14.7663C212.537 14.4316 213.161 14.2642 213.881 14.2642C214.461 14.2642 214.978 14.3719 215.432 14.5874C215.886 14.7995 216.252 15.0978 216.531 15.4822C216.812 15.8667 216.98 16.3158 217.033 16.8295H215.586C215.506 16.4716 215.324 16.1634 215.039 15.9048C214.757 15.6463 214.379 15.517 213.906 15.517C213.491 15.517 213.128 15.6264 212.817 15.8452C212.509 16.0606 212.268 16.3688 212.096 16.7699C211.924 17.1676 211.837 17.6383 211.837 18.1818C211.837 18.7386 211.922 19.2192 212.091 19.6236C212.26 20.0279 212.499 20.3411 212.807 20.5632C213.118 20.7853 213.485 20.8963 213.906 20.8963C214.187 20.8963 214.442 20.8449 214.671 20.7422C214.903 20.6361 215.097 20.4853 215.253 20.2898C215.412 20.0942 215.523 19.8589 215.586 19.5838H217.033C216.98 20.0777 216.819 20.5185 216.55 20.9062C216.282 21.294 215.922 21.599 215.472 21.821C215.024 22.0431 214.499 22.1541 213.896 22.1541ZM221.839 22.1541C221.1 22.1541 220.463 21.9867 219.93 21.652C219.4 21.3139 218.992 20.8482 218.707 20.255C218.422 19.6617 218.279 18.9822 218.279 18.2166C218.279 17.4411 218.425 16.7566 218.717 16.1634C219.008 15.5668 219.419 15.1011 219.95 14.7663C220.48 14.4316 221.105 14.2642 221.824 14.2642C222.404 14.2642 222.921 14.3719 223.375 14.5874C223.829 14.7995 224.195 15.0978 224.474 15.4822C224.756 15.8667 224.923 16.3158 224.976 16.8295H223.529C223.45 16.4716 223.267 16.1634 222.982 15.9048C222.701 15.6463 222.323 15.517 221.849 15.517C221.435 15.517 221.072 15.6264 220.76 15.8452C220.452 16.0606 220.212 16.3688 220.039 16.7699C219.867 17.1676 219.781 17.6383 219.781 18.1818C219.781 18.7386 219.865 19.2192 220.034 19.6236C220.203 20.0279 220.442 20.3411 220.75 20.5632C221.062 20.7853 221.428 20.8963 221.849 20.8963C222.131 20.8963 222.386 20.8449 222.615 20.7422C222.847 20.6361 223.04 20.4853 223.196 20.2898C223.355 20.0942 223.466 19.8589 223.529 19.5838H224.976C224.923 20.0777 224.762 20.5185 224.494 20.9062C224.225 21.294 223.866 21.599 223.415 21.821C222.968 22.0431 222.442 22.1541 221.839 22.1541ZM229.857 22.1541C229.105 22.1541 228.457 21.9934 227.913 21.6719C227.373 21.3471 226.955 20.8913 226.66 20.3047C226.368 19.7147 226.223 19.0237 226.223 18.2315C226.223 17.4493 226.368 16.7599 226.66 16.1634C226.955 15.5668 227.366 15.1011 227.893 14.7663C228.423 14.4316 229.043 14.2642 229.752 14.2642C230.183 14.2642 230.601 14.3355 231.005 14.478C231.41 14.6205 231.773 14.8442 232.094 15.1491C232.416 15.4541 232.669 15.8501 232.855 16.3374C233.04 16.8213 233.133 17.4096 233.133 18.1023V18.6293H227.063V17.5156H231.676C231.676 17.1245 231.597 16.7782 231.438 16.4766C231.279 16.1716 231.055 15.9313 230.767 15.7557C230.482 15.58 230.147 15.4922 229.762 15.4922C229.345 15.4922 228.98 15.5949 228.669 15.8004C228.36 16.0026 228.122 16.2678 227.953 16.5959C227.787 16.9207 227.704 17.2737 227.704 17.6548V18.5249C227.704 19.0353 227.794 19.4695 227.973 19.8274C228.155 20.1854 228.408 20.4588 228.733 20.6477C229.058 20.8333 229.438 20.9261 229.872 20.9261C230.154 20.9261 230.41 20.8864 230.642 20.8068C230.874 20.724 231.075 20.6013 231.244 20.4389C231.413 20.2765 231.542 20.076 231.632 19.8374L233.039 20.0909C232.926 20.5052 232.724 20.8681 232.432 21.1797C232.144 21.4879 231.781 21.7282 231.343 21.9006C230.909 22.0696 230.414 22.1541 229.857 22.1541ZM236.269 17.4659V22H234.782V14.3636H236.209V15.6065H236.304C236.479 15.2022 236.755 14.8774 237.129 14.6321C237.507 14.3868 237.983 14.2642 238.556 14.2642C239.076 14.2642 239.532 14.3736 239.923 14.5923C240.314 14.8078 240.617 15.1293 240.833 15.5568C241.048 15.9844 241.156 16.513 241.156 17.1428V22H239.67V17.3217C239.67 16.7682 239.525 16.3357 239.237 16.0241C238.949 15.7093 238.553 15.5518 238.049 15.5518C237.704 15.5518 237.398 15.6264 237.129 15.7756C236.864 15.9247 236.653 16.1435 236.498 16.4318C236.345 16.7169 236.269 17.0616 236.269 17.4659ZM246.714 14.3636V15.5568H242.543V14.3636H246.714ZM243.662 12.5341H245.148V19.7578C245.148 20.0462 245.191 20.2633 245.278 20.4091C245.364 20.5516 245.475 20.6494 245.611 20.7024C245.75 20.7521 245.901 20.777 246.063 20.777C246.182 20.777 246.287 20.7687 246.376 20.7521C246.466 20.7356 246.535 20.7223 246.585 20.7124L246.854 21.9403C246.767 21.9735 246.645 22.0066 246.486 22.0398C246.327 22.0762 246.128 22.0961 245.889 22.0994C245.498 22.1061 245.133 22.0365 244.795 21.8906C244.457 21.7448 244.184 21.5194 243.975 21.2145C243.766 20.9096 243.662 20.5268 243.662 20.0661V12.5341ZM252.183 22V11.8182H253.67V15.6016H253.759C253.845 15.4425 253.97 15.2585 254.132 15.0497C254.294 14.8409 254.52 14.6586 254.808 14.5028C255.096 14.3438 255.478 14.2642 255.952 14.2642C256.568 14.2642 257.118 14.42 257.602 14.7315C258.086 15.0431 258.465 15.4922 258.741 16.0788C259.019 16.6655 259.158 17.3714 259.158 18.1967C259.158 19.022 259.021 19.7296 258.746 20.3196C258.47 20.9062 258.093 21.3587 257.612 21.6768C257.131 21.9917 256.583 22.1491 255.966 22.1491C255.502 22.1491 255.123 22.0713 254.828 21.9155C254.536 21.7597 254.308 21.5774 254.142 21.3686C253.976 21.1598 253.849 20.9742 253.759 20.8118H253.635V22H252.183ZM253.64 18.1818C253.64 18.7187 253.718 19.1894 253.873 19.5938C254.029 19.9981 254.255 20.3146 254.55 20.5433C254.845 20.7687 255.206 20.8814 255.633 20.8814C256.077 20.8814 256.449 20.7637 256.747 20.5284C257.045 20.2898 257.271 19.9666 257.423 19.5589C257.579 19.1513 257.657 18.6922 257.657 18.1818C257.657 17.678 257.581 17.2256 257.428 16.8246C257.279 16.4235 257.054 16.107 256.752 15.875C256.454 15.643 256.081 15.527 255.633 15.527C255.202 15.527 254.838 15.638 254.54 15.8601C254.245 16.0821 254.021 16.392 253.868 16.7898C253.716 17.1875 253.64 17.6515 253.64 18.1818ZM265.665 18.8331V14.3636H267.156V22H265.695V20.6776H265.615C265.439 21.0852 265.158 21.425 264.77 21.6967C264.385 21.9652 263.906 22.0994 263.333 22.0994C262.843 22.0994 262.408 21.9917 262.031 21.7763C261.656 21.5575 261.361 21.2344 261.146 20.8068C260.933 20.3793 260.827 19.8506 260.827 19.2209V14.3636H262.314V19.0419C262.314 19.5623 262.458 19.9766 262.746 20.2848C263.035 20.593 263.409 20.7472 263.87 20.7472C264.148 20.7472 264.425 20.6776 264.7 20.5384C264.979 20.3991 265.209 20.1887 265.391 19.907C265.577 19.6252 265.668 19.2673 265.665 18.8331ZM272.718 14.3636V15.5568H268.547V14.3636H272.718ZM269.666 12.5341H271.152V19.7578C271.152 20.0462 271.195 20.2633 271.281 20.4091C271.368 20.5516 271.479 20.6494 271.615 20.7024C271.754 20.7521 271.905 20.777 272.067 20.777C272.186 20.777 272.291 20.7687 272.38 20.7521C272.47 20.7356 272.539 20.7223 272.589 20.7124L272.857 21.9403C272.771 21.9735 272.649 22.0066 272.49 22.0398C272.33 22.0762 272.132 22.0961 271.893 22.0994C271.502 22.1061 271.137 22.0365 270.799 21.8906C270.461 21.7448 270.188 21.5194 269.979 21.2145C269.77 20.9096 269.666 20.5268 269.666 20.0661V12.5341ZM277.927 14.3636V15.5568H273.756V14.3636H277.927ZM274.875 12.5341H276.361V19.7578C276.361 20.0462 276.404 20.2633 276.49 20.4091C276.577 20.5516 276.688 20.6494 276.824 20.7024C276.963 20.7521 277.114 20.777 277.276 20.777C277.395 20.777 277.5 20.7687 277.589 20.7521C277.679 20.7356 277.748 20.7223 277.798 20.7124L278.066 21.9403C277.98 21.9735 277.858 22.0066 277.699 22.0398C277.539 22.0762 277.341 22.0961 277.102 22.0994C276.711 22.1061 276.346 22.0365 276.008 21.8906C275.67 21.7448 275.397 21.5194 275.188 21.2145C274.979 20.9096 274.875 20.5268 274.875 20.0661V12.5341ZM282.706 22.1541C281.99 22.1541 281.365 21.9901 280.832 21.6619C280.298 21.3338 279.884 20.8748 279.589 20.2848C279.294 19.6948 279.146 19.0054 279.146 18.2166C279.146 17.4245 279.294 16.7318 279.589 16.1385C279.884 15.5452 280.298 15.0845 280.832 14.7564C281.365 14.4283 281.99 14.2642 282.706 14.2642C283.422 14.2642 284.047 14.4283 284.58 14.7564C285.114 15.0845 285.528 15.5452 285.823 16.1385C286.118 16.7318 286.266 17.4245 286.266 18.2166C286.266 19.0054 286.118 19.6948 285.823 20.2848C285.528 20.8748 285.114 21.3338 284.58 21.6619C284.047 21.9901 283.422 22.1541 282.706 22.1541ZM282.711 20.9062C283.175 20.9062 283.56 20.7836 283.865 20.5384C284.169 20.2931 284.395 19.9666 284.541 19.5589C284.69 19.1513 284.764 18.7022 284.764 18.2116C284.764 17.7244 284.69 17.277 284.541 16.8693C284.395 16.4583 284.169 16.1286 283.865 15.88C283.56 15.6314 283.175 15.5071 282.711 15.5071C282.244 15.5071 281.856 15.6314 281.548 15.88C281.243 16.1286 281.016 16.4583 280.867 16.8693C280.721 17.277 280.648 17.7244 280.648 18.2116C280.648 18.7022 280.721 19.1513 280.867 19.5589C281.016 19.9666 281.243 20.2931 281.548 20.5384C281.856 20.7836 282.244 20.9062 282.711 20.9062ZM289.412 17.4659V22H287.925V14.3636H289.352V15.6065H289.446C289.622 15.2022 289.897 14.8774 290.272 14.6321C290.65 14.3868 291.125 14.2642 291.699 14.2642C292.219 14.2642 292.675 14.3736 293.066 14.5923C293.457 14.8078 293.76 15.1293 293.975 15.5568C294.191 15.9844 294.299 16.513 294.299 17.1428V22H292.812V17.3217C292.812 16.7682 292.668 16.3357 292.38 16.0241C292.091 15.7093 291.695 15.5518 291.191 15.5518C290.847 15.5518 290.54 15.6264 290.272 15.7756C290.007 15.9247 289.796 16.1435 289.64 16.4318C289.488 16.7169 289.412 17.0616 289.412 17.4659Z" fill="#D4D8DD"/>
<rect x="316" width="48" height="33" rx="6" fill="#758FF8"/>
<path d="M335.333 11.8332C335.333 11.5986 335.395 11.3682 335.513 11.1651C335.63 10.962 335.799 10.7936 336.002 10.6767C336.206 10.5598 336.437 10.4987 336.671 10.4995C336.906 10.5003 337.136 10.563 337.339 10.6812L345.337 15.3466C345.538 15.4637 345.706 15.6317 345.823 15.8339C345.939 16.0361 346.001 16.2653 346.001 16.4987C346.001 16.732 345.94 16.9614 345.824 17.1637C345.708 17.3661 345.54 17.5344 345.339 17.6519L337.339 22.3186C337.136 22.4368 336.906 22.4995 336.671 22.5003C336.437 22.5011 336.206 22.44 336.002 22.3231C335.799 22.2062 335.63 22.0378 335.513 21.8347C335.395 21.6317 335.333 21.4012 335.333 21.1666V11.8332Z" stroke="white" stroke-width="1.33333" stroke-linecap="round" stroke-linejoin="round"/>
</svg>
