<svg width="338" height="33" viewBox="0 0 338 33" fill="none" xmlns="http://www.w3.org/2000/svg">
<rect width="154" height="33" rx="6" fill="#293676"/>
<path d="M19.3333 11.8332C19.3332 11.5986 19.395 11.3682 19.5125 11.1651C19.63 10.962 19.799 10.7936 20.0024 10.6767C20.2058 10.5598 20.4365 10.4987 20.6711 10.4995C20.9057 10.5003 21.136 10.563 21.3386 10.6812L29.3366 15.3466C29.5384 15.4637 29.706 15.6317 29.8225 15.8339C29.9391 16.0361 30.0005 16.2653 30.0007 16.4987C30.0009 16.732 29.9399 16.9614 29.8237 17.1637C29.7075 17.3661 29.5402 17.5344 29.3386 17.6519L21.3386 22.3186C21.136 22.4368 20.9057 22.4995 20.6711 22.5003C20.4365 22.5011 20.2058 22.44 20.0024 22.3231C19.799 22.2062 19.63 22.0378 19.5125 21.8347C19.395 21.6317 19.3332 21.4012 19.3333 21.1666V11.8332Z" stroke="white" stroke-width="1.33333" stroke-linecap="round" stroke-linejoin="round"/>
<path d="M43.9787 22H42.348L46.0121 11.8182H47.7869L51.451 22H49.8203L46.9418 13.6676H46.8622L43.9787 22ZM44.2521 18.0128H49.5419V19.3054H44.2521V18.0128ZM55.8956 22.1541C55.1565 22.1541 54.5201 21.9867 53.9865 21.652C53.4562 21.3139 53.0485 20.8482 52.7635 20.255C52.4785 19.6617 52.3359 18.9822 52.3359 18.2166C52.3359 17.4411 52.4818 16.7566 52.7734 16.1634C53.0651 15.5668 53.4761 15.1011 54.0064 14.7663C54.5367 14.4316 55.1615 14.2642 55.8807 14.2642C56.4607 14.2642 56.9777 14.3719 57.4318 14.5874C57.8859 14.7995 58.2521 15.0978 58.5305 15.4822C58.8123 15.8667 58.9796 16.3158 59.0327 16.8295H57.5859C57.5064 16.4716 57.3241 16.1634 57.0391 15.9048C56.7573 15.6463 56.3795 15.517 55.9055 15.517C55.4912 15.517 55.1283 15.6264 54.8168 15.8452C54.5085 16.0606 54.2682 16.3688 54.0959 16.7699C53.9235 17.1676 53.8374 17.6383 53.8374 18.1818C53.8374 18.7386 53.9219 19.2192 54.0909 19.6236C54.2599 20.0279 54.4986 20.3411 54.8068 20.5632C55.1184 20.7853 55.4846 20.8963 55.9055 20.8963C56.1873 20.8963 56.4425 20.8449 56.6712 20.7422C56.9032 20.6361 57.0971 20.4853 57.2528 20.2898C57.4119 20.0942 57.523 19.8589 57.5859 19.5838H59.0327C58.9796 20.0777 58.8189 20.5185 58.5504 20.9062C58.282 21.294 57.9223 21.599 57.4716 21.821C57.0241 22.0431 56.4988 22.1541 55.8956 22.1541ZM63.839 22.1541C63.0998 22.1541 62.4635 21.9867 61.9299 21.652C61.3996 21.3139 60.9919 20.8482 60.7069 20.255C60.4218 19.6617 60.2793 18.9822 60.2793 18.2166C60.2793 17.4411 60.4251 16.7566 60.7168 16.1634C61.0085 15.5668 61.4194 15.1011 61.9498 14.7663C62.4801 14.4316 63.1048 14.2642 63.824 14.2642C64.4041 14.2642 64.9211 14.3719 65.3752 14.5874C65.8292 14.7995 66.1955 15.0978 66.4739 15.4822C66.7556 15.8667 66.923 16.3158 66.976 16.8295H65.5293C65.4498 16.4716 65.2675 16.1634 64.9824 15.9048C64.7007 15.6463 64.3229 15.517 63.8489 15.517C63.4346 15.517 63.0717 15.6264 62.7601 15.8452C62.4519 16.0606 62.2116 16.3688 62.0392 16.7699C61.8669 17.1676 61.7807 17.6383 61.7807 18.1818C61.7807 18.7386 61.8652 19.2192 62.0343 19.6236C62.2033 20.0279 62.4419 20.3411 62.7502 20.5632C63.0617 20.7853 63.428 20.8963 63.8489 20.8963C64.1306 20.8963 64.3858 20.8449 64.6145 20.7422C64.8465 20.6361 65.0404 20.4853 65.1962 20.2898C65.3553 20.0942 65.4663 19.8589 65.5293 19.5838H66.976C66.923 20.0777 66.7623 20.5185 66.4938 20.9062C66.2253 21.294 65.8657 21.599 65.415 21.821C64.9675 22.0431 64.4422 22.1541 63.839 22.1541ZM71.8569 22.1541C71.1045 22.1541 70.4566 21.9934 69.913 21.6719C69.3728 21.3471 68.9551 20.8913 68.6602 20.3047C68.3685 19.7147 68.2227 19.0237 68.2227 18.2315C68.2227 17.4493 68.3685 16.7599 68.6602 16.1634C68.9551 15.5668 69.3661 15.1011 69.8931 14.7663C70.4234 14.4316 71.0432 14.2642 71.7525 14.2642C72.1834 14.2642 72.601 14.3355 73.0053 14.478C73.4097 14.6205 73.7726 14.8442 74.0941 15.1491C74.4156 15.4541 74.6692 15.8501 74.8548 16.3374C75.0404 16.8213 75.1332 17.4096 75.1332 18.1023V18.6293H69.0629V17.5156H73.6765C73.6765 17.1245 73.5969 16.7782 73.4379 16.4766C73.2788 16.1716 73.055 15.9313 72.7667 15.7557C72.4817 15.58 72.1469 15.4922 71.7624 15.4922C71.3448 15.4922 70.9802 15.5949 70.6687 15.8004C70.3604 16.0026 70.1218 16.2678 69.9528 16.5959C69.7871 16.9207 69.7042 17.2737 69.7042 17.6548V18.5249C69.7042 19.0353 69.7937 19.4695 69.9727 19.8274C70.1549 20.1854 70.4085 20.4588 70.7333 20.6477C71.0581 20.8333 71.4376 20.9261 71.8718 20.9261C72.1535 20.9261 72.4104 20.8864 72.6424 20.8068C72.8744 20.724 73.0749 20.6013 73.244 20.4389C73.413 20.2765 73.5423 20.076 73.6317 19.8374L75.0387 20.0909C74.926 20.5052 74.7238 20.8681 74.4322 21.1797C74.1438 21.4879 73.7809 21.7282 73.3434 21.9006C72.9092 22.0696 72.4137 22.1541 71.8569 22.1541ZM78.269 17.4659V22H76.7825V14.3636H78.2093V15.6065H78.3038C78.4795 15.2022 78.7546 14.8774 79.1291 14.6321C79.5069 14.3868 79.9825 14.2642 80.5559 14.2642C81.0763 14.2642 81.532 14.3736 81.9231 14.5923C82.3142 14.8078 82.6175 15.1293 82.8329 15.5568C83.0484 15.9844 83.1561 16.513 83.1561 17.1428V22H81.6696V17.3217C81.6696 16.7682 81.5254 16.3357 81.237 16.0241C80.9487 15.7093 80.5526 15.5518 80.0488 15.5518C79.7041 15.5518 79.3975 15.6264 79.1291 15.7756C78.8639 15.9247 78.6535 16.1435 78.4977 16.4318C78.3452 16.7169 78.269 17.0616 78.269 17.4659ZM88.7143 14.3636V15.5568H84.5431V14.3636H88.7143ZM85.6618 12.5341H87.1483V19.7578C87.1483 20.0462 87.1913 20.2633 87.2775 20.4091C87.3637 20.5516 87.4747 20.6494 87.6106 20.7024C87.7498 20.7521 87.9006 20.777 88.063 20.777C88.1824 20.777 88.2868 20.7687 88.3762 20.7521C88.4657 20.7356 88.5353 20.7223 88.585 20.7124L88.8535 21.9403C88.7673 21.9735 88.6447 22.0066 88.4856 22.0398C88.3265 22.0762 88.1277 22.0961 87.889 22.0994C87.4979 22.1061 87.1333 22.0365 86.7953 21.8906C86.4572 21.7448 86.1838 21.5194 85.975 21.2145C85.7662 20.9096 85.6618 20.5268 85.6618 20.0661V12.5341ZM94.1831 22V11.8182H95.6696V15.6016H95.7591C95.8452 15.4425 95.9695 15.2585 96.1319 15.0497C96.2943 14.8409 96.5197 14.6586 96.8081 14.5028C97.0964 14.3438 97.4776 14.2642 97.9515 14.2642C98.568 14.2642 99.1182 14.42 99.6021 14.7315C100.086 15.0431 100.465 15.4922 100.741 16.0788C101.019 16.6655 101.158 17.3714 101.158 18.1967C101.158 19.022 101.021 19.7296 100.746 20.3196C100.47 20.9062 100.093 21.3587 99.612 21.6768C99.1315 21.9917 98.5829 22.1491 97.9664 22.1491C97.5024 22.1491 97.1229 22.0713 96.8279 21.9155C96.5363 21.7597 96.3076 21.5774 96.1419 21.3686C95.9761 21.1598 95.8485 20.9742 95.7591 20.8118H95.6348V22H94.1831ZM95.6397 18.1818C95.6397 18.7187 95.7176 19.1894 95.8734 19.5938C96.0292 19.9981 96.2546 20.3146 96.5495 20.5433C96.8445 20.7687 97.2058 20.8814 97.6333 20.8814C98.0775 20.8814 98.4487 20.7637 98.747 20.5284C99.0453 20.2898 99.2707 19.9666 99.4231 19.5589C99.5789 19.1513 99.6568 18.6922 99.6568 18.1818C99.6568 17.678 99.5806 17.2256 99.4281 16.8246C99.2789 16.4235 99.0536 16.107 98.752 15.875C98.4537 15.643 98.0808 15.527 97.6333 15.527C97.2025 15.527 96.8379 15.638 96.5396 15.8601C96.2446 16.0821 96.0209 16.392 95.8684 16.7898C95.716 17.1875 95.6397 17.6515 95.6397 18.1818ZM107.665 18.8331V14.3636H109.156V22H107.695V20.6776H107.615C107.439 21.0852 107.158 21.425 106.77 21.6967C106.385 21.9652 105.906 22.0994 105.333 22.0994C104.843 22.0994 104.408 21.9917 104.031 21.7763C103.656 21.5575 103.361 21.2344 103.146 20.8068C102.933 20.3793 102.827 19.8506 102.827 19.2209V14.3636H104.314V19.0419C104.314 19.5623 104.458 19.9766 104.746 20.2848C105.035 20.593 105.409 20.7472 105.87 20.7472C106.148 20.7472 106.425 20.6776 106.7 20.5384C106.979 20.3991 107.209 20.1887 107.391 19.907C107.577 19.6252 107.668 19.2673 107.665 18.8331ZM114.718 14.3636V15.5568H110.547V14.3636H114.718ZM111.666 12.5341H113.152V19.7578C113.152 20.0462 113.195 20.2633 113.281 20.4091C113.368 20.5516 113.479 20.6494 113.615 20.7024C113.754 20.7521 113.905 20.777 114.067 20.777C114.186 20.777 114.291 20.7687 114.38 20.7521C114.47 20.7356 114.539 20.7223 114.589 20.7124L114.857 21.9403C114.771 21.9735 114.649 22.0066 114.49 22.0398C114.33 22.0762 114.132 22.0961 113.893 22.0994C113.502 22.1061 113.137 22.0365 112.799 21.8906C112.461 21.7448 112.188 21.5194 111.979 21.2145C111.77 20.9096 111.666 20.5268 111.666 20.0661V12.5341ZM119.927 14.3636V15.5568H115.756V14.3636H119.927ZM116.875 12.5341H118.361V19.7578C118.361 20.0462 118.404 20.2633 118.49 20.4091C118.577 20.5516 118.688 20.6494 118.824 20.7024C118.963 20.7521 119.114 20.777 119.276 20.777C119.395 20.777 119.5 20.7687 119.589 20.7521C119.679 20.7356 119.748 20.7223 119.798 20.7124L120.066 21.9403C119.98 21.9735 119.858 22.0066 119.699 22.0398C119.539 22.0762 119.341 22.0961 119.102 22.0994C118.711 22.1061 118.346 22.0365 118.008 21.8906C117.67 21.7448 117.397 21.5194 117.188 21.2145C116.979 20.9096 116.875 20.5268 116.875 20.0661V12.5341ZM124.706 22.1541C123.99 22.1541 123.365 21.9901 122.832 21.6619C122.298 21.3338 121.884 20.8748 121.589 20.2848C121.294 19.6948 121.146 19.0054 121.146 18.2166C121.146 17.4245 121.294 16.7318 121.589 16.1385C121.884 15.5452 122.298 15.0845 122.832 14.7564C123.365 14.4283 123.99 14.2642 124.706 14.2642C125.422 14.2642 126.047 14.4283 126.58 14.7564C127.114 15.0845 127.528 15.5452 127.823 16.1385C128.118 16.7318 128.266 17.4245 128.266 18.2166C128.266 19.0054 128.118 19.6948 127.823 20.2848C127.528 20.8748 127.114 21.3338 126.58 21.6619C126.047 21.9901 125.422 22.1541 124.706 22.1541ZM124.711 20.9062C125.175 20.9062 125.56 20.7836 125.865 20.5384C126.169 20.2931 126.395 19.9666 126.541 19.5589C126.69 19.1513 126.764 18.7022 126.764 18.2116C126.764 17.7244 126.69 17.277 126.541 16.8693C126.395 16.4583 126.169 16.1286 125.865 15.88C125.56 15.6314 125.175 15.5071 124.711 15.5071C124.244 15.5071 123.856 15.6314 123.548 15.88C123.243 16.1286 123.016 16.4583 122.867 16.8693C122.721 17.277 122.648 17.7244 122.648 18.2116C122.648 18.7022 122.721 19.1513 122.867 19.5589C123.016 19.9666 123.243 20.2931 123.548 20.5384C123.856 20.7836 124.244 20.9062 124.711 20.9062ZM131.412 17.4659V22H129.925V14.3636H131.352V15.6065H131.446C131.622 15.2022 131.897 14.8774 132.272 14.6321C132.65 14.3868 133.125 14.2642 133.699 14.2642C134.219 14.2642 134.675 14.3736 135.066 14.5923C135.457 14.8078 135.76 15.1293 135.975 15.5568C136.191 15.9844 136.299 16.513 136.299 17.1428V22H134.812V17.3217C134.812 16.7682 134.668 16.3357 134.38 16.0241C134.091 15.7093 133.695 15.5518 133.191 15.5518C132.847 15.5518 132.54 15.6264 132.272 15.7756C132.007 15.9247 131.796 16.1435 131.64 16.4318C131.488 16.7169 131.412 17.0616 131.412 17.4659Z" fill="white"/>
<rect x="158" width="128" height="33" rx="6" fill="#293676"/>
<path d="M175.979 22H174.348L178.012 11.8182H179.787L183.451 22H181.82L178.942 13.6676H178.862L175.979 22ZM176.252 18.0128H181.542V19.3054H176.252V18.0128ZM187.896 22.1541C187.156 22.1541 186.52 21.9867 185.987 21.652C185.456 21.3139 185.049 20.8482 184.763 20.255C184.478 19.6617 184.336 18.9822 184.336 18.2166C184.336 17.4411 184.482 16.7566 184.773 16.1634C185.065 15.5668 185.476 15.1011 186.006 14.7663C186.537 14.4316 187.161 14.2642 187.881 14.2642C188.461 14.2642 188.978 14.3719 189.432 14.5874C189.886 14.7995 190.252 15.0978 190.531 15.4822C190.812 15.8667 190.98 16.3158 191.033 16.8295H189.586C189.506 16.4716 189.324 16.1634 189.039 15.9048C188.757 15.6463 188.379 15.517 187.906 15.517C187.491 15.517 187.128 15.6264 186.817 15.8452C186.509 16.0606 186.268 16.3688 186.096 16.7699C185.924 17.1676 185.837 17.6383 185.837 18.1818C185.837 18.7386 185.922 19.2192 186.091 19.6236C186.26 20.0279 186.499 20.3411 186.807 20.5632C187.118 20.7853 187.485 20.8963 187.906 20.8963C188.187 20.8963 188.442 20.8449 188.671 20.7422C188.903 20.6361 189.097 20.4853 189.253 20.2898C189.412 20.0942 189.523 19.8589 189.586 19.5838H191.033C190.98 20.0777 190.819 20.5185 190.55 20.9062C190.282 21.294 189.922 21.599 189.472 21.821C189.024 22.0431 188.499 22.1541 187.896 22.1541ZM195.839 22.1541C195.1 22.1541 194.463 21.9867 193.93 21.652C193.4 21.3139 192.992 20.8482 192.707 20.255C192.422 19.6617 192.279 18.9822 192.279 18.2166C192.279 17.4411 192.425 16.7566 192.717 16.1634C193.008 15.5668 193.419 15.1011 193.95 14.7663C194.48 14.4316 195.105 14.2642 195.824 14.2642C196.404 14.2642 196.921 14.3719 197.375 14.5874C197.829 14.7995 198.195 15.0978 198.474 15.4822C198.756 15.8667 198.923 16.3158 198.976 16.8295H197.529C197.45 16.4716 197.267 16.1634 196.982 15.9048C196.701 15.6463 196.323 15.517 195.849 15.517C195.435 15.517 195.072 15.6264 194.76 15.8452C194.452 16.0606 194.212 16.3688 194.039 16.7699C193.867 17.1676 193.781 17.6383 193.781 18.1818C193.781 18.7386 193.865 19.2192 194.034 19.6236C194.203 20.0279 194.442 20.3411 194.75 20.5632C195.062 20.7853 195.428 20.8963 195.849 20.8963C196.131 20.8963 196.386 20.8449 196.615 20.7422C196.847 20.6361 197.04 20.4853 197.196 20.2898C197.355 20.0942 197.466 19.8589 197.529 19.5838H198.976C198.923 20.0777 198.762 20.5185 198.494 20.9062C198.225 21.294 197.866 21.599 197.415 21.821C196.968 22.0431 196.442 22.1541 195.839 22.1541ZM203.857 22.1541C203.105 22.1541 202.457 21.9934 201.913 21.6719C201.373 21.3471 200.955 20.8913 200.66 20.3047C200.368 19.7147 200.223 19.0237 200.223 18.2315C200.223 17.4493 200.368 16.7599 200.66 16.1634C200.955 15.5668 201.366 15.1011 201.893 14.7663C202.423 14.4316 203.043 14.2642 203.752 14.2642C204.183 14.2642 204.601 14.3355 205.005 14.478C205.41 14.6205 205.773 14.8442 206.094 15.1491C206.416 15.4541 206.669 15.8501 206.855 16.3374C207.04 16.8213 207.133 17.4096 207.133 18.1023V18.6293H201.063V17.5156H205.676C205.676 17.1245 205.597 16.7782 205.438 16.4766C205.279 16.1716 205.055 15.9313 204.767 15.7557C204.482 15.58 204.147 15.4922 203.762 15.4922C203.345 15.4922 202.98 15.5949 202.669 15.8004C202.36 16.0026 202.122 16.2678 201.953 16.5959C201.787 16.9207 201.704 17.2737 201.704 17.6548V18.5249C201.704 19.0353 201.794 19.4695 201.973 19.8274C202.155 20.1854 202.408 20.4588 202.733 20.6477C203.058 20.8333 203.438 20.9261 203.872 20.9261C204.154 20.9261 204.41 20.8864 204.642 20.8068C204.874 20.724 205.075 20.6013 205.244 20.4389C205.413 20.2765 205.542 20.076 205.632 19.8374L207.039 20.0909C206.926 20.5052 206.724 20.8681 206.432 21.1797C206.144 21.4879 205.781 21.7282 205.343 21.9006C204.909 22.0696 204.414 22.1541 203.857 22.1541ZM210.269 17.4659V22H208.782V14.3636H210.209V15.6065H210.304C210.479 15.2022 210.755 14.8774 211.129 14.6321C211.507 14.3868 211.983 14.2642 212.556 14.2642C213.076 14.2642 213.532 14.3736 213.923 14.5923C214.314 14.8078 214.617 15.1293 214.833 15.5568C215.048 15.9844 215.156 16.513 215.156 17.1428V22H213.67V17.3217C213.67 16.7682 213.525 16.3357 213.237 16.0241C212.949 15.7093 212.553 15.5518 212.049 15.5518C211.704 15.5518 211.398 15.6264 211.129 15.7756C210.864 15.9247 210.653 16.1435 210.498 16.4318C210.345 16.7169 210.269 17.0616 210.269 17.4659ZM220.714 14.3636V15.5568H216.543V14.3636H220.714ZM217.662 12.5341H219.148V19.7578C219.148 20.0462 219.191 20.2633 219.278 20.4091C219.364 20.5516 219.475 20.6494 219.611 20.7024C219.75 20.7521 219.901 20.777 220.063 20.777C220.182 20.777 220.287 20.7687 220.376 20.7521C220.466 20.7356 220.535 20.7223 220.585 20.7124L220.854 21.9403C220.767 21.9735 220.645 22.0066 220.486 22.0398C220.327 22.0762 220.128 22.0961 219.889 22.0994C219.498 22.1061 219.133 22.0365 218.795 21.8906C218.457 21.7448 218.184 21.5194 217.975 21.2145C217.766 20.9096 217.662 20.5268 217.662 20.0661V12.5341ZM226.183 22V11.8182H227.67V15.6016H227.759C227.845 15.4425 227.97 15.2585 228.132 15.0497C228.294 14.8409 228.52 14.6586 228.808 14.5028C229.096 14.3438 229.478 14.2642 229.952 14.2642C230.568 14.2642 231.118 14.42 231.602 14.7315C232.086 15.0431 232.465 15.4922 232.741 16.0788C233.019 16.6655 233.158 17.3714 233.158 18.1967C233.158 19.022 233.021 19.7296 232.746 20.3196C232.47 20.9062 232.093 21.3587 231.612 21.6768C231.131 21.9917 230.583 22.1491 229.966 22.1491C229.502 22.1491 229.123 22.0713 228.828 21.9155C228.536 21.7597 228.308 21.5774 228.142 21.3686C227.976 21.1598 227.849 20.9742 227.759 20.8118H227.635V22H226.183ZM227.64 18.1818C227.64 18.7187 227.718 19.1894 227.873 19.5938C228.029 19.9981 228.255 20.3146 228.55 20.5433C228.845 20.7687 229.206 20.8814 229.633 20.8814C230.077 20.8814 230.449 20.7637 230.747 20.5284C231.045 20.2898 231.271 19.9666 231.423 19.5589C231.579 19.1513 231.657 18.6922 231.657 18.1818C231.657 17.678 231.581 17.2256 231.428 16.8246C231.279 16.4235 231.054 16.107 230.752 15.875C230.454 15.643 230.081 15.527 229.633 15.527C229.202 15.527 228.838 15.638 228.54 15.8601C228.245 16.0821 228.021 16.392 227.868 16.7898C227.716 17.1875 227.64 17.6515 227.64 18.1818ZM239.665 18.8331V14.3636H241.156V22H239.695V20.6776H239.615C239.439 21.0852 239.158 21.425 238.77 21.6967C238.385 21.9652 237.906 22.0994 237.333 22.0994C236.843 22.0994 236.408 21.9917 236.031 21.7763C235.656 21.5575 235.361 21.2344 235.146 20.8068C234.933 20.3793 234.827 19.8506 234.827 19.2209V14.3636H236.314V19.0419C236.314 19.5623 236.458 19.9766 236.746 20.2848C237.035 20.593 237.409 20.7472 237.87 20.7472C238.148 20.7472 238.425 20.6776 238.7 20.5384C238.979 20.3991 239.209 20.1887 239.391 19.907C239.577 19.6252 239.668 19.2673 239.665 18.8331ZM246.718 14.3636V15.5568H242.547V14.3636H246.718ZM243.666 12.5341H245.152V19.7578C245.152 20.0462 245.195 20.2633 245.281 20.4091C245.368 20.5516 245.479 20.6494 245.615 20.7024C245.754 20.7521 245.905 20.777 246.067 20.777C246.186 20.777 246.291 20.7687 246.38 20.7521C246.47 20.7356 246.539 20.7223 246.589 20.7124L246.857 21.9403C246.771 21.9735 246.649 22.0066 246.49 22.0398C246.33 22.0762 246.132 22.0961 245.893 22.0994C245.502 22.1061 245.137 22.0365 244.799 21.8906C244.461 21.7448 244.188 21.5194 243.979 21.2145C243.77 20.9096 243.666 20.5268 243.666 20.0661V12.5341ZM251.927 14.3636V15.5568H247.756V14.3636H251.927ZM248.875 12.5341H250.361V19.7578C250.361 20.0462 250.404 20.2633 250.49 20.4091C250.577 20.5516 250.688 20.6494 250.824 20.7024C250.963 20.7521 251.114 20.777 251.276 20.777C251.395 20.777 251.5 20.7687 251.589 20.7521C251.679 20.7356 251.748 20.7223 251.798 20.7124L252.066 21.9403C251.98 21.9735 251.858 22.0066 251.699 22.0398C251.539 22.0762 251.341 22.0961 251.102 22.0994C250.711 22.1061 250.346 22.0365 250.008 21.8906C249.67 21.7448 249.397 21.5194 249.188 21.2145C248.979 20.9096 248.875 20.5268 248.875 20.0661V12.5341ZM256.706 22.1541C255.99 22.1541 255.365 21.9901 254.832 21.6619C254.298 21.3338 253.884 20.8748 253.589 20.2848C253.294 19.6948 253.146 19.0054 253.146 18.2166C253.146 17.4245 253.294 16.7318 253.589 16.1385C253.884 15.5452 254.298 15.0845 254.832 14.7564C255.365 14.4283 255.99 14.2642 256.706 14.2642C257.422 14.2642 258.047 14.4283 258.58 14.7564C259.114 15.0845 259.528 15.5452 259.823 16.1385C260.118 16.7318 260.266 17.4245 260.266 18.2166C260.266 19.0054 260.118 19.6948 259.823 20.2848C259.528 20.8748 259.114 21.3338 258.58 21.6619C258.047 21.9901 257.422 22.1541 256.706 22.1541ZM256.711 20.9062C257.175 20.9062 257.56 20.7836 257.865 20.5384C258.169 20.2931 258.395 19.9666 258.541 19.5589C258.69 19.1513 258.764 18.7022 258.764 18.2116C258.764 17.7244 258.69 17.277 258.541 16.8693C258.395 16.4583 258.169 16.1286 257.865 15.88C257.56 15.6314 257.175 15.5071 256.711 15.5071C256.244 15.5071 255.856 15.6314 255.548 15.88C255.243 16.1286 255.016 16.4583 254.867 16.8693C254.721 17.277 254.648 17.7244 254.648 18.2116C254.648 18.7022 254.721 19.1513 254.867 19.5589C255.016 19.9666 255.243 20.2931 255.548 20.5384C255.856 20.7836 256.244 20.9062 256.711 20.9062ZM263.412 17.4659V22H261.925V14.3636H263.352V15.6065H263.446C263.622 15.2022 263.897 14.8774 264.272 14.6321C264.65 14.3868 265.125 14.2642 265.699 14.2642C266.219 14.2642 266.675 14.3736 267.066 14.5923C267.457 14.8078 267.76 15.1293 267.975 15.5568C268.191 15.9844 268.299 16.513 268.299 17.1428V22H266.812V17.3217C266.812 16.7682 266.668 16.3357 266.38 16.0241C266.091 15.7093 265.695 15.5518 265.191 15.5518C264.847 15.5518 264.54 15.6264 264.272 15.7756C264.007 15.9247 263.796 16.1435 263.64 16.4318C263.488 16.7169 263.412 17.0616 263.412 17.4659Z" fill="white"/>
<rect x="290" width="48" height="33" rx="6" fill="#293676"/>
<path d="M309.333 11.8332C309.333 11.5986 309.395 11.3682 309.513 11.1651C309.63 10.962 309.799 10.7936 310.003 10.6767C310.206 10.5598 310.437 10.4987 310.671 10.4995C310.906 10.5003 311.136 10.563 311.339 10.6812L319.337 15.3466C319.539 15.4637 319.706 15.6317 319.823 15.8339C319.939 16.0361 320.001 16.2653 320.001 16.4987C320.001 16.732 319.94 16.9614 319.824 17.1637C319.708 17.3661 319.54 17.5344 319.339 17.6519L311.339 22.3186C311.136 22.4368 310.906 22.4995 310.671 22.5003C310.437 22.5011 310.206 22.44 310.003 22.3231C309.799 22.2062 309.63 22.0378 309.513 21.8347C309.395 21.6317 309.333 21.4012 309.333 21.1666V11.8332Z" stroke="white" stroke-width="1.33333" stroke-linecap="round" stroke-linejoin="round"/>
</svg>
