<svg width="448" height="32" viewBox="0 0 448 32" fill="none" xmlns="http://www.w3.org/2000/svg">
<rect width="138" height="32" rx="6" fill="#293676"/>
<path d="M18.9167 11.9165C18.9167 11.7112 18.9708 11.5096 19.0736 11.3319C19.1764 11.1542 19.3243 11.0068 19.5023 10.9046C19.6803 10.8023 19.8821 10.7488 20.0874 10.7495C20.2927 10.7502 20.4941 10.8051 20.6714 10.9085L27.6697 14.9907C27.8463 15.0932 27.9929 15.2402 28.0949 15.4171C28.1969 15.594 28.2506 15.7946 28.2508 15.9988C28.251 16.203 28.1976 16.4036 28.0959 16.5807C27.9942 16.7578 27.8478 16.9051 27.6714 17.0079L20.6714 21.0912C20.4941 21.1947 20.2927 21.2495 20.0874 21.2502C19.8821 21.2509 19.6803 21.1974 19.5023 21.0952C19.3243 20.9929 19.1764 20.8455 19.0736 20.6678C18.9708 20.4901 18.9167 20.2885 18.9167 20.0832V11.9165Z" stroke="white" stroke-width="1.16667" stroke-linecap="round" stroke-linejoin="round"/>
<path d="M41.696 20.5H40.2983L43.4389 11.7727H44.9602L48.1009 20.5H46.7031L44.2358 13.358H44.1676L41.696 20.5ZM41.9304 17.0824H46.4645V18.1903H41.9304V17.0824ZM51.9105 20.6321C51.277 20.6321 50.7315 20.4886 50.2741 20.2017C49.8196 19.9119 49.4702 19.5128 49.2259 19.0043C48.9815 18.4957 48.8594 17.9134 48.8594 17.2571C48.8594 16.5923 48.9844 16.0057 49.2344 15.4972C49.4844 14.9858 49.8366 14.5866 50.2912 14.2997C50.7457 14.0128 51.2813 13.8693 51.8977 13.8693C52.3949 13.8693 52.8381 13.9616 53.2273 14.1463C53.6165 14.3281 53.9304 14.5838 54.169 14.9134C54.4105 15.2429 54.554 15.6278 54.5994 16.0682H53.3594C53.2912 15.7614 53.1349 15.4972 52.8906 15.2756C52.6491 15.054 52.3253 14.9432 51.919 14.9432C51.5639 14.9432 51.2528 15.0369 50.9858 15.2244C50.7216 15.4091 50.5156 15.6733 50.3679 16.017C50.2202 16.358 50.1463 16.7614 50.1463 17.2273C50.1463 17.7045 50.2188 18.1165 50.3636 18.4631C50.5085 18.8097 50.7131 19.0781 50.9773 19.2685C51.2443 19.4588 51.5582 19.554 51.919 19.554C52.1605 19.554 52.3793 19.5099 52.5753 19.4219C52.7741 19.331 52.9403 19.2017 53.0739 19.0341C53.2102 18.8665 53.3054 18.6648 53.3594 18.429H54.5994C54.554 18.8523 54.4162 19.2301 54.1861 19.5625C53.956 19.8949 53.6477 20.1562 53.2614 20.3466C52.8778 20.5369 52.4276 20.6321 51.9105 20.6321ZM58.7191 20.6321C58.0856 20.6321 57.5401 20.4886 57.0827 20.2017C56.6282 19.9119 56.2788 19.5128 56.0344 19.0043C55.7901 18.4957 55.668 17.9134 55.668 17.2571C55.668 16.5923 55.793 16.0057 56.043 15.4972C56.293 14.9858 56.6452 14.5866 57.0998 14.2997C57.5543 14.0128 58.0898 13.8693 58.7063 13.8693C59.2035 13.8693 59.6467 13.9616 60.0359 14.1463C60.4251 14.3281 60.739 14.5838 60.9776 14.9134C61.2191 15.2429 61.3626 15.6278 61.408 16.0682H60.168C60.0998 15.7614 59.9435 15.4972 59.6992 15.2756C59.4577 15.054 59.1339 14.9432 58.7276 14.9432C58.3725 14.9432 58.0614 15.0369 57.7944 15.2244C57.5302 15.4091 57.3242 15.6733 57.1765 16.017C57.0288 16.358 56.9549 16.7614 56.9549 17.2273C56.9549 17.7045 57.0273 18.1165 57.1722 18.4631C57.3171 18.8097 57.5217 19.0781 57.7859 19.2685C58.0529 19.4588 58.3668 19.554 58.7276 19.554C58.9691 19.554 59.1879 19.5099 59.3839 19.4219C59.5827 19.331 59.7489 19.2017 59.8825 19.0341C60.0188 18.8665 60.114 18.6648 60.168 18.429H61.408C61.3626 18.8523 61.2248 19.2301 60.9947 19.5625C60.7646 19.8949 60.4563 20.1562 60.07 20.3466C59.6864 20.5369 59.2362 20.6321 58.7191 20.6321ZM65.5916 20.6321C64.9467 20.6321 64.3913 20.4943 63.9254 20.2188C63.4624 19.9403 63.1044 19.5497 62.8516 19.0469C62.6016 18.5412 62.4766 17.9489 62.4766 17.2699C62.4766 16.5994 62.6016 16.0085 62.8516 15.4972C63.1044 14.9858 63.4567 14.5866 63.9084 14.2997C64.3629 14.0128 64.8942 13.8693 65.5021 13.8693C65.8714 13.8693 66.2294 13.9304 66.576 14.0526C66.9226 14.1747 67.2337 14.3665 67.5092 14.6278C67.7848 14.8892 68.0021 15.2287 68.1612 15.6463C68.3203 16.0611 68.3999 16.5653 68.3999 17.1591V17.6108H63.1967V16.6562H67.1513C67.1513 16.321 67.0831 16.0241 66.9467 15.7656C66.8104 15.5043 66.6186 15.2983 66.3714 15.1477C66.1271 14.9972 65.8402 14.9219 65.5107 14.9219C65.1527 14.9219 64.8402 15.0099 64.5732 15.1861C64.3089 15.3594 64.1044 15.5866 63.9595 15.8679C63.8175 16.1463 63.7464 16.4489 63.7464 16.7756V17.5213C63.7464 17.9588 63.8232 18.331 63.9766 18.6378C64.1328 18.9446 64.3501 19.179 64.6286 19.3409C64.907 19.5 65.2322 19.5795 65.6044 19.5795C65.8459 19.5795 66.0661 19.5455 66.2649 19.4773C66.4638 19.4062 66.6357 19.3011 66.7805 19.1619C66.9254 19.0227 67.0362 18.8509 67.1129 18.6463L68.3189 18.8636C68.2223 19.2187 68.049 19.5298 67.799 19.7969C67.5518 20.0611 67.2408 20.267 66.8658 20.4148C66.4936 20.5597 66.0689 20.6321 65.5916 20.6321ZM71.0877 16.6136V20.5H69.8136V13.9545H71.0366V15.0199H71.1175C71.2681 14.6733 71.5039 14.3949 71.8249 14.1847C72.1488 13.9744 72.5565 13.8693 73.0479 13.8693C73.494 13.8693 73.8846 13.9631 74.2198 14.1506C74.555 14.3352 74.815 14.6108 74.9996 14.9773C75.1843 15.3437 75.2766 15.7969 75.2766 16.3366V20.5H74.0025V16.4901C74.0025 16.0156 73.8789 15.6449 73.6317 15.3778C73.3846 15.108 73.0451 14.973 72.6133 14.973C72.3178 14.973 72.055 15.0369 71.8249 15.1648C71.5977 15.2926 71.4173 15.4801 71.2837 15.7273C71.1531 15.9716 71.0877 16.267 71.0877 16.6136ZM80.0408 13.9545V14.9773H76.4656V13.9545H80.0408ZM77.4244 12.3864H78.6985V18.5781C78.6985 18.8253 78.7354 19.0114 78.8093 19.1364C78.8832 19.2585 78.9783 19.3423 79.0948 19.3878C79.2141 19.4304 79.3434 19.4517 79.4826 19.4517C79.5849 19.4517 79.6744 19.4446 79.7511 19.4304C79.8278 19.4162 79.8874 19.4048 79.93 19.3963L80.1602 20.4489C80.0863 20.4773 79.9812 20.5057 79.8448 20.5341C79.7085 20.5653 79.538 20.5824 79.3335 20.5852C78.9982 20.5909 78.6857 20.5312 78.396 20.4062C78.1062 20.2812 77.8718 20.0881 77.6928 19.8267C77.5138 19.5653 77.4244 19.2372 77.4244 18.8423V12.3864ZM84.7283 20.5V11.7727H86.0025V15.0156H86.0792C86.1531 14.8793 86.2596 14.7216 86.3988 14.5426C86.538 14.3636 86.7312 14.2074 86.9783 14.0739C87.2255 13.9375 87.5522 13.8693 87.9585 13.8693C88.4869 13.8693 88.9585 14.0028 89.3732 14.2699C89.788 14.5369 90.1133 14.9219 90.3491 15.4247C90.5877 15.9276 90.707 16.5327 90.707 17.2401C90.707 17.9474 90.5891 18.554 90.3533 19.0597C90.1175 19.5625 89.7937 19.9503 89.3817 20.223C88.9698 20.4929 88.4996 20.6278 87.9712 20.6278C87.5735 20.6278 87.2482 20.5611 86.9954 20.4276C86.7454 20.294 86.5494 20.1378 86.4073 19.9588C86.2653 19.7798 86.1559 19.6207 86.0792 19.4815H85.9727V20.5H84.7283ZM85.9769 17.2273C85.9769 17.6875 86.0437 18.0909 86.1772 18.4375C86.3107 18.7841 86.5039 19.0554 86.7567 19.2514C87.0096 19.4446 87.3192 19.5412 87.6857 19.5412C88.0664 19.5412 88.3846 19.4403 88.6403 19.2386C88.896 19.0341 89.0891 18.7571 89.2198 18.4077C89.3533 18.0582 89.4201 17.6648 89.4201 17.2273C89.4201 16.7955 89.3548 16.4077 89.2241 16.0639C89.0962 15.7202 88.9031 15.4489 88.6445 15.25C88.3888 15.0511 88.0692 14.9517 87.6857 14.9517C87.3164 14.9517 87.0039 15.0469 86.7482 15.2372C86.4954 15.4276 86.3036 15.6932 86.1729 16.0341C86.0423 16.375 85.9769 16.7727 85.9769 17.2273ZM96.2841 17.7855V13.9545H97.5625V20.5H96.3097V19.3665H96.2415C96.0909 19.7159 95.8494 20.0071 95.517 20.2401C95.1875 20.4702 94.777 20.5852 94.2855 20.5852C93.8651 20.5852 93.4929 20.4929 93.169 20.3082C92.848 20.1207 92.5952 19.8438 92.4105 19.4773C92.2287 19.1108 92.1378 18.6577 92.1378 18.1179V13.9545H93.4119V17.9645C93.4119 18.4105 93.5355 18.7656 93.7827 19.0298C94.0298 19.294 94.3509 19.4261 94.7457 19.4261C94.9844 19.4261 95.2216 19.3665 95.4574 19.2472C95.696 19.1278 95.8935 18.9474 96.0497 18.706C96.2088 18.4645 96.2869 18.1577 96.2841 17.7855ZM102.33 13.9545V14.9773H98.7546V13.9545H102.33ZM99.7134 12.3864H100.988V18.5781C100.988 18.8253 101.025 19.0114 101.098 19.1364C101.172 19.2585 101.267 19.3423 101.384 19.3878C101.503 19.4304 101.632 19.4517 101.772 19.4517C101.874 19.4517 101.963 19.4446 102.04 19.4304C102.117 19.4162 102.176 19.4048 102.219 19.3963L102.449 20.4489C102.375 20.4773 102.27 20.5057 102.134 20.5341C101.998 20.5653 101.827 20.5824 101.623 20.5852C101.287 20.5909 100.975 20.5312 100.685 20.4062C100.395 20.2812 100.161 20.0881 99.9819 19.8267C99.8029 19.5653 99.7134 19.2372 99.7134 18.8423V12.3864ZM106.795 13.9545V14.9773H103.219V13.9545H106.795ZM104.178 12.3864H105.452V18.5781C105.452 18.8253 105.489 19.0114 105.563 19.1364C105.637 19.2585 105.732 19.3423 105.849 19.3878C105.968 19.4304 106.097 19.4517 106.237 19.4517C106.339 19.4517 106.428 19.4446 106.505 19.4304C106.582 19.4162 106.641 19.4048 106.684 19.3963L106.914 20.4489C106.84 20.4773 106.735 20.5057 106.599 20.5341C106.462 20.5653 106.292 20.5824 106.087 20.5852C105.752 20.5909 105.44 20.5312 105.15 20.4062C104.86 20.2812 104.626 20.0881 104.447 19.8267C104.268 19.5653 104.178 19.2372 104.178 18.8423V12.3864ZM110.891 20.6321C110.277 20.6321 109.742 20.4915 109.284 20.2102C108.827 19.929 108.472 19.5355 108.219 19.0298C107.966 18.5241 107.84 17.9332 107.84 17.2571C107.84 16.5781 107.966 15.9844 108.219 15.4759C108.472 14.9673 108.827 14.5724 109.284 14.2912C109.742 14.0099 110.277 13.8693 110.891 13.8693C111.505 13.8693 112.04 14.0099 112.498 14.2912C112.955 14.5724 113.31 14.9673 113.563 15.4759C113.816 15.9844 113.942 16.5781 113.942 17.2571C113.942 17.9332 113.816 18.5241 113.563 19.0298C113.31 19.5355 112.955 19.929 112.498 20.2102C112.04 20.4915 111.505 20.6321 110.891 20.6321ZM110.895 19.5625C111.293 19.5625 111.623 19.4574 111.884 19.2472C112.145 19.0369 112.338 18.7571 112.463 18.4077C112.591 18.0582 112.655 17.6733 112.655 17.2528C112.655 16.8352 112.591 16.4517 112.463 16.1023C112.338 15.75 112.145 15.4673 111.884 15.2543C111.623 15.0412 111.293 14.9347 110.895 14.9347C110.495 14.9347 110.162 15.0412 109.898 15.2543C109.637 15.4673 109.442 15.75 109.314 16.1023C109.189 16.4517 109.127 16.8352 109.127 17.2528C109.127 17.6733 109.189 18.0582 109.314 18.4077C109.442 18.7571 109.637 19.0369 109.898 19.2472C110.162 19.4574 110.495 19.5625 110.895 19.5625ZM116.638 16.6136V20.5H115.364V13.9545H116.587V15.0199H116.668C116.819 14.6733 117.055 14.3949 117.376 14.1847C117.7 13.9744 118.107 13.8693 118.599 13.8693C119.045 13.8693 119.435 13.9631 119.771 14.1506C120.106 14.3352 120.366 14.6108 120.55 14.9773C120.735 15.3437 120.827 15.7969 120.827 16.3366V20.5H119.553V16.4901C119.553 16.0156 119.43 15.6449 119.183 15.3778C118.935 15.108 118.596 14.973 118.164 14.973C117.869 14.973 117.606 15.0369 117.376 15.1648C117.148 15.2926 116.968 15.4801 116.835 15.7273C116.704 15.9716 116.638 16.267 116.638 16.6136Z" fill="white"/>
<rect x="142" width="114" height="32" rx="6" fill="#293676"/>
<path d="M159.696 20.5H158.298L161.439 11.7727H162.96L166.101 20.5H164.703L162.236 13.358H162.168L159.696 20.5ZM159.93 17.0824H164.464V18.1903H159.93V17.0824ZM169.911 20.6321C169.277 20.6321 168.732 20.4886 168.274 20.2017C167.82 19.9119 167.47 19.5128 167.226 19.0043C166.982 18.4957 166.859 17.9134 166.859 17.2571C166.859 16.5923 166.984 16.0057 167.234 15.4972C167.484 14.9858 167.837 14.5866 168.291 14.2997C168.746 14.0128 169.281 13.8693 169.898 13.8693C170.395 13.8693 170.838 13.9616 171.227 14.1463C171.616 14.3281 171.93 14.5838 172.169 14.9134C172.411 15.2429 172.554 15.6278 172.599 16.0682H171.359C171.291 15.7614 171.135 15.4972 170.891 15.2756C170.649 15.054 170.325 14.9432 169.919 14.9432C169.564 14.9432 169.253 15.0369 168.986 15.2244C168.722 15.4091 168.516 15.6733 168.368 16.017C168.22 16.358 168.146 16.7614 168.146 17.2273C168.146 17.7045 168.219 18.1165 168.364 18.4631C168.509 18.8097 168.713 19.0781 168.977 19.2685C169.244 19.4588 169.558 19.554 169.919 19.554C170.161 19.554 170.379 19.5099 170.575 19.4219C170.774 19.331 170.94 19.2017 171.074 19.0341C171.21 18.8665 171.305 18.6648 171.359 18.429H172.599C172.554 18.8523 172.416 19.2301 172.186 19.5625C171.956 19.8949 171.648 20.1562 171.261 20.3466C170.878 20.5369 170.428 20.6321 169.911 20.6321ZM176.719 20.6321C176.086 20.6321 175.54 20.4886 175.083 20.2017C174.628 19.9119 174.279 19.5128 174.034 19.0043C173.79 18.4957 173.668 17.9134 173.668 17.2571C173.668 16.5923 173.793 16.0057 174.043 15.4972C174.293 14.9858 174.645 14.5866 175.1 14.2997C175.554 14.0128 176.09 13.8693 176.706 13.8693C177.203 13.8693 177.647 13.9616 178.036 14.1463C178.425 14.3281 178.739 14.5838 178.978 14.9134C179.219 15.2429 179.363 15.6278 179.408 16.0682H178.168C178.1 15.7614 177.944 15.4972 177.699 15.2756C177.458 15.054 177.134 14.9432 176.728 14.9432C176.373 14.9432 176.061 15.0369 175.794 15.2244C175.53 15.4091 175.324 15.6733 175.176 16.017C175.029 16.358 174.955 16.7614 174.955 17.2273C174.955 17.7045 175.027 18.1165 175.172 18.4631C175.317 18.8097 175.522 19.0781 175.786 19.2685C176.053 19.4588 176.367 19.554 176.728 19.554C176.969 19.554 177.188 19.5099 177.384 19.4219C177.583 19.331 177.749 19.2017 177.882 19.0341C178.019 18.8665 178.114 18.6648 178.168 18.429H179.408C179.363 18.8523 179.225 19.2301 178.995 19.5625C178.765 19.8949 178.456 20.1562 178.07 20.3466C177.686 20.5369 177.236 20.6321 176.719 20.6321ZM183.592 20.6321C182.947 20.6321 182.391 20.4943 181.925 20.2188C181.462 19.9403 181.104 19.5497 180.852 19.0469C180.602 18.5412 180.477 17.9489 180.477 17.2699C180.477 16.5994 180.602 16.0085 180.852 15.4972C181.104 14.9858 181.457 14.5866 181.908 14.2997C182.363 14.0128 182.894 13.8693 183.502 13.8693C183.871 13.8693 184.229 13.9304 184.576 14.0526C184.923 14.1747 185.234 14.3665 185.509 14.6278C185.785 14.8892 186.002 15.2287 186.161 15.6463C186.32 16.0611 186.4 16.5653 186.4 17.1591V17.6108H181.197V16.6562H185.151C185.151 16.321 185.083 16.0241 184.947 15.7656C184.81 15.5043 184.619 15.2983 184.371 15.1477C184.127 14.9972 183.84 14.9219 183.511 14.9219C183.153 14.9219 182.84 15.0099 182.573 15.1861C182.309 15.3594 182.104 15.5866 181.96 15.8679C181.817 16.1463 181.746 16.4489 181.746 16.7756V17.5213C181.746 17.9588 181.823 18.331 181.977 18.6378C182.133 18.9446 182.35 19.179 182.629 19.3409C182.907 19.5 183.232 19.5795 183.604 19.5795C183.846 19.5795 184.066 19.5455 184.265 19.4773C184.464 19.4062 184.636 19.3011 184.781 19.1619C184.925 19.0227 185.036 18.8509 185.113 18.6463L186.319 18.8636C186.222 19.2187 186.049 19.5298 185.799 19.7969C185.552 20.0611 185.241 20.267 184.866 20.4148C184.494 20.5597 184.069 20.6321 183.592 20.6321ZM189.088 16.6136V20.5H187.814V13.9545H189.037V15.0199H189.118C189.268 14.6733 189.504 14.3949 189.825 14.1847C190.149 13.9744 190.556 13.8693 191.048 13.8693C191.494 13.8693 191.885 13.9631 192.22 14.1506C192.555 14.3352 192.815 14.6108 193 14.9773C193.184 15.3437 193.277 15.7969 193.277 16.3366V20.5H192.002V16.4901C192.002 16.0156 191.879 15.6449 191.632 15.3778C191.385 15.108 191.045 14.973 190.613 14.973C190.318 14.973 190.055 15.0369 189.825 15.1648C189.598 15.2926 189.417 15.4801 189.284 15.7273C189.153 15.9716 189.088 16.267 189.088 16.6136ZM198.041 13.9545V14.9773H194.466V13.9545H198.041ZM195.424 12.3864H196.699V18.5781C196.699 18.8253 196.735 19.0114 196.809 19.1364C196.883 19.2585 196.978 19.3423 197.095 19.3878C197.214 19.4304 197.343 19.4517 197.483 19.4517C197.585 19.4517 197.674 19.4446 197.751 19.4304C197.828 19.4162 197.887 19.4048 197.93 19.3963L198.16 20.4489C198.086 20.4773 197.981 20.5057 197.845 20.5341C197.708 20.5653 197.538 20.5824 197.333 20.5852C196.998 20.5909 196.686 20.5312 196.396 20.4062C196.106 20.2812 195.872 20.0881 195.693 19.8267C195.514 19.5653 195.424 19.2372 195.424 18.8423V12.3864ZM202.728 20.5V11.7727H204.002V15.0156H204.079C204.153 14.8793 204.26 14.7216 204.399 14.5426C204.538 14.3636 204.731 14.2074 204.978 14.0739C205.225 13.9375 205.552 13.8693 205.958 13.8693C206.487 13.8693 206.958 14.0028 207.373 14.2699C207.788 14.5369 208.113 14.9219 208.349 15.4247C208.588 15.9276 208.707 16.5327 208.707 17.2401C208.707 17.9474 208.589 18.554 208.353 19.0597C208.118 19.5625 207.794 19.9503 207.382 20.223C206.97 20.4929 206.5 20.6278 205.971 20.6278C205.574 20.6278 205.248 20.5611 204.995 20.4276C204.745 20.294 204.549 20.1378 204.407 19.9588C204.265 19.7798 204.156 19.6207 204.079 19.4815H203.973V20.5H202.728ZM203.977 17.2273C203.977 17.6875 204.044 18.0909 204.177 18.4375C204.311 18.7841 204.504 19.0554 204.757 19.2514C205.01 19.4446 205.319 19.5412 205.686 19.5412C206.066 19.5412 206.385 19.4403 206.64 19.2386C206.896 19.0341 207.089 18.7571 207.22 18.4077C207.353 18.0582 207.42 17.6648 207.42 17.2273C207.42 16.7955 207.355 16.4077 207.224 16.0639C207.096 15.7202 206.903 15.4489 206.645 15.25C206.389 15.0511 206.069 14.9517 205.686 14.9517C205.316 14.9517 205.004 15.0469 204.748 15.2372C204.495 15.4276 204.304 15.6932 204.173 16.0341C204.042 16.375 203.977 16.7727 203.977 17.2273ZM214.284 17.7855V13.9545H215.562V20.5H214.31V19.3665H214.241C214.091 19.7159 213.849 20.0071 213.517 20.2401C213.188 20.4702 212.777 20.5852 212.286 20.5852C211.865 20.5852 211.493 20.4929 211.169 20.3082C210.848 20.1207 210.595 19.8438 210.411 19.4773C210.229 19.1108 210.138 18.6577 210.138 18.1179V13.9545H211.412V17.9645C211.412 18.4105 211.536 18.7656 211.783 19.0298C212.03 19.294 212.351 19.4261 212.746 19.4261C212.984 19.4261 213.222 19.3665 213.457 19.2472C213.696 19.1278 213.893 18.9474 214.05 18.706C214.209 18.4645 214.287 18.1577 214.284 17.7855ZM220.33 13.9545V14.9773H216.755V13.9545H220.33ZM217.713 12.3864H218.988V18.5781C218.988 18.8253 219.025 19.0114 219.098 19.1364C219.172 19.2585 219.267 19.3423 219.384 19.3878C219.503 19.4304 219.632 19.4517 219.772 19.4517C219.874 19.4517 219.963 19.4446 220.04 19.4304C220.117 19.4162 220.176 19.4048 220.219 19.3963L220.449 20.4489C220.375 20.4773 220.27 20.5057 220.134 20.5341C219.998 20.5653 219.827 20.5824 219.623 20.5852C219.287 20.5909 218.975 20.5312 218.685 20.4062C218.395 20.2812 218.161 20.0881 217.982 19.8267C217.803 19.5653 217.713 19.2372 217.713 18.8423V12.3864ZM224.795 13.9545V14.9773H221.219V13.9545H224.795ZM222.178 12.3864H223.452V18.5781C223.452 18.8253 223.489 19.0114 223.563 19.1364C223.637 19.2585 223.732 19.3423 223.849 19.3878C223.968 19.4304 224.097 19.4517 224.237 19.4517C224.339 19.4517 224.428 19.4446 224.505 19.4304C224.582 19.4162 224.641 19.4048 224.684 19.3963L224.914 20.4489C224.84 20.4773 224.735 20.5057 224.599 20.5341C224.462 20.5653 224.292 20.5824 224.087 20.5852C223.752 20.5909 223.44 20.5312 223.15 20.4062C222.86 20.2812 222.626 20.0881 222.447 19.8267C222.268 19.5653 222.178 19.2372 222.178 18.8423V12.3864ZM228.891 20.6321C228.277 20.6321 227.742 20.4915 227.284 20.2102C226.827 19.929 226.472 19.5355 226.219 19.0298C225.966 18.5241 225.84 17.9332 225.84 17.2571C225.84 16.5781 225.966 15.9844 226.219 15.4759C226.472 14.9673 226.827 14.5724 227.284 14.2912C227.742 14.0099 228.277 13.8693 228.891 13.8693C229.505 13.8693 230.04 14.0099 230.498 14.2912C230.955 14.5724 231.31 14.9673 231.563 15.4759C231.816 15.9844 231.942 16.5781 231.942 17.2571C231.942 17.9332 231.816 18.5241 231.563 19.0298C231.31 19.5355 230.955 19.929 230.498 20.2102C230.04 20.4915 229.505 20.6321 228.891 20.6321ZM228.895 19.5625C229.293 19.5625 229.623 19.4574 229.884 19.2472C230.145 19.0369 230.338 18.7571 230.463 18.4077C230.591 18.0582 230.655 17.6733 230.655 17.2528C230.655 16.8352 230.591 16.4517 230.463 16.1023C230.338 15.75 230.145 15.4673 229.884 15.2543C229.623 15.0412 229.293 14.9347 228.895 14.9347C228.495 14.9347 228.162 15.0412 227.898 15.2543C227.637 15.4673 227.442 15.75 227.314 16.1023C227.189 16.4517 227.127 16.8352 227.127 17.2528C227.127 17.6733 227.189 18.0582 227.314 18.4077C227.442 18.7571 227.637 19.0369 227.898 19.2472C228.162 19.4574 228.495 19.5625 228.895 19.5625ZM234.638 16.6136V20.5H233.364V13.9545H234.587V15.0199H234.668C234.819 14.6733 235.055 14.3949 235.376 14.1847C235.7 13.9744 236.107 13.8693 236.599 13.8693C237.045 13.8693 237.435 13.9631 237.771 14.1506C238.106 14.3352 238.366 14.6108 238.55 14.9773C238.735 15.3437 238.827 15.7969 238.827 16.3366V20.5H237.553V16.4901C237.553 16.0156 237.43 15.6449 237.183 15.3778C236.935 15.108 236.596 14.973 236.164 14.973C235.869 14.973 235.606 15.0369 235.376 15.1648C235.148 15.2926 234.968 15.4801 234.835 15.7273C234.704 15.9716 234.638 16.267 234.638 16.6136Z" fill="white"/>
<rect x="260" width="46" height="32" rx="6" fill="#293676"/>
<path d="M278.917 11.9165C278.917 11.7112 278.971 11.5096 279.074 11.3319C279.176 11.1542 279.324 11.0068 279.502 10.9046C279.68 10.8023 279.882 10.7488 280.087 10.7495C280.293 10.7502 280.494 10.8051 280.671 10.9085L287.67 14.9907C287.846 15.0932 287.993 15.2402 288.095 15.4171C288.197 15.594 288.251 15.7946 288.251 15.9988C288.251 16.203 288.198 16.4036 288.096 16.5807C287.994 16.7578 287.848 16.9051 287.671 17.0079L280.671 21.0912C280.494 21.1947 280.293 21.2495 280.087 21.2502C279.882 21.2509 279.68 21.1974 279.502 21.0952C279.324 20.9929 279.176 20.8455 279.074 20.6678C278.971 20.4901 278.917 20.2885 278.917 20.0832V11.9165Z" stroke="white" stroke-width="1.16667" stroke-linecap="round" stroke-linejoin="round"/>
<rect x="310" width="138" height="32" rx="6" fill="#D8D8E4" fill-opacity="0.2"/>
<path d="M344.917 11.9165C344.916 11.7112 344.971 11.5096 345.073 11.3319C345.176 11.1542 345.324 11.0068 345.502 10.9046C345.68 10.8023 345.882 10.7488 346.087 10.7495C346.292 10.7502 346.494 10.8051 346.671 10.9085L353.669 14.9907C353.846 15.0932 353.993 15.2402 354.095 15.4171C354.197 15.594 354.25 15.7946 354.251 15.9988C354.251 16.203 354.197 16.4036 354.096 16.5807C353.994 16.7578 353.848 16.9051 353.671 17.0079L346.671 21.0912C346.494 21.1947 346.292 21.2495 346.087 21.2502C345.882 21.2509 345.68 21.1974 345.502 21.0952C345.324 20.9929 345.176 20.8455 345.073 20.6678C344.971 20.4901 344.916 20.2885 344.917 20.0832V11.9165Z" stroke="#A0AEC0" stroke-width="1.16667" stroke-linecap="round" stroke-linejoin="round"/>
<path d="M369.784 20.5H366.959V11.7727H369.874C370.729 11.7727 371.463 11.9474 372.077 12.2969C372.69 12.6435 373.161 13.142 373.487 13.7926C373.817 14.4403 373.982 15.2173 373.982 16.1236C373.982 17.0327 373.815 17.8139 373.483 18.4673C373.153 19.1207 372.676 19.6236 372.051 19.9759C371.426 20.3253 370.67 20.5 369.784 20.5ZM368.276 19.3494H369.712C370.376 19.3494 370.929 19.2244 371.369 18.9744C371.81 18.7216 372.139 18.3565 372.358 17.8793C372.577 17.3991 372.686 16.8139 372.686 16.1236C372.686 15.4389 372.577 14.858 372.358 14.3807C372.142 13.9034 371.82 13.5412 371.391 13.294C370.962 13.0469 370.429 12.9233 369.793 12.9233H368.276V19.3494ZM375.517 20.5V13.9545H376.791V20.5H375.517ZM376.16 12.9446C375.939 12.9446 375.748 12.8707 375.589 12.723C375.433 12.5724 375.355 12.3935 375.355 12.1861C375.355 11.9759 375.433 11.7969 375.589 11.6491C375.748 11.4986 375.939 11.4233 376.16 11.4233C376.382 11.4233 376.571 11.4986 376.727 11.6491C376.886 11.7969 376.966 11.9759 376.966 12.1861C376.966 12.3935 376.886 12.5724 376.727 12.723C376.571 12.8707 376.382 12.9446 376.16 12.9446ZM383.41 15.5526L382.255 15.7571C382.207 15.6094 382.13 15.4687 382.025 15.3352C381.923 15.2017 381.783 15.0923 381.607 15.0071C381.431 14.9219 381.211 14.8793 380.947 14.8793C380.586 14.8793 380.285 14.9602 380.043 15.1222C379.802 15.2812 379.681 15.4872 379.681 15.7401C379.681 15.9588 379.762 16.1349 379.924 16.2685C380.086 16.402 380.347 16.5114 380.708 16.5966L381.748 16.8352C382.35 16.9744 382.799 17.1889 383.094 17.4787C383.39 17.7685 383.538 18.1449 383.538 18.608C383.538 19 383.424 19.3494 383.197 19.6562C382.972 19.9602 382.658 20.1989 382.255 20.3722C381.854 20.5455 381.39 20.6321 380.862 20.6321C380.129 20.6321 379.531 20.4759 379.067 20.1634C378.604 19.848 378.32 19.4006 378.215 18.821L379.447 18.6335C379.523 18.9545 379.681 19.1974 379.92 19.3622C380.158 19.5241 380.469 19.6051 380.853 19.6051C381.271 19.6051 381.604 19.5185 381.854 19.3452C382.104 19.169 382.229 18.9545 382.229 18.7017C382.229 18.4972 382.153 18.3253 381.999 18.1861C381.849 18.0469 381.617 17.9418 381.305 17.8707L380.197 17.6278C379.586 17.4886 379.134 17.267 378.842 16.9631C378.552 16.6591 378.407 16.2741 378.407 15.8082C378.407 15.4219 378.515 15.0838 378.731 14.794C378.947 14.5043 379.245 14.2784 379.626 14.1165C380.006 13.9517 380.442 13.8693 380.934 13.8693C381.641 13.8693 382.198 14.0227 382.604 14.3295C383.011 14.6335 383.279 15.0412 383.41 15.5526ZM386.843 20.6449C386.429 20.6449 386.054 20.5682 385.718 20.4148C385.383 20.2585 385.118 20.0327 384.922 19.7372C384.728 19.4418 384.632 19.0795 384.632 18.6506C384.632 18.2812 384.703 17.9773 384.845 17.7386C384.987 17.5 385.179 17.3111 385.42 17.1719C385.662 17.0327 385.931 16.9276 386.23 16.8565C386.528 16.7855 386.832 16.7315 387.142 16.6946C387.534 16.6491 387.852 16.6122 388.096 16.5838C388.341 16.5526 388.518 16.5028 388.629 16.4347C388.74 16.3665 388.795 16.2557 388.795 16.1023V16.0724C388.795 15.7003 388.69 15.4119 388.48 15.2074C388.272 15.0028 387.963 14.9006 387.551 14.9006C387.122 14.9006 386.784 14.9957 386.537 15.1861C386.292 15.3736 386.123 15.5824 386.029 15.8125L384.832 15.5398C384.974 15.142 385.181 14.821 385.454 14.5767C385.73 14.3295 386.047 14.1506 386.404 14.0398C386.762 13.9261 387.139 13.8693 387.534 13.8693C387.795 13.8693 388.072 13.9006 388.365 13.9631C388.66 14.0227 388.936 14.1335 389.191 14.2955C389.45 14.4574 389.662 14.6889 389.826 14.9901C389.991 15.2884 390.074 15.6761 390.074 16.1534V20.5H388.829V19.6051H388.778C388.696 19.7699 388.572 19.9318 388.407 20.0909C388.243 20.25 388.031 20.3821 387.772 20.4872C387.514 20.5923 387.204 20.6449 386.843 20.6449ZM387.12 19.6222C387.473 19.6222 387.774 19.5526 388.024 19.4134C388.277 19.2741 388.468 19.0923 388.599 18.8679C388.733 18.6406 388.799 18.3977 388.799 18.1392V17.2955C388.754 17.3409 388.666 17.3835 388.535 17.4233C388.407 17.4602 388.261 17.4929 388.096 17.5213C387.931 17.5469 387.771 17.571 387.615 17.5938C387.458 17.6136 387.328 17.6307 387.223 17.6449C386.975 17.6761 386.75 17.7287 386.545 17.8026C386.343 17.8764 386.181 17.983 386.059 18.1222C385.94 18.2585 385.88 18.4403 385.88 18.6676C385.88 18.983 385.997 19.2216 386.23 19.3835C386.463 19.5426 386.76 19.6222 387.12 19.6222ZM391.873 20.5V11.7727H393.147V15.0156H393.224C393.298 14.8793 393.404 14.7216 393.543 14.5426C393.683 14.3636 393.876 14.2074 394.123 14.0739C394.37 13.9375 394.697 13.8693 395.103 13.8693C395.631 13.8693 396.103 14.0028 396.518 14.2699C396.933 14.5369 397.258 14.9219 397.494 15.4247C397.732 15.9276 397.852 16.5327 397.852 17.2401C397.852 17.9474 397.734 18.554 397.498 19.0597C397.262 19.5625 396.938 19.9503 396.526 20.223C396.114 20.4929 395.644 20.6278 395.116 20.6278C394.718 20.6278 394.393 20.5611 394.14 20.4276C393.89 20.294 393.694 20.1378 393.552 19.9588C393.41 19.7798 393.3 19.6207 393.224 19.4815H393.117V20.5H391.873ZM393.121 17.2273C393.121 17.6875 393.188 18.0909 393.322 18.4375C393.455 18.7841 393.648 19.0554 393.901 19.2514C394.154 19.4446 394.464 19.5412 394.83 19.5412C395.211 19.5412 395.529 19.4403 395.785 19.2386C396.04 19.0341 396.234 18.7571 396.364 18.4077C396.498 18.0582 396.565 17.6648 396.565 17.2273C396.565 16.7955 396.499 16.4077 396.369 16.0639C396.241 15.7202 396.048 15.4489 395.789 15.25C395.533 15.0511 395.214 14.9517 394.83 14.9517C394.461 14.9517 394.148 15.0469 393.893 15.2372C393.64 15.4276 393.448 15.6932 393.317 16.0341C393.187 16.375 393.121 16.7727 393.121 17.2273ZM400.556 11.7727V20.5H399.282V11.7727H400.556ZM405.092 20.6321C404.447 20.6321 403.891 20.4943 403.425 20.2188C402.962 19.9403 402.604 19.5497 402.352 19.0469C402.102 18.5412 401.977 17.9489 401.977 17.2699C401.977 16.5994 402.102 16.0085 402.352 15.4972C402.604 14.9858 402.957 14.5866 403.408 14.2997C403.863 14.0128 404.394 13.8693 405.002 13.8693C405.371 13.8693 405.729 13.9304 406.076 14.0526C406.423 14.1747 406.734 14.3665 407.009 14.6278C407.285 14.8892 407.502 15.2287 407.661 15.6463C407.82 16.0611 407.9 16.5653 407.9 17.1591V17.6108H402.697V16.6562H406.651C406.651 16.321 406.583 16.0241 406.447 15.7656C406.31 15.5043 406.119 15.2983 405.871 15.1477C405.627 14.9972 405.34 14.9219 405.011 14.9219C404.653 14.9219 404.34 15.0099 404.073 15.1861C403.809 15.3594 403.604 15.5866 403.46 15.8679C403.317 16.1463 403.246 16.4489 403.246 16.7756V17.5213C403.246 17.9588 403.323 18.331 403.477 18.6378C403.633 18.9446 403.85 19.179 404.129 19.3409C404.407 19.5 404.732 19.5795 405.104 19.5795C405.346 19.5795 405.566 19.5455 405.765 19.4773C405.964 19.4062 406.136 19.3011 406.281 19.1619C406.425 19.0227 406.536 18.8509 406.613 18.6463L407.819 18.8636C407.722 19.2187 407.549 19.5298 407.299 19.7969C407.052 20.0611 406.741 20.267 406.366 20.4148C405.994 20.5597 405.569 20.6321 405.092 20.6321ZM411.764 20.6278C411.235 20.6278 410.764 20.4929 410.349 20.223C409.937 19.9503 409.613 19.5625 409.377 19.0597C409.145 18.554 409.028 17.9474 409.028 17.2401C409.028 16.5327 409.146 15.9276 409.382 15.4247C409.62 14.9219 409.947 14.5369 410.362 14.2699C410.777 14.0028 411.247 13.8693 411.772 13.8693C412.179 13.8693 412.505 13.9375 412.752 14.0739C413.002 14.2074 413.196 14.3636 413.332 14.5426C413.471 14.7216 413.579 14.8793 413.656 15.0156H413.733V11.7727H415.007V20.5H413.762V19.4815H413.656C413.579 19.6207 413.468 19.7798 413.324 19.9588C413.181 20.1378 412.985 20.294 412.735 20.4276C412.485 20.5611 412.162 20.6278 411.764 20.6278ZM412.045 19.5412C412.412 19.5412 412.721 19.4446 412.974 19.2514C413.23 19.0554 413.423 18.7841 413.554 18.4375C413.687 18.0909 413.754 17.6875 413.754 17.2273C413.754 16.7727 413.689 16.375 413.558 16.0341C413.427 15.6932 413.235 15.4276 412.983 15.2372C412.73 15.0469 412.417 14.9517 412.045 14.9517C411.662 14.9517 411.342 15.0511 411.086 15.25C410.831 15.4489 410.637 15.7202 410.507 16.0639C410.379 16.4077 410.315 16.7955 410.315 17.2273C410.315 17.6648 410.38 18.0582 410.511 18.4077C410.642 18.7571 410.835 19.0341 411.091 19.2386C411.349 19.4403 411.667 19.5412 412.045 19.5412Z" fill="#A0AEC0"/>
</svg>
