<svg width="464" height="32" viewBox="0 0 464 32" fill="none" xmlns="http://www.w3.org/2000/svg">
<rect width="138" height="32" rx="6" fill="#7085DB"/>
<path d="M18.9167 11.9165C18.9167 11.7112 18.9708 11.5096 19.0736 11.3319C19.1764 11.1542 19.3243 11.0068 19.5023 10.9046C19.6803 10.8023 19.8821 10.7488 20.0874 10.7495C20.2927 10.7502 20.4941 10.8051 20.6714 10.9085L27.6697 14.9907C27.8463 15.0932 27.9929 15.2402 28.0949 15.4171C28.1969 15.594 28.2506 15.7946 28.2508 15.9988C28.251 16.203 28.1976 16.4036 28.0959 16.5807C27.9942 16.7578 27.8478 16.9051 27.6714 17.0079L20.6714 21.0912C20.4941 21.1947 20.2927 21.2495 20.0874 21.2502C19.8821 21.2509 19.6803 21.1974 19.5023 21.0952C19.3243 20.9929 19.1764 20.8455 19.0736 20.6678C18.9708 20.4901 18.9167 20.2885 18.9167 20.0832V11.9165Z" stroke="white" stroke-width="1.16667" stroke-linecap="round" stroke-linejoin="round"/>
<path d="M41.696 20.5H40.2983L43.4389 11.7727H44.9602L48.1009 20.5H46.7031L44.2358 13.358H44.1676L41.696 20.5ZM41.9304 17.0824H46.4645V18.1903H41.9304V17.0824ZM51.9105 20.6321C51.277 20.6321 50.7315 20.4886 50.2741 20.2017C49.8196 19.9119 49.4702 19.5128 49.2259 19.0043C48.9815 18.4957 48.8594 17.9134 48.8594 17.2571C48.8594 16.5923 48.9844 16.0057 49.2344 15.4972C49.4844 14.9858 49.8366 14.5866 50.2912 14.2997C50.7457 14.0128 51.2813 13.8693 51.8977 13.8693C52.3949 13.8693 52.8381 13.9616 53.2273 14.1463C53.6165 14.3281 53.9304 14.5838 54.169 14.9134C54.4105 15.2429 54.554 15.6278 54.5994 16.0682H53.3594C53.2912 15.7614 53.1349 15.4972 52.8906 15.2756C52.6491 15.054 52.3253 14.9432 51.919 14.9432C51.5639 14.9432 51.2528 15.0369 50.9858 15.2244C50.7216 15.4091 50.5156 15.6733 50.3679 16.017C50.2202 16.358 50.1463 16.7614 50.1463 17.2273C50.1463 17.7045 50.2188 18.1165 50.3636 18.4631C50.5085 18.8097 50.7131 19.0781 50.9773 19.2685C51.2443 19.4588 51.5582 19.554 51.919 19.554C52.1605 19.554 52.3793 19.5099 52.5753 19.4219C52.7741 19.331 52.9403 19.2017 53.0739 19.0341C53.2102 18.8665 53.3054 18.6648 53.3594 18.429H54.5994C54.554 18.8523 54.4162 19.2301 54.1861 19.5625C53.956 19.8949 53.6477 20.1562 53.2614 20.3466C52.8778 20.5369 52.4276 20.6321 51.9105 20.6321ZM58.7191 20.6321C58.0856 20.6321 57.5401 20.4886 57.0827 20.2017C56.6282 19.9119 56.2788 19.5128 56.0344 19.0043C55.7901 18.4957 55.668 17.9134 55.668 17.2571C55.668 16.5923 55.793 16.0057 56.043 15.4972C56.293 14.9858 56.6452 14.5866 57.0998 14.2997C57.5543 14.0128 58.0898 13.8693 58.7063 13.8693C59.2035 13.8693 59.6467 13.9616 60.0359 14.1463C60.4251 14.3281 60.739 14.5838 60.9776 14.9134C61.2191 15.2429 61.3626 15.6278 61.408 16.0682H60.168C60.0998 15.7614 59.9435 15.4972 59.6992 15.2756C59.4577 15.054 59.1339 14.9432 58.7276 14.9432C58.3725 14.9432 58.0614 15.0369 57.7944 15.2244C57.5302 15.4091 57.3242 15.6733 57.1765 16.017C57.0288 16.358 56.9549 16.7614 56.9549 17.2273C56.9549 17.7045 57.0273 18.1165 57.1722 18.4631C57.3171 18.8097 57.5217 19.0781 57.7859 19.2685C58.0529 19.4588 58.3668 19.554 58.7276 19.554C58.9691 19.554 59.1879 19.5099 59.3839 19.4219C59.5827 19.331 59.7489 19.2017 59.8825 19.0341C60.0188 18.8665 60.114 18.6648 60.168 18.429H61.408C61.3626 18.8523 61.2248 19.2301 60.9947 19.5625C60.7646 19.8949 60.4563 20.1562 60.07 20.3466C59.6864 20.5369 59.2362 20.6321 58.7191 20.6321ZM65.5916 20.6321C64.9467 20.6321 64.3913 20.4943 63.9254 20.2188C63.4624 19.9403 63.1044 19.5497 62.8516 19.0469C62.6016 18.5412 62.4766 17.9489 62.4766 17.2699C62.4766 16.5994 62.6016 16.0085 62.8516 15.4972C63.1044 14.9858 63.4567 14.5866 63.9084 14.2997C64.3629 14.0128 64.8942 13.8693 65.5021 13.8693C65.8714 13.8693 66.2294 13.9304 66.576 14.0526C66.9226 14.1747 67.2337 14.3665 67.5092 14.6278C67.7848 14.8892 68.0021 15.2287 68.1612 15.6463C68.3203 16.0611 68.3999 16.5653 68.3999 17.1591V17.6108H63.1967V16.6562H67.1513C67.1513 16.321 67.0831 16.0241 66.9467 15.7656C66.8104 15.5043 66.6186 15.2983 66.3714 15.1477C66.1271 14.9972 65.8402 14.9219 65.5107 14.9219C65.1527 14.9219 64.8402 15.0099 64.5732 15.1861C64.3089 15.3594 64.1044 15.5866 63.9595 15.8679C63.8175 16.1463 63.7464 16.4489 63.7464 16.7756V17.5213C63.7464 17.9588 63.8232 18.331 63.9766 18.6378C64.1328 18.9446 64.3501 19.179 64.6286 19.3409C64.907 19.5 65.2322 19.5795 65.6044 19.5795C65.8459 19.5795 66.0661 19.5455 66.2649 19.4773C66.4638 19.4062 66.6357 19.3011 66.7805 19.1619C66.9254 19.0227 67.0362 18.8509 67.1129 18.6463L68.3189 18.8636C68.2223 19.2187 68.049 19.5298 67.799 19.7969C67.5518 20.0611 67.2408 20.267 66.8658 20.4148C66.4936 20.5597 66.0689 20.6321 65.5916 20.6321ZM71.0877 16.6136V20.5H69.8136V13.9545H71.0366V15.0199H71.1175C71.2681 14.6733 71.5039 14.3949 71.8249 14.1847C72.1488 13.9744 72.5565 13.8693 73.0479 13.8693C73.494 13.8693 73.8846 13.9631 74.2198 14.1506C74.555 14.3352 74.815 14.6108 74.9996 14.9773C75.1843 15.3437 75.2766 15.7969 75.2766 16.3366V20.5H74.0025V16.4901C74.0025 16.0156 73.8789 15.6449 73.6317 15.3778C73.3846 15.108 73.0451 14.973 72.6133 14.973C72.3178 14.973 72.055 15.0369 71.8249 15.1648C71.5977 15.2926 71.4173 15.4801 71.2837 15.7273C71.1531 15.9716 71.0877 16.267 71.0877 16.6136ZM80.0408 13.9545V14.9773H76.4656V13.9545H80.0408ZM77.4244 12.3864H78.6985V18.5781C78.6985 18.8253 78.7354 19.0114 78.8093 19.1364C78.8832 19.2585 78.9783 19.3423 79.0948 19.3878C79.2141 19.4304 79.3434 19.4517 79.4826 19.4517C79.5849 19.4517 79.6744 19.4446 79.7511 19.4304C79.8278 19.4162 79.8874 19.4048 79.93 19.3963L80.1602 20.4489C80.0863 20.4773 79.9812 20.5057 79.8448 20.5341C79.7085 20.5653 79.538 20.5824 79.3335 20.5852C78.9982 20.5909 78.6857 20.5312 78.396 20.4062C78.1062 20.2812 77.8718 20.0881 77.6928 19.8267C77.5138 19.5653 77.4244 19.2372 77.4244 18.8423V12.3864ZM84.7283 20.5V11.7727H86.0025V15.0156H86.0792C86.1531 14.8793 86.2596 14.7216 86.3988 14.5426C86.538 14.3636 86.7312 14.2074 86.9783 14.0739C87.2255 13.9375 87.5522 13.8693 87.9585 13.8693C88.4869 13.8693 88.9585 14.0028 89.3732 14.2699C89.788 14.5369 90.1133 14.9219 90.3491 15.4247C90.5877 15.9276 90.707 16.5327 90.707 17.2401C90.707 17.9474 90.5891 18.554 90.3533 19.0597C90.1175 19.5625 89.7937 19.9503 89.3817 20.223C88.9698 20.4929 88.4996 20.6278 87.9712 20.6278C87.5735 20.6278 87.2482 20.5611 86.9954 20.4276C86.7454 20.294 86.5494 20.1378 86.4073 19.9588C86.2653 19.7798 86.1559 19.6207 86.0792 19.4815H85.9727V20.5H84.7283ZM85.9769 17.2273C85.9769 17.6875 86.0437 18.0909 86.1772 18.4375C86.3107 18.7841 86.5039 19.0554 86.7567 19.2514C87.0096 19.4446 87.3192 19.5412 87.6857 19.5412C88.0664 19.5412 88.3846 19.4403 88.6403 19.2386C88.896 19.0341 89.0891 18.7571 89.2198 18.4077C89.3533 18.0582 89.4201 17.6648 89.4201 17.2273C89.4201 16.7955 89.3548 16.4077 89.2241 16.0639C89.0962 15.7202 88.9031 15.4489 88.6445 15.25C88.3888 15.0511 88.0692 14.9517 87.6857 14.9517C87.3164 14.9517 87.0039 15.0469 86.7482 15.2372C86.4954 15.4276 86.3036 15.6932 86.1729 16.0341C86.0423 16.375 85.9769 16.7727 85.9769 17.2273ZM96.2841 17.7855V13.9545H97.5625V20.5H96.3097V19.3665H96.2415C96.0909 19.7159 95.8494 20.0071 95.517 20.2401C95.1875 20.4702 94.777 20.5852 94.2855 20.5852C93.8651 20.5852 93.4929 20.4929 93.169 20.3082C92.848 20.1207 92.5952 19.8438 92.4105 19.4773C92.2287 19.1108 92.1378 18.6577 92.1378 18.1179V13.9545H93.4119V17.9645C93.4119 18.4105 93.5355 18.7656 93.7827 19.0298C94.0298 19.294 94.3509 19.4261 94.7457 19.4261C94.9844 19.4261 95.2216 19.3665 95.4574 19.2472C95.696 19.1278 95.8935 18.9474 96.0497 18.706C96.2088 18.4645 96.2869 18.1577 96.2841 17.7855ZM102.33 13.9545V14.9773H98.7546V13.9545H102.33ZM99.7134 12.3864H100.988V18.5781C100.988 18.8253 101.025 19.0114 101.098 19.1364C101.172 19.2585 101.267 19.3423 101.384 19.3878C101.503 19.4304 101.632 19.4517 101.772 19.4517C101.874 19.4517 101.963 19.4446 102.04 19.4304C102.117 19.4162 102.176 19.4048 102.219 19.3963L102.449 20.4489C102.375 20.4773 102.27 20.5057 102.134 20.5341C101.998 20.5653 101.827 20.5824 101.623 20.5852C101.287 20.5909 100.975 20.5312 100.685 20.4062C100.395 20.2812 100.161 20.0881 99.9819 19.8267C99.8029 19.5653 99.7134 19.2372 99.7134 18.8423V12.3864ZM106.795 13.9545V14.9773H103.219V13.9545H106.795ZM104.178 12.3864H105.452V18.5781C105.452 18.8253 105.489 19.0114 105.563 19.1364C105.637 19.2585 105.732 19.3423 105.849 19.3878C105.968 19.4304 106.097 19.4517 106.237 19.4517C106.339 19.4517 106.428 19.4446 106.505 19.4304C106.582 19.4162 106.641 19.4048 106.684 19.3963L106.914 20.4489C106.84 20.4773 106.735 20.5057 106.599 20.5341C106.462 20.5653 106.292 20.5824 106.087 20.5852C105.752 20.5909 105.44 20.5312 105.15 20.4062C104.86 20.2812 104.626 20.0881 104.447 19.8267C104.268 19.5653 104.178 19.2372 104.178 18.8423V12.3864ZM110.891 20.6321C110.277 20.6321 109.742 20.4915 109.284 20.2102C108.827 19.929 108.472 19.5355 108.219 19.0298C107.966 18.5241 107.84 17.9332 107.84 17.2571C107.84 16.5781 107.966 15.9844 108.219 15.4759C108.472 14.9673 108.827 14.5724 109.284 14.2912C109.742 14.0099 110.277 13.8693 110.891 13.8693C111.505 13.8693 112.04 14.0099 112.498 14.2912C112.955 14.5724 113.31 14.9673 113.563 15.4759C113.816 15.9844 113.942 16.5781 113.942 17.2571C113.942 17.9332 113.816 18.5241 113.563 19.0298C113.31 19.5355 112.955 19.929 112.498 20.2102C112.04 20.4915 111.505 20.6321 110.891 20.6321ZM110.895 19.5625C111.293 19.5625 111.623 19.4574 111.884 19.2472C112.145 19.0369 112.338 18.7571 112.463 18.4077C112.591 18.0582 112.655 17.6733 112.655 17.2528C112.655 16.8352 112.591 16.4517 112.463 16.1023C112.338 15.75 112.145 15.4673 111.884 15.2543C111.623 15.0412 111.293 14.9347 110.895 14.9347C110.495 14.9347 110.162 15.0412 109.898 15.2543C109.637 15.4673 109.442 15.75 109.314 16.1023C109.189 16.4517 109.127 16.8352 109.127 17.2528C109.127 17.6733 109.189 18.0582 109.314 18.4077C109.442 18.7571 109.637 19.0369 109.898 19.2472C110.162 19.4574 110.495 19.5625 110.895 19.5625ZM116.638 16.6136V20.5H115.364V13.9545H116.587V15.0199H116.668C116.819 14.6733 117.055 14.3949 117.376 14.1847C117.7 13.9744 118.107 13.8693 118.599 13.8693C119.045 13.8693 119.435 13.9631 119.771 14.1506C120.106 14.3352 120.366 14.6108 120.55 14.9773C120.735 15.3437 120.827 15.7969 120.827 16.3366V20.5H119.553V16.4901C119.553 16.0156 119.43 15.6449 119.183 15.3778C118.935 15.108 118.596 14.973 118.164 14.973C117.869 14.973 117.606 15.0369 117.376 15.1648C117.148 15.2926 116.968 15.4801 116.835 15.7273C116.704 15.9716 116.638 16.267 116.638 16.6136Z" fill="white"/>
<rect x="142" width="114" height="32" rx="6" fill="#7085DB"/>
<path d="M159.696 20.5H158.298L161.439 11.7727H162.96L166.101 20.5H164.703L162.236 13.358H162.168L159.696 20.5ZM159.93 17.0824H164.464V18.1903H159.93V17.0824ZM169.911 20.6321C169.277 20.6321 168.732 20.4886 168.274 20.2017C167.82 19.9119 167.47 19.5128 167.226 19.0043C166.982 18.4957 166.859 17.9134 166.859 17.2571C166.859 16.5923 166.984 16.0057 167.234 15.4972C167.484 14.9858 167.837 14.5866 168.291 14.2997C168.746 14.0128 169.281 13.8693 169.898 13.8693C170.395 13.8693 170.838 13.9616 171.227 14.1463C171.616 14.3281 171.93 14.5838 172.169 14.9134C172.411 15.2429 172.554 15.6278 172.599 16.0682H171.359C171.291 15.7614 171.135 15.4972 170.891 15.2756C170.649 15.054 170.325 14.9432 169.919 14.9432C169.564 14.9432 169.253 15.0369 168.986 15.2244C168.722 15.4091 168.516 15.6733 168.368 16.017C168.22 16.358 168.146 16.7614 168.146 17.2273C168.146 17.7045 168.219 18.1165 168.364 18.4631C168.509 18.8097 168.713 19.0781 168.977 19.2685C169.244 19.4588 169.558 19.554 169.919 19.554C170.161 19.554 170.379 19.5099 170.575 19.4219C170.774 19.331 170.94 19.2017 171.074 19.0341C171.21 18.8665 171.305 18.6648 171.359 18.429H172.599C172.554 18.8523 172.416 19.2301 172.186 19.5625C171.956 19.8949 171.648 20.1562 171.261 20.3466C170.878 20.5369 170.428 20.6321 169.911 20.6321ZM176.719 20.6321C176.086 20.6321 175.54 20.4886 175.083 20.2017C174.628 19.9119 174.279 19.5128 174.034 19.0043C173.79 18.4957 173.668 17.9134 173.668 17.2571C173.668 16.5923 173.793 16.0057 174.043 15.4972C174.293 14.9858 174.645 14.5866 175.1 14.2997C175.554 14.0128 176.09 13.8693 176.706 13.8693C177.203 13.8693 177.647 13.9616 178.036 14.1463C178.425 14.3281 178.739 14.5838 178.978 14.9134C179.219 15.2429 179.363 15.6278 179.408 16.0682H178.168C178.1 15.7614 177.944 15.4972 177.699 15.2756C177.458 15.054 177.134 14.9432 176.728 14.9432C176.373 14.9432 176.061 15.0369 175.794 15.2244C175.53 15.4091 175.324 15.6733 175.176 16.017C175.029 16.358 174.955 16.7614 174.955 17.2273C174.955 17.7045 175.027 18.1165 175.172 18.4631C175.317 18.8097 175.522 19.0781 175.786 19.2685C176.053 19.4588 176.367 19.554 176.728 19.554C176.969 19.554 177.188 19.5099 177.384 19.4219C177.583 19.331 177.749 19.2017 177.882 19.0341C178.019 18.8665 178.114 18.6648 178.168 18.429H179.408C179.363 18.8523 179.225 19.2301 178.995 19.5625C178.765 19.8949 178.456 20.1562 178.07 20.3466C177.686 20.5369 177.236 20.6321 176.719 20.6321ZM183.592 20.6321C182.947 20.6321 182.391 20.4943 181.925 20.2188C181.462 19.9403 181.104 19.5497 180.852 19.0469C180.602 18.5412 180.477 17.9489 180.477 17.2699C180.477 16.5994 180.602 16.0085 180.852 15.4972C181.104 14.9858 181.457 14.5866 181.908 14.2997C182.363 14.0128 182.894 13.8693 183.502 13.8693C183.871 13.8693 184.229 13.9304 184.576 14.0526C184.923 14.1747 185.234 14.3665 185.509 14.6278C185.785 14.8892 186.002 15.2287 186.161 15.6463C186.32 16.0611 186.4 16.5653 186.4 17.1591V17.6108H181.197V16.6562H185.151C185.151 16.321 185.083 16.0241 184.947 15.7656C184.81 15.5043 184.619 15.2983 184.371 15.1477C184.127 14.9972 183.84 14.9219 183.511 14.9219C183.153 14.9219 182.84 15.0099 182.573 15.1861C182.309 15.3594 182.104 15.5866 181.96 15.8679C181.817 16.1463 181.746 16.4489 181.746 16.7756V17.5213C181.746 17.9588 181.823 18.331 181.977 18.6378C182.133 18.9446 182.35 19.179 182.629 19.3409C182.907 19.5 183.232 19.5795 183.604 19.5795C183.846 19.5795 184.066 19.5455 184.265 19.4773C184.464 19.4062 184.636 19.3011 184.781 19.1619C184.925 19.0227 185.036 18.8509 185.113 18.6463L186.319 18.8636C186.222 19.2187 186.049 19.5298 185.799 19.7969C185.552 20.0611 185.241 20.267 184.866 20.4148C184.494 20.5597 184.069 20.6321 183.592 20.6321ZM189.088 16.6136V20.5H187.814V13.9545H189.037V15.0199H189.118C189.268 14.6733 189.504 14.3949 189.825 14.1847C190.149 13.9744 190.556 13.8693 191.048 13.8693C191.494 13.8693 191.885 13.9631 192.22 14.1506C192.555 14.3352 192.815 14.6108 193 14.9773C193.184 15.3437 193.277 15.7969 193.277 16.3366V20.5H192.002V16.4901C192.002 16.0156 191.879 15.6449 191.632 15.3778C191.385 15.108 191.045 14.973 190.613 14.973C190.318 14.973 190.055 15.0369 189.825 15.1648C189.598 15.2926 189.417 15.4801 189.284 15.7273C189.153 15.9716 189.088 16.267 189.088 16.6136ZM198.041 13.9545V14.9773H194.466V13.9545H198.041ZM195.424 12.3864H196.699V18.5781C196.699 18.8253 196.735 19.0114 196.809 19.1364C196.883 19.2585 196.978 19.3423 197.095 19.3878C197.214 19.4304 197.343 19.4517 197.483 19.4517C197.585 19.4517 197.674 19.4446 197.751 19.4304C197.828 19.4162 197.887 19.4048 197.93 19.3963L198.16 20.4489C198.086 20.4773 197.981 20.5057 197.845 20.5341C197.708 20.5653 197.538 20.5824 197.333 20.5852C196.998 20.5909 196.686 20.5312 196.396 20.4062C196.106 20.2812 195.872 20.0881 195.693 19.8267C195.514 19.5653 195.424 19.2372 195.424 18.8423V12.3864ZM202.728 20.5V11.7727H204.002V15.0156H204.079C204.153 14.8793 204.26 14.7216 204.399 14.5426C204.538 14.3636 204.731 14.2074 204.978 14.0739C205.225 13.9375 205.552 13.8693 205.958 13.8693C206.487 13.8693 206.958 14.0028 207.373 14.2699C207.788 14.5369 208.113 14.9219 208.349 15.4247C208.588 15.9276 208.707 16.5327 208.707 17.2401C208.707 17.9474 208.589 18.554 208.353 19.0597C208.118 19.5625 207.794 19.9503 207.382 20.223C206.97 20.4929 206.5 20.6278 205.971 20.6278C205.574 20.6278 205.248 20.5611 204.995 20.4276C204.745 20.294 204.549 20.1378 204.407 19.9588C204.265 19.7798 204.156 19.6207 204.079 19.4815H203.973V20.5H202.728ZM203.977 17.2273C203.977 17.6875 204.044 18.0909 204.177 18.4375C204.311 18.7841 204.504 19.0554 204.757 19.2514C205.01 19.4446 205.319 19.5412 205.686 19.5412C206.066 19.5412 206.385 19.4403 206.64 19.2386C206.896 19.0341 207.089 18.7571 207.22 18.4077C207.353 18.0582 207.42 17.6648 207.42 17.2273C207.42 16.7955 207.355 16.4077 207.224 16.0639C207.096 15.7202 206.903 15.4489 206.645 15.25C206.389 15.0511 206.069 14.9517 205.686 14.9517C205.316 14.9517 205.004 15.0469 204.748 15.2372C204.495 15.4276 204.304 15.6932 204.173 16.0341C204.042 16.375 203.977 16.7727 203.977 17.2273ZM214.284 17.7855V13.9545H215.562V20.5H214.31V19.3665H214.241C214.091 19.7159 213.849 20.0071 213.517 20.2401C213.188 20.4702 212.777 20.5852 212.286 20.5852C211.865 20.5852 211.493 20.4929 211.169 20.3082C210.848 20.1207 210.595 19.8438 210.411 19.4773C210.229 19.1108 210.138 18.6577 210.138 18.1179V13.9545H211.412V17.9645C211.412 18.4105 211.536 18.7656 211.783 19.0298C212.03 19.294 212.351 19.4261 212.746 19.4261C212.984 19.4261 213.222 19.3665 213.457 19.2472C213.696 19.1278 213.893 18.9474 214.05 18.706C214.209 18.4645 214.287 18.1577 214.284 17.7855ZM220.33 13.9545V14.9773H216.755V13.9545H220.33ZM217.713 12.3864H218.988V18.5781C218.988 18.8253 219.025 19.0114 219.098 19.1364C219.172 19.2585 219.267 19.3423 219.384 19.3878C219.503 19.4304 219.632 19.4517 219.772 19.4517C219.874 19.4517 219.963 19.4446 220.04 19.4304C220.117 19.4162 220.176 19.4048 220.219 19.3963L220.449 20.4489C220.375 20.4773 220.27 20.5057 220.134 20.5341C219.998 20.5653 219.827 20.5824 219.623 20.5852C219.287 20.5909 218.975 20.5312 218.685 20.4062C218.395 20.2812 218.161 20.0881 217.982 19.8267C217.803 19.5653 217.713 19.2372 217.713 18.8423V12.3864ZM224.795 13.9545V14.9773H221.219V13.9545H224.795ZM222.178 12.3864H223.452V18.5781C223.452 18.8253 223.489 19.0114 223.563 19.1364C223.637 19.2585 223.732 19.3423 223.849 19.3878C223.968 19.4304 224.097 19.4517 224.237 19.4517C224.339 19.4517 224.428 19.4446 224.505 19.4304C224.582 19.4162 224.641 19.4048 224.684 19.3963L224.914 20.4489C224.84 20.4773 224.735 20.5057 224.599 20.5341C224.462 20.5653 224.292 20.5824 224.087 20.5852C223.752 20.5909 223.44 20.5312 223.15 20.4062C222.86 20.2812 222.626 20.0881 222.447 19.8267C222.268 19.5653 222.178 19.2372 222.178 18.8423V12.3864ZM228.891 20.6321C228.277 20.6321 227.742 20.4915 227.284 20.2102C226.827 19.929 226.472 19.5355 226.219 19.0298C225.966 18.5241 225.84 17.9332 225.84 17.2571C225.84 16.5781 225.966 15.9844 226.219 15.4759C226.472 14.9673 226.827 14.5724 227.284 14.2912C227.742 14.0099 228.277 13.8693 228.891 13.8693C229.505 13.8693 230.04 14.0099 230.498 14.2912C230.955 14.5724 231.31 14.9673 231.563 15.4759C231.816 15.9844 231.942 16.5781 231.942 17.2571C231.942 17.9332 231.816 18.5241 231.563 19.0298C231.31 19.5355 230.955 19.929 230.498 20.2102C230.04 20.4915 229.505 20.6321 228.891 20.6321ZM228.895 19.5625C229.293 19.5625 229.623 19.4574 229.884 19.2472C230.145 19.0369 230.338 18.7571 230.463 18.4077C230.591 18.0582 230.655 17.6733 230.655 17.2528C230.655 16.8352 230.591 16.4517 230.463 16.1023C230.338 15.75 230.145 15.4673 229.884 15.2543C229.623 15.0412 229.293 14.9347 228.895 14.9347C228.495 14.9347 228.162 15.0412 227.898 15.2543C227.637 15.4673 227.442 15.75 227.314 16.1023C227.189 16.4517 227.127 16.8352 227.127 17.2528C227.127 17.6733 227.189 18.0582 227.314 18.4077C227.442 18.7571 227.637 19.0369 227.898 19.2472C228.162 19.4574 228.495 19.5625 228.895 19.5625ZM234.638 16.6136V20.5H233.364V13.9545H234.587V15.0199H234.668C234.819 14.6733 235.055 14.3949 235.376 14.1847C235.7 13.9744 236.107 13.8693 236.599 13.8693C237.045 13.8693 237.435 13.9631 237.771 14.1506C238.106 14.3352 238.366 14.6108 238.55 14.9773C238.735 15.3437 238.827 15.7969 238.827 16.3366V20.5H237.553V16.4901C237.553 16.0156 237.43 15.6449 237.183 15.3778C236.935 15.108 236.596 14.973 236.164 14.973C235.869 14.973 235.606 15.0369 235.376 15.1648C235.148 15.2926 234.968 15.4801 234.835 15.7273C234.704 15.9716 234.638 16.267 234.638 16.6136Z" fill="white"/>
<rect x="260" width="46" height="32" rx="6" fill="#7085DB"/>
<path d="M278.917 11.9165C278.917 11.7112 278.971 11.5096 279.074 11.3319C279.176 11.1542 279.324 11.0068 279.502 10.9046C279.68 10.8023 279.882 10.7488 280.087 10.7495C280.293 10.7502 280.494 10.8051 280.671 10.9085L287.67 14.9907C287.846 15.0932 287.993 15.2402 288.095 15.4171C288.197 15.594 288.251 15.7946 288.251 15.9988C288.251 16.203 288.198 16.4036 288.096 16.5807C287.994 16.7578 287.848 16.9051 287.671 17.0079L280.671 21.0912C280.494 21.1947 280.293 21.2495 280.087 21.2502C279.882 21.2509 279.68 21.1974 279.502 21.0952C279.324 20.9929 279.176 20.8455 279.074 20.6678C278.971 20.4901 278.917 20.2885 278.917 20.0832V11.9165Z" stroke="white" stroke-width="1.16667" stroke-linecap="round" stroke-linejoin="round"/>
<rect x="310" width="154" height="32" rx="6" fill="#212732"/>
<path d="M331.417 11.9165C331.416 11.7112 331.471 11.5096 331.573 11.3319C331.676 11.1542 331.824 11.0068 332.002 10.9046C332.18 10.8023 332.382 10.7488 332.587 10.7495C332.792 10.7502 332.994 10.8051 333.171 10.9085L340.169 14.9907C340.346 15.0932 340.493 15.2402 340.595 15.4171C340.697 15.594 340.75 15.7946 340.751 15.9988C340.751 16.203 340.697 16.4036 340.596 16.5807C340.494 16.7578 340.348 16.9051 340.171 17.0079L333.171 21.0912C332.994 21.1947 332.792 21.2495 332.587 21.2502C332.382 21.2509 332.18 21.1974 332.002 21.0952C331.824 20.9929 331.676 20.8455 331.573 20.6678C331.471 20.4901 331.416 20.2885 331.417 20.0832V11.9165Z" stroke="#9098A2" stroke-width="1.16667" stroke-linecap="round" stroke-linejoin="round"/>
<path d="M354.196 20.5H352.798L355.939 11.7727H357.46L360.601 20.5H359.203L356.736 13.358H356.668L354.196 20.5ZM354.43 17.0824H358.964V18.1903H354.43V17.0824ZM364.411 20.6321C363.777 20.6321 363.232 20.4886 362.774 20.2017C362.32 19.9119 361.97 19.5128 361.726 19.0043C361.482 18.4957 361.359 17.9134 361.359 17.2571C361.359 16.5923 361.484 16.0057 361.734 15.4972C361.984 14.9858 362.337 14.5866 362.791 14.2997C363.246 14.0128 363.781 13.8693 364.398 13.8693C364.895 13.8693 365.338 13.9616 365.727 14.1463C366.116 14.3281 366.43 14.5838 366.669 14.9134C366.911 15.2429 367.054 15.6278 367.099 16.0682H365.859C365.791 15.7614 365.635 15.4972 365.391 15.2756C365.149 15.054 364.825 14.9432 364.419 14.9432C364.064 14.9432 363.753 15.0369 363.486 15.2244C363.222 15.4091 363.016 15.6733 362.868 16.017C362.72 16.358 362.646 16.7614 362.646 17.2273C362.646 17.7045 362.719 18.1165 362.864 18.4631C363.009 18.8097 363.213 19.0781 363.477 19.2685C363.744 19.4588 364.058 19.554 364.419 19.554C364.661 19.554 364.879 19.5099 365.075 19.4219C365.274 19.331 365.44 19.2017 365.574 19.0341C365.71 18.8665 365.805 18.6648 365.859 18.429H367.099C367.054 18.8523 366.916 19.2301 366.686 19.5625C366.456 19.8949 366.148 20.1562 365.761 20.3466C365.378 20.5369 364.928 20.6321 364.411 20.6321ZM371.219 20.6321C370.586 20.6321 370.04 20.4886 369.583 20.2017C369.128 19.9119 368.779 19.5128 368.534 19.0043C368.29 18.4957 368.168 17.9134 368.168 17.2571C368.168 16.5923 368.293 16.0057 368.543 15.4972C368.793 14.9858 369.145 14.5866 369.6 14.2997C370.054 14.0128 370.59 13.8693 371.206 13.8693C371.703 13.8693 372.147 13.9616 372.536 14.1463C372.925 14.3281 373.239 14.5838 373.478 14.9134C373.719 15.2429 373.863 15.6278 373.908 16.0682H372.668C372.6 15.7614 372.444 15.4972 372.199 15.2756C371.958 15.054 371.634 14.9432 371.228 14.9432C370.873 14.9432 370.561 15.0369 370.294 15.2244C370.03 15.4091 369.824 15.6733 369.676 16.017C369.529 16.358 369.455 16.7614 369.455 17.2273C369.455 17.7045 369.527 18.1165 369.672 18.4631C369.817 18.8097 370.022 19.0781 370.286 19.2685C370.553 19.4588 370.867 19.554 371.228 19.554C371.469 19.554 371.688 19.5099 371.884 19.4219C372.083 19.331 372.249 19.2017 372.382 19.0341C372.519 18.8665 372.614 18.6648 372.668 18.429H373.908C373.863 18.8523 373.725 19.2301 373.495 19.5625C373.265 19.8949 372.956 20.1562 372.57 20.3466C372.186 20.5369 371.736 20.6321 371.219 20.6321ZM378.092 20.6321C377.447 20.6321 376.891 20.4943 376.425 20.2188C375.962 19.9403 375.604 19.5497 375.352 19.0469C375.102 18.5412 374.977 17.9489 374.977 17.2699C374.977 16.5994 375.102 16.0085 375.352 15.4972C375.604 14.9858 375.957 14.5866 376.408 14.2997C376.863 14.0128 377.394 13.8693 378.002 13.8693C378.371 13.8693 378.729 13.9304 379.076 14.0526C379.423 14.1747 379.734 14.3665 380.009 14.6278C380.285 14.8892 380.502 15.2287 380.661 15.6463C380.82 16.0611 380.9 16.5653 380.9 17.1591V17.6108H375.697V16.6562H379.651C379.651 16.321 379.583 16.0241 379.447 15.7656C379.31 15.5043 379.119 15.2983 378.871 15.1477C378.627 14.9972 378.34 14.9219 378.011 14.9219C377.653 14.9219 377.34 15.0099 377.073 15.1861C376.809 15.3594 376.604 15.5866 376.46 15.8679C376.317 16.1463 376.246 16.4489 376.246 16.7756V17.5213C376.246 17.9588 376.323 18.331 376.477 18.6378C376.633 18.9446 376.85 19.179 377.129 19.3409C377.407 19.5 377.732 19.5795 378.104 19.5795C378.346 19.5795 378.566 19.5455 378.765 19.4773C378.964 19.4062 379.136 19.3011 379.281 19.1619C379.425 19.0227 379.536 18.8509 379.613 18.6463L380.819 18.8636C380.722 19.2187 380.549 19.5298 380.299 19.7969C380.052 20.0611 379.741 20.267 379.366 20.4148C378.994 20.5597 378.569 20.6321 378.092 20.6321ZM383.588 16.6136V20.5H382.314V13.9545H383.537V15.0199H383.618C383.768 14.6733 384.004 14.3949 384.325 14.1847C384.649 13.9744 385.056 13.8693 385.548 13.8693C385.994 13.8693 386.385 13.9631 386.72 14.1506C387.055 14.3352 387.315 14.6108 387.5 14.9773C387.684 15.3437 387.777 15.7969 387.777 16.3366V20.5H386.502V16.4901C386.502 16.0156 386.379 15.6449 386.132 15.3778C385.885 15.108 385.545 14.973 385.113 14.973C384.818 14.973 384.555 15.0369 384.325 15.1648C384.098 15.2926 383.917 15.4801 383.784 15.7273C383.653 15.9716 383.588 16.267 383.588 16.6136ZM392.541 13.9545V14.9773H388.966V13.9545H392.541ZM389.924 12.3864H391.199V18.5781C391.199 18.8253 391.235 19.0114 391.309 19.1364C391.383 19.2585 391.478 19.3423 391.595 19.3878C391.714 19.4304 391.843 19.4517 391.983 19.4517C392.085 19.4517 392.174 19.4446 392.251 19.4304C392.328 19.4162 392.387 19.4048 392.43 19.3963L392.66 20.4489C392.586 20.4773 392.481 20.5057 392.345 20.5341C392.208 20.5653 392.038 20.5824 391.833 20.5852C391.498 20.5909 391.186 20.5312 390.896 20.4062C390.606 20.2812 390.372 20.0881 390.193 19.8267C390.014 19.5653 389.924 19.2372 389.924 18.8423V12.3864ZM399.576 20.6278C399.048 20.6278 398.576 20.4929 398.162 20.223C397.75 19.9503 397.426 19.5625 397.19 19.0597C396.957 18.554 396.841 17.9474 396.841 17.2401C396.841 16.5327 396.958 15.9276 397.194 15.4247C397.433 14.9219 397.76 14.5369 398.174 14.2699C398.589 14.0028 399.059 13.8693 399.585 13.8693C399.991 13.8693 400.318 13.9375 400.565 14.0739C400.815 14.2074 401.008 14.3636 401.145 14.5426C401.284 14.7216 401.392 14.8793 401.468 15.0156H401.545V11.7727H402.819V20.5H401.575V19.4815H401.468C401.392 19.6207 401.281 19.7798 401.136 19.9588C400.994 20.1378 400.798 20.294 400.548 20.4276C400.298 20.5611 399.974 20.6278 399.576 20.6278ZM399.858 19.5412C400.224 19.5412 400.534 19.4446 400.787 19.2514C401.042 19.0554 401.235 18.7841 401.366 18.4375C401.5 18.0909 401.566 17.6875 401.566 17.2273C401.566 16.7727 401.501 16.375 401.37 16.0341C401.24 15.6932 401.048 15.4276 400.795 15.2372C400.542 15.0469 400.23 14.9517 399.858 14.9517C399.474 14.9517 399.154 15.0511 398.899 15.25C398.643 15.4489 398.45 15.7202 398.319 16.0639C398.191 16.4077 398.127 16.7955 398.127 17.2273C398.127 17.6648 398.193 18.0582 398.324 18.4077C398.454 18.7571 398.647 19.0341 398.903 19.2386C399.162 19.4403 399.48 19.5412 399.858 19.5412ZM404.638 20.5V13.9545H405.912V20.5H404.638ZM405.281 12.9446C405.06 12.9446 404.869 12.8707 404.71 12.723C404.554 12.5724 404.476 12.3935 404.476 12.1861C404.476 11.9759 404.554 11.7969 404.71 11.6491C404.869 11.4986 405.06 11.4233 405.281 11.4233C405.503 11.4233 405.692 11.4986 405.848 11.6491C406.007 11.7969 406.087 11.9759 406.087 12.1861C406.087 12.3935 406.007 12.5724 405.848 12.723C405.692 12.8707 405.503 12.9446 405.281 12.9446ZM412.531 15.5526L411.376 15.7571C411.328 15.6094 411.251 15.4687 411.146 15.3352C411.044 15.2017 410.904 15.0923 410.728 15.0071C410.552 14.9219 410.332 14.8793 410.068 14.8793C409.707 14.8793 409.406 14.9602 409.164 15.1222C408.923 15.2812 408.802 15.4872 408.802 15.7401C408.802 15.9588 408.883 16.1349 409.045 16.2685C409.207 16.402 409.468 16.5114 409.829 16.5966L410.869 16.8352C411.471 16.9744 411.92 17.1889 412.216 17.4787C412.511 17.7685 412.659 18.1449 412.659 18.608C412.659 19 412.545 19.3494 412.318 19.6562C412.093 19.9602 411.779 20.1989 411.376 20.3722C410.975 20.5455 410.511 20.6321 409.983 20.6321C409.25 20.6321 408.652 20.4759 408.189 20.1634C407.725 19.848 407.441 19.4006 407.336 18.821L408.568 18.6335C408.645 18.9545 408.802 19.1974 409.041 19.3622C409.279 19.5241 409.591 19.6051 409.974 19.6051C410.392 19.6051 410.725 19.5185 410.975 19.3452C411.225 19.169 411.35 18.9545 411.35 18.7017C411.35 18.4972 411.274 18.3253 411.12 18.1861C410.97 18.0469 410.738 17.9418 410.426 17.8707L409.318 17.6278C408.707 17.4886 408.255 17.267 407.963 16.9631C407.673 16.6591 407.528 16.2741 407.528 15.8082C407.528 15.4219 407.636 15.0838 407.852 14.794C408.068 14.5043 408.366 14.2784 408.747 14.1165C409.127 13.9517 409.564 13.8693 410.055 13.8693C410.762 13.8693 411.319 14.0227 411.725 14.3295C412.132 14.6335 412.4 15.0412 412.531 15.5526ZM415.964 20.6449C415.55 20.6449 415.175 20.5682 414.839 20.4148C414.504 20.2585 414.239 20.0327 414.043 19.7372C413.849 19.4418 413.753 19.0795 413.753 18.6506C413.753 18.2812 413.824 17.9773 413.966 17.7386C414.108 17.5 414.3 17.3111 414.541 17.1719C414.783 17.0327 415.053 16.9276 415.351 16.8565C415.649 16.7855 415.953 16.7315 416.263 16.6946C416.655 16.6491 416.973 16.6122 417.217 16.5838C417.462 16.5526 417.639 16.5028 417.75 16.4347C417.861 16.3665 417.916 16.2557 417.916 16.1023V16.0724C417.916 15.7003 417.811 15.4119 417.601 15.2074C417.393 15.0028 417.084 14.9006 416.672 14.9006C416.243 14.9006 415.905 14.9957 415.658 15.1861C415.413 15.3736 415.244 15.5824 415.151 15.8125L413.953 15.5398C414.095 15.142 414.303 14.821 414.575 14.5767C414.851 14.3295 415.168 14.1506 415.526 14.0398C415.884 13.9261 416.26 13.8693 416.655 13.8693C416.916 13.8693 417.193 13.9006 417.486 13.9631C417.781 14.0227 418.057 14.1335 418.312 14.2955C418.571 14.4574 418.783 14.6889 418.947 14.9901C419.112 15.2884 419.195 15.6761 419.195 16.1534V20.5H417.95V19.6051H417.899C417.817 19.7699 417.693 19.9318 417.528 20.0909C417.364 20.25 417.152 20.3821 416.893 20.4872C416.635 20.5923 416.325 20.6449 415.964 20.6449ZM416.241 19.6222C416.594 19.6222 416.895 19.5526 417.145 19.4134C417.398 19.2741 417.589 19.0923 417.72 18.8679C417.854 18.6406 417.92 18.3977 417.92 18.1392V17.2955C417.875 17.3409 417.787 17.3835 417.656 17.4233C417.528 17.4602 417.382 17.4929 417.217 17.5213C417.053 17.5469 416.892 17.571 416.736 17.5938C416.58 17.6136 416.449 17.6307 416.344 17.6449C416.097 17.6761 415.871 17.7287 415.666 17.8026C415.464 17.8764 415.303 17.983 415.18 18.1222C415.061 18.2585 415.001 18.4403 415.001 18.6676C415.001 18.983 415.118 19.2216 415.351 19.3835C415.584 19.5426 415.881 19.6222 416.241 19.6222ZM420.994 20.5V11.7727H422.268V15.0156H422.345C422.419 14.8793 422.525 14.7216 422.664 14.5426C422.804 14.3636 422.997 14.2074 423.244 14.0739C423.491 13.9375 423.818 13.8693 424.224 13.8693C424.752 13.8693 425.224 14.0028 425.639 14.2699C426.054 14.5369 426.379 14.9219 426.615 15.4247C426.853 15.9276 426.973 16.5327 426.973 17.2401C426.973 17.9474 426.855 18.554 426.619 19.0597C426.383 19.5625 426.059 19.9503 425.647 20.223C425.235 20.4929 424.765 20.6278 424.237 20.6278C423.839 20.6278 423.514 20.5611 423.261 20.4276C423.011 20.294 422.815 20.1378 422.673 19.9588C422.531 19.7798 422.422 19.6207 422.345 19.4815H422.238V20.5H420.994ZM422.243 17.2273C422.243 17.6875 422.309 18.0909 422.443 18.4375C422.576 18.7841 422.77 19.0554 423.022 19.2514C423.275 19.4446 423.585 19.5412 423.951 19.5412C424.332 19.5412 424.65 19.4403 424.906 19.2386C425.162 19.0341 425.355 18.7571 425.485 18.4077C425.619 18.0582 425.686 17.6648 425.686 17.2273C425.686 16.7955 425.62 16.4077 425.49 16.0639C425.362 15.7202 425.169 15.4489 424.91 15.25C424.654 15.0511 424.335 14.9517 423.951 14.9517C423.582 14.9517 423.27 15.0469 423.014 15.2372C422.761 15.4276 422.569 15.6932 422.439 16.0341C422.308 16.375 422.243 16.7727 422.243 17.2273ZM429.678 11.7727V20.5H428.403V11.7727H429.678ZM434.213 20.6321C433.568 20.6321 433.012 20.4943 432.547 20.2188C432.083 19.9403 431.725 19.5497 431.473 19.0469C431.223 18.5412 431.098 17.9489 431.098 17.2699C431.098 16.5994 431.223 16.0085 431.473 15.4972C431.725 14.9858 432.078 14.5866 432.529 14.2997C432.984 14.0128 433.515 13.8693 434.123 13.8693C434.493 13.8693 434.85 13.9304 435.197 14.0526C435.544 14.1747 435.855 14.3665 436.13 14.6278C436.406 14.8892 436.623 15.2287 436.782 15.6463C436.941 16.0611 437.021 16.5653 437.021 17.1591V17.6108H431.818V16.6562H435.772C435.772 16.321 435.704 16.0241 435.568 15.7656C435.431 15.5043 435.24 15.2983 434.993 15.1477C434.748 14.9972 434.461 14.9219 434.132 14.9219C433.774 14.9219 433.461 15.0099 433.194 15.1861C432.93 15.3594 432.725 15.5866 432.581 15.8679C432.439 16.1463 432.368 16.4489 432.368 16.7756V17.5213C432.368 17.9588 432.444 18.331 432.598 18.6378C432.754 18.9446 432.971 19.179 433.25 19.3409C433.528 19.5 433.853 19.5795 434.225 19.5795C434.467 19.5795 434.687 19.5455 434.886 19.4773C435.085 19.4062 435.257 19.3011 435.402 19.1619C435.547 19.0227 435.657 18.8509 435.734 18.6463L436.94 18.8636C436.843 19.2187 436.67 19.5298 436.42 19.7969C436.173 20.0611 435.862 20.267 435.487 20.4148C435.115 20.5597 434.69 20.6321 434.213 20.6321ZM440.885 20.6278C440.357 20.6278 439.885 20.4929 439.47 20.223C439.058 19.9503 438.734 19.5625 438.499 19.0597C438.266 18.554 438.149 17.9474 438.149 17.2401C438.149 16.5327 438.267 15.9276 438.503 15.4247C438.741 14.9219 439.068 14.5369 439.483 14.2699C439.898 14.0028 440.368 13.8693 440.893 13.8693C441.3 13.8693 441.626 13.9375 441.874 14.0739C442.124 14.2074 442.317 14.3636 442.453 14.5426C442.592 14.7216 442.7 14.8793 442.777 15.0156H442.854V11.7727H444.128V20.5H442.884V19.4815H442.777C442.7 19.6207 442.589 19.7798 442.445 19.9588C442.303 20.1378 442.107 20.294 441.857 20.4276C441.607 20.5611 441.283 20.6278 440.885 20.6278ZM441.166 19.5412C441.533 19.5412 441.842 19.4446 442.095 19.2514C442.351 19.0554 442.544 18.7841 442.675 18.4375C442.808 18.0909 442.875 17.6875 442.875 17.2273C442.875 16.7727 442.81 16.375 442.679 16.0341C442.548 15.6932 442.357 15.4276 442.104 15.2372C441.851 15.0469 441.538 14.9517 441.166 14.9517C440.783 14.9517 440.463 15.0511 440.207 15.25C439.952 15.4489 439.759 15.7202 439.628 16.0639C439.5 16.4077 439.436 16.7955 439.436 17.2273C439.436 17.6648 439.501 18.0582 439.632 18.4077C439.763 18.7571 439.956 19.0341 440.212 19.2386C440.47 19.4403 440.788 19.5412 441.166 19.5412Z" fill="#9098A2"/>
</svg>
