<svg width="362" height="33" viewBox="0 0 362 33" fill="none" xmlns="http://www.w3.org/2000/svg">
<path d="M6 0.5H147C150.038 0.5 152.5 2.96243 152.5 6V27C152.5 30.0376 150.038 32.5 147 32.5H6C2.96243 32.5 0.5 30.0376 0.5 27V6C0.5 2.96243 2.96243 0.5 6 0.5Z" stroke="#E5E7EB"/>
<path d="M19.3333 11.8332C19.3332 11.5986 19.395 11.3682 19.5125 11.1651C19.63 10.962 19.799 10.7936 20.0024 10.6767C20.2058 10.5598 20.4365 10.4987 20.6711 10.4995C20.9057 10.5003 21.136 10.563 21.3386 10.6812L29.3366 15.3466C29.5384 15.4637 29.706 15.6317 29.8225 15.8339C29.9391 16.0361 30.0005 16.2653 30.0007 16.4987C30.0009 16.732 29.9399 16.9614 29.8237 17.1637C29.7075 17.3661 29.5402 17.5344 29.3386 17.6519L21.3386 22.3186C21.136 22.4368 20.9057 22.4995 20.6711 22.5003C20.4365 22.5011 20.2058 22.44 20.0024 22.3231C19.799 22.2062 19.63 22.0378 19.5125 21.8347C19.395 21.6317 19.3332 21.4012 19.3333 21.1666V11.8332Z" stroke="#4A5568" stroke-width="1.33333" stroke-linecap="round" stroke-linejoin="round"/>
<path d="M44.4148 22H41.1186V11.8182H44.5192C45.5168 11.8182 46.3736 12.022 47.0895 12.4297C47.8054 12.834 48.3539 13.4157 48.7351 14.1747C49.1196 14.9304 49.3118 15.8369 49.3118 16.8942C49.3118 17.9548 49.1179 18.8662 48.7301 19.6286C48.3456 20.3909 47.7888 20.9775 47.0597 21.3885C46.3305 21.7962 45.4489 22 44.4148 22ZM42.6548 20.6577H44.3303C45.1058 20.6577 45.7505 20.5118 46.2642 20.2202C46.7779 19.9252 47.1624 19.4993 47.4176 18.9425C47.6728 18.3823 47.8004 17.6996 47.8004 16.8942C47.8004 16.0954 47.6728 15.4176 47.4176 14.8608C47.1657 14.304 46.7895 13.8814 46.2891 13.593C45.7886 13.3047 45.1671 13.1605 44.4247 13.1605H42.6548V20.6577ZM54.394 22.1541C53.6416 22.1541 52.9937 21.9934 52.4501 21.6719C51.9099 21.3471 51.4922 20.8913 51.1973 20.3047C50.9056 19.7147 50.7598 19.0237 50.7598 18.2315C50.7598 17.4493 50.9056 16.7599 51.1973 16.1634C51.4922 15.5668 51.9032 15.1011 52.4302 14.7663C52.9605 14.4316 53.5803 14.2642 54.2896 14.2642C54.7205 14.2642 55.1381 14.3355 55.5424 14.478C55.9468 14.6205 56.3097 14.8442 56.6312 15.1491C56.9527 15.4541 57.2063 15.8501 57.3919 16.3374C57.5775 16.8213 57.6703 17.4096 57.6703 18.1023V18.6293H51.6V17.5156H56.2136C56.2136 17.1245 56.1341 16.7782 55.975 16.4766C55.8159 16.1716 55.5922 15.9313 55.3038 15.7557C55.0188 15.58 54.684 15.4922 54.2995 15.4922C53.8819 15.4922 53.5173 15.5949 53.2058 15.8004C52.8975 16.0026 52.6589 16.2678 52.4899 16.5959C52.3242 16.9207 52.2413 17.2737 52.2413 17.6548V18.5249C52.2413 19.0353 52.3308 19.4695 52.5098 19.8274C52.6921 20.1854 52.9456 20.4588 53.2704 20.6477C53.5952 20.8333 53.9747 20.9261 54.4089 20.9261C54.6906 20.9261 54.9475 20.8864 55.1795 20.8068C55.4115 20.724 55.612 20.6013 55.7811 20.4389C55.9501 20.2765 56.0794 20.076 56.1689 19.8374L57.5758 20.0909C57.4631 20.5052 57.2609 20.8681 56.9693 21.1797C56.6809 21.4879 56.318 21.7282 55.8805 21.9006C55.4463 22.0696 54.9508 22.1541 54.394 22.1541ZM62.9538 14.3636V15.5568H58.6385V14.3636H62.9538ZM59.8217 22V13.4787C59.8217 13.0014 59.9261 12.6053 60.1349 12.2905C60.3438 11.9723 60.6205 11.7353 60.9652 11.5795C61.3099 11.4205 61.6844 11.3409 62.0888 11.3409C62.3871 11.3409 62.6423 11.3658 62.8544 11.4155C63.0665 11.4619 63.224 11.505 63.3267 11.5447L62.9787 12.7479C62.9091 12.728 62.8196 12.7048 62.7102 12.6783C62.6009 12.6484 62.4683 12.6335 62.3125 12.6335C61.9512 12.6335 61.6927 12.723 61.5369 12.902C61.3845 13.081 61.3082 13.3395 61.3082 13.6776V22H59.8217ZM66.4775 22.169C65.9935 22.169 65.556 22.0795 65.165 21.9006C64.7739 21.7183 64.464 21.4548 64.2353 21.1101C64.0099 20.7654 63.8972 20.3428 63.8972 19.8423C63.8972 19.4115 63.9801 19.0568 64.1458 18.7784C64.3115 18.5 64.5352 18.2796 64.8169 18.1172C65.0987 17.9548 65.4135 17.8321 65.7615 17.7493C66.1096 17.6664 66.4642 17.6035 66.8255 17.5604C67.2828 17.5073 67.6541 17.4643 67.9391 17.4311C68.2241 17.3946 68.4313 17.3366 68.5605 17.2571C68.6898 17.1776 68.7544 17.0483 68.7544 16.8693V16.8345C68.7544 16.4003 68.6318 16.0639 68.3865 15.8253C68.1446 15.5866 67.7833 15.4673 67.3027 15.4673C66.8023 15.4673 66.4078 15.5784 66.1195 15.8004C65.8345 16.0192 65.6373 16.2628 65.5279 16.5312L64.1309 16.2131C64.2966 15.7491 64.5385 15.3745 64.8567 15.0895C65.1782 14.8011 65.5478 14.5923 65.9654 14.4631C66.383 14.3305 66.8221 14.2642 67.2828 14.2642C67.5878 14.2642 67.9109 14.3007 68.2523 14.3736C68.597 14.4432 68.9185 14.5724 69.2168 14.7614C69.5184 14.9503 69.7653 15.2204 69.9576 15.5717C70.1498 15.9197 70.2459 16.3722 70.2459 16.929V22H68.7942V20.956H68.7346C68.6384 21.1482 68.4943 21.3371 68.302 21.5227C68.1098 21.7083 67.8629 21.8625 67.5613 21.9851C67.2596 22.1077 66.8984 22.169 66.4775 22.169ZM66.8006 20.9759C67.2116 20.9759 67.5629 20.8946 67.8546 20.7322C68.1496 20.5698 68.3733 20.3577 68.5257 20.0959C68.6815 19.8307 68.7594 19.5473 68.7594 19.2457V18.2614C68.7064 18.3144 68.6036 18.3641 68.4512 18.4105C68.302 18.4536 68.1313 18.4917 67.9391 18.5249C67.7469 18.5547 67.5596 18.5829 67.3773 18.6094C67.195 18.6326 67.0426 18.6525 66.9199 18.669C66.6316 18.7055 66.3681 18.7668 66.1294 18.853C65.8941 18.9392 65.7052 19.0634 65.5627 19.2259C65.4235 19.3849 65.3539 19.5971 65.3539 19.8622C65.3539 20.2301 65.4898 20.5085 65.7615 20.6974C66.0333 20.883 66.3797 20.9759 66.8006 20.9759ZM77.0632 18.8331V14.3636H78.5547V22H77.093V20.6776H77.0135C76.8378 21.0852 76.5561 21.425 76.1683 21.6967C75.7839 21.9652 75.3049 22.0994 74.7315 22.0994C74.241 22.0994 73.8068 21.9917 73.429 21.7763C73.0545 21.5575 72.7595 21.2344 72.544 20.8068C72.3319 20.3793 72.2259 19.8506 72.2259 19.2209V14.3636H73.7124V19.0419C73.7124 19.5623 73.8565 19.9766 74.1449 20.2848C74.4332 20.593 74.8078 20.7472 75.2685 20.7472C75.5469 20.7472 75.8236 20.6776 76.0987 20.5384C76.3771 20.3991 76.6075 20.1887 76.7898 19.907C76.9754 19.6252 77.0665 19.2673 77.0632 18.8331ZM82.0385 11.8182V22H80.552V11.8182H82.0385ZM87.603 14.3636V15.5568H83.4318V14.3636H87.603ZM84.5504 12.5341H86.0369V19.7578C86.0369 20.0462 86.08 20.2633 86.1662 20.4091C86.2524 20.5516 86.3634 20.6494 86.4993 20.7024C86.6385 20.7521 86.7893 20.777 86.9517 20.777C87.071 20.777 87.1754 20.7687 87.2649 20.7521C87.3544 20.7356 87.424 20.7223 87.4737 20.7124L87.7422 21.9403C87.656 21.9735 87.5334 22.0066 87.3743 22.0398C87.2152 22.0762 87.0163 22.0961 86.7777 22.0994C86.3866 22.1061 86.022 22.0365 85.6839 21.8906C85.3459 21.7448 85.0724 21.5194 84.8636 21.2145C84.6548 20.9096 84.5504 20.5268 84.5504 20.0661V12.5341ZM93.0717 22V11.8182H94.5582V15.6016H94.6477C94.7339 15.4425 94.8582 15.2585 95.0206 15.0497C95.183 14.8409 95.4084 14.6586 95.6967 14.5028C95.9851 14.3438 96.3662 14.2642 96.8402 14.2642C97.4567 14.2642 98.0069 14.42 98.4908 14.7315C98.9747 15.0431 99.3542 15.4922 99.6293 16.0788C99.9077 16.6655 100.047 17.3714 100.047 18.1967C100.047 19.022 99.9093 19.7296 99.6342 20.3196C99.3591 20.9062 98.9813 21.3587 98.5007 21.6768C98.0201 21.9917 97.4716 22.1491 96.8551 22.1491C96.3911 22.1491 96.0116 22.0713 95.7166 21.9155C95.425 21.7597 95.1963 21.5774 95.0305 21.3686C94.8648 21.1598 94.7372 20.9742 94.6477 20.8118H94.5234V22H93.0717ZM94.5284 18.1818C94.5284 18.7187 94.6063 19.1894 94.7621 19.5938C94.9179 19.9981 95.1432 20.3146 95.4382 20.5433C95.7332 20.7687 96.0945 20.8814 96.522 20.8814C96.9661 20.8814 97.3374 20.7637 97.6357 20.5284C97.9339 20.2898 98.1593 19.9666 98.3118 19.5589C98.4676 19.1513 98.5455 18.6922 98.5455 18.1818C98.5455 17.678 98.4692 17.2256 98.3168 16.8246C98.1676 16.4235 97.9422 16.107 97.6406 15.875C97.3423 15.643 96.9695 15.527 96.522 15.527C96.0911 15.527 95.7266 15.638 95.4283 15.8601C95.1333 16.0821 94.9096 16.392 94.7571 16.7898C94.6046 17.1875 94.5284 17.6515 94.5284 18.1818ZM106.553 18.8331V14.3636H108.045V22H106.583V20.6776H106.504C106.328 21.0852 106.046 21.425 105.659 21.6967C105.274 21.9652 104.795 22.0994 104.222 22.0994C103.731 22.0994 103.297 21.9917 102.919 21.7763C102.545 21.5575 102.25 21.2344 102.034 20.8068C101.822 20.3793 101.716 19.8506 101.716 19.2209V14.3636H103.203V19.0419C103.203 19.5623 103.347 19.9766 103.635 20.2848C103.923 20.593 104.298 20.7472 104.759 20.7472C105.037 20.7472 105.314 20.6776 105.589 20.5384C105.867 20.3991 106.098 20.1887 106.28 19.907C106.466 19.6252 106.557 19.2673 106.553 18.8331ZM113.607 14.3636V15.5568H109.436V14.3636H113.607ZM110.554 12.5341H112.041V19.7578C112.041 20.0462 112.084 20.2633 112.17 20.4091C112.256 20.5516 112.367 20.6494 112.503 20.7024C112.642 20.7521 112.793 20.777 112.956 20.777C113.075 20.777 113.179 20.7687 113.269 20.7521C113.358 20.7356 113.428 20.7223 113.478 20.7124L113.746 21.9403C113.66 21.9735 113.537 22.0066 113.378 22.0398C113.219 22.0762 113.02 22.0961 112.782 22.0994C112.391 22.1061 112.026 22.0365 111.688 21.8906C111.35 21.7448 111.076 21.5194 110.868 21.2145C110.659 20.9096 110.554 20.5268 110.554 20.0661V12.5341ZM118.816 14.3636V15.5568H114.645V14.3636H118.816ZM115.763 12.5341H117.25V19.7578C117.25 20.0462 117.293 20.2633 117.379 20.4091C117.465 20.5516 117.576 20.6494 117.712 20.7024C117.851 20.7521 118.002 20.777 118.165 20.777C118.284 20.777 118.388 20.7687 118.478 20.7521C118.567 20.7356 118.637 20.7223 118.687 20.7124L118.955 21.9403C118.869 21.9735 118.746 22.0066 118.587 22.0398C118.428 22.0762 118.229 22.0961 117.991 22.0994C117.599 22.1061 117.235 22.0365 116.897 21.8906C116.559 21.7448 116.285 21.5194 116.077 21.2145C115.868 20.9096 115.763 20.5268 115.763 20.0661V12.5341ZM123.595 22.1541C122.879 22.1541 122.254 21.9901 121.721 21.6619C121.187 21.3338 120.773 20.8748 120.478 20.2848C120.183 19.6948 120.035 19.0054 120.035 18.2166C120.035 17.4245 120.183 16.7318 120.478 16.1385C120.773 15.5452 121.187 15.0845 121.721 14.7564C122.254 14.4283 122.879 14.2642 123.595 14.2642C124.311 14.2642 124.935 14.4283 125.469 14.7564C126.003 15.0845 126.417 15.5452 126.712 16.1385C127.007 16.7318 127.154 17.4245 127.154 18.2166C127.154 19.0054 127.007 19.6948 126.712 20.2848C126.417 20.8748 126.003 21.3338 125.469 21.6619C124.935 21.9901 124.311 22.1541 123.595 22.1541ZM123.6 20.9062C124.064 20.9062 124.448 20.7836 124.753 20.5384C125.058 20.2931 125.283 19.9666 125.429 19.5589C125.578 19.1513 125.653 18.7022 125.653 18.2116C125.653 17.7244 125.578 17.277 125.429 16.8693C125.283 16.4583 125.058 16.1286 124.753 15.88C124.448 15.6314 124.064 15.5071 123.6 15.5071C123.132 15.5071 122.745 15.6314 122.436 15.88C122.132 16.1286 121.904 16.4583 121.755 16.8693C121.609 17.277 121.537 17.7244 121.537 18.2116C121.537 18.7022 121.609 19.1513 121.755 19.5589C121.904 19.9666 122.132 20.2931 122.436 20.5384C122.745 20.7836 123.132 20.9062 123.6 20.9062ZM130.3 17.4659V22H128.814V14.3636H130.241V15.6065H130.335C130.511 15.2022 130.786 14.8774 131.16 14.6321C131.538 14.3868 132.014 14.2642 132.587 14.2642C133.108 14.2642 133.563 14.3736 133.954 14.5923C134.345 14.8078 134.649 15.1293 134.864 15.5568C135.08 15.9844 135.187 16.513 135.187 17.1428V22H133.701V17.3217C133.701 16.7682 133.557 16.3357 133.268 16.0241C132.98 15.7093 132.584 15.5518 132.08 15.5518C131.735 15.5518 131.429 15.6264 131.16 15.7756C130.895 15.9247 130.685 16.1435 130.529 16.4318C130.376 16.7169 130.3 17.0616 130.3 17.4659Z" fill="#4A5568"/>
<path d="M163 0.5H304C307.038 0.5 309.5 2.96243 309.5 6V27C309.5 30.0376 307.038 32.5 304 32.5H163C159.962 32.5 157.5 30.0376 157.5 27V6C157.5 2.96243 159.962 0.5 163 0.5Z" stroke="#E5E7EB"/>
<path d="M176.333 11.8332C176.333 11.5986 176.395 11.3682 176.513 11.1651C176.63 10.962 176.799 10.7936 177.002 10.6767C177.206 10.5598 177.437 10.4987 177.671 10.4995C177.906 10.5003 178.136 10.563 178.339 10.6812L186.337 15.3466C186.538 15.4637 186.706 15.6317 186.823 15.8339C186.939 16.0361 187.001 16.2653 187.001 16.4987C187.001 16.732 186.94 16.9614 186.824 17.1637C186.708 17.3661 186.54 17.5344 186.339 17.6519L178.339 22.3186C178.136 22.4368 177.906 22.4995 177.671 22.5003C177.437 22.5011 177.206 22.44 177.002 22.3231C176.799 22.2062 176.63 22.0378 176.513 21.8347C176.395 21.6317 176.333 21.4012 176.333 21.1666V11.8332Z" stroke="#4A5568" stroke-width="1.33333" stroke-linecap="round" stroke-linejoin="round"/>
<path d="M201.415 22H198.119V11.8182H201.519C202.517 11.8182 203.374 12.022 204.089 12.4297C204.805 12.834 205.354 13.4157 205.735 14.1747C206.12 14.9304 206.312 15.8369 206.312 16.8942C206.312 17.9548 206.118 18.8662 205.73 19.6286C205.346 20.3909 204.789 20.9775 204.06 21.3885C203.33 21.7962 202.449 22 201.415 22ZM199.655 20.6577H201.33C202.106 20.6577 202.75 20.5118 203.264 20.2202C203.778 19.9252 204.162 19.4993 204.418 18.9425C204.673 18.3823 204.8 17.6996 204.8 16.8942C204.8 16.0954 204.673 15.4176 204.418 14.8608C204.166 14.304 203.79 13.8814 203.289 13.593C202.789 13.3047 202.167 13.1605 201.425 13.1605H199.655V20.6577ZM211.394 22.1541C210.642 22.1541 209.994 21.9934 209.45 21.6719C208.91 21.3471 208.492 20.8913 208.197 20.3047C207.906 19.7147 207.76 19.0237 207.76 18.2315C207.76 17.4493 207.906 16.7599 208.197 16.1634C208.492 15.5668 208.903 15.1011 209.43 14.7663C209.961 14.4316 210.58 14.2642 211.29 14.2642C211.72 14.2642 212.138 14.3355 212.542 14.478C212.947 14.6205 213.31 14.8442 213.631 15.1491C213.953 15.4541 214.206 15.8501 214.392 16.3374C214.577 16.8213 214.67 17.4096 214.67 18.1023V18.6293H208.6V17.5156H213.214C213.214 17.1245 213.134 16.7782 212.975 16.4766C212.816 16.1716 212.592 15.9313 212.304 15.7557C212.019 15.58 211.684 15.4922 211.3 15.4922C210.882 15.4922 210.517 15.5949 210.206 15.8004C209.898 16.0026 209.659 16.2678 209.49 16.5959C209.324 16.9207 209.241 17.2737 209.241 17.6548V18.5249C209.241 19.0353 209.331 19.4695 209.51 19.8274C209.692 20.1854 209.946 20.4588 210.27 20.6477C210.595 20.8333 210.975 20.9261 211.409 20.9261C211.691 20.9261 211.948 20.8864 212.18 20.8068C212.412 20.724 212.612 20.6013 212.781 20.4389C212.95 20.2765 213.079 20.076 213.169 19.8374L214.576 20.0909C214.463 20.5052 214.261 20.8681 213.969 21.1797C213.681 21.4879 213.318 21.7282 212.881 21.9006C212.446 22.0696 211.951 22.1541 211.394 22.1541ZM219.954 14.3636V15.5568H215.638V14.3636H219.954ZM216.822 22V13.4787C216.822 13.0014 216.926 12.6053 217.135 12.2905C217.344 11.9723 217.621 11.7353 217.965 11.5795C218.31 11.4205 218.684 11.3409 219.089 11.3409C219.387 11.3409 219.642 11.3658 219.854 11.4155C220.067 11.4619 220.224 11.505 220.327 11.5447L219.979 12.7479C219.909 12.728 219.82 12.7048 219.71 12.6783C219.601 12.6484 219.468 12.6335 219.312 12.6335C218.951 12.6335 218.693 12.723 218.537 12.902C218.384 13.081 218.308 13.3395 218.308 13.6776V22H216.822ZM223.477 22.169C222.994 22.169 222.556 22.0795 222.165 21.9006C221.774 21.7183 221.464 21.4548 221.235 21.1101C221.01 20.7654 220.897 20.3428 220.897 19.8423C220.897 19.4115 220.98 19.0568 221.146 18.7784C221.311 18.5 221.535 18.2796 221.817 18.1172C222.099 17.9548 222.414 17.8321 222.762 17.7493C223.11 17.6664 223.464 17.6035 223.825 17.5604C224.283 17.5073 224.654 17.4643 224.939 17.4311C225.224 17.3946 225.431 17.3366 225.561 17.2571C225.69 17.1776 225.754 17.0483 225.754 16.8693V16.8345C225.754 16.4003 225.632 16.0639 225.387 15.8253C225.145 15.5866 224.783 15.4673 224.303 15.4673C223.802 15.4673 223.408 15.5784 223.119 15.8004C222.834 16.0192 222.637 16.2628 222.528 16.5312L221.131 16.2131C221.297 15.7491 221.539 15.3745 221.857 15.0895C222.178 14.8011 222.548 14.5923 222.965 14.4631C223.383 14.3305 223.822 14.2642 224.283 14.2642C224.588 14.2642 224.911 14.3007 225.252 14.3736C225.597 14.4432 225.919 14.5724 226.217 14.7614C226.518 14.9503 226.765 15.2204 226.958 15.5717C227.15 15.9197 227.246 16.3722 227.246 16.929V22H225.794V20.956H225.735C225.638 21.1482 225.494 21.3371 225.302 21.5227C225.11 21.7083 224.863 21.8625 224.561 21.9851C224.26 22.1077 223.898 22.169 223.477 22.169ZM223.801 20.9759C224.212 20.9759 224.563 20.8946 224.855 20.7322C225.15 20.5698 225.373 20.3577 225.526 20.0959C225.682 19.8307 225.759 19.5473 225.759 19.2457V18.2614C225.706 18.3144 225.604 18.3641 225.451 18.4105C225.302 18.4536 225.131 18.4917 224.939 18.5249C224.747 18.5547 224.56 18.5829 224.377 18.6094C224.195 18.6326 224.043 18.6525 223.92 18.669C223.632 18.7055 223.368 18.7668 223.129 18.853C222.894 18.9392 222.705 19.0634 222.563 19.2259C222.423 19.3849 222.354 19.5971 222.354 19.8622C222.354 20.2301 222.49 20.5085 222.762 20.6974C223.033 20.883 223.38 20.9759 223.801 20.9759ZM234.063 18.8331V14.3636H235.555V22H234.093V20.6776H234.013C233.838 21.0852 233.556 21.425 233.168 21.6967C232.784 21.9652 232.305 22.0994 231.732 22.0994C231.241 22.0994 230.807 21.9917 230.429 21.7763C230.054 21.5575 229.759 21.2344 229.544 20.8068C229.332 20.3793 229.226 19.8506 229.226 19.2209V14.3636H230.712V19.0419C230.712 19.5623 230.857 19.9766 231.145 20.2848C231.433 20.593 231.808 20.7472 232.268 20.7472C232.547 20.7472 232.824 20.6776 233.099 20.5384C233.377 20.3991 233.607 20.1887 233.79 19.907C233.975 19.6252 234.067 19.2673 234.063 18.8331ZM239.039 11.8182V22H237.552V11.8182H239.039ZM244.603 14.3636V15.5568H240.432V14.3636H244.603ZM241.55 12.5341H243.037V19.7578C243.037 20.0462 243.08 20.2633 243.166 20.4091C243.252 20.5516 243.363 20.6494 243.499 20.7024C243.638 20.7521 243.789 20.777 243.952 20.777C244.071 20.777 244.175 20.7687 244.265 20.7521C244.354 20.7356 244.424 20.7223 244.474 20.7124L244.742 21.9403C244.656 21.9735 244.533 22.0066 244.374 22.0398C244.215 22.0762 244.016 22.0961 243.778 22.0994C243.387 22.1061 243.022 22.0365 242.684 21.8906C242.346 21.7448 242.072 21.5194 241.864 21.2145C241.655 20.9096 241.55 20.5268 241.55 20.0661V12.5341ZM250.072 22V11.8182H251.558V15.6016H251.648C251.734 15.4425 251.858 15.2585 252.021 15.0497C252.183 14.8409 252.408 14.6586 252.697 14.5028C252.985 14.3438 253.366 14.2642 253.84 14.2642C254.457 14.2642 255.007 14.42 255.491 14.7315C255.975 15.0431 256.354 15.4922 256.629 16.0788C256.908 16.6655 257.047 17.3714 257.047 18.1967C257.047 19.022 256.909 19.7296 256.634 20.3196C256.359 20.9062 255.981 21.3587 255.501 21.6768C255.02 21.9917 254.472 22.1491 253.855 22.1491C253.391 22.1491 253.012 22.0713 252.717 21.9155C252.425 21.7597 252.196 21.5774 252.031 21.3686C251.865 21.1598 251.737 20.9742 251.648 20.8118H251.523V22H250.072ZM251.528 18.1818C251.528 18.7187 251.606 19.1894 251.762 19.5938C251.918 19.9981 252.143 20.3146 252.438 20.5433C252.733 20.7687 253.094 20.8814 253.522 20.8814C253.966 20.8814 254.337 20.7637 254.636 20.5284C254.934 20.2898 255.159 19.9666 255.312 19.5589C255.468 19.1513 255.545 18.6922 255.545 18.1818C255.545 17.678 255.469 17.2256 255.317 16.8246C255.168 16.4235 254.942 16.107 254.641 15.875C254.342 15.643 253.969 15.527 253.522 15.527C253.091 15.527 252.727 15.638 252.428 15.8601C252.133 16.0821 251.91 16.392 251.757 16.7898C251.605 17.1875 251.528 17.6515 251.528 18.1818ZM263.553 18.8331V14.3636H265.045V22H263.583V20.6776H263.504C263.328 21.0852 263.046 21.425 262.659 21.6967C262.274 21.9652 261.795 22.0994 261.222 22.0994C260.731 22.0994 260.297 21.9917 259.919 21.7763C259.545 21.5575 259.25 21.2344 259.034 20.8068C258.822 20.3793 258.716 19.8506 258.716 19.2209V14.3636H260.203V19.0419C260.203 19.5623 260.347 19.9766 260.635 20.2848C260.923 20.593 261.298 20.7472 261.759 20.7472C262.037 20.7472 262.314 20.6776 262.589 20.5384C262.867 20.3991 263.098 20.1887 263.28 19.907C263.466 19.6252 263.557 19.2673 263.553 18.8331ZM270.607 14.3636V15.5568H266.436V14.3636H270.607ZM267.554 12.5341H269.041V19.7578C269.041 20.0462 269.084 20.2633 269.17 20.4091C269.256 20.5516 269.367 20.6494 269.503 20.7024C269.642 20.7521 269.793 20.777 269.956 20.777C270.075 20.777 270.179 20.7687 270.269 20.7521C270.358 20.7356 270.428 20.7223 270.478 20.7124L270.746 21.9403C270.66 21.9735 270.537 22.0066 270.378 22.0398C270.219 22.0762 270.02 22.0961 269.782 22.0994C269.391 22.1061 269.026 22.0365 268.688 21.8906C268.35 21.7448 268.076 21.5194 267.868 21.2145C267.659 20.9096 267.554 20.5268 267.554 20.0661V12.5341ZM275.816 14.3636V15.5568H271.645V14.3636H275.816ZM272.763 12.5341H274.25V19.7578C274.25 20.0462 274.293 20.2633 274.379 20.4091C274.465 20.5516 274.576 20.6494 274.712 20.7024C274.851 20.7521 275.002 20.777 275.165 20.777C275.284 20.777 275.388 20.7687 275.478 20.7521C275.567 20.7356 275.637 20.7223 275.687 20.7124L275.955 21.9403C275.869 21.9735 275.746 22.0066 275.587 22.0398C275.428 22.0762 275.229 22.0961 274.991 22.0994C274.599 22.1061 274.235 22.0365 273.897 21.8906C273.559 21.7448 273.285 21.5194 273.077 21.2145C272.868 20.9096 272.763 20.5268 272.763 20.0661V12.5341ZM280.595 22.1541C279.879 22.1541 279.254 21.9901 278.721 21.6619C278.187 21.3338 277.773 20.8748 277.478 20.2848C277.183 19.6948 277.035 19.0054 277.035 18.2166C277.035 17.4245 277.183 16.7318 277.478 16.1385C277.773 15.5452 278.187 15.0845 278.721 14.7564C279.254 14.4283 279.879 14.2642 280.595 14.2642C281.311 14.2642 281.935 14.4283 282.469 14.7564C283.003 15.0845 283.417 15.5452 283.712 16.1385C284.007 16.7318 284.154 17.4245 284.154 18.2166C284.154 19.0054 284.007 19.6948 283.712 20.2848C283.417 20.8748 283.003 21.3338 282.469 21.6619C281.935 21.9901 281.311 22.1541 280.595 22.1541ZM280.6 20.9062C281.064 20.9062 281.448 20.7836 281.753 20.5384C282.058 20.2931 282.283 19.9666 282.429 19.5589C282.578 19.1513 282.653 18.7022 282.653 18.2116C282.653 17.7244 282.578 17.277 282.429 16.8693C282.283 16.4583 282.058 16.1286 281.753 15.88C281.448 15.6314 281.064 15.5071 280.6 15.5071C280.132 15.5071 279.745 15.6314 279.436 15.88C279.132 16.1286 278.904 16.4583 278.755 16.8693C278.609 17.277 278.537 17.7244 278.537 18.2116C278.537 18.7022 278.609 19.1513 278.755 19.5589C278.904 19.9666 279.132 20.2931 279.436 20.5384C279.745 20.7836 280.132 20.9062 280.6 20.9062ZM287.3 17.4659V22H285.814V14.3636H287.241V15.6065H287.335C287.511 15.2022 287.786 14.8774 288.16 14.6321C288.538 14.3868 289.014 14.2642 289.587 14.2642C290.108 14.2642 290.563 14.3736 290.954 14.5923C291.345 14.8078 291.649 15.1293 291.864 15.5568C292.08 15.9844 292.187 16.513 292.187 17.1428V22H290.701V17.3217C290.701 16.7682 290.557 16.3357 290.268 16.0241C289.98 15.7093 289.584 15.5518 289.08 15.5518C288.735 15.5518 288.429 15.6264 288.16 15.7756C287.895 15.9247 287.685 16.1435 287.529 16.4318C287.376 16.7169 287.3 17.0616 287.3 17.4659Z" fill="#4A5568"/>
<path d="M320 0.5H356C359.038 0.5 361.5 2.96243 361.5 6V27C361.5 30.0376 359.038 32.5 356 32.5H320C316.962 32.5 314.5 30.0376 314.5 27V6C314.5 2.96243 316.962 0.5 320 0.5Z" stroke="#E5E7EB"/>
<path d="M333.333 11.8332C333.333 11.5986 333.395 11.3682 333.513 11.1651C333.63 10.962 333.799 10.7936 334.002 10.6767C334.206 10.5598 334.437 10.4987 334.671 10.4995C334.906 10.5003 335.136 10.563 335.339 10.6812L343.337 15.3466C343.538 15.4637 343.706 15.6317 343.823 15.8339C343.939 16.0361 344.001 16.2653 344.001 16.4987C344.001 16.732 343.94 16.9614 343.824 17.1637C343.708 17.3661 343.54 17.5344 343.339 17.6519L335.339 22.3186C335.136 22.4368 334.906 22.4995 334.671 22.5003C334.437 22.5011 334.206 22.44 334.002 22.3231C333.799 22.2062 333.63 22.0378 333.513 21.8347C333.395 21.6317 333.333 21.4012 333.333 21.1666V11.8332Z" stroke="#4A5568" stroke-width="1.33333" stroke-linecap="round" stroke-linejoin="round"/>
</svg>
