<svg width="677" height="33" viewBox="0 0 677 33" fill="none" xmlns="http://www.w3.org/2000/svg">
<path d="M6 0.5H147C150.038 0.5 152.5 2.96243 152.5 6V27C152.5 30.0376 150.038 32.5 147 32.5H6C2.96243 32.5 0.5 30.0376 0.5 27V6C0.5 2.96243 2.96243 0.5 6 0.5Z" stroke="#E5E7EB"/>
<path d="M19.3333 11.8332C19.3332 11.5986 19.395 11.3682 19.5125 11.1651C19.63 10.962 19.799 10.7936 20.0024 10.6767C20.2058 10.5598 20.4365 10.4987 20.6711 10.4995C20.9057 10.5003 21.136 10.563 21.3386 10.6812L29.3366 15.3466C29.5384 15.4637 29.706 15.6317 29.8225 15.8339C29.9391 16.0361 30.0005 16.2653 30.0007 16.4987C30.0009 16.732 29.9399 16.9614 29.8237 17.1637C29.7075 17.3661 29.5402 17.5344 29.3386 17.6519L21.3386 22.3186C21.136 22.4368 20.9057 22.4995 20.6711 22.5003C20.4365 22.5011 20.2058 22.44 20.0024 22.3231C19.799 22.2062 19.63 22.0378 19.5125 21.8347C19.395 21.6317 19.3332 21.4012 19.3333 21.1666V11.8332Z" stroke="#4A5568" stroke-width="1.33333" stroke-linecap="round" stroke-linejoin="round"/>
<path d="M44.4148 22H41.1186V11.8182H44.5192C45.5168 11.8182 46.3736 12.022 47.0895 12.4297C47.8054 12.834 48.3539 13.4157 48.7351 14.1747C49.1196 14.9304 49.3118 15.8369 49.3118 16.8942C49.3118 17.9548 49.1179 18.8662 48.7301 19.6286C48.3456 20.3909 47.7888 20.9775 47.0597 21.3885C46.3305 21.7962 45.4489 22 44.4148 22ZM42.6548 20.6577H44.3303C45.1058 20.6577 45.7505 20.5118 46.2642 20.2202C46.7779 19.9252 47.1624 19.4993 47.4176 18.9425C47.6728 18.3823 47.8004 17.6996 47.8004 16.8942C47.8004 16.0954 47.6728 15.4176 47.4176 14.8608C47.1657 14.304 46.7895 13.8814 46.2891 13.593C45.7886 13.3047 45.1671 13.1605 44.4247 13.1605H42.6548V20.6577ZM54.394 22.1541C53.6416 22.1541 52.9937 21.9934 52.4501 21.6719C51.9099 21.3471 51.4922 20.8913 51.1973 20.3047C50.9056 19.7147 50.7598 19.0237 50.7598 18.2315C50.7598 17.4493 50.9056 16.7599 51.1973 16.1634C51.4922 15.5668 51.9032 15.1011 52.4302 14.7663C52.9605 14.4316 53.5803 14.2642 54.2896 14.2642C54.7205 14.2642 55.1381 14.3355 55.5424 14.478C55.9468 14.6205 56.3097 14.8442 56.6312 15.1491C56.9527 15.4541 57.2063 15.8501 57.3919 16.3374C57.5775 16.8213 57.6703 17.4096 57.6703 18.1023V18.6293H51.6V17.5156H56.2136C56.2136 17.1245 56.1341 16.7782 55.975 16.4766C55.8159 16.1716 55.5922 15.9313 55.3038 15.7557C55.0188 15.58 54.684 15.4922 54.2995 15.4922C53.8819 15.4922 53.5173 15.5949 53.2058 15.8004C52.8975 16.0026 52.6589 16.2678 52.4899 16.5959C52.3242 16.9207 52.2413 17.2737 52.2413 17.6548V18.5249C52.2413 19.0353 52.3308 19.4695 52.5098 19.8274C52.6921 20.1854 52.9456 20.4588 53.2704 20.6477C53.5952 20.8333 53.9747 20.9261 54.4089 20.9261C54.6906 20.9261 54.9475 20.8864 55.1795 20.8068C55.4115 20.724 55.612 20.6013 55.7811 20.4389C55.9501 20.2765 56.0794 20.076 56.1689 19.8374L57.5758 20.0909C57.4631 20.5052 57.2609 20.8681 56.9693 21.1797C56.6809 21.4879 56.318 21.7282 55.8805 21.9006C55.4463 22.0696 54.9508 22.1541 54.394 22.1541ZM62.9538 14.3636V15.5568H58.6385V14.3636H62.9538ZM59.8217 22V13.4787C59.8217 13.0014 59.9261 12.6053 60.1349 12.2905C60.3438 11.9723 60.6205 11.7353 60.9652 11.5795C61.3099 11.4205 61.6844 11.3409 62.0888 11.3409C62.3871 11.3409 62.6423 11.3658 62.8544 11.4155C63.0665 11.4619 63.224 11.505 63.3267 11.5447L62.9787 12.7479C62.9091 12.728 62.8196 12.7048 62.7102 12.6783C62.6009 12.6484 62.4683 12.6335 62.3125 12.6335C61.9512 12.6335 61.6927 12.723 61.5369 12.902C61.3845 13.081 61.3082 13.3395 61.3082 13.6776V22H59.8217ZM66.4775 22.169C65.9935 22.169 65.556 22.0795 65.165 21.9006C64.7739 21.7183 64.464 21.4548 64.2353 21.1101C64.0099 20.7654 63.8972 20.3428 63.8972 19.8423C63.8972 19.4115 63.9801 19.0568 64.1458 18.7784C64.3115 18.5 64.5352 18.2796 64.8169 18.1172C65.0987 17.9548 65.4135 17.8321 65.7615 17.7493C66.1096 17.6664 66.4642 17.6035 66.8255 17.5604C67.2828 17.5073 67.6541 17.4643 67.9391 17.4311C68.2241 17.3946 68.4313 17.3366 68.5605 17.2571C68.6898 17.1776 68.7544 17.0483 68.7544 16.8693V16.8345C68.7544 16.4003 68.6318 16.0639 68.3865 15.8253C68.1446 15.5866 67.7833 15.4673 67.3027 15.4673C66.8023 15.4673 66.4078 15.5784 66.1195 15.8004C65.8345 16.0192 65.6373 16.2628 65.5279 16.5312L64.1309 16.2131C64.2966 15.7491 64.5385 15.3745 64.8567 15.0895C65.1782 14.8011 65.5478 14.5923 65.9654 14.4631C66.383 14.3305 66.8221 14.2642 67.2828 14.2642C67.5878 14.2642 67.9109 14.3007 68.2523 14.3736C68.597 14.4432 68.9185 14.5724 69.2168 14.7614C69.5184 14.9503 69.7653 15.2204 69.9576 15.5717C70.1498 15.9197 70.2459 16.3722 70.2459 16.929V22H68.7942V20.956H68.7346C68.6384 21.1482 68.4943 21.3371 68.302 21.5227C68.1098 21.7083 67.8629 21.8625 67.5613 21.9851C67.2596 22.1077 66.8984 22.169 66.4775 22.169ZM66.8006 20.9759C67.2116 20.9759 67.5629 20.8946 67.8546 20.7322C68.1496 20.5698 68.3733 20.3577 68.5257 20.0959C68.6815 19.8307 68.7594 19.5473 68.7594 19.2457V18.2614C68.7064 18.3144 68.6036 18.3641 68.4512 18.4105C68.302 18.4536 68.1313 18.4917 67.9391 18.5249C67.7469 18.5547 67.5596 18.5829 67.3773 18.6094C67.195 18.6326 67.0426 18.6525 66.9199 18.669C66.6316 18.7055 66.3681 18.7668 66.1294 18.853C65.8941 18.9392 65.7052 19.0634 65.5627 19.2259C65.4235 19.3849 65.3539 19.5971 65.3539 19.8622C65.3539 20.2301 65.4898 20.5085 65.7615 20.6974C66.0333 20.883 66.3797 20.9759 66.8006 20.9759ZM77.0632 18.8331V14.3636H78.5547V22H77.093V20.6776H77.0135C76.8378 21.0852 76.5561 21.425 76.1683 21.6967C75.7839 21.9652 75.3049 22.0994 74.7315 22.0994C74.241 22.0994 73.8068 21.9917 73.429 21.7763C73.0545 21.5575 72.7595 21.2344 72.544 20.8068C72.3319 20.3793 72.2259 19.8506 72.2259 19.2209V14.3636H73.7124V19.0419C73.7124 19.5623 73.8565 19.9766 74.1449 20.2848C74.4332 20.593 74.8078 20.7472 75.2685 20.7472C75.5469 20.7472 75.8236 20.6776 76.0987 20.5384C76.3771 20.3991 76.6075 20.1887 76.7898 19.907C76.9754 19.6252 77.0665 19.2673 77.0632 18.8331ZM82.0385 11.8182V22H80.552V11.8182H82.0385ZM87.603 14.3636V15.5568H83.4318V14.3636H87.603ZM84.5504 12.5341H86.0369V19.7578C86.0369 20.0462 86.08 20.2633 86.1662 20.4091C86.2524 20.5516 86.3634 20.6494 86.4993 20.7024C86.6385 20.7521 86.7893 20.777 86.9517 20.777C87.071 20.777 87.1754 20.7687 87.2649 20.7521C87.3544 20.7356 87.424 20.7223 87.4737 20.7124L87.7422 21.9403C87.656 21.9735 87.5334 22.0066 87.3743 22.0398C87.2152 22.0762 87.0163 22.0961 86.7777 22.0994C86.3866 22.1061 86.022 22.0365 85.6839 21.8906C85.3459 21.7448 85.0724 21.5194 84.8636 21.2145C84.6548 20.9096 84.5504 20.5268 84.5504 20.0661V12.5341ZM93.0717 22V11.8182H94.5582V15.6016H94.6477C94.7339 15.4425 94.8582 15.2585 95.0206 15.0497C95.183 14.8409 95.4084 14.6586 95.6967 14.5028C95.9851 14.3438 96.3662 14.2642 96.8402 14.2642C97.4567 14.2642 98.0069 14.42 98.4908 14.7315C98.9747 15.0431 99.3542 15.4922 99.6293 16.0788C99.9077 16.6655 100.047 17.3714 100.047 18.1967C100.047 19.022 99.9093 19.7296 99.6342 20.3196C99.3591 20.9062 98.9813 21.3587 98.5007 21.6768C98.0201 21.9917 97.4716 22.1491 96.8551 22.1491C96.3911 22.1491 96.0116 22.0713 95.7166 21.9155C95.425 21.7597 95.1963 21.5774 95.0305 21.3686C94.8648 21.1598 94.7372 20.9742 94.6477 20.8118H94.5234V22H93.0717ZM94.5284 18.1818C94.5284 18.7187 94.6063 19.1894 94.7621 19.5938C94.9179 19.9981 95.1432 20.3146 95.4382 20.5433C95.7332 20.7687 96.0945 20.8814 96.522 20.8814C96.9661 20.8814 97.3374 20.7637 97.6357 20.5284C97.9339 20.2898 98.1593 19.9666 98.3118 19.5589C98.4676 19.1513 98.5455 18.6922 98.5455 18.1818C98.5455 17.678 98.4692 17.2256 98.3168 16.8246C98.1676 16.4235 97.9422 16.107 97.6406 15.875C97.3423 15.643 96.9695 15.527 96.522 15.527C96.0911 15.527 95.7266 15.638 95.4283 15.8601C95.1333 16.0821 94.9096 16.392 94.7571 16.7898C94.6046 17.1875 94.5284 17.6515 94.5284 18.1818ZM106.553 18.8331V14.3636H108.045V22H106.583V20.6776H106.504C106.328 21.0852 106.046 21.425 105.659 21.6967C105.274 21.9652 104.795 22.0994 104.222 22.0994C103.731 22.0994 103.297 21.9917 102.919 21.7763C102.545 21.5575 102.25 21.2344 102.034 20.8068C101.822 20.3793 101.716 19.8506 101.716 19.2209V14.3636H103.203V19.0419C103.203 19.5623 103.347 19.9766 103.635 20.2848C103.923 20.593 104.298 20.7472 104.759 20.7472C105.037 20.7472 105.314 20.6776 105.589 20.5384C105.867 20.3991 106.098 20.1887 106.28 19.907C106.466 19.6252 106.557 19.2673 106.553 18.8331ZM113.607 14.3636V15.5568H109.436V14.3636H113.607ZM110.554 12.5341H112.041V19.7578C112.041 20.0462 112.084 20.2633 112.17 20.4091C112.256 20.5516 112.367 20.6494 112.503 20.7024C112.642 20.7521 112.793 20.777 112.956 20.777C113.075 20.777 113.179 20.7687 113.269 20.7521C113.358 20.7356 113.428 20.7223 113.478 20.7124L113.746 21.9403C113.66 21.9735 113.537 22.0066 113.378 22.0398C113.219 22.0762 113.02 22.0961 112.782 22.0994C112.391 22.1061 112.026 22.0365 111.688 21.8906C111.35 21.7448 111.076 21.5194 110.868 21.2145C110.659 20.9096 110.554 20.5268 110.554 20.0661V12.5341ZM118.816 14.3636V15.5568H114.645V14.3636H118.816ZM115.763 12.5341H117.25V19.7578C117.25 20.0462 117.293 20.2633 117.379 20.4091C117.465 20.5516 117.576 20.6494 117.712 20.7024C117.851 20.7521 118.002 20.777 118.165 20.777C118.284 20.777 118.388 20.7687 118.478 20.7521C118.567 20.7356 118.637 20.7223 118.687 20.7124L118.955 21.9403C118.869 21.9735 118.746 22.0066 118.587 22.0398C118.428 22.0762 118.229 22.0961 117.991 22.0994C117.599 22.1061 117.235 22.0365 116.897 21.8906C116.559 21.7448 116.285 21.5194 116.077 21.2145C115.868 20.9096 115.763 20.5268 115.763 20.0661V12.5341ZM123.595 22.1541C122.879 22.1541 122.254 21.9901 121.721 21.6619C121.187 21.3338 120.773 20.8748 120.478 20.2848C120.183 19.6948 120.035 19.0054 120.035 18.2166C120.035 17.4245 120.183 16.7318 120.478 16.1385C120.773 15.5452 121.187 15.0845 121.721 14.7564C122.254 14.4283 122.879 14.2642 123.595 14.2642C124.311 14.2642 124.935 14.4283 125.469 14.7564C126.003 15.0845 126.417 15.5452 126.712 16.1385C127.007 16.7318 127.154 17.4245 127.154 18.2166C127.154 19.0054 127.007 19.6948 126.712 20.2848C126.417 20.8748 126.003 21.3338 125.469 21.6619C124.935 21.9901 124.311 22.1541 123.595 22.1541ZM123.6 20.9062C124.064 20.9062 124.448 20.7836 124.753 20.5384C125.058 20.2931 125.283 19.9666 125.429 19.5589C125.578 19.1513 125.653 18.7022 125.653 18.2116C125.653 17.7244 125.578 17.277 125.429 16.8693C125.283 16.4583 125.058 16.1286 124.753 15.88C124.448 15.6314 124.064 15.5071 123.6 15.5071C123.132 15.5071 122.745 15.6314 122.436 15.88C122.132 16.1286 121.904 16.4583 121.755 16.8693C121.609 17.277 121.537 17.7244 121.537 18.2116C121.537 18.7022 121.609 19.1513 121.755 19.5589C121.904 19.9666 122.132 20.2931 122.436 20.5384C122.745 20.7836 123.132 20.9062 123.6 20.9062ZM130.3 17.4659V22H128.814V14.3636H130.241V15.6065H130.335C130.511 15.2022 130.786 14.8774 131.16 14.6321C131.538 14.3868 132.014 14.2642 132.587 14.2642C133.108 14.2642 133.563 14.3736 133.954 14.5923C134.345 14.8078 134.649 15.1293 134.864 15.5568C135.08 15.9844 135.187 16.513 135.187 17.1428V22H133.701V17.3217C133.701 16.7682 133.557 16.3357 133.268 16.0241C132.98 15.7093 132.584 15.5518 132.08 15.5518C131.735 15.5518 131.429 15.6264 131.16 15.7756C130.895 15.9247 130.685 16.1435 130.529 16.4318C130.376 16.7169 130.3 17.0616 130.3 17.4659Z" fill="#4A5568"/>
<path d="M163 0.5H280C283.038 0.500002 285.5 2.96244 285.5 6V27C285.5 30.0376 283.038 32.5 280 32.5H163C159.962 32.5 157.5 30.0376 157.5 27V6C157.5 3.05741 159.811 0.654222 162.717 0.506836L163 0.5Z" stroke="#E5E7EB"/>
<path d="M177.415 22H174.119V11.8182H177.519C178.517 11.8182 179.374 12.022 180.089 12.4297C180.805 12.834 181.354 13.4157 181.735 14.1747C182.12 14.9304 182.312 15.8369 182.312 16.8942C182.312 17.9548 182.118 18.8662 181.73 19.6286C181.346 20.3909 180.789 20.9775 180.06 21.3885C179.33 21.7962 178.449 22 177.415 22ZM175.655 20.6577H177.33C178.106 20.6577 178.75 20.5118 179.264 20.2202C179.778 19.9252 180.162 19.4993 180.418 18.9425C180.673 18.3823 180.8 17.6996 180.8 16.8942C180.8 16.0954 180.673 15.4176 180.418 14.8608C180.166 14.304 179.79 13.8814 179.289 13.593C178.789 13.3047 178.167 13.1605 177.425 13.1605H175.655V20.6577ZM187.394 22.1541C186.642 22.1541 185.994 21.9934 185.45 21.6719C184.91 21.3471 184.492 20.8913 184.197 20.3047C183.906 19.7147 183.76 19.0237 183.76 18.2315C183.76 17.4493 183.906 16.7599 184.197 16.1634C184.492 15.5668 184.903 15.1011 185.43 14.7663C185.961 14.4316 186.58 14.2642 187.29 14.2642C187.72 14.2642 188.138 14.3355 188.542 14.478C188.947 14.6205 189.31 14.8442 189.631 15.1491C189.953 15.4541 190.206 15.8501 190.392 16.3374C190.577 16.8213 190.67 17.4096 190.67 18.1023V18.6293H184.6V17.5156H189.214C189.214 17.1245 189.134 16.7782 188.975 16.4766C188.816 16.1716 188.592 15.9313 188.304 15.7557C188.019 15.58 187.684 15.4922 187.3 15.4922C186.882 15.4922 186.517 15.5949 186.206 15.8004C185.898 16.0026 185.659 16.2678 185.49 16.5959C185.324 16.9207 185.241 17.2737 185.241 17.6548V18.5249C185.241 19.0353 185.331 19.4695 185.51 19.8274C185.692 20.1854 185.946 20.4588 186.27 20.6477C186.595 20.8333 186.975 20.9261 187.409 20.9261C187.691 20.9261 187.948 20.8864 188.18 20.8068C188.412 20.724 188.612 20.6013 188.781 20.4389C188.95 20.2765 189.079 20.076 189.169 19.8374L190.576 20.0909C190.463 20.5052 190.261 20.8681 189.969 21.1797C189.681 21.4879 189.318 21.7282 188.881 21.9006C188.446 22.0696 187.951 22.1541 187.394 22.1541ZM195.954 14.3636V15.5568H191.638V14.3636H195.954ZM192.822 22V13.4787C192.822 13.0014 192.926 12.6053 193.135 12.2905C193.344 11.9723 193.621 11.7353 193.965 11.5795C194.31 11.4205 194.684 11.3409 195.089 11.3409C195.387 11.3409 195.642 11.3658 195.854 11.4155C196.067 11.4619 196.224 11.505 196.327 11.5447L195.979 12.7479C195.909 12.728 195.82 12.7048 195.71 12.6783C195.601 12.6484 195.468 12.6335 195.312 12.6335C194.951 12.6335 194.693 12.723 194.537 12.902C194.384 13.081 194.308 13.3395 194.308 13.6776V22H192.822ZM199.477 22.169C198.994 22.169 198.556 22.0795 198.165 21.9006C197.774 21.7183 197.464 21.4548 197.235 21.1101C197.01 20.7654 196.897 20.3428 196.897 19.8423C196.897 19.4115 196.98 19.0568 197.146 18.7784C197.311 18.5 197.535 18.2796 197.817 18.1172C198.099 17.9548 198.414 17.8321 198.762 17.7493C199.11 17.6664 199.464 17.6035 199.825 17.5604C200.283 17.5073 200.654 17.4643 200.939 17.4311C201.224 17.3946 201.431 17.3366 201.561 17.2571C201.69 17.1776 201.754 17.0483 201.754 16.8693V16.8345C201.754 16.4003 201.632 16.0639 201.387 15.8253C201.145 15.5866 200.783 15.4673 200.303 15.4673C199.802 15.4673 199.408 15.5784 199.119 15.8004C198.834 16.0192 198.637 16.2628 198.528 16.5312L197.131 16.2131C197.297 15.7491 197.539 15.3745 197.857 15.0895C198.178 14.8011 198.548 14.5923 198.965 14.4631C199.383 14.3305 199.822 14.2642 200.283 14.2642C200.588 14.2642 200.911 14.3007 201.252 14.3736C201.597 14.4432 201.919 14.5724 202.217 14.7614C202.518 14.9503 202.765 15.2204 202.958 15.5717C203.15 15.9197 203.246 16.3722 203.246 16.929V22H201.794V20.956H201.735C201.638 21.1482 201.494 21.3371 201.302 21.5227C201.11 21.7083 200.863 21.8625 200.561 21.9851C200.26 22.1077 199.898 22.169 199.477 22.169ZM199.801 20.9759C200.212 20.9759 200.563 20.8946 200.855 20.7322C201.15 20.5698 201.373 20.3577 201.526 20.0959C201.682 19.8307 201.759 19.5473 201.759 19.2457V18.2614C201.706 18.3144 201.604 18.3641 201.451 18.4105C201.302 18.4536 201.131 18.4917 200.939 18.5249C200.747 18.5547 200.56 18.5829 200.377 18.6094C200.195 18.6326 200.043 18.6525 199.92 18.669C199.632 18.7055 199.368 18.7668 199.129 18.853C198.894 18.9392 198.705 19.0634 198.563 19.2259C198.423 19.3849 198.354 19.5971 198.354 19.8622C198.354 20.2301 198.49 20.5085 198.762 20.6974C199.033 20.883 199.38 20.9759 199.801 20.9759ZM210.063 18.8331V14.3636H211.555V22H210.093V20.6776H210.013C209.838 21.0852 209.556 21.425 209.168 21.6967C208.784 21.9652 208.305 22.0994 207.732 22.0994C207.241 22.0994 206.807 21.9917 206.429 21.7763C206.054 21.5575 205.759 21.2344 205.544 20.8068C205.332 20.3793 205.226 19.8506 205.226 19.2209V14.3636H206.712V19.0419C206.712 19.5623 206.857 19.9766 207.145 20.2848C207.433 20.593 207.808 20.7472 208.268 20.7472C208.547 20.7472 208.824 20.6776 209.099 20.5384C209.377 20.3991 209.607 20.1887 209.79 19.907C209.975 19.6252 210.067 19.2673 210.063 18.8331ZM215.039 11.8182V22H213.552V11.8182H215.039ZM220.603 14.3636V15.5568H216.432V14.3636H220.603ZM217.55 12.5341H219.037V19.7578C219.037 20.0462 219.08 20.2633 219.166 20.4091C219.252 20.5516 219.363 20.6494 219.499 20.7024C219.638 20.7521 219.789 20.777 219.952 20.777C220.071 20.777 220.175 20.7687 220.265 20.7521C220.354 20.7356 220.424 20.7223 220.474 20.7124L220.742 21.9403C220.656 21.9735 220.533 22.0066 220.374 22.0398C220.215 22.0762 220.016 22.0961 219.778 22.0994C219.387 22.1061 219.022 22.0365 218.684 21.8906C218.346 21.7448 218.072 21.5194 217.864 21.2145C217.655 20.9096 217.55 20.5268 217.55 20.0661V12.5341ZM226.072 22V11.8182H227.558V15.6016H227.648C227.734 15.4425 227.858 15.2585 228.021 15.0497C228.183 14.8409 228.408 14.6586 228.697 14.5028C228.985 14.3438 229.366 14.2642 229.84 14.2642C230.457 14.2642 231.007 14.42 231.491 14.7315C231.975 15.0431 232.354 15.4922 232.629 16.0788C232.908 16.6655 233.047 17.3714 233.047 18.1967C233.047 19.022 232.909 19.7296 232.634 20.3196C232.359 20.9062 231.981 21.3587 231.501 21.6768C231.02 21.9917 230.472 22.1491 229.855 22.1491C229.391 22.1491 229.012 22.0713 228.717 21.9155C228.425 21.7597 228.196 21.5774 228.031 21.3686C227.865 21.1598 227.737 20.9742 227.648 20.8118H227.523V22H226.072ZM227.528 18.1818C227.528 18.7187 227.606 19.1894 227.762 19.5938C227.918 19.9981 228.143 20.3146 228.438 20.5433C228.733 20.7687 229.094 20.8814 229.522 20.8814C229.966 20.8814 230.337 20.7637 230.636 20.5284C230.934 20.2898 231.159 19.9666 231.312 19.5589C231.468 19.1513 231.545 18.6922 231.545 18.1818C231.545 17.678 231.469 17.2256 231.317 16.8246C231.168 16.4235 230.942 16.107 230.641 15.875C230.342 15.643 229.969 15.527 229.522 15.527C229.091 15.527 228.727 15.638 228.428 15.8601C228.133 16.0821 227.91 16.392 227.757 16.7898C227.605 17.1875 227.528 17.6515 227.528 18.1818ZM239.553 18.8331V14.3636H241.045V22H239.583V20.6776H239.504C239.328 21.0852 239.046 21.425 238.659 21.6967C238.274 21.9652 237.795 22.0994 237.222 22.0994C236.731 22.0994 236.297 21.9917 235.919 21.7763C235.545 21.5575 235.25 21.2344 235.034 20.8068C234.822 20.3793 234.716 19.8506 234.716 19.2209V14.3636H236.203V19.0419C236.203 19.5623 236.347 19.9766 236.635 20.2848C236.923 20.593 237.298 20.7472 237.759 20.7472C238.037 20.7472 238.314 20.6776 238.589 20.5384C238.867 20.3991 239.098 20.1887 239.28 19.907C239.466 19.6252 239.557 19.2673 239.553 18.8331ZM246.607 14.3636V15.5568H242.436V14.3636H246.607ZM243.554 12.5341H245.041V19.7578C245.041 20.0462 245.084 20.2633 245.17 20.4091C245.256 20.5516 245.367 20.6494 245.503 20.7024C245.642 20.7521 245.793 20.777 245.956 20.777C246.075 20.777 246.179 20.7687 246.269 20.7521C246.358 20.7356 246.428 20.7223 246.478 20.7124L246.746 21.9403C246.66 21.9735 246.537 22.0066 246.378 22.0398C246.219 22.0762 246.02 22.0961 245.782 22.0994C245.391 22.1061 245.026 22.0365 244.688 21.8906C244.35 21.7448 244.076 21.5194 243.868 21.2145C243.659 20.9096 243.554 20.5268 243.554 20.0661V12.5341ZM251.816 14.3636V15.5568H247.645V14.3636H251.816ZM248.763 12.5341H250.25V19.7578C250.25 20.0462 250.293 20.2633 250.379 20.4091C250.465 20.5516 250.576 20.6494 250.712 20.7024C250.851 20.7521 251.002 20.777 251.165 20.777C251.284 20.777 251.388 20.7687 251.478 20.7521C251.567 20.7356 251.637 20.7223 251.687 20.7124L251.955 21.9403C251.869 21.9735 251.746 22.0066 251.587 22.0398C251.428 22.0762 251.229 22.0961 250.991 22.0994C250.599 22.1061 250.235 22.0365 249.897 21.8906C249.559 21.7448 249.285 21.5194 249.077 21.2145C248.868 20.9096 248.763 20.5268 248.763 20.0661V12.5341ZM256.595 22.1541C255.879 22.1541 255.254 21.9901 254.721 21.6619C254.187 21.3338 253.773 20.8748 253.478 20.2848C253.183 19.6948 253.035 19.0054 253.035 18.2166C253.035 17.4245 253.183 16.7318 253.478 16.1385C253.773 15.5452 254.187 15.0845 254.721 14.7564C255.254 14.4283 255.879 14.2642 256.595 14.2642C257.311 14.2642 257.935 14.4283 258.469 14.7564C259.003 15.0845 259.417 15.5452 259.712 16.1385C260.007 16.7318 260.154 17.4245 260.154 18.2166C260.154 19.0054 260.007 19.6948 259.712 20.2848C259.417 20.8748 259.003 21.3338 258.469 21.6619C257.935 21.9901 257.311 22.1541 256.595 22.1541ZM256.6 20.9062C257.064 20.9062 257.448 20.7836 257.753 20.5384C258.058 20.2931 258.283 19.9666 258.429 19.5589C258.578 19.1513 258.653 18.7022 258.653 18.2116C258.653 17.7244 258.578 17.277 258.429 16.8693C258.283 16.4583 258.058 16.1286 257.753 15.88C257.448 15.6314 257.064 15.5071 256.6 15.5071C256.132 15.5071 255.745 15.6314 255.436 15.88C255.132 16.1286 254.904 16.4583 254.755 16.8693C254.609 17.277 254.537 17.7244 254.537 18.2116C254.537 18.7022 254.609 19.1513 254.755 19.5589C254.904 19.9666 255.132 20.2931 255.436 20.5384C255.745 20.7836 256.132 20.9062 256.6 20.9062ZM263.3 17.4659V22H261.814V14.3636H263.241V15.6065H263.335C263.511 15.2022 263.786 14.8774 264.16 14.6321C264.538 14.3868 265.014 14.2642 265.587 14.2642C266.108 14.2642 266.563 14.3736 266.954 14.5923C267.345 14.8078 267.649 15.1293 267.864 15.5568C268.08 15.9844 268.187 16.513 268.187 17.1428V22H266.701V17.3217C266.701 16.7682 266.557 16.3357 266.268 16.0241C265.98 15.7093 265.584 15.5518 265.08 15.5518C264.735 15.5518 264.429 15.6264 264.16 15.7756C263.895 15.9247 263.685 16.1435 263.529 16.4318C263.376 16.7169 263.3 17.0616 263.3 17.4659Z" fill="#4A5568"/>
<path d="M296 0.5H332C335.038 0.5 337.5 2.96243 337.5 6V27C337.5 30.0376 335.038 32.5 332 32.5H296C292.962 32.5 290.5 30.0376 290.5 27V6C290.5 2.96243 292.962 0.5 296 0.5Z" stroke="#E5E7EB"/>
<path d="M309.333 11.8332C309.333 11.5986 309.395 11.3682 309.513 11.1651C309.63 10.962 309.799 10.7936 310.003 10.6767C310.206 10.5598 310.437 10.4987 310.671 10.4995C310.906 10.5003 311.136 10.563 311.339 10.6812L319.337 15.3466C319.539 15.4637 319.706 15.6317 319.823 15.8339C319.939 16.0361 320.001 16.2653 320.001 16.4987C320.001 16.732 319.94 16.9614 319.824 17.1637C319.708 17.3661 319.54 17.5344 319.339 17.6519L311.339 22.3186C311.136 22.4368 310.906 22.4995 310.671 22.5003C310.437 22.5011 310.206 22.44 310.003 22.3231C309.799 22.2062 309.63 22.0378 309.513 21.8347C309.395 21.6317 309.333 21.4012 309.333 21.1666V11.8332Z" stroke="#4A5568" stroke-width="1.33333" stroke-linecap="round" stroke-linejoin="round"/>
<rect x="342.5" y="0.5" width="164" height="32" rx="5.5" stroke="#E5E7EB"/>
<path d="M361.333 11.8332C361.333 11.5986 361.395 11.3682 361.513 11.1651C361.63 10.962 361.799 10.7936 362.003 10.6767C362.206 10.5598 362.437 10.4987 362.671 10.4995C362.906 10.5003 363.136 10.563 363.339 10.6812L371.337 15.3466C371.539 15.4637 371.706 15.6317 371.823 15.8339C371.939 16.0361 372.001 16.2653 372.001 16.4987C372.001 16.732 371.94 16.9614 371.824 17.1637C371.708 17.3661 371.54 17.5344 371.339 17.6519L363.339 22.3186C363.136 22.4368 362.906 22.4995 362.671 22.5003C362.437 22.5011 362.206 22.44 362.003 22.3231C361.799 22.2062 361.63 22.0378 361.513 21.8347C361.395 21.6317 361.333 21.4012 361.333 21.1666V11.8332Z" stroke="#A0AEC0" stroke-width="1.33333" stroke-linecap="round" stroke-linejoin="round"/>
<path d="M386.415 22H383.119V11.8182H386.519C387.517 11.8182 388.374 12.022 389.089 12.4297C389.805 12.834 390.354 13.4157 390.735 14.1747C391.12 14.9304 391.312 15.8369 391.312 16.8942C391.312 17.9548 391.118 18.8662 390.73 19.6286C390.346 20.3909 389.789 20.9775 389.06 21.3885C388.33 21.7962 387.449 22 386.415 22ZM384.655 20.6577H386.33C387.106 20.6577 387.75 20.5118 388.264 20.2202C388.778 19.9252 389.162 19.4993 389.418 18.9425C389.673 18.3823 389.8 17.6996 389.8 16.8942C389.8 16.0954 389.673 15.4176 389.418 14.8608C389.166 14.304 388.79 13.8814 388.289 13.593C387.789 13.3047 387.167 13.1605 386.425 13.1605H384.655V20.6577ZM396.394 22.1541C395.642 22.1541 394.994 21.9934 394.45 21.6719C393.91 21.3471 393.492 20.8913 393.197 20.3047C392.906 19.7147 392.76 19.0237 392.76 18.2315C392.76 17.4493 392.906 16.7599 393.197 16.1634C393.492 15.5668 393.903 15.1011 394.43 14.7663C394.961 14.4316 395.58 14.2642 396.29 14.2642C396.72 14.2642 397.138 14.3355 397.542 14.478C397.947 14.6205 398.31 14.8442 398.631 15.1491C398.953 15.4541 399.206 15.8501 399.392 16.3374C399.577 16.8213 399.67 17.4096 399.67 18.1023V18.6293H393.6V17.5156H398.214C398.214 17.1245 398.134 16.7782 397.975 16.4766C397.816 16.1716 397.592 15.9313 397.304 15.7557C397.019 15.58 396.684 15.4922 396.3 15.4922C395.882 15.4922 395.517 15.5949 395.206 15.8004C394.898 16.0026 394.659 16.2678 394.49 16.5959C394.324 16.9207 394.241 17.2737 394.241 17.6548V18.5249C394.241 19.0353 394.331 19.4695 394.51 19.8274C394.692 20.1854 394.946 20.4588 395.27 20.6477C395.595 20.8333 395.975 20.9261 396.409 20.9261C396.691 20.9261 396.948 20.8864 397.18 20.8068C397.412 20.724 397.612 20.6013 397.781 20.4389C397.95 20.2765 398.079 20.076 398.169 19.8374L399.576 20.0909C399.463 20.5052 399.261 20.8681 398.969 21.1797C398.681 21.4879 398.318 21.7282 397.881 21.9006C397.446 22.0696 396.951 22.1541 396.394 22.1541ZM404.954 14.3636V15.5568H400.638V14.3636H404.954ZM401.822 22V13.4787C401.822 13.0014 401.926 12.6053 402.135 12.2905C402.344 11.9723 402.621 11.7353 402.965 11.5795C403.31 11.4205 403.684 11.3409 404.089 11.3409C404.387 11.3409 404.642 11.3658 404.854 11.4155C405.067 11.4619 405.224 11.505 405.327 11.5447L404.979 12.7479C404.909 12.728 404.82 12.7048 404.71 12.6783C404.601 12.6484 404.468 12.6335 404.312 12.6335C403.951 12.6335 403.693 12.723 403.537 12.902C403.384 13.081 403.308 13.3395 403.308 13.6776V22H401.822ZM408.477 22.169C407.994 22.169 407.556 22.0795 407.165 21.9006C406.774 21.7183 406.464 21.4548 406.235 21.1101C406.01 20.7654 405.897 20.3428 405.897 19.8423C405.897 19.4115 405.98 19.0568 406.146 18.7784C406.311 18.5 406.535 18.2796 406.817 18.1172C407.099 17.9548 407.414 17.8321 407.762 17.7493C408.11 17.6664 408.464 17.6035 408.825 17.5604C409.283 17.5073 409.654 17.4643 409.939 17.4311C410.224 17.3946 410.431 17.3366 410.561 17.2571C410.69 17.1776 410.754 17.0483 410.754 16.8693V16.8345C410.754 16.4003 410.632 16.0639 410.387 15.8253C410.145 15.5866 409.783 15.4673 409.303 15.4673C408.802 15.4673 408.408 15.5784 408.119 15.8004C407.834 16.0192 407.637 16.2628 407.528 16.5312L406.131 16.2131C406.297 15.7491 406.539 15.3745 406.857 15.0895C407.178 14.8011 407.548 14.5923 407.965 14.4631C408.383 14.3305 408.822 14.2642 409.283 14.2642C409.588 14.2642 409.911 14.3007 410.252 14.3736C410.597 14.4432 410.919 14.5724 411.217 14.7614C411.518 14.9503 411.765 15.2204 411.958 15.5717C412.15 15.9197 412.246 16.3722 412.246 16.929V22H410.794V20.956H410.735C410.638 21.1482 410.494 21.3371 410.302 21.5227C410.11 21.7083 409.863 21.8625 409.561 21.9851C409.26 22.1077 408.898 22.169 408.477 22.169ZM408.801 20.9759C409.212 20.9759 409.563 20.8946 409.855 20.7322C410.15 20.5698 410.373 20.3577 410.526 20.0959C410.682 19.8307 410.759 19.5473 410.759 19.2457V18.2614C410.706 18.3144 410.604 18.3641 410.451 18.4105C410.302 18.4536 410.131 18.4917 409.939 18.5249C409.747 18.5547 409.56 18.5829 409.377 18.6094C409.195 18.6326 409.043 18.6525 408.92 18.669C408.632 18.7055 408.368 18.7668 408.129 18.853C407.894 18.9392 407.705 19.0634 407.563 19.2259C407.423 19.3849 407.354 19.5971 407.354 19.8622C407.354 20.2301 407.49 20.5085 407.762 20.6974C408.033 20.883 408.38 20.9759 408.801 20.9759ZM419.063 18.8331V14.3636H420.555V22H419.093V20.6776H419.013C418.838 21.0852 418.556 21.425 418.168 21.6967C417.784 21.9652 417.305 22.0994 416.732 22.0994C416.241 22.0994 415.807 21.9917 415.429 21.7763C415.054 21.5575 414.759 21.2344 414.544 20.8068C414.332 20.3793 414.226 19.8506 414.226 19.2209V14.3636H415.712V19.0419C415.712 19.5623 415.857 19.9766 416.145 20.2848C416.433 20.593 416.808 20.7472 417.268 20.7472C417.547 20.7472 417.824 20.6776 418.099 20.5384C418.377 20.3991 418.607 20.1887 418.79 19.907C418.975 19.6252 419.067 19.2673 419.063 18.8331ZM424.039 11.8182V22H422.552V11.8182H424.039ZM429.603 14.3636V15.5568H425.432V14.3636H429.603ZM426.55 12.5341H428.037V19.7578C428.037 20.0462 428.08 20.2633 428.166 20.4091C428.252 20.5516 428.363 20.6494 428.499 20.7024C428.638 20.7521 428.789 20.777 428.952 20.777C429.071 20.777 429.175 20.7687 429.265 20.7521C429.354 20.7356 429.424 20.7223 429.474 20.7124L429.742 21.9403C429.656 21.9735 429.533 22.0066 429.374 22.0398C429.215 22.0762 429.016 22.0961 428.778 22.0994C428.387 22.1061 428.022 22.0365 427.684 21.8906C427.346 21.7448 427.072 21.5194 426.864 21.2145C426.655 20.9096 426.55 20.5268 426.55 20.0661V12.5341ZM437.811 22.1491C437.195 22.1491 436.644 21.9917 436.161 21.6768C435.68 21.3587 435.302 20.9062 435.027 20.3196C434.755 19.7296 434.619 19.022 434.619 18.1967C434.619 17.3714 434.757 16.6655 435.032 16.0788C435.31 15.4922 435.692 15.0431 436.175 14.7315C436.659 14.42 437.208 14.2642 437.821 14.2642C438.295 14.2642 438.676 14.3438 438.964 14.5028C439.256 14.6586 439.482 14.8409 439.641 15.0497C439.803 15.2585 439.929 15.4425 440.018 15.6016H440.108V11.8182H441.594V22H440.143V20.8118H440.018C439.929 20.9742 439.8 21.1598 439.631 21.3686C439.465 21.5774 439.236 21.7597 438.945 21.9155C438.653 22.0713 438.275 22.1491 437.811 22.1491ZM438.139 20.8814C438.567 20.8814 438.928 20.7687 439.223 20.5433C439.521 20.3146 439.747 19.9981 439.899 19.5938C440.055 19.1894 440.133 18.7187 440.133 18.1818C440.133 17.6515 440.057 17.1875 439.904 16.7898C439.752 16.392 439.528 16.0821 439.233 15.8601C438.938 15.638 438.573 15.527 438.139 15.527C437.692 15.527 437.319 15.643 437.021 15.875C436.722 16.107 436.497 16.4235 436.344 16.8246C436.195 17.2256 436.121 17.678 436.121 18.1818C436.121 18.6922 436.197 19.1513 436.349 19.5589C436.502 19.9666 436.727 20.2898 437.026 20.5284C437.327 20.7637 437.698 20.8814 438.139 20.8814ZM443.716 22V14.3636H445.203V22H443.716ZM444.467 13.1854C444.208 13.1854 443.986 13.0992 443.801 12.9268C443.618 12.7512 443.527 12.5424 443.527 12.3004C443.527 12.0552 443.618 11.8464 443.801 11.674C443.986 11.4983 444.208 11.4105 444.467 11.4105C444.725 11.4105 444.946 11.4983 445.128 11.674C445.314 11.8464 445.406 12.0552 445.406 12.3004C445.406 12.5424 445.314 12.7512 445.128 12.9268C444.946 13.0992 444.725 13.1854 444.467 13.1854ZM452.925 16.228L451.577 16.4666C451.521 16.2943 451.432 16.1302 451.309 15.9744C451.19 15.8187 451.027 15.6911 450.822 15.5916C450.616 15.4922 450.359 15.4425 450.051 15.4425C449.63 15.4425 449.279 15.5369 448.997 15.7259C448.715 15.9115 448.575 16.1518 448.575 16.4467C448.575 16.7019 448.669 16.9074 448.858 17.0632C449.047 17.219 449.352 17.3466 449.773 17.446L450.986 17.7244C451.688 17.8868 452.212 18.1371 452.557 18.4751C452.902 18.8132 453.074 19.2524 453.074 19.7926C453.074 20.25 452.941 20.6577 452.676 21.0156C452.414 21.3703 452.048 21.6487 451.577 21.8509C451.11 22.053 450.568 22.1541 449.952 22.1541C449.097 22.1541 448.399 21.9718 447.859 21.6072C447.318 21.2393 446.987 20.7173 446.864 20.0412L448.301 19.8224C448.391 20.197 448.575 20.4804 448.853 20.6726C449.131 20.8615 449.494 20.956 449.942 20.956C450.429 20.956 450.818 20.8549 451.11 20.6527C451.402 20.4472 451.548 20.197 451.548 19.902C451.548 19.6634 451.458 19.4628 451.279 19.3004C451.103 19.138 450.833 19.0154 450.469 18.9325L449.176 18.6491C448.464 18.4867 447.937 18.2282 447.595 17.8736C447.257 17.5189 447.088 17.0698 447.088 16.5263C447.088 16.0755 447.214 15.6811 447.466 15.343C447.718 15.005 448.066 14.7415 448.51 14.5526C448.954 14.3603 449.463 14.2642 450.036 14.2642C450.862 14.2642 451.511 14.4432 451.985 14.8011C452.459 15.1558 452.772 15.6314 452.925 16.228ZM456.931 22.169C456.447 22.169 456.009 22.0795 455.618 21.9006C455.227 21.7183 454.917 21.4548 454.688 21.1101C454.463 20.7654 454.35 20.3428 454.35 19.8423C454.35 19.4115 454.433 19.0568 454.599 18.7784C454.765 18.5 454.988 18.2796 455.27 18.1172C455.552 17.9548 455.867 17.8321 456.215 17.7493C456.563 17.6664 456.917 17.6035 457.279 17.5604C457.736 17.5073 458.107 17.4643 458.392 17.4311C458.677 17.3946 458.884 17.3366 459.014 17.2571C459.143 17.1776 459.208 17.0483 459.208 16.8693V16.8345C459.208 16.4003 459.085 16.0639 458.84 15.8253C458.598 15.5866 458.236 15.4673 457.756 15.4673C457.255 15.4673 456.861 15.5784 456.573 15.8004C456.288 16.0192 456.09 16.2628 455.981 16.5312L454.584 16.2131C454.75 15.7491 454.992 15.3745 455.31 15.0895C455.631 14.8011 456.001 14.5923 456.419 14.4631C456.836 14.3305 457.275 14.2642 457.736 14.2642C458.041 14.2642 458.364 14.3007 458.705 14.3736C459.05 14.4432 459.372 14.5724 459.67 14.7614C459.972 14.9503 460.218 15.2204 460.411 15.5717C460.603 15.9197 460.699 16.3722 460.699 16.929V22H459.247V20.956H459.188C459.092 21.1482 458.947 21.3371 458.755 21.5227C458.563 21.7083 458.316 21.8625 458.014 21.9851C457.713 22.1077 457.352 22.169 456.931 22.169ZM457.254 20.9759C457.665 20.9759 458.016 20.8946 458.308 20.7322C458.603 20.5698 458.826 20.3577 458.979 20.0959C459.135 19.8307 459.213 19.5473 459.213 19.2457V18.2614C459.16 18.3144 459.057 18.3641 458.904 18.4105C458.755 18.4536 458.584 18.4917 458.392 18.5249C458.2 18.5547 458.013 18.5829 457.83 18.6094C457.648 18.6326 457.496 18.6525 457.373 18.669C457.085 18.7055 456.821 18.7668 456.583 18.853C456.347 18.9392 456.158 19.0634 456.016 19.2259C455.877 19.3849 455.807 19.5971 455.807 19.8622C455.807 20.2301 455.943 20.5085 456.215 20.6974C456.486 20.883 456.833 20.9759 457.254 20.9759ZM462.798 22V11.8182H464.285V15.6016H464.374C464.46 15.4425 464.585 15.2585 464.747 15.0497C464.91 14.8409 465.135 14.6586 465.423 14.5028C465.712 14.3438 466.093 14.2642 466.567 14.2642C467.183 14.2642 467.733 14.42 468.217 14.7315C468.701 15.0431 469.081 15.4922 469.356 16.0788C469.634 16.6655 469.773 17.3714 469.773 18.1967C469.773 19.022 469.636 19.7296 469.361 20.3196C469.086 20.9062 468.708 21.3587 468.227 21.6768C467.747 21.9917 467.198 22.1491 466.582 22.1491C466.118 22.1491 465.738 22.0713 465.443 21.9155C465.152 21.7597 464.923 21.5774 464.757 21.3686C464.591 21.1598 464.464 20.9742 464.374 20.8118H464.25V22H462.798ZM464.255 18.1818C464.255 18.7187 464.333 19.1894 464.489 19.5938C464.644 19.9981 464.87 20.3146 465.165 20.5433C465.46 20.7687 465.821 20.8814 466.249 20.8814C466.693 20.8814 467.064 20.7637 467.362 20.5284C467.661 20.2898 467.886 19.9666 468.038 19.5589C468.194 19.1513 468.272 18.6922 468.272 18.1818C468.272 17.678 468.196 17.2256 468.043 16.8246C467.894 16.4235 467.669 16.107 467.367 15.875C467.069 15.643 466.696 15.527 466.249 15.527C465.818 15.527 465.453 15.638 465.155 15.8601C464.86 16.0821 464.636 16.392 464.484 16.7898C464.331 17.1875 464.255 17.6515 464.255 18.1818ZM472.929 11.8182V22H471.443V11.8182H472.929ZM478.22 22.1541C477.468 22.1541 476.82 21.9934 476.276 21.6719C475.736 21.3471 475.318 20.8913 475.023 20.3047C474.732 19.7147 474.586 19.0237 474.586 18.2315C474.586 17.4493 474.732 16.7599 475.023 16.1634C475.318 15.5668 475.729 15.1011 476.256 14.7663C476.787 14.4316 477.406 14.2642 478.116 14.2642C478.547 14.2642 478.964 14.3355 479.369 14.478C479.773 14.6205 480.136 14.8442 480.457 15.1491C480.779 15.4541 481.032 15.8501 481.218 16.3374C481.404 16.8213 481.496 17.4096 481.496 18.1023V18.6293H475.426V17.5156H480.04C480.04 17.1245 479.96 16.7782 479.801 16.4766C479.642 16.1716 479.418 15.9313 479.13 15.7557C478.845 15.58 478.51 15.4922 478.126 15.4922C477.708 15.4922 477.344 15.5949 477.032 15.8004C476.724 16.0026 476.485 16.2678 476.316 16.5959C476.15 16.9207 476.067 17.2737 476.067 17.6548V18.5249C476.067 19.0353 476.157 19.4695 476.336 19.8274C476.518 20.1854 476.772 20.4588 477.097 20.6477C477.421 20.8333 477.801 20.9261 478.235 20.9261C478.517 20.9261 478.774 20.8864 479.006 20.8068C479.238 20.724 479.438 20.6013 479.607 20.4389C479.776 20.2765 479.906 20.076 479.995 19.8374L481.402 20.0909C481.289 20.5052 481.087 20.8681 480.795 21.1797C480.507 21.4879 480.144 21.7282 479.707 21.9006C479.272 22.0696 478.777 22.1541 478.22 22.1541ZM486.004 22.1491C485.388 22.1491 484.838 21.9917 484.354 21.6768C483.873 21.3587 483.495 20.9062 483.22 20.3196C482.949 19.7296 482.813 19.022 482.813 18.1967C482.813 17.3714 482.95 16.6655 483.225 16.0788C483.504 15.4922 483.885 15.0431 484.369 14.7315C484.853 14.42 485.401 14.2642 486.014 14.2642C486.488 14.2642 486.869 14.3438 487.158 14.5028C487.45 14.6586 487.675 14.8409 487.834 15.0497C487.996 15.2585 488.122 15.4425 488.212 15.6016H488.301V11.8182H489.788V22H488.336V20.8118H488.212C488.122 20.9742 487.993 21.1598 487.824 21.3686C487.658 21.5774 487.43 21.7597 487.138 21.9155C486.846 22.0713 486.468 22.1491 486.004 22.1491ZM486.333 20.8814C486.76 20.8814 487.121 20.7687 487.416 20.5433C487.715 20.3146 487.94 19.9981 488.093 19.5938C488.248 19.1894 488.326 18.7187 488.326 18.1818C488.326 17.6515 488.25 17.1875 488.097 16.7898C487.945 16.392 487.721 16.0821 487.426 15.8601C487.131 15.638 486.767 15.527 486.333 15.527C485.885 15.527 485.512 15.643 485.214 15.875C484.916 16.107 484.69 16.4235 484.538 16.8246C484.389 17.2256 484.314 17.678 484.314 18.1818C484.314 18.6922 484.39 19.1513 484.543 19.5589C484.695 19.9666 484.921 20.2898 485.219 20.5284C485.521 20.7637 485.892 20.8814 486.333 20.8814Z" fill="#A0AEC0"/>
<path d="M517 0.5H671C674.038 0.5 676.5 2.96243 676.5 6V27C676.5 30.0376 674.038 32.5 671 32.5H517C513.962 32.5 511.5 30.0376 511.5 27V6C511.5 2.96243 513.962 0.5 517 0.5Z" fill="#BFDBFE" fill-opacity="0.3"/>
<path d="M517 0.5H671C674.038 0.5 676.5 2.96243 676.5 6V27C676.5 30.0376 674.038 32.5 671 32.5H517C513.962 32.5 511.5 30.0376 511.5 27V6C511.5 2.96243 513.962 0.5 517 0.5Z" stroke="#A0AFFA"/>
<path d="M530.333 11.8332C530.333 11.5986 530.395 11.3682 530.513 11.1651C530.63 10.962 530.799 10.7936 531.003 10.6767C531.206 10.5598 531.437 10.4987 531.671 10.4995C531.906 10.5003 532.136 10.563 532.339 10.6812L540.337 15.3466C540.539 15.4637 540.706 15.6317 540.823 15.8339C540.939 16.0361 541.001 16.2653 541.001 16.4987C541.001 16.732 540.94 16.9614 540.824 17.1637C540.708 17.3661 540.54 17.5344 540.339 17.6519L532.339 22.3186C532.136 22.4368 531.906 22.4995 531.671 22.5003C531.437 22.5011 531.206 22.44 531.003 22.3231C530.799 22.2062 530.63 22.0378 530.513 21.8347C530.395 21.6317 530.333 21.4012 530.333 21.1666V11.8332Z" stroke="#2C5BEB" stroke-width="1.33333" stroke-linecap="round" stroke-linejoin="round"/>
<path d="M555.415 22H552.119V11.8182H555.519C556.517 11.8182 557.374 12.022 558.089 12.4297C558.805 12.834 559.354 13.4157 559.735 14.1747C560.12 14.9304 560.312 15.8369 560.312 16.8942C560.312 17.9548 560.118 18.8662 559.73 19.6286C559.346 20.3909 558.789 20.9775 558.06 21.3885C557.33 21.7962 556.449 22 555.415 22ZM553.655 20.6577H555.33C556.106 20.6577 556.75 20.5118 557.264 20.2202C557.778 19.9252 558.162 19.4993 558.418 18.9425C558.673 18.3823 558.8 17.6996 558.8 16.8942C558.8 16.0954 558.673 15.4176 558.418 14.8608C558.166 14.304 557.79 13.8814 557.289 13.593C556.789 13.3047 556.167 13.1605 555.425 13.1605H553.655V20.6577ZM565.394 22.1541C564.642 22.1541 563.994 21.9934 563.45 21.6719C562.91 21.3471 562.492 20.8913 562.197 20.3047C561.906 19.7147 561.76 19.0237 561.76 18.2315C561.76 17.4493 561.906 16.7599 562.197 16.1634C562.492 15.5668 562.903 15.1011 563.43 14.7663C563.961 14.4316 564.58 14.2642 565.29 14.2642C565.72 14.2642 566.138 14.3355 566.542 14.478C566.947 14.6205 567.31 14.8442 567.631 15.1491C567.953 15.4541 568.206 15.8501 568.392 16.3374C568.577 16.8213 568.67 17.4096 568.67 18.1023V18.6293H562.6V17.5156H567.214C567.214 17.1245 567.134 16.7782 566.975 16.4766C566.816 16.1716 566.592 15.9313 566.304 15.7557C566.019 15.58 565.684 15.4922 565.3 15.4922C564.882 15.4922 564.517 15.5949 564.206 15.8004C563.898 16.0026 563.659 16.2678 563.49 16.5959C563.324 16.9207 563.241 17.2737 563.241 17.6548V18.5249C563.241 19.0353 563.331 19.4695 563.51 19.8274C563.692 20.1854 563.946 20.4588 564.27 20.6477C564.595 20.8333 564.975 20.9261 565.409 20.9261C565.691 20.9261 565.948 20.8864 566.18 20.8068C566.412 20.724 566.612 20.6013 566.781 20.4389C566.95 20.2765 567.079 20.076 567.169 19.8374L568.576 20.0909C568.463 20.5052 568.261 20.8681 567.969 21.1797C567.681 21.4879 567.318 21.7282 566.881 21.9006C566.446 22.0696 565.951 22.1541 565.394 22.1541ZM573.954 14.3636V15.5568H569.638V14.3636H573.954ZM570.822 22V13.4787C570.822 13.0014 570.926 12.6053 571.135 12.2905C571.344 11.9723 571.621 11.7353 571.965 11.5795C572.31 11.4205 572.684 11.3409 573.089 11.3409C573.387 11.3409 573.642 11.3658 573.854 11.4155C574.067 11.4619 574.224 11.505 574.327 11.5447L573.979 12.7479C573.909 12.728 573.82 12.7048 573.71 12.6783C573.601 12.6484 573.468 12.6335 573.312 12.6335C572.951 12.6335 572.693 12.723 572.537 12.902C572.384 13.081 572.308 13.3395 572.308 13.6776V22H570.822ZM577.477 22.169C576.994 22.169 576.556 22.0795 576.165 21.9006C575.774 21.7183 575.464 21.4548 575.235 21.1101C575.01 20.7654 574.897 20.3428 574.897 19.8423C574.897 19.4115 574.98 19.0568 575.146 18.7784C575.311 18.5 575.535 18.2796 575.817 18.1172C576.099 17.9548 576.414 17.8321 576.762 17.7493C577.11 17.6664 577.464 17.6035 577.825 17.5604C578.283 17.5073 578.654 17.4643 578.939 17.4311C579.224 17.3946 579.431 17.3366 579.561 17.2571C579.69 17.1776 579.754 17.0483 579.754 16.8693V16.8345C579.754 16.4003 579.632 16.0639 579.387 15.8253C579.145 15.5866 578.783 15.4673 578.303 15.4673C577.802 15.4673 577.408 15.5784 577.119 15.8004C576.834 16.0192 576.637 16.2628 576.528 16.5312L575.131 16.2131C575.297 15.7491 575.539 15.3745 575.857 15.0895C576.178 14.8011 576.548 14.5923 576.965 14.4631C577.383 14.3305 577.822 14.2642 578.283 14.2642C578.588 14.2642 578.911 14.3007 579.252 14.3736C579.597 14.4432 579.919 14.5724 580.217 14.7614C580.518 14.9503 580.765 15.2204 580.958 15.5717C581.15 15.9197 581.246 16.3722 581.246 16.929V22H579.794V20.956H579.735C579.638 21.1482 579.494 21.3371 579.302 21.5227C579.11 21.7083 578.863 21.8625 578.561 21.9851C578.26 22.1077 577.898 22.169 577.477 22.169ZM577.801 20.9759C578.212 20.9759 578.563 20.8946 578.855 20.7322C579.15 20.5698 579.373 20.3577 579.526 20.0959C579.682 19.8307 579.759 19.5473 579.759 19.2457V18.2614C579.706 18.3144 579.604 18.3641 579.451 18.4105C579.302 18.4536 579.131 18.4917 578.939 18.5249C578.747 18.5547 578.56 18.5829 578.377 18.6094C578.195 18.6326 578.043 18.6525 577.92 18.669C577.632 18.7055 577.368 18.7668 577.129 18.853C576.894 18.9392 576.705 19.0634 576.563 19.2259C576.423 19.3849 576.354 19.5971 576.354 19.8622C576.354 20.2301 576.49 20.5085 576.762 20.6974C577.033 20.883 577.38 20.9759 577.801 20.9759ZM588.063 18.8331V14.3636H589.555V22H588.093V20.6776H588.013C587.838 21.0852 587.556 21.425 587.168 21.6967C586.784 21.9652 586.305 22.0994 585.732 22.0994C585.241 22.0994 584.807 21.9917 584.429 21.7763C584.054 21.5575 583.759 21.2344 583.544 20.8068C583.332 20.3793 583.226 19.8506 583.226 19.2209V14.3636H584.712V19.0419C584.712 19.5623 584.857 19.9766 585.145 20.2848C585.433 20.593 585.808 20.7472 586.268 20.7472C586.547 20.7472 586.824 20.6776 587.099 20.5384C587.377 20.3991 587.607 20.1887 587.79 19.907C587.975 19.6252 588.067 19.2673 588.063 18.8331ZM593.039 11.8182V22H591.552V11.8182H593.039ZM598.603 14.3636V15.5568H594.432V14.3636H598.603ZM595.55 12.5341H597.037V19.7578C597.037 20.0462 597.08 20.2633 597.166 20.4091C597.252 20.5516 597.363 20.6494 597.499 20.7024C597.638 20.7521 597.789 20.777 597.952 20.777C598.071 20.777 598.175 20.7687 598.265 20.7521C598.354 20.7356 598.424 20.7223 598.474 20.7124L598.742 21.9403C598.656 21.9735 598.533 22.0066 598.374 22.0398C598.215 22.0762 598.016 22.0961 597.778 22.0994C597.387 22.1061 597.022 22.0365 596.684 21.8906C596.346 21.7448 596.072 21.5194 595.864 21.2145C595.655 20.9096 595.55 20.5268 595.55 20.0661V12.5341ZM609.675 16.228L608.327 16.4666C608.271 16.2943 608.182 16.1302 608.059 15.9744C607.94 15.8187 607.777 15.6911 607.572 15.5916C607.366 15.4922 607.109 15.4425 606.801 15.4425C606.38 15.4425 606.029 15.5369 605.747 15.7259C605.465 15.9115 605.325 16.1518 605.325 16.4467C605.325 16.7019 605.419 16.9074 605.608 17.0632C605.797 17.219 606.102 17.3466 606.523 17.446L607.736 17.7244C608.438 17.8868 608.962 18.1371 609.307 18.4751C609.652 18.8132 609.824 19.2524 609.824 19.7926C609.824 20.25 609.691 20.6577 609.426 21.0156C609.164 21.3703 608.798 21.6487 608.327 21.8509C607.86 22.053 607.318 22.1541 606.702 22.1541C605.847 22.1541 605.149 21.9718 604.609 21.6072C604.068 21.2393 603.737 20.7173 603.614 20.0412L605.051 19.8224C605.141 20.197 605.325 20.4804 605.603 20.6726C605.881 20.8615 606.244 20.956 606.692 20.956C607.179 20.956 607.568 20.8549 607.86 20.6527C608.152 20.4472 608.298 20.197 608.298 19.902C608.298 19.6634 608.208 19.4628 608.029 19.3004C607.853 19.138 607.583 19.0154 607.219 18.9325L605.926 18.6491C605.214 18.4867 604.687 18.2282 604.345 17.8736C604.007 17.5189 603.838 17.0698 603.838 16.5263C603.838 16.0755 603.964 15.6811 604.216 15.343C604.468 15.005 604.816 14.7415 605.26 14.5526C605.704 14.3603 606.213 14.2642 606.786 14.2642C607.612 14.2642 608.261 14.4432 608.735 14.8011C609.209 15.1558 609.522 15.6314 609.675 16.228ZM614.749 22.1541C613.997 22.1541 613.349 21.9934 612.806 21.6719C612.265 21.3471 611.848 20.8913 611.553 20.3047C611.261 19.7147 611.115 19.0237 611.115 18.2315C611.115 17.4493 611.261 16.7599 611.553 16.1634C611.848 15.5668 612.259 15.1011 612.786 14.7663C613.316 14.4316 613.936 14.2642 614.645 14.2642C615.076 14.2642 615.494 14.3355 615.898 14.478C616.302 14.6205 616.665 14.8442 616.987 15.1491C617.308 15.4541 617.562 15.8501 617.747 16.3374C617.933 16.8213 618.026 17.4096 618.026 18.1023V18.6293H611.955V17.5156H616.569C616.569 17.1245 616.49 16.7782 616.33 16.4766C616.171 16.1716 615.948 15.9313 615.659 15.7557C615.374 15.58 615.039 15.4922 614.655 15.4922C614.237 15.4922 613.873 15.5949 613.561 15.8004C613.253 16.0026 613.014 16.2678 612.845 16.5959C612.68 16.9207 612.597 17.2737 612.597 17.6548V18.5249C612.597 19.0353 612.686 19.4695 612.865 19.8274C613.048 20.1854 613.301 20.4588 613.626 20.6477C613.951 20.8333 614.33 20.9261 614.764 20.9261C615.046 20.9261 615.303 20.8864 615.535 20.8068C615.767 20.724 615.968 20.6013 616.137 20.4389C616.306 20.2765 616.435 20.076 616.524 19.8374L617.931 20.0909C617.819 20.5052 617.616 20.8681 617.325 21.1797C617.036 21.4879 616.673 21.7282 616.236 21.9006C615.802 22.0696 615.306 22.1541 614.749 22.1541ZM621.162 11.8182V22H619.675V11.8182H621.162ZM626.453 22.1541C625.7 22.1541 625.052 21.9934 624.509 21.6719C623.968 21.3471 623.551 20.8913 623.256 20.3047C622.964 19.7147 622.818 19.0237 622.818 18.2315C622.818 17.4493 622.964 16.7599 623.256 16.1634C623.551 15.5668 623.962 15.1011 624.489 14.7663C625.019 14.4316 625.639 14.2642 626.348 14.2642C626.779 14.2642 627.197 14.3355 627.601 14.478C628.005 14.6205 628.368 14.8442 628.69 15.1491C629.011 15.4541 629.265 15.8501 629.45 16.3374C629.636 16.8213 629.729 17.4096 629.729 18.1023V18.6293H623.659V17.5156H628.272C628.272 17.1245 628.193 16.7782 628.034 16.4766C627.874 16.1716 627.651 15.9313 627.362 15.7557C627.077 15.58 626.743 15.4922 626.358 15.4922C625.941 15.4922 625.576 15.5949 625.264 15.8004C624.956 16.0026 624.718 16.2678 624.548 16.5959C624.383 16.9207 624.3 17.2737 624.3 17.6548V18.5249C624.3 19.0353 624.389 19.4695 624.568 19.8274C624.751 20.1854 625.004 20.4588 625.329 20.6477C625.654 20.8333 626.033 20.9261 626.468 20.9261C626.749 20.9261 627.006 20.8864 627.238 20.8068C627.47 20.724 627.671 20.6013 627.84 20.4389C628.009 20.2765 628.138 20.076 628.227 19.8374L629.634 20.0909C629.522 20.5052 629.32 20.8681 629.028 21.1797C628.74 21.4879 628.377 21.7282 627.939 21.9006C627.505 22.0696 627.009 22.1541 626.453 22.1541ZM634.595 22.1541C633.856 22.1541 633.219 21.9867 632.686 21.652C632.155 21.3139 631.748 20.8482 631.463 20.255C631.178 19.6617 631.035 18.9822 631.035 18.2166C631.035 17.4411 631.181 16.7566 631.473 16.1634C631.764 15.5668 632.175 15.1011 632.706 14.7663C633.236 14.4316 633.861 14.2642 634.58 14.2642C635.16 14.2642 635.677 14.3719 636.131 14.5874C636.585 14.7995 636.951 15.0978 637.23 15.4822C637.511 15.8667 637.679 16.3158 637.732 16.8295H636.285C636.206 16.4716 636.023 16.1634 635.738 15.9048C635.457 15.6463 635.079 15.517 634.605 15.517C634.19 15.517 633.828 15.6264 633.516 15.8452C633.208 16.0606 632.967 16.3688 632.795 16.7699C632.623 17.1676 632.537 17.6383 632.537 18.1818C632.537 18.7386 632.621 19.2192 632.79 19.6236C632.959 20.0279 633.198 20.3411 633.506 20.5632C633.818 20.7853 634.184 20.8963 634.605 20.8963C634.886 20.8963 635.142 20.8449 635.37 20.7422C635.602 20.6361 635.796 20.4853 635.952 20.2898C636.111 20.0942 636.222 19.8589 636.285 19.5838H637.732C637.679 20.0777 637.518 20.5185 637.25 20.9062C636.981 21.294 636.622 21.599 636.171 21.821C635.723 22.0431 635.198 22.1541 634.595 22.1541ZM642.886 14.3636V15.5568H638.715V14.3636H642.886ZM639.834 12.5341H641.32V19.7578C641.32 20.0462 641.363 20.2633 641.449 20.4091C641.536 20.5516 641.647 20.6494 641.782 20.7024C641.922 20.7521 642.073 20.777 642.235 20.777C642.354 20.777 642.459 20.7687 642.548 20.7521C642.638 20.7356 642.707 20.7223 642.757 20.7124L643.025 21.9403C642.939 21.9735 642.817 22.0066 642.657 22.0398C642.498 22.0762 642.3 22.0961 642.061 22.0994C641.67 22.1061 641.305 22.0365 640.967 21.8906C640.629 21.7448 640.356 21.5194 640.147 21.2145C639.938 20.9096 639.834 20.5268 639.834 20.0661V12.5341ZM647.74 22.1541C646.987 22.1541 646.339 21.9934 645.796 21.6719C645.256 21.3471 644.838 20.8913 644.543 20.3047C644.251 19.7147 644.105 19.0237 644.105 18.2315C644.105 17.4493 644.251 16.7599 644.543 16.1634C644.838 15.5668 645.249 15.1011 645.776 14.7663C646.306 14.4316 646.926 14.2642 647.635 14.2642C648.066 14.2642 648.484 14.3355 648.888 14.478C649.292 14.6205 649.655 14.8442 649.977 15.1491C650.298 15.4541 650.552 15.8501 650.738 16.3374C650.923 16.8213 651.016 17.4096 651.016 18.1023V18.6293H644.946V17.5156H649.559C649.559 17.1245 649.48 16.7782 649.321 16.4766C649.162 16.1716 648.938 15.9313 648.65 15.7557C648.364 15.58 648.03 15.4922 647.645 15.4922C647.228 15.4922 646.863 15.5949 646.551 15.8004C646.243 16.0026 646.005 16.2678 645.836 16.5959C645.67 16.9207 645.587 17.2737 645.587 17.6548V18.5249C645.587 19.0353 645.676 19.4695 645.855 19.8274C646.038 20.1854 646.291 20.4588 646.616 20.6477C646.941 20.8333 647.32 20.9261 647.755 20.9261C648.036 20.9261 648.293 20.8864 648.525 20.8068C648.757 20.724 648.958 20.6013 649.127 20.4389C649.296 20.2765 649.425 20.076 649.515 19.8374L650.922 20.0909C650.809 20.5052 650.607 20.8681 650.315 21.1797C650.027 21.4879 649.664 21.7282 649.226 21.9006C648.792 22.0696 648.297 22.1541 647.74 22.1541ZM655.524 22.1491C654.907 22.1491 654.357 21.9917 653.873 21.6768C653.393 21.3587 653.015 20.9062 652.74 20.3196C652.468 19.7296 652.332 19.022 652.332 18.1967C652.332 17.3714 652.47 16.6655 652.745 16.0788C653.023 15.4922 653.404 15.0431 653.888 14.7315C654.372 14.42 654.921 14.2642 655.534 14.2642C656.008 14.2642 656.389 14.3438 656.677 14.5028C656.969 14.6586 657.194 14.8409 657.354 15.0497C657.516 15.2585 657.642 15.4425 657.731 15.6016H657.821V11.8182H659.307V22H657.856V20.8118H657.731C657.642 20.9742 657.513 21.1598 657.344 21.3686C657.178 21.5774 656.949 21.7597 656.657 21.9155C656.366 22.0713 655.988 22.1491 655.524 22.1491ZM655.852 20.8814C656.28 20.8814 656.641 20.7687 656.936 20.5433C657.234 20.3146 657.46 19.9981 657.612 19.5938C657.768 19.1894 657.846 18.7187 657.846 18.1818C657.846 17.6515 657.769 17.1875 657.617 16.7898C657.465 16.392 657.241 16.0821 656.946 15.8601C656.651 15.638 656.286 15.527 655.852 15.527C655.405 15.527 655.032 15.643 654.733 15.875C654.435 16.107 654.21 16.4235 654.057 16.8246C653.908 17.2256 653.834 17.678 653.834 18.1818C653.834 18.6922 653.91 19.1513 654.062 19.5589C654.215 19.9666 654.44 20.2898 654.738 20.5284C655.04 20.7637 655.411 20.8814 655.852 20.8814Z" fill="#2C5BEB"/>
</svg>
