<svg width="610" height="33" viewBox="0 0 610 33" fill="none" xmlns="http://www.w3.org/2000/svg">
<path d="M6 0.5H131C134.038 0.500002 136.5 2.96244 136.5 6V26C136.5 29.0376 134.038 31.5 131 31.5H6C2.96244 31.5 0.5 29.0376 0.5 26V6C0.5 2.96243 2.96243 0.5 6 0.5Z" stroke="#E5E7EB"/>
<path d="M18.9167 11.9165C18.9167 11.7112 18.9708 11.5096 19.0736 11.3319C19.1764 11.1542 19.3243 11.0068 19.5023 10.9046C19.6803 10.8023 19.8821 10.7488 20.0874 10.7495C20.2927 10.7502 20.4941 10.8051 20.6714 10.9085L27.6697 14.9907C27.8463 15.0932 27.9929 15.2402 28.0949 15.4171C28.1969 15.594 28.2506 15.7946 28.2508 15.9988C28.251 16.203 28.1976 16.4036 28.0959 16.5807C27.9942 16.7578 27.8478 16.9051 27.6714 17.0079L20.6714 21.0912C20.4941 21.1947 20.2927 21.2495 20.0874 21.2502C19.8821 21.2509 19.6803 21.1974 19.5023 21.0952C19.3243 20.9929 19.1764 20.8455 19.0736 20.6678C18.9708 20.4901 18.9167 20.2885 18.9167 20.0832V11.9165Z" stroke="#3D4758" stroke-width="1.16667" stroke-linecap="round" stroke-linejoin="round"/>
<path d="M41.7841 20.5H38.9588V11.7727H41.8736C42.7287 11.7727 43.4631 11.9474 44.0767 12.2969C44.6903 12.6435 45.1605 13.142 45.4872 13.7926C45.8168 14.4403 45.9815 15.2173 45.9815 16.1236C45.9815 17.0327 45.8153 17.8139 45.483 18.4673C45.1534 19.1207 44.6761 19.6236 44.0511 19.9759C43.4261 20.3253 42.6705 20.5 41.7841 20.5ZM40.2756 19.3494H41.7116C42.3764 19.3494 42.929 19.2244 43.3693 18.9744C43.8097 18.7216 44.1392 18.3565 44.358 17.8793C44.5767 17.3991 44.6861 16.8139 44.6861 16.1236C44.6861 15.4389 44.5767 14.858 44.358 14.3807C44.142 13.9034 43.8196 13.5412 43.3906 13.294C42.9616 13.0469 42.429 12.9233 41.7926 12.9233H40.2756V19.3494ZM50.3377 20.6321C49.6928 20.6321 49.1374 20.4943 48.6715 20.2188C48.2085 19.9403 47.8505 19.5497 47.5977 19.0469C47.3477 18.5412 47.2227 17.9489 47.2227 17.2699C47.2227 16.5994 47.3477 16.0085 47.5977 15.4972C47.8505 14.9858 48.2028 14.5866 48.6545 14.2997C49.109 14.0128 49.6403 13.8693 50.2482 13.8693C50.6175 13.8693 50.9755 13.9304 51.3221 14.0526C51.6687 14.1747 51.9798 14.3665 52.2553 14.6278C52.5309 14.8892 52.7482 15.2287 52.9073 15.6463C53.0664 16.0611 53.146 16.5653 53.146 17.1591V17.6108H47.9428V16.6562H51.8974C51.8974 16.321 51.8292 16.0241 51.6928 15.7656C51.5565 15.5043 51.3647 15.2983 51.1175 15.1477C50.8732 14.9972 50.5863 14.9219 50.2567 14.9219C49.8988 14.9219 49.5863 15.0099 49.3192 15.1861C49.055 15.3594 48.8505 15.5866 48.7056 15.8679C48.5636 16.1463 48.4925 16.4489 48.4925 16.7756V17.5213C48.4925 17.9588 48.5692 18.331 48.7227 18.6378C48.8789 18.9446 49.0962 19.179 49.3746 19.3409C49.6531 19.5 49.9783 19.5795 50.3505 19.5795C50.592 19.5795 50.8121 19.5455 51.011 19.4773C51.2099 19.4062 51.3817 19.3011 51.5266 19.1619C51.6715 19.0227 51.7823 18.8509 51.859 18.6463L53.065 18.8636C52.9684 19.2187 52.7951 19.5298 52.5451 19.7969C52.2979 20.0611 51.9869 20.267 51.6119 20.4148C51.2397 20.5597 50.815 20.6321 50.3377 20.6321ZM57.6747 13.9545V14.9773H53.9759V13.9545H57.6747ZM54.9901 20.5V13.196C54.9901 12.7869 55.0795 12.4474 55.2585 12.1776C55.4375 11.9048 55.6747 11.7017 55.9702 11.5682C56.2656 11.4318 56.5866 11.3636 56.9332 11.3636C57.1889 11.3636 57.4077 11.3849 57.5895 11.4276C57.7713 11.4673 57.9062 11.5043 57.9943 11.5384L57.696 12.5696C57.6364 12.5526 57.5597 12.5327 57.4659 12.5099C57.3722 12.4844 57.2585 12.4716 57.125 12.4716C56.8153 12.4716 56.5938 12.5483 56.4602 12.7017C56.3295 12.8551 56.2642 13.0767 56.2642 13.3665V20.5H54.9901ZM60.695 20.6449C60.2802 20.6449 59.9052 20.5682 59.57 20.4148C59.2347 20.2585 58.9691 20.0327 58.7731 19.7372C58.5799 19.4418 58.4833 19.0795 58.4833 18.6506C58.4833 18.2812 58.5543 17.9773 58.6964 17.7386C58.8384 17.5 59.0302 17.3111 59.2717 17.1719C59.5131 17.0327 59.783 16.9276 60.0813 16.8565C60.3796 16.7855 60.6836 16.7315 60.9933 16.6946C61.3853 16.6491 61.7035 16.6122 61.9478 16.5838C62.1921 16.5526 62.3697 16.5028 62.4805 16.4347C62.5913 16.3665 62.6467 16.2557 62.6467 16.1023V16.0724C62.6467 15.7003 62.5415 15.4119 62.3313 15.2074C62.1239 15.0028 61.8143 14.9006 61.4023 14.9006C60.9734 14.9006 60.6353 14.9957 60.3881 15.1861C60.1438 15.3736 59.9748 15.5824 59.881 15.8125L58.6836 15.5398C58.8256 15.142 59.033 14.821 59.3058 14.5767C59.5813 14.3295 59.8981 14.1506 60.256 14.0398C60.614 13.9261 60.9904 13.8693 61.3853 13.8693C61.6467 13.8693 61.9237 13.9006 62.2163 13.9631C62.5117 14.0227 62.7873 14.1335 63.043 14.2955C63.3015 14.4574 63.5131 14.6889 63.6779 14.9901C63.8427 15.2884 63.9251 15.6761 63.9251 16.1534V20.5H62.6808V19.6051H62.6296C62.5472 19.7699 62.4237 19.9318 62.2589 20.0909C62.0941 20.25 61.8825 20.3821 61.6239 20.4872C61.3654 20.5923 61.0558 20.6449 60.695 20.6449ZM60.9719 19.6222C61.3242 19.6222 61.6254 19.5526 61.8754 19.4134C62.1282 19.2741 62.32 19.0923 62.4506 18.8679C62.5842 18.6406 62.6509 18.3977 62.6509 18.1392V17.2955C62.6055 17.3409 62.5174 17.3835 62.3867 17.4233C62.2589 17.4602 62.1126 17.4929 61.9478 17.5213C61.783 17.5469 61.6225 17.571 61.4663 17.5938C61.31 17.6136 61.1793 17.6307 61.0742 17.6449C60.8271 17.6761 60.6012 17.7287 60.3967 17.8026C60.195 17.8764 60.033 17.983 59.9109 18.1222C59.7915 18.2585 59.7319 18.4403 59.7319 18.6676C59.7319 18.983 59.8484 19.2216 60.0813 19.3835C60.3143 19.5426 60.6112 19.6222 60.9719 19.6222ZM69.7685 17.7855V13.9545H71.0469V20.5H69.794V19.3665H69.7259C69.5753 19.7159 69.3338 20.0071 69.0014 20.2401C68.6719 20.4702 68.2614 20.5852 67.7699 20.5852C67.3494 20.5852 66.9773 20.4929 66.6534 20.3082C66.3324 20.1207 66.0795 19.8438 65.8949 19.4773C65.7131 19.1108 65.6222 18.6577 65.6222 18.1179V13.9545H66.8963V17.9645C66.8963 18.4105 67.0199 18.7656 67.267 19.0298C67.5142 19.294 67.8352 19.4261 68.2301 19.4261C68.4688 19.4261 68.706 19.3665 68.9418 19.2472C69.1804 19.1278 69.3778 18.9474 69.5341 18.706C69.6932 18.4645 69.7713 18.1577 69.7685 17.7855ZM74.033 11.7727V20.5H72.7589V11.7727H74.033ZM78.8026 13.9545V14.9773H75.2273V13.9545H78.8026ZM76.1861 12.3864H77.4602V18.5781C77.4602 18.8253 77.4972 19.0114 77.571 19.1364C77.6449 19.2585 77.7401 19.3423 77.8565 19.3878C77.9759 19.4304 78.1051 19.4517 78.2443 19.4517C78.3466 19.4517 78.4361 19.4446 78.5128 19.4304C78.5895 19.4162 78.6491 19.4048 78.6918 19.3963L78.9219 20.4489C78.848 20.4773 78.7429 20.5057 78.6065 20.5341C78.4702 20.5653 78.2997 20.5824 78.0952 20.5852C77.7599 20.5909 77.4474 20.5312 77.1577 20.4062C76.8679 20.2812 76.6335 20.0881 76.4545 19.8267C76.2756 19.5653 76.1861 19.2372 76.1861 18.8423V12.3864ZM83.4901 20.5V11.7727H84.7642V15.0156H84.8409C84.9148 14.8793 85.0213 14.7216 85.1605 14.5426C85.2997 14.3636 85.4929 14.2074 85.7401 14.0739C85.9872 13.9375 86.3139 13.8693 86.7202 13.8693C87.2486 13.8693 87.7202 14.0028 88.1349 14.2699C88.5497 14.5369 88.875 14.9219 89.1108 15.4247C89.3494 15.9276 89.4688 16.5327 89.4688 17.2401C89.4688 17.9474 89.3509 18.554 89.1151 19.0597C88.8793 19.5625 88.5554 19.9503 88.1435 20.223C87.7315 20.4929 87.2614 20.6278 86.733 20.6278C86.3352 20.6278 86.0099 20.5611 85.7571 20.4276C85.5071 20.294 85.3111 20.1378 85.169 19.9588C85.027 19.7798 84.9176 19.6207 84.8409 19.4815H84.7344V20.5H83.4901ZM84.7386 17.2273C84.7386 17.6875 84.8054 18.0909 84.9389 18.4375C85.0724 18.7841 85.2656 19.0554 85.5185 19.2514C85.7713 19.4446 86.081 19.5412 86.4474 19.5412C86.8281 19.5412 87.1463 19.4403 87.402 19.2386C87.6577 19.0341 87.8509 18.7571 87.9815 18.4077C88.1151 18.0582 88.1818 17.6648 88.1818 17.2273C88.1818 16.7955 88.1165 16.4077 87.9858 16.0639C87.858 15.7202 87.6648 15.4489 87.4062 15.25C87.1506 15.0511 86.831 14.9517 86.4474 14.9517C86.0781 14.9517 85.7656 15.0469 85.5099 15.2372C85.2571 15.4276 85.0653 15.6932 84.9347 16.0341C84.804 16.375 84.7386 16.7727 84.7386 17.2273ZM95.0458 17.7855V13.9545H96.3242V20.5H95.0714V19.3665H95.0032C94.8526 19.7159 94.6112 20.0071 94.2788 20.2401C93.9492 20.4702 93.5387 20.5852 93.0472 20.5852C92.6268 20.5852 92.2546 20.4929 91.9308 20.3082C91.6097 20.1207 91.3569 19.8438 91.1722 19.4773C90.9904 19.1108 90.8995 18.6577 90.8995 18.1179V13.9545H92.1737V17.9645C92.1737 18.4105 92.2972 18.7656 92.5444 19.0298C92.7915 19.294 93.1126 19.4261 93.5075 19.4261C93.7461 19.4261 93.9833 19.3665 94.2191 19.2472C94.4577 19.1278 94.6552 18.9474 94.8114 18.706C94.9705 18.4645 95.0487 18.1577 95.0458 17.7855ZM101.092 13.9545V14.9773H97.5163V13.9545H101.092ZM98.4751 12.3864H99.7493V18.5781C99.7493 18.8253 99.7862 19.0114 99.8601 19.1364C99.9339 19.2585 100.029 19.3423 100.146 19.3878C100.265 19.4304 100.394 19.4517 100.533 19.4517C100.636 19.4517 100.725 19.4446 100.802 19.4304C100.879 19.4162 100.938 19.4048 100.981 19.3963L101.211 20.4489C101.137 20.4773 101.032 20.5057 100.896 20.5341C100.759 20.5653 100.589 20.5824 100.384 20.5852C100.049 20.5909 99.7365 20.5312 99.4467 20.4062C99.157 20.2812 98.9226 20.0881 98.7436 19.8267C98.5646 19.5653 98.4751 19.2372 98.4751 18.8423V12.3864ZM105.556 13.9545V14.9773H101.981V13.9545H105.556ZM102.94 12.3864H104.214V18.5781C104.214 18.8253 104.251 19.0114 104.325 19.1364C104.399 19.2585 104.494 19.3423 104.61 19.3878C104.73 19.4304 104.859 19.4517 104.998 19.4517C105.1 19.4517 105.19 19.4446 105.267 19.4304C105.343 19.4162 105.403 19.4048 105.446 19.3963L105.676 20.4489C105.602 20.4773 105.497 20.5057 105.36 20.5341C105.224 20.5653 105.054 20.5824 104.849 20.5852C104.514 20.5909 104.201 20.5312 103.912 20.4062C103.622 20.2812 103.387 20.0881 103.208 19.8267C103.029 19.5653 102.94 19.2372 102.94 18.8423V12.3864ZM109.653 20.6321C109.039 20.6321 108.504 20.4915 108.046 20.2102C107.589 19.929 107.234 19.5355 106.981 19.0298C106.728 18.5241 106.602 17.9332 106.602 17.2571C106.602 16.5781 106.728 15.9844 106.981 15.4759C107.234 14.9673 107.589 14.5724 108.046 14.2912C108.504 14.0099 109.039 13.8693 109.653 13.8693C110.266 13.8693 110.802 14.0099 111.259 14.2912C111.717 14.5724 112.072 14.9673 112.325 15.4759C112.577 15.9844 112.704 16.5781 112.704 17.2571C112.704 17.9332 112.577 18.5241 112.325 19.0298C112.072 19.5355 111.717 19.929 111.259 20.2102C110.802 20.4915 110.266 20.6321 109.653 20.6321ZM109.657 19.5625C110.055 19.5625 110.384 19.4574 110.646 19.2472C110.907 19.0369 111.1 18.7571 111.225 18.4077C111.353 18.0582 111.417 17.6733 111.417 17.2528C111.417 16.8352 111.353 16.4517 111.225 16.1023C111.1 15.75 110.907 15.4673 110.646 15.2543C110.384 15.0412 110.055 14.9347 109.657 14.9347C109.256 14.9347 108.924 15.0412 108.66 15.2543C108.398 15.4673 108.204 15.75 108.076 16.1023C107.951 16.4517 107.888 16.8352 107.888 17.2528C107.888 17.6733 107.951 18.0582 108.076 18.4077C108.204 18.7571 108.398 19.0369 108.66 19.2472C108.924 19.4574 109.256 19.5625 109.657 19.5625ZM115.4 16.6136V20.5H114.126V13.9545H115.349V15.0199H115.43C115.581 14.6733 115.816 14.3949 116.137 14.1847C116.461 13.9744 116.869 13.8693 117.36 13.8693C117.806 13.8693 118.197 13.9631 118.532 14.1506C118.868 14.3352 119.127 14.6108 119.312 14.9773C119.497 15.3437 119.589 15.7969 119.589 16.3366V20.5H118.315V16.4901C118.315 16.0156 118.191 15.6449 117.944 15.3778C117.697 15.108 117.358 14.973 116.926 14.973C116.63 14.973 116.368 15.0369 116.137 15.1648C115.91 15.2926 115.73 15.4801 115.596 15.7273C115.466 15.9716 115.4 16.267 115.4 16.6136Z" fill="#3D4758"/>
<path d="M147 0.5H250C253.038 0.5 255.5 2.96243 255.5 6V26C255.5 29.0376 253.038 31.5 250 31.5H147C143.962 31.5 141.5 29.0376 141.5 26V6C141.5 2.96243 143.962 0.5 147 0.5Z" stroke="#E5E7EB"/>
<path d="M160.784 20.5H157.959V11.7727H160.874C161.729 11.7727 162.463 11.9474 163.077 12.2969C163.69 12.6435 164.161 13.142 164.487 13.7926C164.817 14.4403 164.982 15.2173 164.982 16.1236C164.982 17.0327 164.815 17.8139 164.483 18.4673C164.153 19.1207 163.676 19.6236 163.051 19.9759C162.426 20.3253 161.67 20.5 160.784 20.5ZM159.276 19.3494H160.712C161.376 19.3494 161.929 19.2244 162.369 18.9744C162.81 18.7216 163.139 18.3565 163.358 17.8793C163.577 17.3991 163.686 16.8139 163.686 16.1236C163.686 15.4389 163.577 14.858 163.358 14.3807C163.142 13.9034 162.82 13.5412 162.391 13.294C161.962 13.0469 161.429 12.9233 160.793 12.9233H159.276V19.3494ZM169.338 20.6321C168.693 20.6321 168.137 20.4943 167.672 20.2188C167.208 19.9403 166.85 19.5497 166.598 19.0469C166.348 18.5412 166.223 17.9489 166.223 17.2699C166.223 16.5994 166.348 16.0085 166.598 15.4972C166.85 14.9858 167.203 14.5866 167.654 14.2997C168.109 14.0128 168.64 13.8693 169.248 13.8693C169.618 13.8693 169.975 13.9304 170.322 14.0526C170.669 14.1747 170.98 14.3665 171.255 14.6278C171.531 14.8892 171.748 15.2287 171.907 15.6463C172.066 16.0611 172.146 16.5653 172.146 17.1591V17.6108H166.943V16.6562H170.897C170.897 16.321 170.829 16.0241 170.693 15.7656C170.556 15.5043 170.365 15.2983 170.118 15.1477C169.873 14.9972 169.586 14.9219 169.257 14.9219C168.899 14.9219 168.586 15.0099 168.319 15.1861C168.055 15.3594 167.85 15.5866 167.706 15.8679C167.564 16.1463 167.493 16.4489 167.493 16.7756V17.5213C167.493 17.9588 167.569 18.331 167.723 18.6378C167.879 18.9446 168.096 19.179 168.375 19.3409C168.653 19.5 168.978 19.5795 169.35 19.5795C169.592 19.5795 169.812 19.5455 170.011 19.4773C170.21 19.4062 170.382 19.3011 170.527 19.1619C170.672 19.0227 170.782 18.8509 170.859 18.6463L172.065 18.8636C171.968 19.2187 171.795 19.5298 171.545 19.7969C171.298 20.0611 170.987 20.267 170.612 20.4148C170.24 20.5597 169.815 20.6321 169.338 20.6321ZM176.675 13.9545V14.9773H172.976V13.9545H176.675ZM173.99 20.5V13.196C173.99 12.7869 174.08 12.4474 174.259 12.1776C174.438 11.9048 174.675 11.7017 174.97 11.5682C175.266 11.4318 175.587 11.3636 175.933 11.3636C176.189 11.3636 176.408 11.3849 176.589 11.4276C176.771 11.4673 176.906 11.5043 176.994 11.5384L176.696 12.5696C176.636 12.5526 176.56 12.5327 176.466 12.5099C176.372 12.4844 176.259 12.4716 176.125 12.4716C175.815 12.4716 175.594 12.5483 175.46 12.7017C175.33 12.8551 175.264 13.0767 175.264 13.3665V20.5H173.99ZM179.695 20.6449C179.28 20.6449 178.905 20.5682 178.57 20.4148C178.235 20.2585 177.969 20.0327 177.773 19.7372C177.58 19.4418 177.483 19.0795 177.483 18.6506C177.483 18.2812 177.554 17.9773 177.696 17.7386C177.838 17.5 178.03 17.3111 178.272 17.1719C178.513 17.0327 178.783 16.9276 179.081 16.8565C179.38 16.7855 179.684 16.7315 179.993 16.6946C180.385 16.6491 180.703 16.6122 180.948 16.5838C181.192 16.5526 181.37 16.5028 181.48 16.4347C181.591 16.3665 181.647 16.2557 181.647 16.1023V16.0724C181.647 15.7003 181.542 15.4119 181.331 15.2074C181.124 15.0028 180.814 14.9006 180.402 14.9006C179.973 14.9006 179.635 14.9957 179.388 15.1861C179.144 15.3736 178.975 15.5824 178.881 15.8125L177.684 15.5398C177.826 15.142 178.033 14.821 178.306 14.5767C178.581 14.3295 178.898 14.1506 179.256 14.0398C179.614 13.9261 179.99 13.8693 180.385 13.8693C180.647 13.8693 180.924 13.9006 181.216 13.9631C181.512 14.0227 181.787 14.1335 182.043 14.2955C182.301 14.4574 182.513 14.6889 182.678 14.9901C182.843 15.2884 182.925 15.6761 182.925 16.1534V20.5H181.681V19.6051H181.63C181.547 19.7699 181.424 19.9318 181.259 20.0909C181.094 20.25 180.882 20.3821 180.624 20.4872C180.365 20.5923 180.056 20.6449 179.695 20.6449ZM179.972 19.6222C180.324 19.6222 180.625 19.5526 180.875 19.4134C181.128 19.2741 181.32 19.0923 181.451 18.8679C181.584 18.6406 181.651 18.3977 181.651 18.1392V17.2955C181.605 17.3409 181.517 17.3835 181.387 17.4233C181.259 17.4602 181.113 17.4929 180.948 17.5213C180.783 17.5469 180.623 17.571 180.466 17.5938C180.31 17.6136 180.179 17.6307 180.074 17.6449C179.827 17.6761 179.601 17.7287 179.397 17.8026C179.195 17.8764 179.033 17.983 178.911 18.1222C178.792 18.2585 178.732 18.4403 178.732 18.6676C178.732 18.983 178.848 19.2216 179.081 19.3835C179.314 19.5426 179.611 19.6222 179.972 19.6222ZM188.768 17.7855V13.9545H190.047V20.5H188.794V19.3665H188.726C188.575 19.7159 188.334 20.0071 188.001 20.2401C187.672 20.4702 187.261 20.5852 186.77 20.5852C186.349 20.5852 185.977 20.4929 185.653 20.3082C185.332 20.1207 185.08 19.8438 184.895 19.4773C184.713 19.1108 184.622 18.6577 184.622 18.1179V13.9545H185.896V17.9645C185.896 18.4105 186.02 18.7656 186.267 19.0298C186.514 19.294 186.835 19.4261 187.23 19.4261C187.469 19.4261 187.706 19.3665 187.942 19.2472C188.18 19.1278 188.378 18.9474 188.534 18.706C188.693 18.4645 188.771 18.1577 188.768 17.7855ZM193.033 11.7727V20.5H191.759V11.7727H193.033ZM197.803 13.9545V14.9773H194.227V13.9545H197.803ZM195.186 12.3864H196.46V18.5781C196.46 18.8253 196.497 19.0114 196.571 19.1364C196.645 19.2585 196.74 19.3423 196.857 19.3878C196.976 19.4304 197.105 19.4517 197.244 19.4517C197.347 19.4517 197.436 19.4446 197.513 19.4304C197.589 19.4162 197.649 19.4048 197.692 19.3963L197.922 20.4489C197.848 20.4773 197.743 20.5057 197.607 20.5341C197.47 20.5653 197.3 20.5824 197.095 20.5852C196.76 20.5909 196.447 20.5312 196.158 20.4062C195.868 20.2812 195.634 20.0881 195.455 19.8267C195.276 19.5653 195.186 19.2372 195.186 18.8423V12.3864ZM202.49 20.5V11.7727H203.764V15.0156H203.841C203.915 14.8793 204.021 14.7216 204.161 14.5426C204.3 14.3636 204.493 14.2074 204.74 14.0739C204.987 13.9375 205.314 13.8693 205.72 13.8693C206.249 13.8693 206.72 14.0028 207.135 14.2699C207.55 14.5369 207.875 14.9219 208.111 15.4247C208.349 15.9276 208.469 16.5327 208.469 17.2401C208.469 17.9474 208.351 18.554 208.115 19.0597C207.879 19.5625 207.555 19.9503 207.143 20.223C206.732 20.4929 206.261 20.6278 205.733 20.6278C205.335 20.6278 205.01 20.5611 204.757 20.4276C204.507 20.294 204.311 20.1378 204.169 19.9588C204.027 19.7798 203.918 19.6207 203.841 19.4815H203.734V20.5H202.49ZM203.739 17.2273C203.739 17.6875 203.805 18.0909 203.939 18.4375C204.072 18.7841 204.266 19.0554 204.518 19.2514C204.771 19.4446 205.081 19.5412 205.447 19.5412C205.828 19.5412 206.146 19.4403 206.402 19.2386C206.658 19.0341 206.851 18.7571 206.982 18.4077C207.115 18.0582 207.182 17.6648 207.182 17.2273C207.182 16.7955 207.116 16.4077 206.986 16.0639C206.858 15.7202 206.665 15.4489 206.406 15.25C206.151 15.0511 205.831 14.9517 205.447 14.9517C205.078 14.9517 204.766 15.0469 204.51 15.2372C204.257 15.4276 204.065 15.6932 203.935 16.0341C203.804 16.375 203.739 16.7727 203.739 17.2273ZM214.046 17.7855V13.9545H215.324V20.5H214.071V19.3665H214.003C213.853 19.7159 213.611 20.0071 213.279 20.2401C212.949 20.4702 212.539 20.5852 212.047 20.5852C211.627 20.5852 211.255 20.4929 210.931 20.3082C210.61 20.1207 210.357 19.8438 210.172 19.4773C209.99 19.1108 209.9 18.6577 209.9 18.1179V13.9545H211.174V17.9645C211.174 18.4105 211.297 18.7656 211.544 19.0298C211.792 19.294 212.113 19.4261 212.507 19.4261C212.746 19.4261 212.983 19.3665 213.219 19.2472C213.458 19.1278 213.655 18.9474 213.811 18.706C213.971 18.4645 214.049 18.1577 214.046 17.7855ZM220.092 13.9545V14.9773H216.516V13.9545H220.092ZM217.475 12.3864H218.749V18.5781C218.749 18.8253 218.786 19.0114 218.86 19.1364C218.934 19.2585 219.029 19.3423 219.146 19.3878C219.265 19.4304 219.394 19.4517 219.533 19.4517C219.636 19.4517 219.725 19.4446 219.802 19.4304C219.879 19.4162 219.938 19.4048 219.981 19.3963L220.211 20.4489C220.137 20.4773 220.032 20.5057 219.896 20.5341C219.759 20.5653 219.589 20.5824 219.384 20.5852C219.049 20.5909 218.737 20.5312 218.447 20.4062C218.157 20.2812 217.923 20.0881 217.744 19.8267C217.565 19.5653 217.475 19.2372 217.475 18.8423V12.3864ZM224.556 13.9545V14.9773H220.981V13.9545H224.556ZM221.94 12.3864H223.214V18.5781C223.214 18.8253 223.251 19.0114 223.325 19.1364C223.399 19.2585 223.494 19.3423 223.61 19.3878C223.73 19.4304 223.859 19.4517 223.998 19.4517C224.1 19.4517 224.19 19.4446 224.267 19.4304C224.343 19.4162 224.403 19.4048 224.446 19.3963L224.676 20.4489C224.602 20.4773 224.497 20.5057 224.36 20.5341C224.224 20.5653 224.054 20.5824 223.849 20.5852C223.514 20.5909 223.201 20.5312 222.912 20.4062C222.622 20.2812 222.387 20.0881 222.208 19.8267C222.029 19.5653 221.94 19.2372 221.94 18.8423V12.3864ZM228.653 20.6321C228.039 20.6321 227.504 20.4915 227.046 20.2102C226.589 19.929 226.234 19.5355 225.981 19.0298C225.728 18.5241 225.602 17.9332 225.602 17.2571C225.602 16.5781 225.728 15.9844 225.981 15.4759C226.234 14.9673 226.589 14.5724 227.046 14.2912C227.504 14.0099 228.039 13.8693 228.653 13.8693C229.266 13.8693 229.802 14.0099 230.259 14.2912C230.717 14.5724 231.072 14.9673 231.325 15.4759C231.577 15.9844 231.704 16.5781 231.704 17.2571C231.704 17.9332 231.577 18.5241 231.325 19.0298C231.072 19.5355 230.717 19.929 230.259 20.2102C229.802 20.4915 229.266 20.6321 228.653 20.6321ZM228.657 19.5625C229.055 19.5625 229.384 19.4574 229.646 19.2472C229.907 19.0369 230.1 18.7571 230.225 18.4077C230.353 18.0582 230.417 17.6733 230.417 17.2528C230.417 16.8352 230.353 16.4517 230.225 16.1023C230.1 15.75 229.907 15.4673 229.646 15.2543C229.384 15.0412 229.055 14.9347 228.657 14.9347C228.256 14.9347 227.924 15.0412 227.66 15.2543C227.398 15.4673 227.204 15.75 227.076 16.1023C226.951 16.4517 226.888 16.8352 226.888 17.2528C226.888 17.6733 226.951 18.0582 227.076 18.4077C227.204 18.7571 227.398 19.0369 227.66 19.2472C227.924 19.4574 228.256 19.5625 228.657 19.5625ZM234.4 16.6136V20.5H233.126V13.9545H234.349V15.0199H234.43C234.581 14.6733 234.816 14.3949 235.137 14.1847C235.461 13.9744 235.869 13.8693 236.36 13.8693C236.806 13.8693 237.197 13.9631 237.532 14.1506C237.868 14.3352 238.127 14.6108 238.312 14.9773C238.497 15.3437 238.589 15.7969 238.589 16.3366V20.5H237.315V16.4901C237.315 16.0156 237.191 15.6449 236.944 15.3778C236.697 15.108 236.358 14.973 235.926 14.973C235.63 14.973 235.368 15.0369 235.137 15.1648C234.91 15.2926 234.73 15.4801 234.596 15.7273C234.466 15.9716 234.4 16.267 234.4 16.6136Z" fill="#3D4758"/>
<path d="M266 0.5H300C303.038 0.500001 305.5 2.96243 305.5 6V26C305.5 29.0376 303.038 31.5 300 31.5H266C262.962 31.5 260.5 29.0376 260.5 26V6C260.5 2.96243 262.962 0.5 266 0.5Z" stroke="#E5E7EB"/>
<path d="M278.917 11.9165C278.917 11.7112 278.971 11.5096 279.074 11.3319C279.176 11.1542 279.324 11.0068 279.502 10.9046C279.68 10.8023 279.882 10.7488 280.087 10.7495C280.293 10.7502 280.494 10.8051 280.671 10.9085L287.67 14.9907C287.846 15.0932 287.993 15.2402 288.095 15.4171C288.197 15.594 288.251 15.7946 288.251 15.9988C288.251 16.203 288.198 16.4036 288.096 16.5807C287.994 16.7578 287.848 16.9051 287.671 17.0079L280.671 21.0912C280.494 21.1947 280.293 21.2495 280.087 21.2502C279.882 21.2509 279.68 21.1974 279.502 21.0952C279.324 20.9929 279.176 20.8455 279.074 20.6678C278.971 20.4901 278.917 20.2885 278.917 20.0832V11.9165Z" stroke="#3D4758" stroke-width="1.16667" stroke-linecap="round" stroke-linejoin="round"/>
<rect x="310.5" y="0.5" width="147" height="31" rx="5.5" stroke="#E5E7EB"/>
<path d="M328.917 11.9165C328.916 11.7112 328.971 11.5096 329.073 11.3319C329.176 11.1542 329.324 11.0068 329.502 10.9046C329.68 10.8023 329.882 10.7488 330.087 10.7495C330.292 10.7502 330.494 10.8051 330.671 10.9085L337.669 14.9907C337.846 15.0932 337.993 15.2402 338.095 15.4171C338.197 15.594 338.25 15.7946 338.251 15.9988C338.251 16.203 338.197 16.4036 338.096 16.5807C337.994 16.7578 337.848 16.9051 337.671 17.0079L330.671 21.0912C330.494 21.1947 330.292 21.2495 330.087 21.2502C329.882 21.2509 329.68 21.1974 329.502 21.0952C329.324 20.9929 329.176 20.8455 329.073 20.6678C328.971 20.4901 328.916 20.2885 328.917 20.0832V11.9165Z" stroke="#A0AEC0" stroke-width="1.16667" stroke-linecap="round" stroke-linejoin="round"/>
<path d="M351.784 20.5H348.959V11.7727H351.874C352.729 11.7727 353.463 11.9474 354.077 12.2969C354.69 12.6435 355.161 13.142 355.487 13.7926C355.817 14.4403 355.982 15.2173 355.982 16.1236C355.982 17.0327 355.815 17.8139 355.483 18.4673C355.153 19.1207 354.676 19.6236 354.051 19.9759C353.426 20.3253 352.67 20.5 351.784 20.5ZM350.276 19.3494H351.712C352.376 19.3494 352.929 19.2244 353.369 18.9744C353.81 18.7216 354.139 18.3565 354.358 17.8793C354.577 17.3991 354.686 16.8139 354.686 16.1236C354.686 15.4389 354.577 14.858 354.358 14.3807C354.142 13.9034 353.82 13.5412 353.391 13.294C352.962 13.0469 352.429 12.9233 351.793 12.9233H350.276V19.3494ZM360.338 20.6321C359.693 20.6321 359.137 20.4943 358.672 20.2188C358.208 19.9403 357.85 19.5497 357.598 19.0469C357.348 18.5412 357.223 17.9489 357.223 17.2699C357.223 16.5994 357.348 16.0085 357.598 15.4972C357.85 14.9858 358.203 14.5866 358.654 14.2997C359.109 14.0128 359.64 13.8693 360.248 13.8693C360.618 13.8693 360.975 13.9304 361.322 14.0526C361.669 14.1747 361.98 14.3665 362.255 14.6278C362.531 14.8892 362.748 15.2287 362.907 15.6463C363.066 16.0611 363.146 16.5653 363.146 17.1591V17.6108H357.943V16.6562H361.897C361.897 16.321 361.829 16.0241 361.693 15.7656C361.556 15.5043 361.365 15.2983 361.118 15.1477C360.873 14.9972 360.586 14.9219 360.257 14.9219C359.899 14.9219 359.586 15.0099 359.319 15.1861C359.055 15.3594 358.85 15.5866 358.706 15.8679C358.564 16.1463 358.493 16.4489 358.493 16.7756V17.5213C358.493 17.9588 358.569 18.331 358.723 18.6378C358.879 18.9446 359.096 19.179 359.375 19.3409C359.653 19.5 359.978 19.5795 360.35 19.5795C360.592 19.5795 360.812 19.5455 361.011 19.4773C361.21 19.4062 361.382 19.3011 361.527 19.1619C361.672 19.0227 361.782 18.8509 361.859 18.6463L363.065 18.8636C362.968 19.2187 362.795 19.5298 362.545 19.7969C362.298 20.0611 361.987 20.267 361.612 20.4148C361.24 20.5597 360.815 20.6321 360.338 20.6321ZM367.675 13.9545V14.9773H363.976V13.9545H367.675ZM364.99 20.5V13.196C364.99 12.7869 365.08 12.4474 365.259 12.1776C365.438 11.9048 365.675 11.7017 365.97 11.5682C366.266 11.4318 366.587 11.3636 366.933 11.3636C367.189 11.3636 367.408 11.3849 367.589 11.4276C367.771 11.4673 367.906 11.5043 367.994 11.5384L367.696 12.5696C367.636 12.5526 367.56 12.5327 367.466 12.5099C367.372 12.4844 367.259 12.4716 367.125 12.4716C366.815 12.4716 366.594 12.5483 366.46 12.7017C366.33 12.8551 366.264 13.0767 366.264 13.3665V20.5H364.99ZM370.695 20.6449C370.28 20.6449 369.905 20.5682 369.57 20.4148C369.235 20.2585 368.969 20.0327 368.773 19.7372C368.58 19.4418 368.483 19.0795 368.483 18.6506C368.483 18.2812 368.554 17.9773 368.696 17.7386C368.838 17.5 369.03 17.3111 369.272 17.1719C369.513 17.0327 369.783 16.9276 370.081 16.8565C370.38 16.7855 370.684 16.7315 370.993 16.6946C371.385 16.6491 371.703 16.6122 371.948 16.5838C372.192 16.5526 372.37 16.5028 372.48 16.4347C372.591 16.3665 372.647 16.2557 372.647 16.1023V16.0724C372.647 15.7003 372.542 15.4119 372.331 15.2074C372.124 15.0028 371.814 14.9006 371.402 14.9006C370.973 14.9006 370.635 14.9957 370.388 15.1861C370.144 15.3736 369.975 15.5824 369.881 15.8125L368.684 15.5398C368.826 15.142 369.033 14.821 369.306 14.5767C369.581 14.3295 369.898 14.1506 370.256 14.0398C370.614 13.9261 370.99 13.8693 371.385 13.8693C371.647 13.8693 371.924 13.9006 372.216 13.9631C372.512 14.0227 372.787 14.1335 373.043 14.2955C373.301 14.4574 373.513 14.6889 373.678 14.9901C373.843 15.2884 373.925 15.6761 373.925 16.1534V20.5H372.681V19.6051H372.63C372.547 19.7699 372.424 19.9318 372.259 20.0909C372.094 20.25 371.882 20.3821 371.624 20.4872C371.365 20.5923 371.056 20.6449 370.695 20.6449ZM370.972 19.6222C371.324 19.6222 371.625 19.5526 371.875 19.4134C372.128 19.2741 372.32 19.0923 372.451 18.8679C372.584 18.6406 372.651 18.3977 372.651 18.1392V17.2955C372.605 17.3409 372.517 17.3835 372.387 17.4233C372.259 17.4602 372.113 17.4929 371.948 17.5213C371.783 17.5469 371.623 17.571 371.466 17.5938C371.31 17.6136 371.179 17.6307 371.074 17.6449C370.827 17.6761 370.601 17.7287 370.397 17.8026C370.195 17.8764 370.033 17.983 369.911 18.1222C369.792 18.2585 369.732 18.4403 369.732 18.6676C369.732 18.983 369.848 19.2216 370.081 19.3835C370.314 19.5426 370.611 19.6222 370.972 19.6222ZM379.768 17.7855V13.9545H381.047V20.5H379.794V19.3665H379.726C379.575 19.7159 379.334 20.0071 379.001 20.2401C378.672 20.4702 378.261 20.5852 377.77 20.5852C377.349 20.5852 376.977 20.4929 376.653 20.3082C376.332 20.1207 376.08 19.8438 375.895 19.4773C375.713 19.1108 375.622 18.6577 375.622 18.1179V13.9545H376.896V17.9645C376.896 18.4105 377.02 18.7656 377.267 19.0298C377.514 19.294 377.835 19.4261 378.23 19.4261C378.469 19.4261 378.706 19.3665 378.942 19.2472C379.18 19.1278 379.378 18.9474 379.534 18.706C379.693 18.4645 379.771 18.1577 379.768 17.7855ZM384.033 11.7727V20.5H382.759V11.7727H384.033ZM388.803 13.9545V14.9773H385.227V13.9545H388.803ZM386.186 12.3864H387.46V18.5781C387.46 18.8253 387.497 19.0114 387.571 19.1364C387.645 19.2585 387.74 19.3423 387.857 19.3878C387.976 19.4304 388.105 19.4517 388.244 19.4517C388.347 19.4517 388.436 19.4446 388.513 19.4304C388.589 19.4162 388.649 19.4048 388.692 19.3963L388.922 20.4489C388.848 20.4773 388.743 20.5057 388.607 20.5341C388.47 20.5653 388.3 20.5824 388.095 20.5852C387.76 20.5909 387.447 20.5312 387.158 20.4062C386.868 20.2812 386.634 20.0881 386.455 19.8267C386.276 19.5653 386.186 19.2372 386.186 18.8423V12.3864ZM395.838 20.6278C395.31 20.6278 394.838 20.4929 394.423 20.223C394.011 19.9503 393.688 19.5625 393.452 19.0597C393.219 18.554 393.102 17.9474 393.102 17.2401C393.102 16.5327 393.22 15.9276 393.456 15.4247C393.695 14.9219 394.021 14.5369 394.436 14.2699C394.851 14.0028 395.321 13.8693 395.847 13.8693C396.253 13.8693 396.58 13.9375 396.827 14.0739C397.077 14.2074 397.27 14.3636 397.406 14.5426C397.545 14.7216 397.653 14.8793 397.73 15.0156H397.807V11.7727H399.081V20.5H397.837V19.4815H397.73C397.653 19.6207 397.543 19.7798 397.398 19.9588C397.256 20.1378 397.06 20.294 396.81 20.4276C396.56 20.5611 396.236 20.6278 395.838 20.6278ZM396.119 19.5412C396.486 19.5412 396.795 19.4446 397.048 19.2514C397.304 19.0554 397.497 18.7841 397.628 18.4375C397.761 18.0909 397.828 17.6875 397.828 17.2273C397.828 16.7727 397.763 16.375 397.632 16.0341C397.501 15.6932 397.31 15.4276 397.057 15.2372C396.804 15.0469 396.491 14.9517 396.119 14.9517C395.736 14.9517 395.416 15.0511 395.161 15.25C394.905 15.4489 394.712 15.7202 394.581 16.0639C394.453 16.4077 394.389 16.7955 394.389 17.2273C394.389 17.6648 394.455 18.0582 394.585 18.4077C394.716 18.7571 394.909 19.0341 395.165 19.2386C395.423 19.4403 395.741 19.5412 396.119 19.5412ZM400.9 20.5V13.9545H402.174V20.5H400.9ZM401.543 12.9446C401.321 12.9446 401.131 12.8707 400.972 12.723C400.816 12.5724 400.738 12.3935 400.738 12.1861C400.738 11.9759 400.816 11.7969 400.972 11.6491C401.131 11.4986 401.321 11.4233 401.543 11.4233C401.765 11.4233 401.953 11.4986 402.11 11.6491C402.269 11.7969 402.348 11.9759 402.348 12.1861C402.348 12.3935 402.269 12.5724 402.11 12.723C401.953 12.8707 401.765 12.9446 401.543 12.9446ZM408.793 15.5526L407.638 15.7571C407.589 15.6094 407.513 15.4687 407.408 15.3352C407.305 15.2017 407.166 15.0923 406.99 15.0071C406.814 14.9219 406.594 14.8793 406.33 14.8793C405.969 14.8793 405.668 14.9602 405.426 15.1222C405.185 15.2812 405.064 15.4872 405.064 15.7401C405.064 15.9588 405.145 16.1349 405.307 16.2685C405.469 16.402 405.73 16.5114 406.091 16.5966L407.131 16.8352C407.733 16.9744 408.182 17.1889 408.477 17.4787C408.773 17.7685 408.92 18.1449 408.92 18.608C408.92 19 408.807 19.3494 408.58 19.6562C408.355 19.9602 408.041 20.1989 407.638 20.3722C407.237 20.5455 406.773 20.6321 406.244 20.6321C405.511 20.6321 404.913 20.4759 404.45 20.1634C403.987 19.848 403.703 19.4006 403.598 18.821L404.83 18.6335C404.906 18.9545 405.064 19.1974 405.303 19.3622C405.541 19.5241 405.852 19.6051 406.236 19.6051C406.653 19.6051 406.987 19.5185 407.237 19.3452C407.487 19.169 407.612 18.9545 407.612 18.7017C407.612 18.4972 407.536 18.3253 407.382 18.1861C407.232 18.0469 407 17.9418 406.688 17.8707L405.58 17.6278C404.969 17.4886 404.517 17.267 404.224 16.9631C403.935 16.6591 403.79 16.2741 403.79 15.8082C403.79 15.4219 403.898 15.0838 404.114 14.794C404.33 14.5043 404.628 14.2784 405.009 14.1165C405.389 13.9517 405.825 13.8693 406.317 13.8693C407.024 13.8693 407.581 14.0227 407.987 14.3295C408.393 14.6335 408.662 15.0412 408.793 15.5526ZM412.226 20.6449C411.811 20.6449 411.436 20.5682 411.101 20.4148C410.766 20.2585 410.5 20.0327 410.304 19.7372C410.111 19.4418 410.015 19.0795 410.015 18.6506C410.015 18.2812 410.086 17.9773 410.228 17.7386C410.37 17.5 410.561 17.3111 410.803 17.1719C411.044 17.0327 411.314 16.9276 411.613 16.8565C411.911 16.7855 412.215 16.7315 412.525 16.6946C412.917 16.6491 413.235 16.6122 413.479 16.5838C413.723 16.5526 413.901 16.5028 414.012 16.4347C414.123 16.3665 414.178 16.2557 414.178 16.1023V16.0724C414.178 15.7003 414.073 15.4119 413.863 15.2074C413.655 15.0028 413.346 14.9006 412.934 14.9006C412.505 14.9006 412.167 14.9957 411.919 15.1861C411.675 15.3736 411.506 15.5824 411.412 15.8125L410.215 15.5398C410.357 15.142 410.564 14.821 410.837 14.5767C411.113 14.3295 411.429 14.1506 411.787 14.0398C412.145 13.9261 412.522 13.8693 412.917 13.8693C413.178 13.8693 413.455 13.9006 413.748 13.9631C414.043 14.0227 414.319 14.1335 414.574 14.2955C414.833 14.4574 415.044 14.6889 415.209 14.9901C415.374 15.2884 415.456 15.6761 415.456 16.1534V20.5H414.212V19.6051H414.161C414.078 19.7699 413.955 19.9318 413.79 20.0909C413.625 20.25 413.414 20.3821 413.155 20.4872C412.897 20.5923 412.587 20.6449 412.226 20.6449ZM412.503 19.6222C412.855 19.6222 413.157 19.5526 413.407 19.4134C413.659 19.2741 413.851 19.0923 413.982 18.8679C414.115 18.6406 414.182 18.3977 414.182 18.1392V17.2955C414.137 17.3409 414.049 17.3835 413.918 17.4233C413.79 17.4602 413.644 17.4929 413.479 17.5213C413.314 17.5469 413.154 17.571 412.998 17.5938C412.841 17.6136 412.711 17.6307 412.605 17.6449C412.358 17.6761 412.132 17.7287 411.928 17.8026C411.726 17.8764 411.564 17.983 411.442 18.1222C411.323 18.2585 411.263 18.4403 411.263 18.6676C411.263 18.983 411.38 19.2216 411.613 19.3835C411.846 19.5426 412.142 19.6222 412.503 19.6222ZM417.256 20.5V11.7727H418.53V15.0156H418.607C418.68 14.8793 418.787 14.7216 418.926 14.5426C419.065 14.3636 419.259 14.2074 419.506 14.0739C419.753 13.9375 420.08 13.8693 420.486 13.8693C421.014 13.8693 421.486 14.0028 421.901 14.2699C422.315 14.5369 422.641 14.9219 422.876 15.4247C423.115 15.9276 423.234 16.5327 423.234 17.2401C423.234 17.9474 423.116 18.554 422.881 19.0597C422.645 19.5625 422.321 19.9503 421.909 20.223C421.497 20.4929 421.027 20.6278 420.499 20.6278C420.101 20.6278 419.776 20.5611 419.523 20.4276C419.273 20.294 419.077 20.1378 418.935 19.9588C418.793 19.7798 418.683 19.6207 418.607 19.4815H418.5V20.5H417.256ZM418.504 17.2273C418.504 17.6875 418.571 18.0909 418.705 18.4375C418.838 18.7841 419.031 19.0554 419.284 19.2514C419.537 19.4446 419.847 19.5412 420.213 19.5412C420.594 19.5412 420.912 19.4403 421.168 19.2386C421.423 19.0341 421.616 18.7571 421.747 18.4077C421.881 18.0582 421.947 17.6648 421.947 17.2273C421.947 16.7955 421.882 16.4077 421.751 16.0639C421.624 15.7202 421.43 15.4489 421.172 15.25C420.916 15.0511 420.597 14.9517 420.213 14.9517C419.844 14.9517 419.531 15.0469 419.276 15.2372C419.023 15.4276 418.831 15.6932 418.7 16.0341C418.57 16.375 418.504 16.7727 418.504 17.2273ZM425.939 11.7727V20.5H424.665V11.7727H425.939ZM430.474 20.6321C429.83 20.6321 429.274 20.4943 428.808 20.2188C428.345 19.9403 427.987 19.5497 427.734 19.0469C427.484 18.5412 427.359 17.9489 427.359 17.2699C427.359 16.5994 427.484 16.0085 427.734 15.4972C427.987 14.9858 428.339 14.5866 428.791 14.2997C429.246 14.0128 429.777 13.8693 430.385 13.8693C430.754 13.8693 431.112 13.9304 431.459 14.0526C431.805 14.1747 432.116 14.3665 432.392 14.6278C432.668 14.8892 432.885 15.2287 433.044 15.6463C433.203 16.0611 433.283 16.5653 433.283 17.1591V17.6108H428.08V16.6562H432.034C432.034 16.321 431.966 16.0241 431.83 15.7656C431.693 15.5043 431.501 15.2983 431.254 15.1477C431.01 14.9972 430.723 14.9219 430.393 14.9219C430.036 14.9219 429.723 15.0099 429.456 15.1861C429.192 15.3594 428.987 15.5866 428.842 15.8679C428.7 16.1463 428.629 16.4489 428.629 16.7756V17.5213C428.629 17.9588 428.706 18.331 428.859 18.6378C429.016 18.9446 429.233 19.179 429.511 19.3409C429.79 19.5 430.115 19.5795 430.487 19.5795C430.729 19.5795 430.949 19.5455 431.148 19.4773C431.347 19.4062 431.518 19.3011 431.663 19.1619C431.808 19.0227 431.919 18.8509 431.996 18.6463L433.202 18.8636C433.105 19.2187 432.932 19.5298 432.682 19.7969C432.435 20.0611 432.124 20.267 431.749 20.4148C431.376 20.5597 430.952 20.6321 430.474 20.6321ZM437.147 20.6278C436.618 20.6278 436.147 20.4929 435.732 20.223C435.32 19.9503 434.996 19.5625 434.76 19.0597C434.527 18.554 434.411 17.9474 434.411 17.2401C434.411 16.5327 434.529 15.9276 434.765 15.4247C435.003 14.9219 435.33 14.5369 435.745 14.2699C436.159 14.0028 436.63 13.8693 437.155 13.8693C437.561 13.8693 437.888 13.9375 438.135 14.0739C438.385 14.2074 438.578 14.3636 438.715 14.5426C438.854 14.7216 438.962 14.8793 439.039 15.0156H439.115V11.7727H440.39V20.5H439.145V19.4815H439.039C438.962 19.6207 438.851 19.7798 438.706 19.9588C438.564 20.1378 438.368 20.294 438.118 20.4276C437.868 20.5611 437.544 20.6278 437.147 20.6278ZM437.428 19.5412C437.794 19.5412 438.104 19.4446 438.357 19.2514C438.613 19.0554 438.806 18.7841 438.936 18.4375C439.07 18.0909 439.137 17.6875 439.137 17.2273C439.137 16.7727 439.071 16.375 438.941 16.0341C438.81 15.6932 438.618 15.4276 438.365 15.2372C438.113 15.0469 437.8 14.9517 437.428 14.9517C437.044 14.9517 436.725 15.0511 436.469 15.25C436.213 15.4489 436.02 15.7202 435.89 16.0639C435.762 16.4077 435.698 16.7955 435.698 17.2273C435.698 17.6648 435.763 18.0582 435.894 18.4077C436.025 18.7571 436.218 19.0341 436.473 19.2386C436.732 19.4403 437.05 19.5412 437.428 19.5412Z" fill="#A0AEC0"/>
<path d="M468 0.5H604C607.038 0.5 609.5 2.96243 609.5 6V26C609.5 29.0376 607.038 31.5 604 31.5H468C464.962 31.5 462.5 29.0376 462.5 26V6C462.5 2.96243 464.962 0.5 468 0.5Z" fill="#BFDBFE" fill-opacity="0.3"/>
<path d="M468 0.5H604C607.038 0.5 609.5 2.96243 609.5 6V26C609.5 29.0376 607.038 31.5 604 31.5H468C464.962 31.5 462.5 29.0376 462.5 26V6C462.5 2.96243 464.962 0.5 468 0.5Z" stroke="#A0AFFA"/>
<path d="M480.917 11.9165C480.916 11.7112 480.971 11.5096 481.073 11.3319C481.176 11.1542 481.324 11.0068 481.502 10.9046C481.68 10.8023 481.882 10.7488 482.087 10.7495C482.292 10.7502 482.494 10.8051 482.671 10.9085L489.669 14.9907C489.846 15.0932 489.993 15.2402 490.095 15.4171C490.197 15.594 490.25 15.7946 490.251 15.9988C490.251 16.203 490.197 16.4036 490.096 16.5807C489.994 16.7578 489.848 16.9051 489.671 17.0079L482.671 21.0912C482.494 21.1947 482.292 21.2495 482.087 21.2502C481.882 21.2509 481.68 21.1974 481.502 21.0952C481.324 20.9929 481.176 20.8455 481.073 20.6678C480.971 20.4901 480.916 20.2885 480.917 20.0832V11.9165Z" stroke="#5074F6" stroke-width="1.16667" stroke-linecap="round" stroke-linejoin="round"/>
<path d="M503.784 20.5H500.959V11.7727H503.874C504.729 11.7727 505.463 11.9474 506.077 12.2969C506.69 12.6435 507.161 13.142 507.487 13.7926C507.817 14.4403 507.982 15.2173 507.982 16.1236C507.982 17.0327 507.815 17.8139 507.483 18.4673C507.153 19.1207 506.676 19.6236 506.051 19.9759C505.426 20.3253 504.67 20.5 503.784 20.5ZM502.276 19.3494H503.712C504.376 19.3494 504.929 19.2244 505.369 18.9744C505.81 18.7216 506.139 18.3565 506.358 17.8793C506.577 17.3991 506.686 16.8139 506.686 16.1236C506.686 15.4389 506.577 14.858 506.358 14.3807C506.142 13.9034 505.82 13.5412 505.391 13.294C504.962 13.0469 504.429 12.9233 503.793 12.9233H502.276V19.3494ZM512.338 20.6321C511.693 20.6321 511.137 20.4943 510.672 20.2188C510.208 19.9403 509.85 19.5497 509.598 19.0469C509.348 18.5412 509.223 17.9489 509.223 17.2699C509.223 16.5994 509.348 16.0085 509.598 15.4972C509.85 14.9858 510.203 14.5866 510.654 14.2997C511.109 14.0128 511.64 13.8693 512.248 13.8693C512.618 13.8693 512.975 13.9304 513.322 14.0526C513.669 14.1747 513.98 14.3665 514.255 14.6278C514.531 14.8892 514.748 15.2287 514.907 15.6463C515.066 16.0611 515.146 16.5653 515.146 17.1591V17.6108H509.943V16.6562H513.897C513.897 16.321 513.829 16.0241 513.693 15.7656C513.556 15.5043 513.365 15.2983 513.118 15.1477C512.873 14.9972 512.586 14.9219 512.257 14.9219C511.899 14.9219 511.586 15.0099 511.319 15.1861C511.055 15.3594 510.85 15.5866 510.706 15.8679C510.564 16.1463 510.493 16.4489 510.493 16.7756V17.5213C510.493 17.9588 510.569 18.331 510.723 18.6378C510.879 18.9446 511.096 19.179 511.375 19.3409C511.653 19.5 511.978 19.5795 512.35 19.5795C512.592 19.5795 512.812 19.5455 513.011 19.4773C513.21 19.4062 513.382 19.3011 513.527 19.1619C513.672 19.0227 513.782 18.8509 513.859 18.6463L515.065 18.8636C514.968 19.2187 514.795 19.5298 514.545 19.7969C514.298 20.0611 513.987 20.267 513.612 20.4148C513.24 20.5597 512.815 20.6321 512.338 20.6321ZM519.675 13.9545V14.9773H515.976V13.9545H519.675ZM516.99 20.5V13.196C516.99 12.7869 517.08 12.4474 517.259 12.1776C517.438 11.9048 517.675 11.7017 517.97 11.5682C518.266 11.4318 518.587 11.3636 518.933 11.3636C519.189 11.3636 519.408 11.3849 519.589 11.4276C519.771 11.4673 519.906 11.5043 519.994 11.5384L519.696 12.5696C519.636 12.5526 519.56 12.5327 519.466 12.5099C519.372 12.4844 519.259 12.4716 519.125 12.4716C518.815 12.4716 518.594 12.5483 518.46 12.7017C518.33 12.8551 518.264 13.0767 518.264 13.3665V20.5H516.99ZM522.695 20.6449C522.28 20.6449 521.905 20.5682 521.57 20.4148C521.235 20.2585 520.969 20.0327 520.773 19.7372C520.58 19.4418 520.483 19.0795 520.483 18.6506C520.483 18.2812 520.554 17.9773 520.696 17.7386C520.838 17.5 521.03 17.3111 521.272 17.1719C521.513 17.0327 521.783 16.9276 522.081 16.8565C522.38 16.7855 522.684 16.7315 522.993 16.6946C523.385 16.6491 523.703 16.6122 523.948 16.5838C524.192 16.5526 524.37 16.5028 524.48 16.4347C524.591 16.3665 524.647 16.2557 524.647 16.1023V16.0724C524.647 15.7003 524.542 15.4119 524.331 15.2074C524.124 15.0028 523.814 14.9006 523.402 14.9006C522.973 14.9006 522.635 14.9957 522.388 15.1861C522.144 15.3736 521.975 15.5824 521.881 15.8125L520.684 15.5398C520.826 15.142 521.033 14.821 521.306 14.5767C521.581 14.3295 521.898 14.1506 522.256 14.0398C522.614 13.9261 522.99 13.8693 523.385 13.8693C523.647 13.8693 523.924 13.9006 524.216 13.9631C524.512 14.0227 524.787 14.1335 525.043 14.2955C525.301 14.4574 525.513 14.6889 525.678 14.9901C525.843 15.2884 525.925 15.6761 525.925 16.1534V20.5H524.681V19.6051H524.63C524.547 19.7699 524.424 19.9318 524.259 20.0909C524.094 20.25 523.882 20.3821 523.624 20.4872C523.365 20.5923 523.056 20.6449 522.695 20.6449ZM522.972 19.6222C523.324 19.6222 523.625 19.5526 523.875 19.4134C524.128 19.2741 524.32 19.0923 524.451 18.8679C524.584 18.6406 524.651 18.3977 524.651 18.1392V17.2955C524.605 17.3409 524.517 17.3835 524.387 17.4233C524.259 17.4602 524.113 17.4929 523.948 17.5213C523.783 17.5469 523.623 17.571 523.466 17.5938C523.31 17.6136 523.179 17.6307 523.074 17.6449C522.827 17.6761 522.601 17.7287 522.397 17.8026C522.195 17.8764 522.033 17.983 521.911 18.1222C521.792 18.2585 521.732 18.4403 521.732 18.6676C521.732 18.983 521.848 19.2216 522.081 19.3835C522.314 19.5426 522.611 19.6222 522.972 19.6222ZM531.768 17.7855V13.9545H533.047V20.5H531.794V19.3665H531.726C531.575 19.7159 531.334 20.0071 531.001 20.2401C530.672 20.4702 530.261 20.5852 529.77 20.5852C529.349 20.5852 528.977 20.4929 528.653 20.3082C528.332 20.1207 528.08 19.8438 527.895 19.4773C527.713 19.1108 527.622 18.6577 527.622 18.1179V13.9545H528.896V17.9645C528.896 18.4105 529.02 18.7656 529.267 19.0298C529.514 19.294 529.835 19.4261 530.23 19.4261C530.469 19.4261 530.706 19.3665 530.942 19.2472C531.18 19.1278 531.378 18.9474 531.534 18.706C531.693 18.4645 531.771 18.1577 531.768 17.7855ZM536.033 11.7727V20.5H534.759V11.7727H536.033ZM540.803 13.9545V14.9773H537.227V13.9545H540.803ZM538.186 12.3864H539.46V18.5781C539.46 18.8253 539.497 19.0114 539.571 19.1364C539.645 19.2585 539.74 19.3423 539.857 19.3878C539.976 19.4304 540.105 19.4517 540.244 19.4517C540.347 19.4517 540.436 19.4446 540.513 19.4304C540.589 19.4162 540.649 19.4048 540.692 19.3963L540.922 20.4489C540.848 20.4773 540.743 20.5057 540.607 20.5341C540.47 20.5653 540.3 20.5824 540.095 20.5852C539.76 20.5909 539.447 20.5312 539.158 20.4062C538.868 20.2812 538.634 20.0881 538.455 19.8267C538.276 19.5653 538.186 19.2372 538.186 18.8423V12.3864ZM550.293 15.5526L549.138 15.7571C549.089 15.6094 549.013 15.4687 548.908 15.3352C548.805 15.2017 548.666 15.0923 548.49 15.0071C548.314 14.9219 548.094 14.8793 547.83 14.8793C547.469 14.8793 547.168 14.9602 546.926 15.1222C546.685 15.2812 546.564 15.4872 546.564 15.7401C546.564 15.9588 546.645 16.1349 546.807 16.2685C546.969 16.402 547.23 16.5114 547.591 16.5966L548.631 16.8352C549.233 16.9744 549.682 17.1889 549.977 17.4787C550.273 17.7685 550.42 18.1449 550.42 18.608C550.42 19 550.307 19.3494 550.08 19.6562C549.855 19.9602 549.541 20.1989 549.138 20.3722C548.737 20.5455 548.273 20.6321 547.744 20.6321C547.011 20.6321 546.413 20.4759 545.95 20.1634C545.487 19.848 545.203 19.4006 545.098 18.821L546.33 18.6335C546.406 18.9545 546.564 19.1974 546.803 19.3622C547.041 19.5241 547.352 19.6051 547.736 19.6051C548.153 19.6051 548.487 19.5185 548.737 19.3452C548.987 19.169 549.112 18.9545 549.112 18.7017C549.112 18.4972 549.036 18.3253 548.882 18.1861C548.732 18.0469 548.5 17.9418 548.188 17.8707L547.08 17.6278C546.469 17.4886 546.017 17.267 545.724 16.9631C545.435 16.6591 545.29 16.2741 545.29 15.8082C545.29 15.4219 545.398 15.0838 545.614 14.794C545.83 14.5043 546.128 14.2784 546.509 14.1165C546.889 13.9517 547.325 13.8693 547.817 13.8693C548.524 13.8693 549.081 14.0227 549.487 14.3295C549.893 14.6335 550.162 15.0412 550.293 15.5526ZM554.642 20.6321C553.998 20.6321 553.442 20.4943 552.976 20.2188C552.513 19.9403 552.155 19.5497 551.902 19.0469C551.652 18.5412 551.527 17.9489 551.527 17.2699C551.527 16.5994 551.652 16.0085 551.902 15.4972C552.155 14.9858 552.507 14.5866 552.959 14.2997C553.414 14.0128 553.945 13.8693 554.553 13.8693C554.922 13.8693 555.28 13.9304 555.627 14.0526C555.973 14.1747 556.284 14.3665 556.56 14.6278C556.836 14.8892 557.053 15.2287 557.212 15.6463C557.371 16.0611 557.451 16.5653 557.451 17.1591V17.6108H552.248V16.6562H556.202C556.202 16.321 556.134 16.0241 555.998 15.7656C555.861 15.5043 555.669 15.2983 555.422 15.1477C555.178 14.9972 554.891 14.9219 554.561 14.9219C554.203 14.9219 553.891 15.0099 553.624 15.1861C553.36 15.3594 553.155 15.5866 553.01 15.8679C552.868 16.1463 552.797 16.4489 552.797 16.7756V17.5213C552.797 17.9588 552.874 18.331 553.027 18.6378C553.184 18.9446 553.401 19.179 553.679 19.3409C553.958 19.5 554.283 19.5795 554.655 19.5795C554.897 19.5795 555.117 19.5455 555.316 19.4773C555.515 19.4062 555.686 19.3011 555.831 19.1619C555.976 19.0227 556.087 18.8509 556.164 18.6463L557.37 18.8636C557.273 19.2187 557.1 19.5298 556.85 19.7969C556.603 20.0611 556.292 20.267 555.917 20.4148C555.544 20.5597 555.12 20.6321 554.642 20.6321ZM560.138 11.7727V20.5H558.864V11.7727H560.138ZM564.674 20.6321C564.029 20.6321 563.473 20.4943 563.007 20.2188C562.544 19.9403 562.186 19.5497 561.934 19.0469C561.684 18.5412 561.559 17.9489 561.559 17.2699C561.559 16.5994 561.684 16.0085 561.934 15.4972C562.186 14.9858 562.539 14.5866 562.99 14.2997C563.445 14.0128 563.976 13.8693 564.584 13.8693C564.953 13.8693 565.311 13.9304 565.658 14.0526C566.005 14.1747 566.316 14.3665 566.591 14.6278C566.867 14.8892 567.084 15.2287 567.243 15.6463C567.402 16.0611 567.482 16.5653 567.482 17.1591V17.6108H562.279V16.6562H566.233C566.233 16.321 566.165 16.0241 566.029 15.7656C565.892 15.5043 565.701 15.2983 565.453 15.1477C565.209 14.9972 564.922 14.9219 564.593 14.9219C564.235 14.9219 563.922 15.0099 563.655 15.1861C563.391 15.3594 563.186 15.5866 563.042 15.8679C562.9 16.1463 562.828 16.4489 562.828 16.7756V17.5213C562.828 17.9588 562.905 18.331 563.059 18.6378C563.215 18.9446 563.432 19.179 563.711 19.3409C563.989 19.5 564.314 19.5795 564.686 19.5795C564.928 19.5795 565.148 19.5455 565.347 19.4773C565.546 19.4062 565.718 19.3011 565.863 19.1619C566.007 19.0227 566.118 18.8509 566.195 18.6463L567.401 18.8636C567.304 19.2187 567.131 19.5298 566.881 19.7969C566.634 20.0611 566.323 20.267 565.948 20.4148C565.576 20.5597 565.151 20.6321 564.674 20.6321ZM571.653 20.6321C571.019 20.6321 570.474 20.4886 570.016 20.2017C569.562 19.9119 569.212 19.5128 568.968 19.0043C568.724 18.4957 568.602 17.9134 568.602 17.2571C568.602 16.5923 568.727 16.0057 568.977 15.4972C569.227 14.9858 569.579 14.5866 570.033 14.2997C570.488 14.0128 571.023 13.8693 571.64 13.8693C572.137 13.8693 572.58 13.9616 572.969 14.1463C573.359 14.3281 573.673 14.5838 573.911 14.9134C574.153 15.2429 574.296 15.6278 574.342 16.0682H573.102C573.033 15.7614 572.877 15.4972 572.633 15.2756C572.391 15.054 572.067 14.9432 571.661 14.9432C571.306 14.9432 570.995 15.0369 570.728 15.2244C570.464 15.4091 570.258 15.6733 570.11 16.017C569.962 16.358 569.888 16.7614 569.888 17.2273C569.888 17.7045 569.961 18.1165 570.106 18.4631C570.251 18.8097 570.455 19.0781 570.719 19.2685C570.987 19.4588 571.3 19.554 571.661 19.554C571.903 19.554 572.121 19.5099 572.317 19.4219C572.516 19.331 572.683 19.2017 572.816 19.0341C572.952 18.8665 573.048 18.6648 573.102 18.429H574.342C574.296 18.8523 574.158 19.2301 573.928 19.5625C573.698 19.8949 573.39 20.1562 573.004 20.3466C572.62 20.5369 572.17 20.6321 571.653 20.6321ZM578.76 13.9545V14.9773H575.184V13.9545H578.76ZM576.143 12.3864H577.417V18.5781C577.417 18.8253 577.454 19.0114 577.528 19.1364C577.602 19.2585 577.697 19.3423 577.814 19.3878C577.933 19.4304 578.062 19.4517 578.201 19.4517C578.304 19.4517 578.393 19.4446 578.47 19.4304C578.547 19.4162 578.606 19.4048 578.649 19.3963L578.879 20.4489C578.805 20.4773 578.7 20.5057 578.564 20.5341C578.427 20.5653 578.257 20.5824 578.052 20.5852C577.717 20.5909 577.404 20.5312 577.115 20.4062C576.825 20.2812 576.591 20.0881 576.412 19.8267C576.233 19.5653 576.143 19.2372 576.143 18.8423V12.3864ZM582.92 20.6321C582.275 20.6321 581.719 20.4943 581.254 20.2188C580.79 19.9403 580.433 19.5497 580.18 19.0469C579.93 18.5412 579.805 17.9489 579.805 17.2699C579.805 16.5994 579.93 16.0085 580.18 15.4972C580.433 14.9858 580.785 14.5866 581.237 14.2997C581.691 14.0128 582.222 13.8693 582.83 13.8693C583.2 13.8693 583.558 13.9304 583.904 14.0526C584.251 14.1747 584.562 14.3665 584.837 14.6278C585.113 14.8892 585.33 15.2287 585.489 15.6463C585.648 16.0611 585.728 16.5653 585.728 17.1591V17.6108H580.525V16.6562H584.479C584.479 16.321 584.411 16.0241 584.275 15.7656C584.138 15.5043 583.947 15.2983 583.7 15.1477C583.455 14.9972 583.168 14.9219 582.839 14.9219C582.481 14.9219 582.168 15.0099 581.901 15.1861C581.637 15.3594 581.433 15.5866 581.288 15.8679C581.146 16.1463 581.075 16.4489 581.075 16.7756V17.5213C581.075 17.9588 581.151 18.331 581.305 18.6378C581.461 18.9446 581.678 19.179 581.957 19.3409C582.235 19.5 582.56 19.5795 582.933 19.5795C583.174 19.5795 583.394 19.5455 583.593 19.4773C583.792 19.4062 583.964 19.3011 584.109 19.1619C584.254 19.0227 584.364 18.8509 584.441 18.6463L585.647 18.8636C585.55 19.2187 585.377 19.5298 585.127 19.7969C584.88 20.0611 584.569 20.267 584.194 20.4148C583.822 20.5597 583.397 20.6321 582.92 20.6321ZM589.592 20.6278C589.064 20.6278 588.592 20.4929 588.177 20.223C587.765 19.9503 587.441 19.5625 587.206 19.0597C586.973 18.554 586.856 17.9474 586.856 17.2401C586.856 16.5327 586.974 15.9276 587.21 15.4247C587.449 14.9219 587.775 14.5369 588.19 14.2699C588.605 14.0028 589.075 13.8693 589.6 13.8693C590.007 13.8693 590.333 13.9375 590.581 14.0739C590.831 14.2074 591.024 14.3636 591.16 14.5426C591.299 14.7216 591.407 14.8793 591.484 15.0156H591.561V11.7727H592.835V20.5H591.591V19.4815H591.484C591.407 19.6207 591.297 19.7798 591.152 19.9588C591.01 20.1378 590.814 20.294 590.564 20.4276C590.314 20.5611 589.99 20.6278 589.592 20.6278ZM589.873 19.5412C590.24 19.5412 590.549 19.4446 590.802 19.2514C591.058 19.0554 591.251 18.7841 591.382 18.4375C591.515 18.0909 591.582 17.6875 591.582 17.2273C591.582 16.7727 591.517 16.375 591.386 16.0341C591.255 15.6932 591.064 15.4276 590.811 15.2372C590.558 15.0469 590.245 14.9517 589.873 14.9517C589.49 14.9517 589.17 15.0511 588.914 15.25C588.659 15.4489 588.466 15.7202 588.335 16.0639C588.207 16.4077 588.143 16.7955 588.143 17.2273C588.143 17.6648 588.208 18.0582 588.339 18.4077C588.47 18.7571 588.663 19.0341 588.919 19.2386C589.177 19.4403 589.495 19.5412 589.873 19.5412Z" fill="#2C5BEB"/>
</svg>
