<svg width="338" height="33" viewBox="0 0 338 33" fill="none" xmlns="http://www.w3.org/2000/svg">
<path d="M6 0.5H147C150.038 0.5 152.5 2.96243 152.5 6V27C152.5 30.0376 150.038 32.5 147 32.5H6C2.96243 32.5 0.5 30.0376 0.5 27V6C0.5 2.96243 2.96243 0.5 6 0.5Z" stroke="#495A72"/>
<path d="M19.3333 11.8332C19.3332 11.5986 19.395 11.3682 19.5125 11.1651C19.63 10.962 19.799 10.7936 20.0024 10.6767C20.2058 10.5598 20.4365 10.4987 20.6711 10.4995C20.9057 10.5003 21.136 10.563 21.3386 10.6812L29.3366 15.3466C29.5384 15.4637 29.706 15.6317 29.8225 15.8339C29.9391 16.0361 30.0005 16.2653 30.0007 16.4987C30.0009 16.732 29.9399 16.9614 29.8237 17.1637C29.7075 17.3661 29.5402 17.5344 29.3386 17.6519L21.3386 22.3186C21.136 22.4368 20.9057 22.4995 20.6711 22.5003C20.4365 22.5011 20.2058 22.44 20.0024 22.3231C19.799 22.2062 19.63 22.0378 19.5125 21.8347C19.395 21.6317 19.3332 21.4012 19.3333 21.1666V11.8332Z" stroke="#D4D8DD" stroke-width="1.33333" stroke-linecap="round" stroke-linejoin="round"/>
<path d="M44.4148 22H41.1186V11.8182H44.5192C45.5168 11.8182 46.3736 12.022 47.0895 12.4297C47.8054 12.834 48.3539 13.4157 48.7351 14.1747C49.1196 14.9304 49.3118 15.8369 49.3118 16.8942C49.3118 17.9548 49.1179 18.8662 48.7301 19.6286C48.3456 20.3909 47.7888 20.9775 47.0597 21.3885C46.3305 21.7962 45.4489 22 44.4148 22ZM42.6548 20.6577H44.3303C45.1058 20.6577 45.7505 20.5118 46.2642 20.2202C46.7779 19.9252 47.1624 19.4993 47.4176 18.9425C47.6728 18.3823 47.8004 17.6996 47.8004 16.8942C47.8004 16.0954 47.6728 15.4176 47.4176 14.8608C47.1657 14.304 46.7895 13.8814 46.2891 13.593C45.7886 13.3047 45.1671 13.1605 44.4247 13.1605H42.6548V20.6577ZM54.394 22.1541C53.6416 22.1541 52.9937 21.9934 52.4501 21.6719C51.9099 21.3471 51.4922 20.8913 51.1973 20.3047C50.9056 19.7147 50.7598 19.0237 50.7598 18.2315C50.7598 17.4493 50.9056 16.7599 51.1973 16.1634C51.4922 15.5668 51.9032 15.1011 52.4302 14.7663C52.9605 14.4316 53.5803 14.2642 54.2896 14.2642C54.7205 14.2642 55.1381 14.3355 55.5424 14.478C55.9468 14.6205 56.3097 14.8442 56.6312 15.1491C56.9527 15.4541 57.2063 15.8501 57.3919 16.3374C57.5775 16.8213 57.6703 17.4096 57.6703 18.1023V18.6293H51.6V17.5156H56.2136C56.2136 17.1245 56.1341 16.7782 55.975 16.4766C55.8159 16.1716 55.5922 15.9313 55.3038 15.7557C55.0188 15.58 54.684 15.4922 54.2995 15.4922C53.8819 15.4922 53.5173 15.5949 53.2058 15.8004C52.8975 16.0026 52.6589 16.2678 52.4899 16.5959C52.3242 16.9207 52.2413 17.2737 52.2413 17.6548V18.5249C52.2413 19.0353 52.3308 19.4695 52.5098 19.8274C52.6921 20.1854 52.9456 20.4588 53.2704 20.6477C53.5952 20.8333 53.9747 20.9261 54.4089 20.9261C54.6906 20.9261 54.9475 20.8864 55.1795 20.8068C55.4115 20.724 55.612 20.6013 55.7811 20.4389C55.9501 20.2765 56.0794 20.076 56.1689 19.8374L57.5758 20.0909C57.4631 20.5052 57.2609 20.8681 56.9693 21.1797C56.6809 21.4879 56.318 21.7282 55.8805 21.9006C55.4463 22.0696 54.9508 22.1541 54.394 22.1541ZM62.9538 14.3636V15.5568H58.6385V14.3636H62.9538ZM59.8217 22V13.4787C59.8217 13.0014 59.9261 12.6053 60.1349 12.2905C60.3438 11.9723 60.6205 11.7353 60.9652 11.5795C61.3099 11.4205 61.6844 11.3409 62.0888 11.3409C62.3871 11.3409 62.6423 11.3658 62.8544 11.4155C63.0665 11.4619 63.224 11.505 63.3267 11.5447L62.9787 12.7479C62.9091 12.728 62.8196 12.7048 62.7102 12.6783C62.6009 12.6484 62.4683 12.6335 62.3125 12.6335C61.9512 12.6335 61.6927 12.723 61.5369 12.902C61.3845 13.081 61.3082 13.3395 61.3082 13.6776V22H59.8217ZM66.4775 22.169C65.9935 22.169 65.556 22.0795 65.165 21.9006C64.7739 21.7183 64.464 21.4548 64.2353 21.1101C64.0099 20.7654 63.8972 20.3428 63.8972 19.8423C63.8972 19.4115 63.9801 19.0568 64.1458 18.7784C64.3115 18.5 64.5352 18.2796 64.8169 18.1172C65.0987 17.9548 65.4135 17.8321 65.7615 17.7493C66.1096 17.6664 66.4642 17.6035 66.8255 17.5604C67.2828 17.5073 67.6541 17.4643 67.9391 17.4311C68.2241 17.3946 68.4313 17.3366 68.5605 17.2571C68.6898 17.1776 68.7544 17.0483 68.7544 16.8693V16.8345C68.7544 16.4003 68.6318 16.0639 68.3865 15.8253C68.1446 15.5866 67.7833 15.4673 67.3027 15.4673C66.8023 15.4673 66.4078 15.5784 66.1195 15.8004C65.8345 16.0192 65.6373 16.2628 65.5279 16.5312L64.1309 16.2131C64.2966 15.7491 64.5385 15.3745 64.8567 15.0895C65.1782 14.8011 65.5478 14.5923 65.9654 14.4631C66.383 14.3305 66.8221 14.2642 67.2828 14.2642C67.5878 14.2642 67.9109 14.3007 68.2523 14.3736C68.597 14.4432 68.9185 14.5724 69.2168 14.7614C69.5184 14.9503 69.7653 15.2204 69.9576 15.5717C70.1498 15.9197 70.2459 16.3722 70.2459 16.929V22H68.7942V20.956H68.7346C68.6384 21.1482 68.4943 21.3371 68.302 21.5227C68.1098 21.7083 67.8629 21.8625 67.5613 21.9851C67.2596 22.1077 66.8984 22.169 66.4775 22.169ZM66.8006 20.9759C67.2116 20.9759 67.5629 20.8946 67.8546 20.7322C68.1496 20.5698 68.3733 20.3577 68.5257 20.0959C68.6815 19.8307 68.7594 19.5473 68.7594 19.2457V18.2614C68.7064 18.3144 68.6036 18.3641 68.4512 18.4105C68.302 18.4536 68.1313 18.4917 67.9391 18.5249C67.7469 18.5547 67.5596 18.5829 67.3773 18.6094C67.195 18.6326 67.0426 18.6525 66.9199 18.669C66.6316 18.7055 66.3681 18.7668 66.1294 18.853C65.8941 18.9392 65.7052 19.0634 65.5627 19.2259C65.4235 19.3849 65.3539 19.5971 65.3539 19.8622C65.3539 20.2301 65.4898 20.5085 65.7615 20.6974C66.0333 20.883 66.3797 20.9759 66.8006 20.9759ZM77.0632 18.8331V14.3636H78.5547V22H77.093V20.6776H77.0135C76.8378 21.0852 76.5561 21.425 76.1683 21.6967C75.7839 21.9652 75.3049 22.0994 74.7315 22.0994C74.241 22.0994 73.8068 21.9917 73.429 21.7763C73.0545 21.5575 72.7595 21.2344 72.544 20.8068C72.3319 20.3793 72.2259 19.8506 72.2259 19.2209V14.3636H73.7124V19.0419C73.7124 19.5623 73.8565 19.9766 74.1449 20.2848C74.4332 20.593 74.8078 20.7472 75.2685 20.7472C75.5469 20.7472 75.8236 20.6776 76.0987 20.5384C76.3771 20.3991 76.6075 20.1887 76.7898 19.907C76.9754 19.6252 77.0665 19.2673 77.0632 18.8331ZM82.0385 11.8182V22H80.552V11.8182H82.0385ZM87.603 14.3636V15.5568H83.4318V14.3636H87.603ZM84.5504 12.5341H86.0369V19.7578C86.0369 20.0462 86.08 20.2633 86.1662 20.4091C86.2524 20.5516 86.3634 20.6494 86.4993 20.7024C86.6385 20.7521 86.7893 20.777 86.9517 20.777C87.071 20.777 87.1754 20.7687 87.2649 20.7521C87.3544 20.7356 87.424 20.7223 87.4737 20.7124L87.7422 21.9403C87.656 21.9735 87.5334 22.0066 87.3743 22.0398C87.2152 22.0762 87.0163 22.0961 86.7777 22.0994C86.3866 22.1061 86.022 22.0365 85.6839 21.8906C85.3459 21.7448 85.0724 21.5194 84.8636 21.2145C84.6548 20.9096 84.5504 20.5268 84.5504 20.0661V12.5341ZM93.0717 22V11.8182H94.5582V15.6016H94.6477C94.7339 15.4425 94.8582 15.2585 95.0206 15.0497C95.183 14.8409 95.4084 14.6586 95.6967 14.5028C95.9851 14.3438 96.3662 14.2642 96.8402 14.2642C97.4567 14.2642 98.0069 14.42 98.4908 14.7315C98.9747 15.0431 99.3542 15.4922 99.6293 16.0788C99.9077 16.6655 100.047 17.3714 100.047 18.1967C100.047 19.022 99.9093 19.7296 99.6342 20.3196C99.3591 20.9062 98.9813 21.3587 98.5007 21.6768C98.0201 21.9917 97.4716 22.1491 96.8551 22.1491C96.3911 22.1491 96.0116 22.0713 95.7166 21.9155C95.425 21.7597 95.1963 21.5774 95.0305 21.3686C94.8648 21.1598 94.7372 20.9742 94.6477 20.8118H94.5234V22H93.0717ZM94.5284 18.1818C94.5284 18.7187 94.6063 19.1894 94.7621 19.5938C94.9179 19.9981 95.1432 20.3146 95.4382 20.5433C95.7332 20.7687 96.0945 20.8814 96.522 20.8814C96.9661 20.8814 97.3374 20.7637 97.6357 20.5284C97.9339 20.2898 98.1593 19.9666 98.3118 19.5589C98.4676 19.1513 98.5455 18.6922 98.5455 18.1818C98.5455 17.678 98.4692 17.2256 98.3168 16.8246C98.1676 16.4235 97.9422 16.107 97.6406 15.875C97.3423 15.643 96.9695 15.527 96.522 15.527C96.0911 15.527 95.7266 15.638 95.4283 15.8601C95.1333 16.0821 94.9096 16.392 94.7571 16.7898C94.6046 17.1875 94.5284 17.6515 94.5284 18.1818ZM106.553 18.8331V14.3636H108.045V22H106.583V20.6776H106.504C106.328 21.0852 106.046 21.425 105.659 21.6967C105.274 21.9652 104.795 22.0994 104.222 22.0994C103.731 22.0994 103.297 21.9917 102.919 21.7763C102.545 21.5575 102.25 21.2344 102.034 20.8068C101.822 20.3793 101.716 19.8506 101.716 19.2209V14.3636H103.203V19.0419C103.203 19.5623 103.347 19.9766 103.635 20.2848C103.923 20.593 104.298 20.7472 104.759 20.7472C105.037 20.7472 105.314 20.6776 105.589 20.5384C105.867 20.3991 106.098 20.1887 106.28 19.907C106.466 19.6252 106.557 19.2673 106.553 18.8331ZM113.607 14.3636V15.5568H109.436V14.3636H113.607ZM110.554 12.5341H112.041V19.7578C112.041 20.0462 112.084 20.2633 112.17 20.4091C112.256 20.5516 112.367 20.6494 112.503 20.7024C112.642 20.7521 112.793 20.777 112.956 20.777C113.075 20.777 113.179 20.7687 113.269 20.7521C113.358 20.7356 113.428 20.7223 113.478 20.7124L113.746 21.9403C113.66 21.9735 113.537 22.0066 113.378 22.0398C113.219 22.0762 113.02 22.0961 112.782 22.0994C112.391 22.1061 112.026 22.0365 111.688 21.8906C111.35 21.7448 111.076 21.5194 110.868 21.2145C110.659 20.9096 110.554 20.5268 110.554 20.0661V12.5341ZM118.816 14.3636V15.5568H114.645V14.3636H118.816ZM115.763 12.5341H117.25V19.7578C117.25 20.0462 117.293 20.2633 117.379 20.4091C117.465 20.5516 117.576 20.6494 117.712 20.7024C117.851 20.7521 118.002 20.777 118.165 20.777C118.284 20.777 118.388 20.7687 118.478 20.7521C118.567 20.7356 118.637 20.7223 118.687 20.7124L118.955 21.9403C118.869 21.9735 118.746 22.0066 118.587 22.0398C118.428 22.0762 118.229 22.0961 117.991 22.0994C117.599 22.1061 117.235 22.0365 116.897 21.8906C116.559 21.7448 116.285 21.5194 116.077 21.2145C115.868 20.9096 115.763 20.5268 115.763 20.0661V12.5341ZM123.595 22.1541C122.879 22.1541 122.254 21.9901 121.721 21.6619C121.187 21.3338 120.773 20.8748 120.478 20.2848C120.183 19.6948 120.035 19.0054 120.035 18.2166C120.035 17.4245 120.183 16.7318 120.478 16.1385C120.773 15.5452 121.187 15.0845 121.721 14.7564C122.254 14.4283 122.879 14.2642 123.595 14.2642C124.311 14.2642 124.935 14.4283 125.469 14.7564C126.003 15.0845 126.417 15.5452 126.712 16.1385C127.007 16.7318 127.154 17.4245 127.154 18.2166C127.154 19.0054 127.007 19.6948 126.712 20.2848C126.417 20.8748 126.003 21.3338 125.469 21.6619C124.935 21.9901 124.311 22.1541 123.595 22.1541ZM123.6 20.9062C124.064 20.9062 124.448 20.7836 124.753 20.5384C125.058 20.2931 125.283 19.9666 125.429 19.5589C125.578 19.1513 125.653 18.7022 125.653 18.2116C125.653 17.7244 125.578 17.277 125.429 16.8693C125.283 16.4583 125.058 16.1286 124.753 15.88C124.448 15.6314 124.064 15.5071 123.6 15.5071C123.132 15.5071 122.745 15.6314 122.436 15.88C122.132 16.1286 121.904 16.4583 121.755 16.8693C121.609 17.277 121.537 17.7244 121.537 18.2116C121.537 18.7022 121.609 19.1513 121.755 19.5589C121.904 19.9666 122.132 20.2931 122.436 20.5384C122.745 20.7836 123.132 20.9062 123.6 20.9062ZM130.3 17.4659V22H128.814V14.3636H130.241V15.6065H130.335C130.511 15.2022 130.786 14.8774 131.16 14.6321C131.538 14.3868 132.014 14.2642 132.587 14.2642C133.108 14.2642 133.563 14.3736 133.954 14.5923C134.345 14.8078 134.649 15.1293 134.864 15.5568C135.08 15.9844 135.187 16.513 135.187 17.1428V22H133.701V17.3217C133.701 16.7682 133.557 16.3357 133.268 16.0241C132.98 15.7093 132.584 15.5518 132.08 15.5518C131.735 15.5518 131.429 15.6264 131.16 15.7756C130.895 15.9247 130.685 16.1435 130.529 16.4318C130.376 16.7169 130.3 17.0616 130.3 17.4659Z" fill="#D4D8DD"/>
<path d="M163 0.5H280C283.038 0.500002 285.5 2.96244 285.5 6V27C285.5 30.0376 283.038 32.5 280 32.5H163C159.962 32.5 157.5 30.0376 157.5 27V6C157.5 3.05741 159.811 0.654222 162.717 0.506836L163 0.5Z" stroke="#495A72"/>
<path d="M177.415 22H174.119V11.8182H177.519C178.517 11.8182 179.374 12.022 180.089 12.4297C180.805 12.834 181.354 13.4157 181.735 14.1747C182.12 14.9304 182.312 15.8369 182.312 16.8942C182.312 17.9548 182.118 18.8662 181.73 19.6286C181.346 20.3909 180.789 20.9775 180.06 21.3885C179.33 21.7962 178.449 22 177.415 22ZM175.655 20.6577H177.33C178.106 20.6577 178.75 20.5118 179.264 20.2202C179.778 19.9252 180.162 19.4993 180.418 18.9425C180.673 18.3823 180.8 17.6996 180.8 16.8942C180.8 16.0954 180.673 15.4176 180.418 14.8608C180.166 14.304 179.79 13.8814 179.289 13.593C178.789 13.3047 178.167 13.1605 177.425 13.1605H175.655V20.6577ZM187.394 22.1541C186.642 22.1541 185.994 21.9934 185.45 21.6719C184.91 21.3471 184.492 20.8913 184.197 20.3047C183.906 19.7147 183.76 19.0237 183.76 18.2315C183.76 17.4493 183.906 16.7599 184.197 16.1634C184.492 15.5668 184.903 15.1011 185.43 14.7663C185.961 14.4316 186.58 14.2642 187.29 14.2642C187.72 14.2642 188.138 14.3355 188.542 14.478C188.947 14.6205 189.31 14.8442 189.631 15.1491C189.953 15.4541 190.206 15.8501 190.392 16.3374C190.577 16.8213 190.67 17.4096 190.67 18.1023V18.6293H184.6V17.5156H189.214C189.214 17.1245 189.134 16.7782 188.975 16.4766C188.816 16.1716 188.592 15.9313 188.304 15.7557C188.019 15.58 187.684 15.4922 187.3 15.4922C186.882 15.4922 186.517 15.5949 186.206 15.8004C185.898 16.0026 185.659 16.2678 185.49 16.5959C185.324 16.9207 185.241 17.2737 185.241 17.6548V18.5249C185.241 19.0353 185.331 19.4695 185.51 19.8274C185.692 20.1854 185.946 20.4588 186.27 20.6477C186.595 20.8333 186.975 20.9261 187.409 20.9261C187.691 20.9261 187.948 20.8864 188.18 20.8068C188.412 20.724 188.612 20.6013 188.781 20.4389C188.95 20.2765 189.079 20.076 189.169 19.8374L190.576 20.0909C190.463 20.5052 190.261 20.8681 189.969 21.1797C189.681 21.4879 189.318 21.7282 188.881 21.9006C188.446 22.0696 187.951 22.1541 187.394 22.1541ZM195.954 14.3636V15.5568H191.638V14.3636H195.954ZM192.822 22V13.4787C192.822 13.0014 192.926 12.6053 193.135 12.2905C193.344 11.9723 193.621 11.7353 193.965 11.5795C194.31 11.4205 194.684 11.3409 195.089 11.3409C195.387 11.3409 195.642 11.3658 195.854 11.4155C196.067 11.4619 196.224 11.505 196.327 11.5447L195.979 12.7479C195.909 12.728 195.82 12.7048 195.71 12.6783C195.601 12.6484 195.468 12.6335 195.312 12.6335C194.951 12.6335 194.693 12.723 194.537 12.902C194.384 13.081 194.308 13.3395 194.308 13.6776V22H192.822ZM199.477 22.169C198.994 22.169 198.556 22.0795 198.165 21.9006C197.774 21.7183 197.464 21.4548 197.235 21.1101C197.01 20.7654 196.897 20.3428 196.897 19.8423C196.897 19.4115 196.98 19.0568 197.146 18.7784C197.311 18.5 197.535 18.2796 197.817 18.1172C198.099 17.9548 198.414 17.8321 198.762 17.7493C199.11 17.6664 199.464 17.6035 199.825 17.5604C200.283 17.5073 200.654 17.4643 200.939 17.4311C201.224 17.3946 201.431 17.3366 201.561 17.2571C201.69 17.1776 201.754 17.0483 201.754 16.8693V16.8345C201.754 16.4003 201.632 16.0639 201.387 15.8253C201.145 15.5866 200.783 15.4673 200.303 15.4673C199.802 15.4673 199.408 15.5784 199.119 15.8004C198.834 16.0192 198.637 16.2628 198.528 16.5312L197.131 16.2131C197.297 15.7491 197.539 15.3745 197.857 15.0895C198.178 14.8011 198.548 14.5923 198.965 14.4631C199.383 14.3305 199.822 14.2642 200.283 14.2642C200.588 14.2642 200.911 14.3007 201.252 14.3736C201.597 14.4432 201.919 14.5724 202.217 14.7614C202.518 14.9503 202.765 15.2204 202.958 15.5717C203.15 15.9197 203.246 16.3722 203.246 16.929V22H201.794V20.956H201.735C201.638 21.1482 201.494 21.3371 201.302 21.5227C201.11 21.7083 200.863 21.8625 200.561 21.9851C200.26 22.1077 199.898 22.169 199.477 22.169ZM199.801 20.9759C200.212 20.9759 200.563 20.8946 200.855 20.7322C201.15 20.5698 201.373 20.3577 201.526 20.0959C201.682 19.8307 201.759 19.5473 201.759 19.2457V18.2614C201.706 18.3144 201.604 18.3641 201.451 18.4105C201.302 18.4536 201.131 18.4917 200.939 18.5249C200.747 18.5547 200.56 18.5829 200.377 18.6094C200.195 18.6326 200.043 18.6525 199.92 18.669C199.632 18.7055 199.368 18.7668 199.129 18.853C198.894 18.9392 198.705 19.0634 198.563 19.2259C198.423 19.3849 198.354 19.5971 198.354 19.8622C198.354 20.2301 198.49 20.5085 198.762 20.6974C199.033 20.883 199.38 20.9759 199.801 20.9759ZM210.063 18.8331V14.3636H211.555V22H210.093V20.6776H210.013C209.838 21.0852 209.556 21.425 209.168 21.6967C208.784 21.9652 208.305 22.0994 207.732 22.0994C207.241 22.0994 206.807 21.9917 206.429 21.7763C206.054 21.5575 205.759 21.2344 205.544 20.8068C205.332 20.3793 205.226 19.8506 205.226 19.2209V14.3636H206.712V19.0419C206.712 19.5623 206.857 19.9766 207.145 20.2848C207.433 20.593 207.808 20.7472 208.268 20.7472C208.547 20.7472 208.824 20.6776 209.099 20.5384C209.377 20.3991 209.607 20.1887 209.79 19.907C209.975 19.6252 210.067 19.2673 210.063 18.8331ZM215.039 11.8182V22H213.552V11.8182H215.039ZM220.603 14.3636V15.5568H216.432V14.3636H220.603ZM217.55 12.5341H219.037V19.7578C219.037 20.0462 219.08 20.2633 219.166 20.4091C219.252 20.5516 219.363 20.6494 219.499 20.7024C219.638 20.7521 219.789 20.777 219.952 20.777C220.071 20.777 220.175 20.7687 220.265 20.7521C220.354 20.7356 220.424 20.7223 220.474 20.7124L220.742 21.9403C220.656 21.9735 220.533 22.0066 220.374 22.0398C220.215 22.0762 220.016 22.0961 219.778 22.0994C219.387 22.1061 219.022 22.0365 218.684 21.8906C218.346 21.7448 218.072 21.5194 217.864 21.2145C217.655 20.9096 217.55 20.5268 217.55 20.0661V12.5341ZM226.072 22V11.8182H227.558V15.6016H227.648C227.734 15.4425 227.858 15.2585 228.021 15.0497C228.183 14.8409 228.408 14.6586 228.697 14.5028C228.985 14.3438 229.366 14.2642 229.84 14.2642C230.457 14.2642 231.007 14.42 231.491 14.7315C231.975 15.0431 232.354 15.4922 232.629 16.0788C232.908 16.6655 233.047 17.3714 233.047 18.1967C233.047 19.022 232.909 19.7296 232.634 20.3196C232.359 20.9062 231.981 21.3587 231.501 21.6768C231.02 21.9917 230.472 22.1491 229.855 22.1491C229.391 22.1491 229.012 22.0713 228.717 21.9155C228.425 21.7597 228.196 21.5774 228.031 21.3686C227.865 21.1598 227.737 20.9742 227.648 20.8118H227.523V22H226.072ZM227.528 18.1818C227.528 18.7187 227.606 19.1894 227.762 19.5938C227.918 19.9981 228.143 20.3146 228.438 20.5433C228.733 20.7687 229.094 20.8814 229.522 20.8814C229.966 20.8814 230.337 20.7637 230.636 20.5284C230.934 20.2898 231.159 19.9666 231.312 19.5589C231.468 19.1513 231.545 18.6922 231.545 18.1818C231.545 17.678 231.469 17.2256 231.317 16.8246C231.168 16.4235 230.942 16.107 230.641 15.875C230.342 15.643 229.969 15.527 229.522 15.527C229.091 15.527 228.727 15.638 228.428 15.8601C228.133 16.0821 227.91 16.392 227.757 16.7898C227.605 17.1875 227.528 17.6515 227.528 18.1818ZM239.553 18.8331V14.3636H241.045V22H239.583V20.6776H239.504C239.328 21.0852 239.046 21.425 238.659 21.6967C238.274 21.9652 237.795 22.0994 237.222 22.0994C236.731 22.0994 236.297 21.9917 235.919 21.7763C235.545 21.5575 235.25 21.2344 235.034 20.8068C234.822 20.3793 234.716 19.8506 234.716 19.2209V14.3636H236.203V19.0419C236.203 19.5623 236.347 19.9766 236.635 20.2848C236.923 20.593 237.298 20.7472 237.759 20.7472C238.037 20.7472 238.314 20.6776 238.589 20.5384C238.867 20.3991 239.098 20.1887 239.28 19.907C239.466 19.6252 239.557 19.2673 239.553 18.8331ZM246.607 14.3636V15.5568H242.436V14.3636H246.607ZM243.554 12.5341H245.041V19.7578C245.041 20.0462 245.084 20.2633 245.17 20.4091C245.256 20.5516 245.367 20.6494 245.503 20.7024C245.642 20.7521 245.793 20.777 245.956 20.777C246.075 20.777 246.179 20.7687 246.269 20.7521C246.358 20.7356 246.428 20.7223 246.478 20.7124L246.746 21.9403C246.66 21.9735 246.537 22.0066 246.378 22.0398C246.219 22.0762 246.02 22.0961 245.782 22.0994C245.391 22.1061 245.026 22.0365 244.688 21.8906C244.35 21.7448 244.076 21.5194 243.868 21.2145C243.659 20.9096 243.554 20.5268 243.554 20.0661V12.5341ZM251.816 14.3636V15.5568H247.645V14.3636H251.816ZM248.763 12.5341H250.25V19.7578C250.25 20.0462 250.293 20.2633 250.379 20.4091C250.465 20.5516 250.576 20.6494 250.712 20.7024C250.851 20.7521 251.002 20.777 251.165 20.777C251.284 20.777 251.388 20.7687 251.478 20.7521C251.567 20.7356 251.637 20.7223 251.687 20.7124L251.955 21.9403C251.869 21.9735 251.746 22.0066 251.587 22.0398C251.428 22.0762 251.229 22.0961 250.991 22.0994C250.599 22.1061 250.235 22.0365 249.897 21.8906C249.559 21.7448 249.285 21.5194 249.077 21.2145C248.868 20.9096 248.763 20.5268 248.763 20.0661V12.5341ZM256.595 22.1541C255.879 22.1541 255.254 21.9901 254.721 21.6619C254.187 21.3338 253.773 20.8748 253.478 20.2848C253.183 19.6948 253.035 19.0054 253.035 18.2166C253.035 17.4245 253.183 16.7318 253.478 16.1385C253.773 15.5452 254.187 15.0845 254.721 14.7564C255.254 14.4283 255.879 14.2642 256.595 14.2642C257.311 14.2642 257.935 14.4283 258.469 14.7564C259.003 15.0845 259.417 15.5452 259.712 16.1385C260.007 16.7318 260.154 17.4245 260.154 18.2166C260.154 19.0054 260.007 19.6948 259.712 20.2848C259.417 20.8748 259.003 21.3338 258.469 21.6619C257.935 21.9901 257.311 22.1541 256.595 22.1541ZM256.6 20.9062C257.064 20.9062 257.448 20.7836 257.753 20.5384C258.058 20.2931 258.283 19.9666 258.429 19.5589C258.578 19.1513 258.653 18.7022 258.653 18.2116C258.653 17.7244 258.578 17.277 258.429 16.8693C258.283 16.4583 258.058 16.1286 257.753 15.88C257.448 15.6314 257.064 15.5071 256.6 15.5071C256.132 15.5071 255.745 15.6314 255.436 15.88C255.132 16.1286 254.904 16.4583 254.755 16.8693C254.609 17.277 254.537 17.7244 254.537 18.2116C254.537 18.7022 254.609 19.1513 254.755 19.5589C254.904 19.9666 255.132 20.2931 255.436 20.5384C255.745 20.7836 256.132 20.9062 256.6 20.9062ZM263.3 17.4659V22H261.814V14.3636H263.241V15.6065H263.335C263.511 15.2022 263.786 14.8774 264.16 14.6321C264.538 14.3868 265.014 14.2642 265.587 14.2642C266.108 14.2642 266.563 14.3736 266.954 14.5923C267.345 14.8078 267.649 15.1293 267.864 15.5568C268.08 15.9844 268.187 16.513 268.187 17.1428V22H266.701V17.3217C266.701 16.7682 266.557 16.3357 266.268 16.0241C265.98 15.7093 265.584 15.5518 265.08 15.5518C264.735 15.5518 264.429 15.6264 264.16 15.7756C263.895 15.9247 263.685 16.1435 263.529 16.4318C263.376 16.7169 263.3 17.0616 263.3 17.4659Z" fill="#D4D8DD"/>
<path d="M296 0.5H332C335.038 0.5 337.5 2.96243 337.5 6V27C337.5 30.0376 335.038 32.5 332 32.5H296C292.962 32.5 290.5 30.0376 290.5 27V6C290.5 2.96243 292.962 0.5 296 0.5Z" stroke="#495A72"/>
<path d="M309.333 11.8332C309.333 11.5986 309.395 11.3682 309.513 11.1651C309.63 10.962 309.799 10.7936 310.003 10.6767C310.206 10.5598 310.437 10.4987 310.671 10.4995C310.906 10.5003 311.136 10.563 311.339 10.6812L319.337 15.3466C319.539 15.4637 319.706 15.6317 319.823 15.8339C319.939 16.0361 320.001 16.2653 320.001 16.4987C320.001 16.732 319.94 16.9614 319.824 17.1637C319.708 17.3661 319.54 17.5344 319.339 17.6519L311.339 22.3186C311.136 22.4368 310.906 22.4995 310.671 22.5003C310.437 22.5011 310.206 22.44 310.003 22.3231C309.799 22.2062 309.63 22.0378 309.513 21.8347C309.395 21.6317 309.333 21.4012 309.333 21.1666V11.8332Z" stroke="#D4D8DD" stroke-width="1.33333" stroke-linecap="round" stroke-linejoin="round"/>
</svg>
