<svg width="600" height="32" viewBox="0 0 600 32" fill="none" xmlns="http://www.w3.org/2000/svg">
<path d="M18.9167 11.9165C18.9167 11.7112 18.9708 11.5096 19.0736 11.3319C19.1764 11.1542 19.3243 11.0068 19.5023 10.9046C19.6803 10.8023 19.8821 10.7488 20.0874 10.7495C20.2927 10.7502 20.4941 10.8051 20.6714 10.9085L27.6697 14.9907C27.8463 15.0932 27.9929 15.2402 28.0949 15.4171C28.1969 15.594 28.2506 15.7946 28.2508 15.9988C28.251 16.203 28.1976 16.4036 28.0959 16.5807C27.9942 16.7578 27.8478 16.9051 27.6714 17.0079L20.6714 21.0912C20.4941 21.1947 20.2927 21.2495 20.0874 21.2502C19.8821 21.2509 19.6803 21.1974 19.5023 21.0952C19.3243 20.9929 19.1764 20.8455 19.0736 20.6678C18.9708 20.4901 18.9167 20.2885 18.9167 20.0832V11.9165Z" stroke="#D4D8DD" stroke-width="1.16667" stroke-linecap="round" stroke-linejoin="round"/>
<path d="M45.7188 14.0653C45.6733 13.6619 45.4858 13.3494 45.1562 13.1278C44.8267 12.9034 44.4119 12.7912 43.9119 12.7912C43.554 12.7912 43.2443 12.848 42.983 12.9616C42.7216 13.0724 42.5185 13.2259 42.3736 13.4219C42.2315 13.6151 42.1605 13.8352 42.1605 14.0824C42.1605 14.2898 42.2088 14.4687 42.3054 14.6193C42.4048 14.7699 42.5341 14.8963 42.6932 14.9986C42.8551 15.098 43.0284 15.1818 43.2131 15.25C43.3977 15.3153 43.5753 15.3693 43.7457 15.4119L44.598 15.6335C44.8764 15.7017 45.1619 15.794 45.4545 15.9105C45.7472 16.027 46.0185 16.1804 46.2685 16.3707C46.5185 16.5611 46.7202 16.7969 46.8736 17.0781C47.0298 17.3594 47.108 17.696 47.108 18.0881C47.108 18.5824 46.9801 19.0213 46.7244 19.4048C46.4716 19.7884 46.1037 20.0909 45.6207 20.3125C45.1406 20.5341 44.5597 20.6449 43.8778 20.6449C43.2244 20.6449 42.6591 20.5412 42.1818 20.3338C41.7045 20.1264 41.331 19.8324 41.0611 19.4517C40.7912 19.0682 40.642 18.6136 40.6136 18.0881H41.9347C41.9602 18.4034 42.0625 18.6662 42.2415 18.8764C42.4233 19.0838 42.6548 19.2386 42.9361 19.3409C43.2202 19.4403 43.5312 19.4901 43.8693 19.4901C44.2415 19.4901 44.5724 19.4318 44.8622 19.3153C45.1548 19.196 45.3849 19.0312 45.5526 18.821C45.7202 18.608 45.804 18.3594 45.804 18.0753C45.804 17.8168 45.7301 17.6051 45.5824 17.4403C45.4375 17.2756 45.2401 17.1392 44.9901 17.0312C44.7429 16.9233 44.4631 16.8281 44.1506 16.7457L43.1193 16.4645C42.4205 16.2741 41.8665 15.9943 41.4574 15.625C41.0511 15.2557 40.848 14.767 40.848 14.1591C40.848 13.6562 40.9844 13.2173 41.2571 12.8423C41.5298 12.4673 41.8991 12.1761 42.3651 11.9688C42.831 11.7585 43.3565 11.6534 43.9418 11.6534C44.5327 11.6534 45.054 11.7571 45.5057 11.9645C45.9602 12.1719 46.3182 12.4574 46.5795 12.821C46.8409 13.1818 46.9773 13.5966 46.9886 14.0653H45.7188ZM52.7255 17.7855V13.9545H54.0039V20.5H52.7511V19.3665H52.6829C52.5323 19.7159 52.2908 20.0071 51.9585 20.2401C51.6289 20.4702 51.2184 20.5852 50.7269 20.5852C50.3065 20.5852 49.9343 20.4929 49.6104 20.3082C49.2894 20.1207 49.0366 19.8438 48.8519 19.4773C48.6701 19.1108 48.5792 18.6577 48.5792 18.1179V13.9545H49.8533V17.9645C49.8533 18.4105 49.9769 18.7656 50.2241 19.0298C50.4712 19.294 50.7923 19.4261 51.1871 19.4261C51.4258 19.4261 51.663 19.3665 51.8988 19.2472C52.1374 19.1278 52.3349 18.9474 52.4911 18.706C52.6502 18.4645 52.7283 18.1577 52.7255 17.7855ZM55.8182 20.5V11.7727H57.0923V15.0156H57.169C57.2429 14.8793 57.3494 14.7216 57.4886 14.5426C57.6278 14.3636 57.821 14.2074 58.0682 14.0739C58.3153 13.9375 58.642 13.8693 59.0483 13.8693C59.5767 13.8693 60.0483 14.0028 60.4631 14.2699C60.8778 14.5369 61.2031 14.9219 61.4389 15.4247C61.6776 15.9276 61.7969 16.5327 61.7969 17.2401C61.7969 17.9474 61.679 18.554 61.4432 19.0597C61.2074 19.5625 60.8835 19.9503 60.4716 20.223C60.0597 20.4929 59.5895 20.6278 59.0611 20.6278C58.6634 20.6278 58.3381 20.5611 58.0852 20.4276C57.8352 20.294 57.6392 20.1378 57.4972 19.9588C57.3551 19.7798 57.2457 19.6207 57.169 19.4815H57.0625V20.5H55.8182ZM57.0668 17.2273C57.0668 17.6875 57.1335 18.0909 57.267 18.4375C57.4006 18.7841 57.5938 19.0554 57.8466 19.2514C58.0994 19.4446 58.4091 19.5412 58.7756 19.5412C59.1562 19.5412 59.4744 19.4403 59.7301 19.2386C59.9858 19.0341 60.179 18.7571 60.3097 18.4077C60.4432 18.0582 60.5099 17.6648 60.5099 17.2273C60.5099 16.7955 60.4446 16.4077 60.3139 16.0639C60.1861 15.7202 59.9929 15.4489 59.7344 15.25C59.4787 15.0511 59.1591 14.9517 58.7756 14.9517C58.4062 14.9517 58.0938 15.0469 57.8381 15.2372C57.5852 15.4276 57.3935 15.6932 57.2628 16.0341C57.1321 16.375 57.0668 16.7727 57.0668 17.2273ZM66.283 13.9545V14.9773H62.7077V13.9545H66.283ZM63.6665 12.3864H64.9407V18.5781C64.9407 18.8253 64.9776 19.0114 65.0515 19.1364C65.1254 19.2585 65.2205 19.3423 65.337 19.3878C65.4563 19.4304 65.5856 19.4517 65.7248 19.4517C65.8271 19.4517 65.9165 19.4446 65.9933 19.4304C66.07 19.4162 66.1296 19.4048 66.1722 19.3963L66.4023 20.4489C66.3285 20.4773 66.2234 20.5057 66.087 20.5341C65.9506 20.5653 65.7802 20.5824 65.5756 20.5852C65.2404 20.5909 64.9279 20.5312 64.6381 20.4062C64.3484 20.2812 64.114 20.0881 63.935 19.8267C63.756 19.5653 63.6665 19.2372 63.6665 18.8423V12.3864ZM69.1072 11.7727V20.5H67.8331V11.7727H69.1072ZM73.6424 20.6321C72.9975 20.6321 72.4421 20.4943 71.9762 20.2188C71.5131 19.9403 71.1552 19.5497 70.9023 19.0469C70.6523 18.5412 70.5273 17.9489 70.5273 17.2699C70.5273 16.5994 70.6523 16.0085 70.9023 15.4972C71.1552 14.9858 71.5075 14.5866 71.9592 14.2997C72.4137 14.0128 72.945 13.8693 73.5529 13.8693C73.9222 13.8693 74.2802 13.9304 74.6268 14.0526C74.9734 14.1747 75.2844 14.3665 75.56 14.6278C75.8356 14.8892 76.0529 15.2287 76.212 15.6463C76.3711 16.0611 76.4506 16.5653 76.4506 17.1591V17.6108H71.2475V16.6562H75.2021C75.2021 16.321 75.1339 16.0241 74.9975 15.7656C74.8612 15.5043 74.6694 15.2983 74.4222 15.1477C74.1779 14.9972 73.891 14.9219 73.5614 14.9219C73.2035 14.9219 72.891 15.0099 72.6239 15.1861C72.3597 15.3594 72.1552 15.5866 72.0103 15.8679C71.8683 16.1463 71.7972 16.4489 71.7972 16.7756V17.5213C71.7972 17.9588 71.8739 18.331 72.0273 18.6378C72.1836 18.9446 72.4009 19.179 72.6793 19.3409C72.9577 19.5 73.283 19.5795 73.6552 19.5795C73.8967 19.5795 74.1168 19.5455 74.3157 19.4773C74.5146 19.4062 74.6864 19.3011 74.8313 19.1619C74.9762 19.0227 75.087 18.8509 75.1637 18.6463L76.3697 18.8636C76.2731 19.2187 76.0998 19.5298 75.8498 19.7969C75.6026 20.0611 75.2915 20.267 74.9165 20.4148C74.5444 20.5597 74.1197 20.6321 73.6424 20.6321ZM81.1424 20.5V11.7727H82.4165V15.0156H82.4933C82.5671 14.8793 82.6737 14.7216 82.8129 14.5426C82.9521 14.3636 83.1452 14.2074 83.3924 14.0739C83.6396 13.9375 83.9663 13.8693 84.3725 13.8693C84.9009 13.8693 85.3725 14.0028 85.7873 14.2699C86.2021 14.5369 86.5273 14.9219 86.7631 15.4247C87.0018 15.9276 87.1211 16.5327 87.1211 17.2401C87.1211 17.9474 87.0032 18.554 86.7674 19.0597C86.5316 19.5625 86.2077 19.9503 85.7958 20.223C85.3839 20.4929 84.9137 20.6278 84.3853 20.6278C83.9876 20.6278 83.6623 20.5611 83.4094 20.4276C83.1594 20.294 82.9634 20.1378 82.8214 19.9588C82.6793 19.7798 82.57 19.6207 82.4933 19.4815H82.3867V20.5H81.1424ZM82.391 17.2273C82.391 17.6875 82.4577 18.0909 82.5913 18.4375C82.7248 18.7841 82.918 19.0554 83.1708 19.2514C83.4237 19.4446 83.7333 19.5412 84.0998 19.5412C84.4805 19.5412 84.7987 19.4403 85.0543 19.2386C85.31 19.0341 85.5032 18.7571 85.6339 18.4077C85.7674 18.0582 85.8342 17.6648 85.8342 17.2273C85.8342 16.7955 85.7688 16.4077 85.6381 16.0639C85.5103 15.7202 85.3171 15.4489 85.0586 15.25C84.8029 15.0511 84.4833 14.9517 84.0998 14.9517C83.7305 14.9517 83.418 15.0469 83.1623 15.2372C82.9094 15.4276 82.7177 15.6932 82.587 16.0341C82.4563 16.375 82.391 16.7727 82.391 17.2273ZM92.6982 17.7855V13.9545H93.9766V20.5H92.7237V19.3665H92.6555C92.505 19.7159 92.2635 20.0071 91.9311 20.2401C91.6016 20.4702 91.1911 20.5852 90.6996 20.5852C90.2791 20.5852 89.907 20.4929 89.5831 20.3082C89.2621 20.1207 89.0092 19.8438 88.8246 19.4773C88.6428 19.1108 88.5518 18.6577 88.5518 18.1179V13.9545H89.826V17.9645C89.826 18.4105 89.9496 18.7656 90.1967 19.0298C90.4439 19.294 90.7649 19.4261 91.1598 19.4261C91.3984 19.4261 91.6357 19.3665 91.8714 19.2472C92.1101 19.1278 92.3075 18.9474 92.4638 18.706C92.6229 18.4645 92.701 18.1577 92.6982 17.7855ZM98.744 13.9545V14.9773H95.1687V13.9545H98.744ZM96.1275 12.3864H97.4016V18.5781C97.4016 18.8253 97.4386 19.0114 97.5124 19.1364C97.5863 19.2585 97.6815 19.3423 97.7979 19.3878C97.9173 19.4304 98.0465 19.4517 98.1857 19.4517C98.288 19.4517 98.3775 19.4446 98.4542 19.4304C98.5309 19.4162 98.5906 19.4048 98.6332 19.3963L98.8633 20.4489C98.7894 20.4773 98.6843 20.5057 98.5479 20.5341C98.4116 20.5653 98.2411 20.5824 98.0366 20.5852C97.7013 20.5909 97.3888 20.5312 97.0991 20.4062C96.8093 20.2812 96.5749 20.0881 96.396 19.8267C96.217 19.5653 96.1275 19.2372 96.1275 18.8423V12.3864ZM103.209 13.9545V14.9773H99.6335V13.9545H103.209ZM100.592 12.3864H101.866V18.5781C101.866 18.8253 101.903 19.0114 101.977 19.1364C102.051 19.2585 102.146 19.3423 102.263 19.3878C102.382 19.4304 102.511 19.4517 102.651 19.4517C102.753 19.4517 102.842 19.4446 102.919 19.4304C102.996 19.4162 103.055 19.4048 103.098 19.3963L103.328 20.4489C103.254 20.4773 103.149 20.5057 103.013 20.5341C102.876 20.5653 102.706 20.5824 102.501 20.5852C102.166 20.5909 101.854 20.5312 101.564 20.4062C101.274 20.2812 101.04 20.0881 100.861 19.8267C100.682 19.5653 100.592 19.2372 100.592 18.8423V12.3864ZM107.305 20.6321C106.691 20.6321 106.156 20.4915 105.699 20.2102C105.241 19.929 104.886 19.5355 104.633 19.0298C104.38 18.5241 104.254 17.9332 104.254 17.2571C104.254 16.5781 104.38 15.9844 104.633 15.4759C104.886 14.9673 105.241 14.5724 105.699 14.2912C106.156 14.0099 106.691 13.8693 107.305 13.8693C107.919 13.8693 108.454 14.0099 108.912 14.2912C109.369 14.5724 109.724 14.9673 109.977 15.4759C110.23 15.9844 110.356 16.5781 110.356 17.2571C110.356 17.9332 110.23 18.5241 109.977 19.0298C109.724 19.5355 109.369 19.929 108.912 20.2102C108.454 20.4915 107.919 20.6321 107.305 20.6321ZM107.309 19.5625C107.707 19.5625 108.037 19.4574 108.298 19.2472C108.559 19.0369 108.752 18.7571 108.877 18.4077C109.005 18.0582 109.069 17.6733 109.069 17.2528C109.069 16.8352 109.005 16.4517 108.877 16.1023C108.752 15.75 108.559 15.4673 108.298 15.2543C108.037 15.0412 107.707 14.9347 107.309 14.9347C106.909 14.9347 106.576 15.0412 106.312 15.2543C106.051 15.4673 105.856 15.75 105.728 16.1023C105.603 16.4517 105.541 16.8352 105.541 17.2528C105.541 17.6733 105.603 18.0582 105.728 18.4077C105.856 18.7571 106.051 19.0369 106.312 19.2472C106.576 19.4574 106.909 19.5625 107.309 19.5625ZM113.053 16.6136V20.5H111.778V13.9545H113.001V15.0199H113.082C113.233 14.6733 113.469 14.3949 113.79 14.1847C114.114 13.9744 114.521 13.8693 115.013 13.8693C115.459 13.8693 115.849 13.9631 116.185 14.1506C116.52 14.3352 116.78 14.6108 116.964 14.9773C117.149 15.3437 117.241 15.7969 117.241 16.3366V20.5H115.967V16.4901C115.967 16.0156 115.844 15.6449 115.597 15.3778C115.349 15.108 115.01 14.973 114.578 14.973C114.283 14.973 114.02 15.0369 113.79 15.1648C113.563 15.2926 113.382 15.4801 113.249 15.7273C113.118 15.9716 113.053 16.267 113.053 16.6136Z" fill="#D4D8DD"/>
<path d="M160.719 14.0653C160.673 13.6619 160.486 13.3494 160.156 13.1278C159.827 12.9034 159.412 12.7912 158.912 12.7912C158.554 12.7912 158.244 12.848 157.983 12.9616C157.722 13.0724 157.518 13.2259 157.374 13.4219C157.232 13.6151 157.161 13.8352 157.161 14.0824C157.161 14.2898 157.209 14.4687 157.305 14.6193C157.405 14.7699 157.534 14.8963 157.693 14.9986C157.855 15.098 158.028 15.1818 158.213 15.25C158.398 15.3153 158.575 15.3693 158.746 15.4119L159.598 15.6335C159.876 15.7017 160.162 15.794 160.455 15.9105C160.747 16.027 161.018 16.1804 161.268 16.3707C161.518 16.5611 161.72 16.7969 161.874 17.0781C162.03 17.3594 162.108 17.696 162.108 18.0881C162.108 18.5824 161.98 19.0213 161.724 19.4048C161.472 19.7884 161.104 20.0909 160.621 20.3125C160.141 20.5341 159.56 20.6449 158.878 20.6449C158.224 20.6449 157.659 20.5412 157.182 20.3338C156.705 20.1264 156.331 19.8324 156.061 19.4517C155.791 19.0682 155.642 18.6136 155.614 18.0881H156.935C156.96 18.4034 157.063 18.6662 157.241 18.8764C157.423 19.0838 157.655 19.2386 157.936 19.3409C158.22 19.4403 158.531 19.4901 158.869 19.4901C159.241 19.4901 159.572 19.4318 159.862 19.3153C160.155 19.196 160.385 19.0312 160.553 18.821C160.72 18.608 160.804 18.3594 160.804 18.0753C160.804 17.8168 160.73 17.6051 160.582 17.4403C160.438 17.2756 160.24 17.1392 159.99 17.0312C159.743 16.9233 159.463 16.8281 159.151 16.7457L158.119 16.4645C157.42 16.2741 156.866 15.9943 156.457 15.625C156.051 15.2557 155.848 14.767 155.848 14.1591C155.848 13.6562 155.984 13.2173 156.257 12.8423C156.53 12.4673 156.899 12.1761 157.365 11.9688C157.831 11.7585 158.357 11.6534 158.942 11.6534C159.533 11.6534 160.054 11.7571 160.506 11.9645C160.96 12.1719 161.318 12.4574 161.58 12.821C161.841 13.1818 161.977 13.5966 161.989 14.0653H160.719ZM167.725 17.7855V13.9545H169.004V20.5H167.751V19.3665H167.683C167.532 19.7159 167.291 20.0071 166.958 20.2401C166.629 20.4702 166.218 20.5852 165.727 20.5852C165.306 20.5852 164.934 20.4929 164.61 20.3082C164.289 20.1207 164.037 19.8438 163.852 19.4773C163.67 19.1108 163.579 18.6577 163.579 18.1179V13.9545H164.853V17.9645C164.853 18.4105 164.977 18.7656 165.224 19.0298C165.471 19.294 165.792 19.4261 166.187 19.4261C166.426 19.4261 166.663 19.3665 166.899 19.2472C167.137 19.1278 167.335 18.9474 167.491 18.706C167.65 18.4645 167.728 18.1577 167.725 17.7855ZM170.818 20.5V11.7727H172.092V15.0156H172.169C172.243 14.8793 172.349 14.7216 172.489 14.5426C172.628 14.3636 172.821 14.2074 173.068 14.0739C173.315 13.9375 173.642 13.8693 174.048 13.8693C174.577 13.8693 175.048 14.0028 175.463 14.2699C175.878 14.5369 176.203 14.9219 176.439 15.4247C176.678 15.9276 176.797 16.5327 176.797 17.2401C176.797 17.9474 176.679 18.554 176.443 19.0597C176.207 19.5625 175.884 19.9503 175.472 20.223C175.06 20.4929 174.589 20.6278 174.061 20.6278C173.663 20.6278 173.338 20.5611 173.085 20.4276C172.835 20.294 172.639 20.1378 172.497 19.9588C172.355 19.7798 172.246 19.6207 172.169 19.4815H172.062V20.5H170.818ZM172.067 17.2273C172.067 17.6875 172.134 18.0909 172.267 18.4375C172.401 18.7841 172.594 19.0554 172.847 19.2514C173.099 19.4446 173.409 19.5412 173.776 19.5412C174.156 19.5412 174.474 19.4403 174.73 19.2386C174.986 19.0341 175.179 18.7571 175.31 18.4077C175.443 18.0582 175.51 17.6648 175.51 17.2273C175.51 16.7955 175.445 16.4077 175.314 16.0639C175.186 15.7202 174.993 15.4489 174.734 15.25C174.479 15.0511 174.159 14.9517 173.776 14.9517C173.406 14.9517 173.094 15.0469 172.838 15.2372C172.585 15.4276 172.393 15.6932 172.263 16.0341C172.132 16.375 172.067 16.7727 172.067 17.2273ZM181.283 13.9545V14.9773H177.708V13.9545H181.283ZM178.667 12.3864H179.941V18.5781C179.941 18.8253 179.978 19.0114 180.051 19.1364C180.125 19.2585 180.221 19.3423 180.337 19.3878C180.456 19.4304 180.586 19.4517 180.725 19.4517C180.827 19.4517 180.917 19.4446 180.993 19.4304C181.07 19.4162 181.13 19.4048 181.172 19.3963L181.402 20.4489C181.328 20.4773 181.223 20.5057 181.087 20.5341C180.951 20.5653 180.78 20.5824 180.576 20.5852C180.24 20.5909 179.928 20.5312 179.638 20.4062C179.348 20.2812 179.114 20.0881 178.935 19.8267C178.756 19.5653 178.667 19.2372 178.667 18.8423V12.3864ZM184.107 11.7727V20.5H182.833V11.7727H184.107ZM188.642 20.6321C187.998 20.6321 187.442 20.4943 186.976 20.2188C186.513 19.9403 186.155 19.5497 185.902 19.0469C185.652 18.5412 185.527 17.9489 185.527 17.2699C185.527 16.5994 185.652 16.0085 185.902 15.4972C186.155 14.9858 186.507 14.5866 186.959 14.2997C187.414 14.0128 187.945 13.8693 188.553 13.8693C188.922 13.8693 189.28 13.9304 189.627 14.0526C189.973 14.1747 190.284 14.3665 190.56 14.6278C190.836 14.8892 191.053 15.2287 191.212 15.6463C191.371 16.0611 191.451 16.5653 191.451 17.1591V17.6108H186.248V16.6562H190.202C190.202 16.321 190.134 16.0241 189.998 15.7656C189.861 15.5043 189.669 15.2983 189.422 15.1477C189.178 14.9972 188.891 14.9219 188.561 14.9219C188.203 14.9219 187.891 15.0099 187.624 15.1861C187.36 15.3594 187.155 15.5866 187.01 15.8679C186.868 16.1463 186.797 16.4489 186.797 16.7756V17.5213C186.797 17.9588 186.874 18.331 187.027 18.6378C187.184 18.9446 187.401 19.179 187.679 19.3409C187.958 19.5 188.283 19.5795 188.655 19.5795C188.897 19.5795 189.117 19.5455 189.316 19.4773C189.515 19.4062 189.686 19.3011 189.831 19.1619C189.976 19.0227 190.087 18.8509 190.164 18.6463L191.37 18.8636C191.273 19.2187 191.1 19.5298 190.85 19.7969C190.603 20.0611 190.292 20.267 189.917 20.4148C189.544 20.5597 189.12 20.6321 188.642 20.6321ZM196.142 20.5V11.7727H197.417V15.0156H197.493C197.567 14.8793 197.674 14.7216 197.813 14.5426C197.952 14.3636 198.145 14.2074 198.392 14.0739C198.64 13.9375 198.966 13.8693 199.373 13.8693C199.901 13.8693 200.373 14.0028 200.787 14.2699C201.202 14.5369 201.527 14.9219 201.763 15.4247C202.002 15.9276 202.121 16.5327 202.121 17.2401C202.121 17.9474 202.003 18.554 201.767 19.0597C201.532 19.5625 201.208 19.9503 200.796 20.223C200.384 20.4929 199.914 20.6278 199.385 20.6278C198.988 20.6278 198.662 20.5611 198.409 20.4276C198.159 20.294 197.963 20.1378 197.821 19.9588C197.679 19.7798 197.57 19.6207 197.493 19.4815H197.387V20.5H196.142ZM197.391 17.2273C197.391 17.6875 197.458 18.0909 197.591 18.4375C197.725 18.7841 197.918 19.0554 198.171 19.2514C198.424 19.4446 198.733 19.5412 199.1 19.5412C199.48 19.5412 199.799 19.4403 200.054 19.2386C200.31 19.0341 200.503 18.7571 200.634 18.4077C200.767 18.0582 200.834 17.6648 200.834 17.2273C200.834 16.7955 200.769 16.4077 200.638 16.0639C200.51 15.7202 200.317 15.4489 200.059 15.25C199.803 15.0511 199.483 14.9517 199.1 14.9517C198.73 14.9517 198.418 15.0469 198.162 15.2372C197.909 15.4276 197.718 15.6932 197.587 16.0341C197.456 16.375 197.391 16.7727 197.391 17.2273ZM207.698 17.7855V13.9545H208.977V20.5H207.724V19.3665H207.656C207.505 19.7159 207.263 20.0071 206.931 20.2401C206.602 20.4702 206.191 20.5852 205.7 20.5852C205.279 20.5852 204.907 20.4929 204.583 20.3082C204.262 20.1207 204.009 19.8438 203.825 19.4773C203.643 19.1108 203.552 18.6577 203.552 18.1179V13.9545H204.826V17.9645C204.826 18.4105 204.95 18.7656 205.197 19.0298C205.444 19.294 205.765 19.4261 206.16 19.4261C206.398 19.4261 206.636 19.3665 206.871 19.2472C207.11 19.1278 207.308 18.9474 207.464 18.706C207.623 18.4645 207.701 18.1577 207.698 17.7855ZM213.744 13.9545V14.9773H210.169V13.9545H213.744ZM211.127 12.3864H212.402V18.5781C212.402 18.8253 212.439 19.0114 212.512 19.1364C212.586 19.2585 212.681 19.3423 212.798 19.3878C212.917 19.4304 213.047 19.4517 213.186 19.4517C213.288 19.4517 213.377 19.4446 213.454 19.4304C213.531 19.4162 213.591 19.4048 213.633 19.3963L213.863 20.4489C213.789 20.4773 213.684 20.5057 213.548 20.5341C213.412 20.5653 213.241 20.5824 213.037 20.5852C212.701 20.5909 212.389 20.5312 212.099 20.4062C211.809 20.2812 211.575 20.0881 211.396 19.8267C211.217 19.5653 211.127 19.2372 211.127 18.8423V12.3864ZM218.209 13.9545V14.9773H214.634V13.9545H218.209ZM215.592 12.3864H216.866V18.5781C216.866 18.8253 216.903 19.0114 216.977 19.1364C217.051 19.2585 217.146 19.3423 217.263 19.3878C217.382 19.4304 217.511 19.4517 217.651 19.4517C217.753 19.4517 217.842 19.4446 217.919 19.4304C217.996 19.4162 218.055 19.4048 218.098 19.3963L218.328 20.4489C218.254 20.4773 218.149 20.5057 218.013 20.5341C217.876 20.5653 217.706 20.5824 217.501 20.5852C217.166 20.5909 216.854 20.5312 216.564 20.4062C216.274 20.2812 216.04 20.0881 215.861 19.8267C215.682 19.5653 215.592 19.2372 215.592 18.8423V12.3864ZM222.305 20.6321C221.691 20.6321 221.156 20.4915 220.699 20.2102C220.241 19.929 219.886 19.5355 219.633 19.0298C219.38 18.5241 219.254 17.9332 219.254 17.2571C219.254 16.5781 219.38 15.9844 219.633 15.4759C219.886 14.9673 220.241 14.5724 220.699 14.2912C221.156 14.0099 221.691 13.8693 222.305 13.8693C222.919 13.8693 223.454 14.0099 223.912 14.2912C224.369 14.5724 224.724 14.9673 224.977 15.4759C225.23 15.9844 225.356 16.5781 225.356 17.2571C225.356 17.9332 225.23 18.5241 224.977 19.0298C224.724 19.5355 224.369 19.929 223.912 20.2102C223.454 20.4915 222.919 20.6321 222.305 20.6321ZM222.309 19.5625C222.707 19.5625 223.037 19.4574 223.298 19.2472C223.559 19.0369 223.752 18.7571 223.877 18.4077C224.005 18.0582 224.069 17.6733 224.069 17.2528C224.069 16.8352 224.005 16.4517 223.877 16.1023C223.752 15.75 223.559 15.4673 223.298 15.2543C223.037 15.0412 222.707 14.9347 222.309 14.9347C221.909 14.9347 221.576 15.0412 221.312 15.2543C221.051 15.4673 220.856 15.75 220.728 16.1023C220.603 16.4517 220.541 16.8352 220.541 17.2528C220.541 17.6733 220.603 18.0582 220.728 18.4077C220.856 18.7571 221.051 19.0369 221.312 19.2472C221.576 19.4574 221.909 19.5625 222.309 19.5625ZM228.053 16.6136V20.5H226.778V13.9545H228.001V15.0199H228.082C228.233 14.6733 228.469 14.3949 228.79 14.1847C229.114 13.9744 229.521 13.8693 230.013 13.8693C230.459 13.8693 230.849 13.9631 231.185 14.1506C231.52 14.3352 231.78 14.6108 231.964 14.9773C232.149 15.3437 232.241 15.7969 232.241 16.3366V20.5H230.967V16.4901C230.967 16.0156 230.844 15.6449 230.597 15.3778C230.349 15.108 230.01 14.973 229.578 14.973C229.283 14.973 229.02 15.0369 228.79 15.1648C228.563 15.2926 228.382 15.4801 228.249 15.7273C228.118 15.9716 228.053 16.267 228.053 16.6136Z" fill="#D4D8DD"/>
<path d="M272.917 11.9165C272.917 11.7112 272.971 11.5096 273.074 11.3319C273.176 11.1542 273.324 11.0068 273.502 10.9046C273.68 10.8023 273.882 10.7488 274.087 10.7495C274.293 10.7502 274.494 10.8051 274.671 10.9085L281.67 14.9907C281.846 15.0932 281.993 15.2402 282.095 15.4171C282.197 15.594 282.251 15.7946 282.251 15.9988C282.251 16.203 282.198 16.4036 282.096 16.5807C281.994 16.7578 281.848 16.9051 281.671 17.0079L274.671 21.0912C274.494 21.1947 274.293 21.2495 274.087 21.2502C273.882 21.2509 273.68 21.1974 273.502 21.0952C273.324 20.9929 273.176 20.8455 273.074 20.6678C272.971 20.4901 272.917 20.2885 272.917 20.0832V11.9165Z" stroke="#D4D8DD" stroke-width="1.16667" stroke-linecap="round" stroke-linejoin="round"/>
<path d="M322.917 11.9165C322.916 11.7112 322.971 11.5096 323.073 11.3319C323.176 11.1542 323.324 11.0068 323.502 10.9046C323.68 10.8023 323.882 10.7488 324.087 10.7495C324.292 10.7502 324.494 10.8051 324.671 10.9085L331.669 14.9907C331.846 15.0932 331.993 15.2402 332.095 15.4171C332.197 15.594 332.25 15.7946 332.251 15.9988C332.251 16.203 332.197 16.4036 332.096 16.5807C331.994 16.7578 331.848 16.9051 331.671 17.0079L324.671 21.0912C324.494 21.1947 324.292 21.2495 324.087 21.2502C323.882 21.2509 323.68 21.1974 323.502 21.0952C323.324 20.9929 323.176 20.8455 323.073 20.6678C322.971 20.4901 322.916 20.2885 322.917 20.0832V11.9165Z" stroke="#9098A2" stroke-width="1.16667" stroke-linecap="round" stroke-linejoin="round"/>
<path d="M349.719 14.0653C349.673 13.6619 349.486 13.3494 349.156 13.1278C348.827 12.9034 348.412 12.7912 347.912 12.7912C347.554 12.7912 347.244 12.848 346.983 12.9616C346.722 13.0724 346.518 13.2259 346.374 13.4219C346.232 13.6151 346.161 13.8352 346.161 14.0824C346.161 14.2898 346.209 14.4687 346.305 14.6193C346.405 14.7699 346.534 14.8963 346.693 14.9986C346.855 15.098 347.028 15.1818 347.213 15.25C347.398 15.3153 347.575 15.3693 347.746 15.4119L348.598 15.6335C348.876 15.7017 349.162 15.794 349.455 15.9105C349.747 16.027 350.018 16.1804 350.268 16.3707C350.518 16.5611 350.72 16.7969 350.874 17.0781C351.03 17.3594 351.108 17.696 351.108 18.0881C351.108 18.5824 350.98 19.0213 350.724 19.4048C350.472 19.7884 350.104 20.0909 349.621 20.3125C349.141 20.5341 348.56 20.6449 347.878 20.6449C347.224 20.6449 346.659 20.5412 346.182 20.3338C345.705 20.1264 345.331 19.8324 345.061 19.4517C344.791 19.0682 344.642 18.6136 344.614 18.0881H345.935C345.96 18.4034 346.063 18.6662 346.241 18.8764C346.423 19.0838 346.655 19.2386 346.936 19.3409C347.22 19.4403 347.531 19.4901 347.869 19.4901C348.241 19.4901 348.572 19.4318 348.862 19.3153C349.155 19.196 349.385 19.0312 349.553 18.821C349.72 18.608 349.804 18.3594 349.804 18.0753C349.804 17.8168 349.73 17.6051 349.582 17.4403C349.438 17.2756 349.24 17.1392 348.99 17.0312C348.743 16.9233 348.463 16.8281 348.151 16.7457L347.119 16.4645C346.42 16.2741 345.866 15.9943 345.457 15.625C345.051 15.2557 344.848 14.767 344.848 14.1591C344.848 13.6562 344.984 13.2173 345.257 12.8423C345.53 12.4673 345.899 12.1761 346.365 11.9688C346.831 11.7585 347.357 11.6534 347.942 11.6534C348.533 11.6534 349.054 11.7571 349.506 11.9645C349.96 12.1719 350.318 12.4574 350.58 12.821C350.841 13.1818 350.977 13.5966 350.989 14.0653H349.719ZM356.725 17.7855V13.9545H358.004V20.5H356.751V19.3665H356.683C356.532 19.7159 356.291 20.0071 355.958 20.2401C355.629 20.4702 355.218 20.5852 354.727 20.5852C354.306 20.5852 353.934 20.4929 353.61 20.3082C353.289 20.1207 353.037 19.8438 352.852 19.4773C352.67 19.1108 352.579 18.6577 352.579 18.1179V13.9545H353.853V17.9645C353.853 18.4105 353.977 18.7656 354.224 19.0298C354.471 19.294 354.792 19.4261 355.187 19.4261C355.426 19.4261 355.663 19.3665 355.899 19.2472C356.137 19.1278 356.335 18.9474 356.491 18.706C356.65 18.4645 356.728 18.1577 356.725 17.7855ZM359.818 20.5V11.7727H361.092V15.0156H361.169C361.243 14.8793 361.349 14.7216 361.489 14.5426C361.628 14.3636 361.821 14.2074 362.068 14.0739C362.315 13.9375 362.642 13.8693 363.048 13.8693C363.577 13.8693 364.048 14.0028 364.463 14.2699C364.878 14.5369 365.203 14.9219 365.439 15.4247C365.678 15.9276 365.797 16.5327 365.797 17.2401C365.797 17.9474 365.679 18.554 365.443 19.0597C365.207 19.5625 364.884 19.9503 364.472 20.223C364.06 20.4929 363.589 20.6278 363.061 20.6278C362.663 20.6278 362.338 20.5611 362.085 20.4276C361.835 20.294 361.639 20.1378 361.497 19.9588C361.355 19.7798 361.246 19.6207 361.169 19.4815H361.062V20.5H359.818ZM361.067 17.2273C361.067 17.6875 361.134 18.0909 361.267 18.4375C361.401 18.7841 361.594 19.0554 361.847 19.2514C362.099 19.4446 362.409 19.5412 362.776 19.5412C363.156 19.5412 363.474 19.4403 363.73 19.2386C363.986 19.0341 364.179 18.7571 364.31 18.4077C364.443 18.0582 364.51 17.6648 364.51 17.2273C364.51 16.7955 364.445 16.4077 364.314 16.0639C364.186 15.7202 363.993 15.4489 363.734 15.25C363.479 15.0511 363.159 14.9517 362.776 14.9517C362.406 14.9517 362.094 15.0469 361.838 15.2372C361.585 15.4276 361.393 15.6932 361.263 16.0341C361.132 16.375 361.067 16.7727 361.067 17.2273ZM370.283 13.9545V14.9773H366.708V13.9545H370.283ZM367.667 12.3864H368.941V18.5781C368.941 18.8253 368.978 19.0114 369.051 19.1364C369.125 19.2585 369.221 19.3423 369.337 19.3878C369.456 19.4304 369.586 19.4517 369.725 19.4517C369.827 19.4517 369.917 19.4446 369.993 19.4304C370.07 19.4162 370.13 19.4048 370.172 19.3963L370.402 20.4489C370.328 20.4773 370.223 20.5057 370.087 20.5341C369.951 20.5653 369.78 20.5824 369.576 20.5852C369.24 20.5909 368.928 20.5312 368.638 20.4062C368.348 20.2812 368.114 20.0881 367.935 19.8267C367.756 19.5653 367.667 19.2372 367.667 18.8423V12.3864ZM373.107 11.7727V20.5H371.833V11.7727H373.107ZM377.642 20.6321C376.998 20.6321 376.442 20.4943 375.976 20.2188C375.513 19.9403 375.155 19.5497 374.902 19.0469C374.652 18.5412 374.527 17.9489 374.527 17.2699C374.527 16.5994 374.652 16.0085 374.902 15.4972C375.155 14.9858 375.507 14.5866 375.959 14.2997C376.414 14.0128 376.945 13.8693 377.553 13.8693C377.922 13.8693 378.28 13.9304 378.627 14.0526C378.973 14.1747 379.284 14.3665 379.56 14.6278C379.836 14.8892 380.053 15.2287 380.212 15.6463C380.371 16.0611 380.451 16.5653 380.451 17.1591V17.6108H375.248V16.6562H379.202C379.202 16.321 379.134 16.0241 378.998 15.7656C378.861 15.5043 378.669 15.2983 378.422 15.1477C378.178 14.9972 377.891 14.9219 377.561 14.9219C377.203 14.9219 376.891 15.0099 376.624 15.1861C376.36 15.3594 376.155 15.5866 376.01 15.8679C375.868 16.1463 375.797 16.4489 375.797 16.7756V17.5213C375.797 17.9588 375.874 18.331 376.027 18.6378C376.184 18.9446 376.401 19.179 376.679 19.3409C376.958 19.5 377.283 19.5795 377.655 19.5795C377.897 19.5795 378.117 19.5455 378.316 19.4773C378.515 19.4062 378.686 19.3011 378.831 19.1619C378.976 19.0227 379.087 18.8509 379.164 18.6463L380.37 18.8636C380.273 19.2187 380.1 19.5298 379.85 19.7969C379.603 20.0611 379.292 20.267 378.917 20.4148C378.544 20.5597 378.12 20.6321 377.642 20.6321ZM387.49 20.6278C386.962 20.6278 386.49 20.4929 386.076 20.223C385.664 19.9503 385.34 19.5625 385.104 19.0597C384.871 18.554 384.755 17.9474 384.755 17.2401C384.755 16.5327 384.873 15.9276 385.108 15.4247C385.347 14.9219 385.674 14.5369 386.088 14.2699C386.503 14.0028 386.973 13.8693 387.499 13.8693C387.905 13.8693 388.232 13.9375 388.479 14.0739C388.729 14.2074 388.922 14.3636 389.059 14.5426C389.198 14.7216 389.306 14.8793 389.382 15.0156H389.459V11.7727H390.733V20.5H389.489V19.4815H389.382C389.306 19.6207 389.195 19.7798 389.05 19.9588C388.908 20.1378 388.712 20.294 388.462 20.4276C388.212 20.5611 387.888 20.6278 387.49 20.6278ZM387.772 19.5412C388.138 19.5412 388.448 19.4446 388.701 19.2514C388.956 19.0554 389.15 18.7841 389.28 18.4375C389.414 18.0909 389.48 17.6875 389.48 17.2273C389.48 16.7727 389.415 16.375 389.284 16.0341C389.154 15.6932 388.962 15.4276 388.709 15.2372C388.456 15.0469 388.144 14.9517 387.772 14.9517C387.388 14.9517 387.069 15.0511 386.813 15.25C386.557 15.4489 386.364 15.7202 386.233 16.0639C386.105 16.4077 386.042 16.7955 386.042 17.2273C386.042 17.6648 386.107 18.0582 386.238 18.4077C386.368 18.7571 386.561 19.0341 386.817 19.2386C387.076 19.4403 387.394 19.5412 387.772 19.5412ZM392.552 20.5V13.9545H393.826V20.5H392.552ZM393.195 12.9446C392.974 12.9446 392.783 12.8707 392.624 12.723C392.468 12.5724 392.39 12.3935 392.39 12.1861C392.39 11.9759 392.468 11.7969 392.624 11.6491C392.783 11.4986 392.974 11.4233 393.195 11.4233C393.417 11.4233 393.606 11.4986 393.762 11.6491C393.921 11.7969 394.001 11.9759 394.001 12.1861C394.001 12.3935 393.921 12.5724 393.762 12.723C393.606 12.8707 393.417 12.9446 393.195 12.9446ZM400.445 15.5526L399.29 15.7571C399.242 15.6094 399.165 15.4687 399.06 15.3352C398.958 15.2017 398.819 15.0923 398.642 15.0071C398.466 14.9219 398.246 14.8793 397.982 14.8793C397.621 14.8793 397.32 14.9602 397.078 15.1222C396.837 15.2812 396.716 15.4872 396.716 15.7401C396.716 15.9588 396.797 16.1349 396.959 16.2685C397.121 16.402 397.382 16.5114 397.743 16.5966L398.783 16.8352C399.385 16.9744 399.834 17.1889 400.13 17.4787C400.425 17.7685 400.573 18.1449 400.573 18.608C400.573 19 400.459 19.3494 400.232 19.6562C400.007 19.9602 399.694 20.1989 399.29 20.3722C398.89 20.5455 398.425 20.6321 397.897 20.6321C397.164 20.6321 396.566 20.4759 396.103 20.1634C395.64 19.848 395.355 19.4006 395.25 18.821L396.482 18.6335C396.559 18.9545 396.716 19.1974 396.955 19.3622C397.194 19.5241 397.505 19.6051 397.888 19.6051C398.306 19.6051 398.64 19.5185 398.89 19.3452C399.14 19.169 399.265 18.9545 399.265 18.7017C399.265 18.4972 399.188 18.3253 399.034 18.1861C398.884 18.0469 398.652 17.9418 398.34 17.8707L397.232 17.6278C396.621 17.4886 396.169 17.267 395.877 16.9631C395.587 16.6591 395.442 16.2741 395.442 15.8082C395.442 15.4219 395.55 15.0838 395.766 14.794C395.982 14.5043 396.28 14.2784 396.661 14.1165C397.042 13.9517 397.478 13.8693 397.969 13.8693C398.676 13.8693 399.233 14.0227 399.64 14.3295C400.046 14.6335 400.314 15.0412 400.445 15.5526ZM403.879 20.6449C403.464 20.6449 403.089 20.5682 402.754 20.4148C402.418 20.2585 402.153 20.0327 401.957 19.7372C401.763 19.4418 401.667 19.0795 401.667 18.6506C401.667 18.2812 401.738 17.9773 401.88 17.7386C402.022 17.5 402.214 17.3111 402.455 17.1719C402.697 17.0327 402.967 16.9276 403.265 16.8565C403.563 16.7855 403.867 16.7315 404.177 16.6946C404.569 16.6491 404.887 16.6122 405.131 16.5838C405.376 16.5526 405.553 16.5028 405.664 16.4347C405.775 16.3665 405.83 16.2557 405.83 16.1023V16.0724C405.83 15.7003 405.725 15.4119 405.515 15.2074C405.308 15.0028 404.998 14.9006 404.586 14.9006C404.157 14.9006 403.819 14.9957 403.572 15.1861C403.327 15.3736 403.158 15.5824 403.065 15.8125L401.867 15.5398C402.009 15.142 402.217 14.821 402.489 14.5767C402.765 14.3295 403.082 14.1506 403.44 14.0398C403.798 13.9261 404.174 13.8693 404.569 13.8693C404.83 13.8693 405.107 13.9006 405.4 13.9631C405.695 14.0227 405.971 14.1335 406.227 14.2955C406.485 14.4574 406.697 14.6889 406.862 14.9901C407.026 15.2884 407.109 15.6761 407.109 16.1534V20.5H405.864V19.6051H405.813C405.731 19.7699 405.607 19.9318 405.442 20.0909C405.278 20.25 405.066 20.3821 404.808 20.4872C404.549 20.5923 404.239 20.6449 403.879 20.6449ZM404.156 19.6222C404.508 19.6222 404.809 19.5526 405.059 19.4134C405.312 19.2741 405.504 19.0923 405.634 18.8679C405.768 18.6406 405.835 18.3977 405.835 18.1392V17.2955C405.789 17.3409 405.701 17.3835 405.57 17.4233C405.442 17.4602 405.296 17.4929 405.131 17.5213C404.967 17.5469 404.806 17.571 404.65 17.5938C404.494 17.6136 404.363 17.6307 404.258 17.6449C404.011 17.6761 403.785 17.7287 403.58 17.8026C403.379 17.8764 403.217 17.983 403.094 18.1222C402.975 18.2585 402.915 18.4403 402.915 18.6676C402.915 18.983 403.032 19.2216 403.265 19.3835C403.498 19.5426 403.795 19.6222 404.156 19.6222ZM408.908 20.5V11.7727H410.182V15.0156H410.259C410.333 14.8793 410.439 14.7216 410.578 14.5426C410.718 14.3636 410.911 14.2074 411.158 14.0739C411.405 13.9375 411.732 13.8693 412.138 13.8693C412.667 13.8693 413.138 14.0028 413.553 14.2699C413.968 14.5369 414.293 14.9219 414.529 15.4247C414.767 15.9276 414.887 16.5327 414.887 17.2401C414.887 17.9474 414.769 18.554 414.533 19.0597C414.297 19.5625 413.973 19.9503 413.561 20.223C413.15 20.4929 412.679 20.6278 412.151 20.6278C411.753 20.6278 411.428 20.5611 411.175 20.4276C410.925 20.294 410.729 20.1378 410.587 19.9588C410.445 19.7798 410.336 19.6207 410.259 19.4815H410.152V20.5H408.908ZM410.157 17.2273C410.157 17.6875 410.223 18.0909 410.357 18.4375C410.49 18.7841 410.684 19.0554 410.936 19.2514C411.189 19.4446 411.499 19.5412 411.865 19.5412C412.246 19.5412 412.564 19.4403 412.82 19.2386C413.076 19.0341 413.269 18.7571 413.4 18.4077C413.533 18.0582 413.6 17.6648 413.6 17.2273C413.6 16.7955 413.534 16.4077 413.404 16.0639C413.276 15.7202 413.083 15.4489 412.824 15.25C412.569 15.0511 412.249 14.9517 411.865 14.9517C411.496 14.9517 411.184 15.0469 410.928 15.2372C410.675 15.4276 410.483 15.6932 410.353 16.0341C410.222 16.375 410.157 16.7727 410.157 17.2273ZM417.592 11.7727V20.5H416.317V11.7727H417.592ZM422.127 20.6321C421.482 20.6321 420.926 20.4943 420.461 20.2188C419.998 19.9403 419.64 19.5497 419.387 19.0469C419.137 18.5412 419.012 17.9489 419.012 17.2699C419.012 16.5994 419.137 16.0085 419.387 15.4972C419.64 14.9858 419.992 14.5866 420.444 14.2997C420.898 14.0128 421.429 13.8693 422.037 13.8693C422.407 13.8693 422.765 13.9304 423.111 14.0526C423.458 14.1747 423.769 14.3665 424.044 14.6278C424.32 14.8892 424.537 15.2287 424.696 15.6463C424.855 16.0611 424.935 16.5653 424.935 17.1591V17.6108H419.732V16.6562H423.686C423.686 16.321 423.618 16.0241 423.482 15.7656C423.346 15.5043 423.154 15.2983 422.907 15.1477C422.662 14.9972 422.375 14.9219 422.046 14.9219C421.688 14.9219 421.375 15.0099 421.108 15.1861C420.844 15.3594 420.64 15.5866 420.495 15.8679C420.353 16.1463 420.282 16.4489 420.282 16.7756V17.5213C420.282 17.9588 420.358 18.331 420.512 18.6378C420.668 18.9446 420.885 19.179 421.164 19.3409C421.442 19.5 421.767 19.5795 422.14 19.5795C422.381 19.5795 422.601 19.5455 422.8 19.4773C422.999 19.4062 423.171 19.3011 423.316 19.1619C423.461 19.0227 423.571 18.8509 423.648 18.6463L424.854 18.8636C424.757 19.2187 424.584 19.5298 424.334 19.7969C424.087 20.0611 423.776 20.267 423.401 20.4148C423.029 20.5597 422.604 20.6321 422.127 20.6321ZM428.799 20.6278C428.271 20.6278 427.799 20.4929 427.384 20.223C426.972 19.9503 426.648 19.5625 426.413 19.0597C426.18 18.554 426.063 17.9474 426.063 17.2401C426.063 16.5327 426.181 15.9276 426.417 15.4247C426.656 14.9219 426.982 14.5369 427.397 14.2699C427.812 14.0028 428.282 13.8693 428.808 13.8693C429.214 13.8693 429.54 13.9375 429.788 14.0739C430.038 14.2074 430.231 14.3636 430.367 14.5426C430.506 14.7216 430.614 14.8793 430.691 15.0156H430.768V11.7727H432.042V20.5H430.798V19.4815H430.691C430.614 19.6207 430.504 19.7798 430.359 19.9588C430.217 20.1378 430.021 20.294 429.771 20.4276C429.521 20.5611 429.197 20.6278 428.799 20.6278ZM429.08 19.5412C429.447 19.5412 429.756 19.4446 430.009 19.2514C430.265 19.0554 430.458 18.7841 430.589 18.4375C430.722 18.0909 430.789 17.6875 430.789 17.2273C430.789 16.7727 430.724 16.375 430.593 16.0341C430.462 15.6932 430.271 15.4276 430.018 15.2372C429.765 15.0469 429.452 14.9517 429.08 14.9517C428.697 14.9517 428.377 15.0511 428.121 15.25C427.866 15.4489 427.673 15.7202 427.542 16.0639C427.414 16.4077 427.35 16.7955 427.35 17.2273C427.35 17.6648 427.415 18.0582 427.546 18.4077C427.677 18.7571 427.87 19.0341 428.126 19.2386C428.384 19.4403 428.702 19.5412 429.08 19.5412Z" fill="#9098A2"/>
<rect x="454" width="146" height="32" rx="6" fill="#6790C4" fill-opacity="0.3"/>
<path d="M472.917 11.9165C472.916 11.7112 472.971 11.5096 473.073 11.3319C473.176 11.1542 473.324 11.0068 473.502 10.9046C473.68 10.8023 473.882 10.7488 474.087 10.7495C474.292 10.7502 474.494 10.8051 474.671 10.9085L481.669 14.9907C481.846 15.0932 481.993 15.2402 482.095 15.4171C482.197 15.594 482.25 15.7946 482.251 15.9988C482.251 16.203 482.197 16.4036 482.096 16.5807C481.994 16.7578 481.848 16.9051 481.671 17.0079L474.671 21.0912C474.494 21.1947 474.292 21.2495 474.087 21.2502C473.882 21.2509 473.68 21.1974 473.502 21.0952C473.324 20.9929 473.176 20.8455 473.073 20.6678C472.971 20.4901 472.916 20.2885 472.917 20.0832V11.9165Z" stroke="#C7CEFC" stroke-width="1.16667" stroke-linecap="round" stroke-linejoin="round"/>
<path d="M499.719 14.0653C499.673 13.6619 499.486 13.3494 499.156 13.1278C498.827 12.9034 498.412 12.7912 497.912 12.7912C497.554 12.7912 497.244 12.848 496.983 12.9616C496.722 13.0724 496.518 13.2259 496.374 13.4219C496.232 13.6151 496.161 13.8352 496.161 14.0824C496.161 14.2898 496.209 14.4687 496.305 14.6193C496.405 14.7699 496.534 14.8963 496.693 14.9986C496.855 15.098 497.028 15.1818 497.213 15.25C497.398 15.3153 497.575 15.3693 497.746 15.4119L498.598 15.6335C498.876 15.7017 499.162 15.794 499.455 15.9105C499.747 16.027 500.018 16.1804 500.268 16.3707C500.518 16.5611 500.72 16.7969 500.874 17.0781C501.03 17.3594 501.108 17.696 501.108 18.0881C501.108 18.5824 500.98 19.0213 500.724 19.4048C500.472 19.7884 500.104 20.0909 499.621 20.3125C499.141 20.5341 498.56 20.6449 497.878 20.6449C497.224 20.6449 496.659 20.5412 496.182 20.3338C495.705 20.1264 495.331 19.8324 495.061 19.4517C494.791 19.0682 494.642 18.6136 494.614 18.0881H495.935C495.96 18.4034 496.063 18.6662 496.241 18.8764C496.423 19.0838 496.655 19.2386 496.936 19.3409C497.22 19.4403 497.531 19.4901 497.869 19.4901C498.241 19.4901 498.572 19.4318 498.862 19.3153C499.155 19.196 499.385 19.0312 499.553 18.821C499.72 18.608 499.804 18.3594 499.804 18.0753C499.804 17.8168 499.73 17.6051 499.582 17.4403C499.438 17.2756 499.24 17.1392 498.99 17.0312C498.743 16.9233 498.463 16.8281 498.151 16.7457L497.119 16.4645C496.42 16.2741 495.866 15.9943 495.457 15.625C495.051 15.2557 494.848 14.767 494.848 14.1591C494.848 13.6562 494.984 13.2173 495.257 12.8423C495.53 12.4673 495.899 12.1761 496.365 11.9688C496.831 11.7585 497.357 11.6534 497.942 11.6534C498.533 11.6534 499.054 11.7571 499.506 11.9645C499.96 12.1719 500.318 12.4574 500.58 12.821C500.841 13.1818 500.977 13.5966 500.989 14.0653H499.719ZM506.725 17.7855V13.9545H508.004V20.5H506.751V19.3665H506.683C506.532 19.7159 506.291 20.0071 505.958 20.2401C505.629 20.4702 505.218 20.5852 504.727 20.5852C504.306 20.5852 503.934 20.4929 503.61 20.3082C503.289 20.1207 503.037 19.8438 502.852 19.4773C502.67 19.1108 502.579 18.6577 502.579 18.1179V13.9545H503.853V17.9645C503.853 18.4105 503.977 18.7656 504.224 19.0298C504.471 19.294 504.792 19.4261 505.187 19.4261C505.426 19.4261 505.663 19.3665 505.899 19.2472C506.137 19.1278 506.335 18.9474 506.491 18.706C506.65 18.4645 506.728 18.1577 506.725 17.7855ZM509.818 20.5V11.7727H511.092V15.0156H511.169C511.243 14.8793 511.349 14.7216 511.489 14.5426C511.628 14.3636 511.821 14.2074 512.068 14.0739C512.315 13.9375 512.642 13.8693 513.048 13.8693C513.577 13.8693 514.048 14.0028 514.463 14.2699C514.878 14.5369 515.203 14.9219 515.439 15.4247C515.678 15.9276 515.797 16.5327 515.797 17.2401C515.797 17.9474 515.679 18.554 515.443 19.0597C515.207 19.5625 514.884 19.9503 514.472 20.223C514.06 20.4929 513.589 20.6278 513.061 20.6278C512.663 20.6278 512.338 20.5611 512.085 20.4276C511.835 20.294 511.639 20.1378 511.497 19.9588C511.355 19.7798 511.246 19.6207 511.169 19.4815H511.062V20.5H509.818ZM511.067 17.2273C511.067 17.6875 511.134 18.0909 511.267 18.4375C511.401 18.7841 511.594 19.0554 511.847 19.2514C512.099 19.4446 512.409 19.5412 512.776 19.5412C513.156 19.5412 513.474 19.4403 513.73 19.2386C513.986 19.0341 514.179 18.7571 514.31 18.4077C514.443 18.0582 514.51 17.6648 514.51 17.2273C514.51 16.7955 514.445 16.4077 514.314 16.0639C514.186 15.7202 513.993 15.4489 513.734 15.25C513.479 15.0511 513.159 14.9517 512.776 14.9517C512.406 14.9517 512.094 15.0469 511.838 15.2372C511.585 15.4276 511.393 15.6932 511.263 16.0341C511.132 16.375 511.067 16.7727 511.067 17.2273ZM520.283 13.9545V14.9773H516.708V13.9545H520.283ZM517.667 12.3864H518.941V18.5781C518.941 18.8253 518.978 19.0114 519.051 19.1364C519.125 19.2585 519.221 19.3423 519.337 19.3878C519.456 19.4304 519.586 19.4517 519.725 19.4517C519.827 19.4517 519.917 19.4446 519.993 19.4304C520.07 19.4162 520.13 19.4048 520.172 19.3963L520.402 20.4489C520.328 20.4773 520.223 20.5057 520.087 20.5341C519.951 20.5653 519.78 20.5824 519.576 20.5852C519.24 20.5909 518.928 20.5312 518.638 20.4062C518.348 20.2812 518.114 20.0881 517.935 19.8267C517.756 19.5653 517.667 19.2372 517.667 18.8423V12.3864ZM523.107 11.7727V20.5H521.833V11.7727H523.107ZM527.642 20.6321C526.998 20.6321 526.442 20.4943 525.976 20.2188C525.513 19.9403 525.155 19.5497 524.902 19.0469C524.652 18.5412 524.527 17.9489 524.527 17.2699C524.527 16.5994 524.652 16.0085 524.902 15.4972C525.155 14.9858 525.507 14.5866 525.959 14.2997C526.414 14.0128 526.945 13.8693 527.553 13.8693C527.922 13.8693 528.28 13.9304 528.627 14.0526C528.973 14.1747 529.284 14.3665 529.56 14.6278C529.836 14.8892 530.053 15.2287 530.212 15.6463C530.371 16.0611 530.451 16.5653 530.451 17.1591V17.6108H525.248V16.6562H529.202C529.202 16.321 529.134 16.0241 528.998 15.7656C528.861 15.5043 528.669 15.2983 528.422 15.1477C528.178 14.9972 527.891 14.9219 527.561 14.9219C527.203 14.9219 526.891 15.0099 526.624 15.1861C526.36 15.3594 526.155 15.5866 526.01 15.8679C525.868 16.1463 525.797 16.4489 525.797 16.7756V17.5213C525.797 17.9588 525.874 18.331 526.027 18.6378C526.184 18.9446 526.401 19.179 526.679 19.3409C526.958 19.5 527.283 19.5795 527.655 19.5795C527.897 19.5795 528.117 19.5455 528.316 19.4773C528.515 19.4062 528.686 19.3011 528.831 19.1619C528.976 19.0227 529.087 18.8509 529.164 18.6463L530.37 18.8636C530.273 19.2187 530.1 19.5298 529.85 19.7969C529.603 20.0611 529.292 20.267 528.917 20.4148C528.544 20.5597 528.12 20.6321 527.642 20.6321ZM539.945 15.5526L538.79 15.7571C538.742 15.6094 538.665 15.4687 538.56 15.3352C538.458 15.2017 538.319 15.0923 538.142 15.0071C537.966 14.9219 537.746 14.8793 537.482 14.8793C537.121 14.8793 536.82 14.9602 536.578 15.1222C536.337 15.2812 536.216 15.4872 536.216 15.7401C536.216 15.9588 536.297 16.1349 536.459 16.2685C536.621 16.402 536.882 16.5114 537.243 16.5966L538.283 16.8352C538.885 16.9744 539.334 17.1889 539.63 17.4787C539.925 17.7685 540.073 18.1449 540.073 18.608C540.073 19 539.959 19.3494 539.732 19.6562C539.507 19.9602 539.194 20.1989 538.79 20.3722C538.39 20.5455 537.925 20.6321 537.397 20.6321C536.664 20.6321 536.066 20.4759 535.603 20.1634C535.14 19.848 534.855 19.4006 534.75 18.821L535.982 18.6335C536.059 18.9545 536.216 19.1974 536.455 19.3622C536.694 19.5241 537.005 19.6051 537.388 19.6051C537.806 19.6051 538.14 19.5185 538.39 19.3452C538.64 19.169 538.765 18.9545 538.765 18.7017C538.765 18.4972 538.688 18.3253 538.534 18.1861C538.384 18.0469 538.152 17.9418 537.84 17.8707L536.732 17.6278C536.121 17.4886 535.669 17.267 535.377 16.9631C535.087 16.6591 534.942 16.2741 534.942 15.8082C534.942 15.4219 535.05 15.0838 535.266 14.794C535.482 14.5043 535.78 14.2784 536.161 14.1165C536.542 13.9517 536.978 13.8693 537.469 13.8693C538.176 13.8693 538.733 14.0227 539.14 14.3295C539.546 14.6335 539.814 15.0412 539.945 15.5526ZM544.295 20.6321C543.65 20.6321 543.094 20.4943 542.629 20.2188C542.165 19.9403 541.808 19.5497 541.555 19.0469C541.305 18.5412 541.18 17.9489 541.18 17.2699C541.18 16.5994 541.305 16.0085 541.555 15.4972C541.808 14.9858 542.16 14.5866 542.612 14.2997C543.066 14.0128 543.597 13.8693 544.205 13.8693C544.575 13.8693 544.933 13.9304 545.279 14.0526C545.626 14.1747 545.937 14.3665 546.212 14.6278C546.488 14.8892 546.705 15.2287 546.864 15.6463C547.023 16.0611 547.103 16.5653 547.103 17.1591V17.6108H541.9V16.6562H545.854C545.854 16.321 545.786 16.0241 545.65 15.7656C545.513 15.5043 545.322 15.2983 545.075 15.1477C544.83 14.9972 544.543 14.9219 544.214 14.9219C543.856 14.9219 543.543 15.0099 543.276 15.1861C543.012 15.3594 542.808 15.5866 542.663 15.8679C542.521 16.1463 542.45 16.4489 542.45 16.7756V17.5213C542.45 17.9588 542.526 18.331 542.68 18.6378C542.836 18.9446 543.053 19.179 543.332 19.3409C543.61 19.5 543.935 19.5795 544.308 19.5795C544.549 19.5795 544.769 19.5455 544.968 19.4773C545.167 19.4062 545.339 19.3011 545.484 19.1619C545.629 19.0227 545.739 18.8509 545.816 18.6463L547.022 18.8636C546.925 19.2187 546.752 19.5298 546.502 19.7969C546.255 20.0611 545.944 20.267 545.569 20.4148C545.197 20.5597 544.772 20.6321 544.295 20.6321ZM549.791 11.7727V20.5H548.517V11.7727H549.791ZM554.326 20.6321C553.681 20.6321 553.126 20.4943 552.66 20.2188C552.197 19.9403 551.839 19.5497 551.586 19.0469C551.336 18.5412 551.211 17.9489 551.211 17.2699C551.211 16.5994 551.336 16.0085 551.586 15.4972C551.839 14.9858 552.191 14.5866 552.643 14.2997C553.097 14.0128 553.629 13.8693 554.237 13.8693C554.606 13.8693 554.964 13.9304 555.31 14.0526C555.657 14.1747 555.968 14.3665 556.244 14.6278C556.519 14.8892 556.737 15.2287 556.896 15.6463C557.055 16.0611 557.134 16.5653 557.134 17.1591V17.6108H551.931V16.6562H555.886C555.886 16.321 555.817 16.0241 555.681 15.7656C555.545 15.5043 555.353 15.2983 555.106 15.1477C554.862 14.9972 554.575 14.9219 554.245 14.9219C553.887 14.9219 553.575 15.0099 553.308 15.1861C553.043 15.3594 552.839 15.5866 552.694 15.8679C552.552 16.1463 552.481 16.4489 552.481 16.7756V17.5213C552.481 17.9588 552.558 18.331 552.711 18.6378C552.867 18.9446 553.085 19.179 553.363 19.3409C553.641 19.5 553.967 19.5795 554.339 19.5795C554.58 19.5795 554.8 19.5455 554.999 19.4773C555.198 19.4062 555.37 19.3011 555.515 19.1619C555.66 19.0227 555.771 18.8509 555.847 18.6463L557.053 18.8636C556.957 19.2187 556.783 19.5298 556.533 19.7969C556.286 20.0611 555.975 20.267 555.6 20.4148C555.228 20.5597 554.803 20.6321 554.326 20.6321ZM561.305 20.6321C560.672 20.6321 560.126 20.4886 559.669 20.2017C559.214 19.9119 558.865 19.5128 558.62 19.0043C558.376 18.4957 558.254 17.9134 558.254 17.2571C558.254 16.5923 558.379 16.0057 558.629 15.4972C558.879 14.9858 559.231 14.5866 559.686 14.2997C560.14 14.0128 560.676 13.8693 561.292 13.8693C561.789 13.8693 562.233 13.9616 562.622 14.1463C563.011 14.3281 563.325 14.5838 563.564 14.9134C563.805 15.2429 563.949 15.6278 563.994 16.0682H562.754C562.686 15.7614 562.529 15.4972 562.285 15.2756C562.044 15.054 561.72 14.9432 561.314 14.9432C560.958 14.9432 560.647 15.0369 560.38 15.2244C560.116 15.4091 559.91 15.6733 559.762 16.017C559.615 16.358 559.541 16.7614 559.541 17.2273C559.541 17.7045 559.613 18.1165 559.758 18.4631C559.903 18.8097 560.108 19.0781 560.372 19.2685C560.639 19.4588 560.953 19.554 561.314 19.554C561.555 19.554 561.774 19.5099 561.97 19.4219C562.169 19.331 562.335 19.2017 562.468 19.0341C562.605 18.8665 562.7 18.6648 562.754 18.429H563.994C563.949 18.8523 563.811 19.2301 563.581 19.5625C563.35 19.8949 563.042 20.1562 562.656 20.3466C562.272 20.5369 561.822 20.6321 561.305 20.6321ZM568.412 13.9545V14.9773H564.837V13.9545H568.412ZM565.795 12.3864H567.07V18.5781C567.07 18.8253 567.107 19.0114 567.18 19.1364C567.254 19.2585 567.349 19.3423 567.466 19.3878C567.585 19.4304 567.714 19.4517 567.854 19.4517C567.956 19.4517 568.045 19.4446 568.122 19.4304C568.199 19.4162 568.259 19.4048 568.301 19.3963L568.531 20.4489C568.457 20.4773 568.352 20.5057 568.216 20.5341C568.08 20.5653 567.909 20.5824 567.705 20.5852C567.369 20.5909 567.057 20.5312 566.767 20.4062C566.477 20.2812 566.243 20.0881 566.064 19.8267C565.885 19.5653 565.795 19.2372 565.795 18.8423V12.3864ZM572.572 20.6321C571.927 20.6321 571.372 20.4943 570.906 20.2188C570.443 19.9403 570.085 19.5497 569.832 19.0469C569.582 18.5412 569.457 17.9489 569.457 17.2699C569.457 16.5994 569.582 16.0085 569.832 15.4972C570.085 14.9858 570.437 14.5866 570.889 14.2997C571.343 14.0128 571.875 13.8693 572.483 13.8693C572.852 13.8693 573.21 13.9304 573.556 14.0526C573.903 14.1747 574.214 14.3665 574.49 14.6278C574.765 14.8892 574.983 15.2287 575.142 15.6463C575.301 16.0611 575.38 16.5653 575.38 17.1591V17.6108H570.177V16.6562H574.132C574.132 16.321 574.064 16.0241 573.927 15.7656C573.791 15.5043 573.599 15.2983 573.352 15.1477C573.108 14.9972 572.821 14.9219 572.491 14.9219C572.133 14.9219 571.821 15.0099 571.554 15.1861C571.289 15.3594 571.085 15.5866 570.94 15.8679C570.798 16.1463 570.727 16.4489 570.727 16.7756V17.5213C570.727 17.9588 570.804 18.331 570.957 18.6378C571.113 18.9446 571.331 19.179 571.609 19.3409C571.887 19.5 572.213 19.5795 572.585 19.5795C572.826 19.5795 573.047 19.5455 573.245 19.4773C573.444 19.4062 573.616 19.3011 573.761 19.1619C573.906 19.0227 574.017 18.8509 574.093 18.6463L575.299 18.8636C575.203 19.2187 575.029 19.5298 574.779 19.7969C574.532 20.0611 574.221 20.267 573.846 20.4148C573.474 20.5597 573.049 20.6321 572.572 20.6321ZM579.244 20.6278C578.716 20.6278 578.244 20.4929 577.83 20.223C577.418 19.9503 577.094 19.5625 576.858 19.0597C576.625 18.554 576.509 17.9474 576.509 17.2401C576.509 16.5327 576.626 15.9276 576.862 15.4247C577.101 14.9219 577.428 14.5369 577.842 14.2699C578.257 14.0028 578.727 13.8693 579.253 13.8693C579.659 13.8693 579.986 13.9375 580.233 14.0739C580.483 14.2074 580.676 14.3636 580.812 14.5426C580.952 14.7216 581.06 14.8793 581.136 15.0156H581.213V11.7727H582.487V20.5H581.243V19.4815H581.136C581.06 19.6207 580.949 19.7798 580.804 19.9588C580.662 20.1378 580.466 20.294 580.216 20.4276C579.966 20.5611 579.642 20.6278 579.244 20.6278ZM579.526 19.5412C579.892 19.5412 580.202 19.4446 580.455 19.2514C580.71 19.0554 580.903 18.7841 581.034 18.4375C581.168 18.0909 581.234 17.6875 581.234 17.2273C581.234 16.7727 581.169 16.375 581.038 16.0341C580.908 15.6932 580.716 15.4276 580.463 15.2372C580.21 15.0469 579.898 14.9517 579.526 14.9517C579.142 14.9517 578.822 15.0511 578.567 15.25C578.311 15.4489 578.118 15.7202 577.987 16.0639C577.859 16.4077 577.795 16.7955 577.795 17.2273C577.795 17.6648 577.861 18.0582 577.991 18.4077C578.122 18.7571 578.315 19.0341 578.571 19.2386C578.83 19.4403 579.148 19.5412 579.526 19.5412Z" fill="#C7CEFC"/>
</svg>
