<svg width="202" height="33" viewBox="0 0 202 33" fill="none" xmlns="http://www.w3.org/2000/svg">
<path d="M19.3333 11.8332C19.3332 11.5986 19.395 11.3682 19.5125 11.1651C19.63 10.962 19.799 10.7936 20.0024 10.6767C20.2058 10.5598 20.4365 10.4987 20.6711 10.4995C20.9057 10.5003 21.136 10.563 21.3386 10.6812L29.3366 15.3466C29.5384 15.4637 29.706 15.6317 29.8225 15.8339C29.9391 16.0361 30.0005 16.2653 30.0007 16.4987C30.0009 16.732 29.9399 16.9614 29.8237 17.1637C29.7075 17.3661 29.5402 17.5344 29.3386 17.6519L21.3386 22.3186C21.136 22.4368 20.9057 22.4995 20.6711 22.5003C20.4365 22.5011 20.2058 22.44 20.0024 22.3231C19.799 22.2062 19.63 22.0378 19.5125 21.8347C19.395 21.6317 19.3332 21.4012 19.3333 21.1666V11.8332Z" stroke="#4A5568" stroke-width="1.33333" stroke-linecap="round" stroke-linejoin="round"/>
<path d="M48.6719 14.4929C48.6188 14.0223 48.4001 13.6577 48.0156 13.3991C47.6312 13.1373 47.1473 13.0064 46.5639 13.0064C46.1463 13.0064 45.785 13.0727 45.4801 13.2053C45.1752 13.3345 44.9382 13.5135 44.7692 13.7422C44.6035 13.9676 44.5206 14.2244 44.5206 14.5128C44.5206 14.7547 44.5769 14.9635 44.6896 15.1392C44.8056 15.3149 44.9564 15.4624 45.142 15.5817C45.331 15.6977 45.5331 15.7955 45.7486 15.875C45.964 15.9512 46.1712 16.0142 46.37 16.0639L47.3643 16.3224C47.6892 16.402 48.0223 16.5097 48.3636 16.6456C48.705 16.7815 49.0215 16.9605 49.3132 17.1825C49.6049 17.4046 49.8402 17.6797 50.0192 18.0078C50.2015 18.3359 50.2926 18.7287 50.2926 19.1861C50.2926 19.7628 50.1435 20.2749 49.8452 20.7223C49.5502 21.1697 49.121 21.5227 48.5575 21.7812C47.9974 22.0398 47.3196 22.169 46.5241 22.169C45.7618 22.169 45.1023 22.0481 44.5455 21.8061C43.9886 21.5642 43.5528 21.2211 43.2379 20.777C42.9231 20.3295 42.7491 19.7992 42.7159 19.1861H44.2571C44.2869 19.554 44.4063 19.8606 44.6151 20.1058C44.8272 20.3478 45.0973 20.5284 45.4254 20.6477C45.7569 20.7637 46.1198 20.8217 46.5142 20.8217C46.9484 20.8217 47.3345 20.7538 47.6726 20.6179C48.014 20.4787 48.2824 20.2865 48.478 20.0412C48.6735 19.7926 48.7713 19.5026 48.7713 19.1712C48.7713 18.8696 48.6851 18.6226 48.5128 18.4304C48.3438 18.2382 48.1134 18.0791 47.8217 17.9531C47.5334 17.8272 47.2069 17.7161 46.8423 17.62L45.6392 17.2919C44.8239 17.0698 44.1776 16.7434 43.7003 16.3125C43.2263 15.8816 42.9893 15.3116 42.9893 14.6023C42.9893 14.0156 43.1484 13.5036 43.4666 13.0661C43.7848 12.6286 44.2157 12.2888 44.7592 12.0469C45.3028 11.8016 45.916 11.679 46.5987 11.679C47.2881 11.679 47.8963 11.8 48.4233 12.0419C48.9536 12.2839 49.3712 12.617 49.6761 13.0412C49.9811 13.4621 50.1402 13.946 50.1534 14.4929H48.6719ZM56.8464 18.8331V14.3636H58.3379V22H56.8762V20.6776H56.7967C56.621 21.0852 56.3393 21.425 55.9515 21.6967C55.5671 21.9652 55.0881 22.0994 54.5147 22.0994C54.0242 22.0994 53.59 21.9917 53.2122 21.7763C52.8377 21.5575 52.5427 21.2344 52.3272 20.8068C52.1151 20.3793 52.0091 19.8506 52.0091 19.2209V14.3636H53.4956V19.0419C53.4956 19.5623 53.6397 19.9766 53.9281 20.2848C54.2164 20.593 54.591 20.7472 55.0517 20.7472C55.3301 20.7472 55.6068 20.6776 55.8819 20.5384C56.1603 20.3991 56.3907 20.1887 56.573 19.907C56.7586 19.6252 56.8497 19.2673 56.8464 18.8331ZM60.4545 22V11.8182H61.9411V15.6016H62.0305C62.1167 15.4425 62.241 15.2585 62.4034 15.0497C62.5658 14.8409 62.7912 14.6586 63.0795 14.5028C63.3679 14.3438 63.7491 14.2642 64.223 14.2642C64.8395 14.2642 65.3897 14.42 65.8736 14.7315C66.3575 15.0431 66.737 15.4922 67.0121 16.0788C67.2905 16.6655 67.4297 17.3714 67.4297 18.1967C67.4297 19.022 67.2921 19.7296 67.017 20.3196C66.742 20.9062 66.3641 21.3587 65.8835 21.6768C65.4029 21.9917 64.8544 22.1491 64.2379 22.1491C63.7739 22.1491 63.3944 22.0713 63.0994 21.9155C62.8078 21.7597 62.5791 21.5774 62.4134 21.3686C62.2476 21.1598 62.12 20.9742 62.0305 20.8118H61.9062V22H60.4545ZM61.9112 18.1818C61.9112 18.7187 61.9891 19.1894 62.1449 19.5938C62.3007 19.9981 62.526 20.3146 62.821 20.5433C63.116 20.7687 63.4773 20.8814 63.9048 20.8814C64.349 20.8814 64.7202 20.7637 65.0185 20.5284C65.3168 20.2898 65.5421 19.9666 65.6946 19.5589C65.8504 19.1513 65.9283 18.6922 65.9283 18.1818C65.9283 17.678 65.852 17.2256 65.6996 16.8246C65.5504 16.4235 65.325 16.107 65.0234 15.875C64.7251 15.643 64.3523 15.527 63.9048 15.527C63.474 15.527 63.1094 15.638 62.8111 15.8601C62.5161 16.0821 62.2924 16.392 62.1399 16.7898C61.9875 17.1875 61.9112 17.6515 61.9112 18.1818ZM72.6635 14.3636V15.5568H68.4924V14.3636H72.6635ZM69.611 12.5341H71.0975V19.7578C71.0975 20.0462 71.1406 20.2633 71.2267 20.4091C71.3129 20.5516 71.4239 20.6494 71.5598 20.7024C71.699 20.7521 71.8498 20.777 72.0123 20.777C72.1316 20.777 72.236 20.7687 72.3255 20.7521C72.415 20.7356 72.4846 20.7223 72.5343 20.7124L72.8027 21.9403C72.7166 21.9735 72.5939 22.0066 72.4348 22.0398C72.2757 22.0762 72.0769 22.0961 71.8382 22.0994C71.4471 22.1061 71.0826 22.0365 70.7445 21.8906C70.4064 21.7448 70.133 21.5194 69.9242 21.2145C69.7154 20.9096 69.611 20.5268 69.611 20.0661V12.5341ZM75.9585 11.8182V22H74.4719V11.8182H75.9585ZM81.2495 22.1541C80.4971 22.1541 79.8491 21.9934 79.3056 21.6719C78.7653 21.3471 78.3477 20.8913 78.0527 20.3047C77.7611 19.7147 77.6152 19.0237 77.6152 18.2315C77.6152 17.4493 77.7611 16.7599 78.0527 16.1634C78.3477 15.5668 78.7587 15.1011 79.2857 14.7663C79.816 14.4316 80.4358 14.2642 81.1451 14.2642C81.5759 14.2642 81.9935 14.3355 82.3979 14.478C82.8023 14.6205 83.1652 14.8442 83.4867 15.1491C83.8082 15.4541 84.0617 15.8501 84.2473 16.3374C84.4329 16.8213 84.5257 17.4096 84.5257 18.1023V18.6293H78.4554V17.5156H83.0691C83.0691 17.1245 82.9895 16.7782 82.8304 16.4766C82.6713 16.1716 82.4476 15.9313 82.1593 15.7557C81.8742 15.58 81.5395 15.4922 81.155 15.4922C80.7374 15.4922 80.3728 15.5949 80.0613 15.8004C79.753 16.0026 79.5144 16.2678 79.3453 16.5959C79.1796 16.9207 79.0968 17.2737 79.0968 17.6548V18.5249C79.0968 19.0353 79.1863 19.4695 79.3652 19.8274C79.5475 20.1854 79.8011 20.4588 80.1259 20.6477C80.4507 20.8333 80.8302 20.9261 81.2644 20.9261C81.5461 20.9261 81.803 20.8864 82.035 20.8068C82.267 20.724 82.4675 20.6013 82.6365 20.4389C82.8056 20.2765 82.9348 20.076 83.0243 19.8374L84.4313 20.0909C84.3186 20.5052 84.1164 20.8681 83.8248 21.1797C83.5364 21.4879 83.1735 21.7282 82.736 21.9006C82.3018 22.0696 81.8063 22.1541 81.2495 22.1541ZM89.9995 22V11.8182H91.486V15.6016H91.5755C91.6616 15.4425 91.7859 15.2585 91.9483 15.0497C92.1107 14.8409 92.3361 14.6586 92.6245 14.5028C92.9128 14.3438 93.294 14.2642 93.7679 14.2642C94.3844 14.2642 94.9346 14.42 95.4185 14.7315C95.9024 15.0431 96.2819 15.4922 96.557 16.0788C96.8354 16.6655 96.9746 17.3714 96.9746 18.1967C96.9746 19.022 96.8371 19.7296 96.562 20.3196C96.2869 20.9062 95.909 21.3587 95.4284 21.6768C94.9479 21.9917 94.3993 22.1491 93.7828 22.1491C93.3188 22.1491 92.9393 22.0713 92.6444 21.9155C92.3527 21.7597 92.124 21.5774 91.9583 21.3686C91.7926 21.1598 91.665 20.9742 91.5755 20.8118H91.4512V22H89.9995ZM91.4561 18.1818C91.4561 18.7187 91.534 19.1894 91.6898 19.5938C91.8456 19.9981 92.071 20.3146 92.3659 20.5433C92.6609 20.7687 93.0222 20.8814 93.4498 20.8814C93.8939 20.8814 94.2651 20.7637 94.5634 20.5284C94.8617 20.2898 95.0871 19.9666 95.2395 19.5589C95.3953 19.1513 95.4732 18.6922 95.4732 18.1818C95.4732 17.678 95.397 17.2256 95.2445 16.8246C95.0953 16.4235 94.87 16.107 94.5684 15.875C94.2701 15.643 93.8972 15.527 93.4498 15.527C93.0189 15.527 92.6543 15.638 92.356 15.8601C92.061 16.0821 91.8373 16.392 91.6848 16.7898C91.5324 17.1875 91.4561 17.6515 91.4561 18.1818ZM103.481 18.8331V14.3636H104.973V22H103.511V20.6776H103.431C103.256 21.0852 102.974 21.425 102.586 21.6967C102.202 21.9652 101.723 22.0994 101.15 22.0994C100.659 22.0994 100.225 21.9917 99.8469 21.7763C99.4724 21.5575 99.1774 21.2344 98.962 20.8068C98.7499 20.3793 98.6438 19.8506 98.6438 19.2209V14.3636H100.13V19.0419C100.13 19.5623 100.275 19.9766 100.563 20.2848C100.851 20.593 101.226 20.7472 101.686 20.7472C101.965 20.7472 102.242 20.6776 102.517 20.5384C102.795 20.3991 103.025 20.1887 103.208 19.907C103.393 19.6252 103.484 19.2673 103.481 18.8331ZM110.535 14.3636V15.5568H106.363V14.3636H110.535ZM107.482 12.5341H108.969V19.7578C108.969 20.0462 109.012 20.2633 109.098 20.4091C109.184 20.5516 109.295 20.6494 109.431 20.7024C109.57 20.7521 109.721 20.777 109.883 20.777C110.003 20.777 110.107 20.7687 110.197 20.7521C110.286 20.7356 110.356 20.7223 110.405 20.7124L110.674 21.9403C110.588 21.9735 110.465 22.0066 110.306 22.0398C110.147 22.0762 109.948 22.0961 109.709 22.0994C109.318 22.1061 108.954 22.0365 108.616 21.8906C108.278 21.7448 108.004 21.5194 107.795 21.2145C107.586 20.9096 107.482 20.5268 107.482 20.0661V12.5341ZM115.744 14.3636V15.5568H111.572V14.3636H115.744ZM112.691 12.5341H114.178V19.7578C114.178 20.0462 114.221 20.2633 114.307 20.4091C114.393 20.5516 114.504 20.6494 114.64 20.7024C114.779 20.7521 114.93 20.777 115.092 20.777C115.212 20.777 115.316 20.7687 115.406 20.7521C115.495 20.7356 115.565 20.7223 115.614 20.7124L115.883 21.9403C115.797 21.9735 115.674 22.0066 115.515 22.0398C115.356 22.0762 115.157 22.0961 114.918 22.0994C114.527 22.1061 114.163 22.0365 113.825 21.8906C113.487 21.7448 113.213 21.5194 113.004 21.2145C112.795 20.9096 112.691 20.5268 112.691 20.0661V12.5341ZM120.523 22.1541C119.807 22.1541 119.182 21.9901 118.648 21.6619C118.115 21.3338 117.7 20.8748 117.405 20.2848C117.11 19.6948 116.963 19.0054 116.963 18.2166C116.963 17.4245 117.11 16.7318 117.405 16.1385C117.7 15.5452 118.115 15.0845 118.648 14.7564C119.182 14.4283 119.807 14.2642 120.523 14.2642C121.238 14.2642 121.863 14.4283 122.397 14.7564C122.93 15.0845 123.345 15.5452 123.64 16.1385C123.935 16.7318 124.082 17.4245 124.082 18.2166C124.082 19.0054 123.935 19.6948 123.64 20.2848C123.345 20.8748 122.93 21.3338 122.397 21.6619C121.863 21.9901 121.238 22.1541 120.523 22.1541ZM120.528 20.9062C120.992 20.9062 121.376 20.7836 121.681 20.5384C121.986 20.2931 122.211 19.9666 122.357 19.5589C122.506 19.1513 122.581 18.7022 122.581 18.2116C122.581 17.7244 122.506 17.277 122.357 16.8693C122.211 16.4583 121.986 16.1286 121.681 15.88C121.376 15.6314 120.992 15.5071 120.528 15.5071C120.06 15.5071 119.672 15.6314 119.364 15.88C119.059 16.1286 118.832 16.4583 118.683 16.8693C118.537 17.277 118.464 17.7244 118.464 18.2116C118.464 18.7022 118.537 19.1513 118.683 19.5589C118.832 19.9666 119.059 20.2931 119.364 20.5384C119.672 20.7836 120.06 20.9062 120.528 20.9062ZM127.228 17.4659V22H125.741V14.3636H127.168V15.6065H127.263C127.438 15.2022 127.714 14.8774 128.088 14.6321C128.466 14.3868 128.942 14.2642 129.515 14.2642C130.035 14.2642 130.491 14.3736 130.882 14.5923C131.273 14.8078 131.576 15.1293 131.792 15.5568C132.007 15.9844 132.115 16.513 132.115 17.1428V22H130.629V17.3217C130.629 16.7682 130.484 16.3357 130.196 16.0241C129.908 15.7093 129.512 15.5518 129.008 15.5518C128.663 15.5518 128.357 15.6264 128.088 15.7756C127.823 15.9247 127.612 16.1435 127.457 16.4318C127.304 16.7169 127.228 17.0616 127.228 17.4659Z" fill="#4A5568"/>
<path d="M173.333 11.8332C173.333 11.5986 173.395 11.3682 173.513 11.1651C173.63 10.962 173.799 10.7936 174.002 10.6767C174.206 10.5598 174.437 10.4987 174.671 10.4995C174.906 10.5003 175.136 10.563 175.339 10.6812L183.337 15.3466C183.538 15.4637 183.706 15.6317 183.823 15.8339C183.939 16.0361 184.001 16.2653 184.001 16.4987C184.001 16.732 183.94 16.9614 183.824 17.1637C183.708 17.3661 183.54 17.5344 183.339 17.6519L175.339 22.3186C175.136 22.4368 174.906 22.4995 174.671 22.5003C174.437 22.5011 174.206 22.44 174.002 22.3231C173.799 22.2062 173.63 22.0378 173.513 21.8347C173.395 21.6317 173.333 21.4012 173.333 21.1666V11.8332Z" stroke="#4A5568" stroke-width="1.33333" stroke-linecap="round" stroke-linejoin="round"/>
</svg>
