<svg width="663" height="33" viewBox="0 0 663 33" fill="none" xmlns="http://www.w3.org/2000/svg">
<path d="M19.3333 11.8332C19.3332 11.5986 19.395 11.3682 19.5125 11.1651C19.63 10.962 19.799 10.7936 20.0024 10.6767C20.2058 10.5598 20.4365 10.4987 20.6711 10.4995C20.9057 10.5003 21.136 10.563 21.3386 10.6812L29.3366 15.3466C29.5384 15.4637 29.706 15.6317 29.8225 15.8339C29.9391 16.0361 30.0005 16.2653 30.0007 16.4987C30.0009 16.732 29.9399 16.9614 29.8237 17.1637C29.7075 17.3661 29.5402 17.5344 29.3386 17.6519L21.3386 22.3186C21.136 22.4368 20.9057 22.4995 20.6711 22.5003C20.4365 22.5011 20.2058 22.44 20.0024 22.3231C19.799 22.2062 19.63 22.0378 19.5125 21.8347C19.395 21.6317 19.3332 21.4012 19.3333 21.1666V11.8332Z" stroke="#D4D8DD" stroke-width="1.33333" stroke-linecap="round" stroke-linejoin="round"/>
<path d="M48.6719 14.4929C48.6188 14.0223 48.4001 13.6577 48.0156 13.3991C47.6312 13.1373 47.1473 13.0064 46.5639 13.0064C46.1463 13.0064 45.785 13.0727 45.4801 13.2053C45.1752 13.3345 44.9382 13.5135 44.7692 13.7422C44.6035 13.9676 44.5206 14.2244 44.5206 14.5128C44.5206 14.7547 44.5769 14.9635 44.6896 15.1392C44.8056 15.3149 44.9564 15.4624 45.142 15.5817C45.331 15.6977 45.5331 15.7955 45.7486 15.875C45.964 15.9512 46.1712 16.0142 46.37 16.0639L47.3643 16.3224C47.6892 16.402 48.0223 16.5097 48.3636 16.6456C48.705 16.7815 49.0215 16.9605 49.3132 17.1825C49.6049 17.4046 49.8402 17.6797 50.0192 18.0078C50.2015 18.3359 50.2926 18.7287 50.2926 19.1861C50.2926 19.7628 50.1435 20.2749 49.8452 20.7223C49.5502 21.1697 49.121 21.5227 48.5575 21.7812C47.9974 22.0398 47.3196 22.169 46.5241 22.169C45.7618 22.169 45.1023 22.0481 44.5455 21.8061C43.9886 21.5642 43.5528 21.2211 43.2379 20.777C42.9231 20.3295 42.7491 19.7992 42.7159 19.1861H44.2571C44.2869 19.554 44.4063 19.8606 44.6151 20.1058C44.8272 20.3478 45.0973 20.5284 45.4254 20.6477C45.7569 20.7637 46.1198 20.8217 46.5142 20.8217C46.9484 20.8217 47.3345 20.7538 47.6726 20.6179C48.014 20.4787 48.2824 20.2865 48.478 20.0412C48.6735 19.7926 48.7713 19.5026 48.7713 19.1712C48.7713 18.8696 48.6851 18.6226 48.5128 18.4304C48.3438 18.2382 48.1134 18.0791 47.8217 17.9531C47.5334 17.8272 47.2069 17.7161 46.8423 17.62L45.6392 17.2919C44.8239 17.0698 44.1776 16.7434 43.7003 16.3125C43.2263 15.8816 42.9893 15.3116 42.9893 14.6023C42.9893 14.0156 43.1484 13.5036 43.4666 13.0661C43.7848 12.6286 44.2157 12.2888 44.7592 12.0469C45.3028 11.8016 45.916 11.679 46.5987 11.679C47.2881 11.679 47.8963 11.8 48.4233 12.0419C48.9536 12.2839 49.3712 12.617 49.6761 13.0412C49.9811 13.4621 50.1402 13.946 50.1534 14.4929H48.6719ZM56.8464 18.8331V14.3636H58.3379V22H56.8762V20.6776H56.7967C56.621 21.0852 56.3393 21.425 55.9515 21.6967C55.5671 21.9652 55.0881 22.0994 54.5147 22.0994C54.0242 22.0994 53.59 21.9917 53.2122 21.7763C52.8377 21.5575 52.5427 21.2344 52.3272 20.8068C52.1151 20.3793 52.0091 19.8506 52.0091 19.2209V14.3636H53.4956V19.0419C53.4956 19.5623 53.6397 19.9766 53.9281 20.2848C54.2164 20.593 54.591 20.7472 55.0517 20.7472C55.3301 20.7472 55.6068 20.6776 55.8819 20.5384C56.1603 20.3991 56.3907 20.1887 56.573 19.907C56.7586 19.6252 56.8497 19.2673 56.8464 18.8331ZM60.4545 22V11.8182H61.9411V15.6016H62.0305C62.1167 15.4425 62.241 15.2585 62.4034 15.0497C62.5658 14.8409 62.7912 14.6586 63.0795 14.5028C63.3679 14.3438 63.7491 14.2642 64.223 14.2642C64.8395 14.2642 65.3897 14.42 65.8736 14.7315C66.3575 15.0431 66.737 15.4922 67.0121 16.0788C67.2905 16.6655 67.4297 17.3714 67.4297 18.1967C67.4297 19.022 67.2921 19.7296 67.017 20.3196C66.742 20.9062 66.3641 21.3587 65.8835 21.6768C65.4029 21.9917 64.8544 22.1491 64.2379 22.1491C63.7739 22.1491 63.3944 22.0713 63.0994 21.9155C62.8078 21.7597 62.5791 21.5774 62.4134 21.3686C62.2476 21.1598 62.12 20.9742 62.0305 20.8118H61.9062V22H60.4545ZM61.9112 18.1818C61.9112 18.7187 61.9891 19.1894 62.1449 19.5938C62.3007 19.9981 62.526 20.3146 62.821 20.5433C63.116 20.7687 63.4773 20.8814 63.9048 20.8814C64.349 20.8814 64.7202 20.7637 65.0185 20.5284C65.3168 20.2898 65.5421 19.9666 65.6946 19.5589C65.8504 19.1513 65.9283 18.6922 65.9283 18.1818C65.9283 17.678 65.852 17.2256 65.6996 16.8246C65.5504 16.4235 65.325 16.107 65.0234 15.875C64.7251 15.643 64.3523 15.527 63.9048 15.527C63.474 15.527 63.1094 15.638 62.8111 15.8601C62.5161 16.0821 62.2924 16.392 62.1399 16.7898C61.9875 17.1875 61.9112 17.6515 61.9112 18.1818ZM72.6635 14.3636V15.5568H68.4924V14.3636H72.6635ZM69.611 12.5341H71.0975V19.7578C71.0975 20.0462 71.1406 20.2633 71.2267 20.4091C71.3129 20.5516 71.4239 20.6494 71.5598 20.7024C71.699 20.7521 71.8498 20.777 72.0123 20.777C72.1316 20.777 72.236 20.7687 72.3255 20.7521C72.415 20.7356 72.4846 20.7223 72.5343 20.7124L72.8027 21.9403C72.7166 21.9735 72.5939 22.0066 72.4348 22.0398C72.2757 22.0762 72.0769 22.0961 71.8382 22.0994C71.4471 22.1061 71.0826 22.0365 70.7445 21.8906C70.4064 21.7448 70.133 21.5194 69.9242 21.2145C69.7154 20.9096 69.611 20.5268 69.611 20.0661V12.5341ZM75.9585 11.8182V22H74.4719V11.8182H75.9585ZM81.2495 22.1541C80.4971 22.1541 79.8491 21.9934 79.3056 21.6719C78.7653 21.3471 78.3477 20.8913 78.0527 20.3047C77.7611 19.7147 77.6152 19.0237 77.6152 18.2315C77.6152 17.4493 77.7611 16.7599 78.0527 16.1634C78.3477 15.5668 78.7587 15.1011 79.2857 14.7663C79.816 14.4316 80.4358 14.2642 81.1451 14.2642C81.5759 14.2642 81.9935 14.3355 82.3979 14.478C82.8023 14.6205 83.1652 14.8442 83.4867 15.1491C83.8082 15.4541 84.0617 15.8501 84.2473 16.3374C84.4329 16.8213 84.5257 17.4096 84.5257 18.1023V18.6293H78.4554V17.5156H83.0691C83.0691 17.1245 82.9895 16.7782 82.8304 16.4766C82.6713 16.1716 82.4476 15.9313 82.1593 15.7557C81.8742 15.58 81.5395 15.4922 81.155 15.4922C80.7374 15.4922 80.3728 15.5949 80.0613 15.8004C79.753 16.0026 79.5144 16.2678 79.3453 16.5959C79.1796 16.9207 79.0968 17.2737 79.0968 17.6548V18.5249C79.0968 19.0353 79.1863 19.4695 79.3652 19.8274C79.5475 20.1854 79.8011 20.4588 80.1259 20.6477C80.4507 20.8333 80.8302 20.9261 81.2644 20.9261C81.5461 20.9261 81.803 20.8864 82.035 20.8068C82.267 20.724 82.4675 20.6013 82.6365 20.4389C82.8056 20.2765 82.9348 20.076 83.0243 19.8374L84.4313 20.0909C84.3186 20.5052 84.1164 20.8681 83.8248 21.1797C83.5364 21.4879 83.1735 21.7282 82.736 21.9006C82.3018 22.0696 81.8063 22.1541 81.2495 22.1541ZM89.9995 22V11.8182H91.486V15.6016H91.5755C91.6616 15.4425 91.7859 15.2585 91.9483 15.0497C92.1107 14.8409 92.3361 14.6586 92.6245 14.5028C92.9128 14.3438 93.294 14.2642 93.7679 14.2642C94.3844 14.2642 94.9346 14.42 95.4185 14.7315C95.9024 15.0431 96.2819 15.4922 96.557 16.0788C96.8354 16.6655 96.9746 17.3714 96.9746 18.1967C96.9746 19.022 96.8371 19.7296 96.562 20.3196C96.2869 20.9062 95.909 21.3587 95.4284 21.6768C94.9479 21.9917 94.3993 22.1491 93.7828 22.1491C93.3188 22.1491 92.9393 22.0713 92.6444 21.9155C92.3527 21.7597 92.124 21.5774 91.9583 21.3686C91.7926 21.1598 91.665 20.9742 91.5755 20.8118H91.4512V22H89.9995ZM91.4561 18.1818C91.4561 18.7187 91.534 19.1894 91.6898 19.5938C91.8456 19.9981 92.071 20.3146 92.3659 20.5433C92.6609 20.7687 93.0222 20.8814 93.4498 20.8814C93.8939 20.8814 94.2651 20.7637 94.5634 20.5284C94.8617 20.2898 95.0871 19.9666 95.2395 19.5589C95.3953 19.1513 95.4732 18.6922 95.4732 18.1818C95.4732 17.678 95.397 17.2256 95.2445 16.8246C95.0953 16.4235 94.87 16.107 94.5684 15.875C94.2701 15.643 93.8972 15.527 93.4498 15.527C93.0189 15.527 92.6543 15.638 92.356 15.8601C92.061 16.0821 91.8373 16.392 91.6848 16.7898C91.5324 17.1875 91.4561 17.6515 91.4561 18.1818ZM103.481 18.8331V14.3636H104.973V22H103.511V20.6776H103.431C103.256 21.0852 102.974 21.425 102.586 21.6967C102.202 21.9652 101.723 22.0994 101.15 22.0994C100.659 22.0994 100.225 21.9917 99.8469 21.7763C99.4724 21.5575 99.1774 21.2344 98.962 20.8068C98.7499 20.3793 98.6438 19.8506 98.6438 19.2209V14.3636H100.13V19.0419C100.13 19.5623 100.275 19.9766 100.563 20.2848C100.851 20.593 101.226 20.7472 101.686 20.7472C101.965 20.7472 102.242 20.6776 102.517 20.5384C102.795 20.3991 103.025 20.1887 103.208 19.907C103.393 19.6252 103.484 19.2673 103.481 18.8331ZM110.535 14.3636V15.5568H106.363V14.3636H110.535ZM107.482 12.5341H108.969V19.7578C108.969 20.0462 109.012 20.2633 109.098 20.4091C109.184 20.5516 109.295 20.6494 109.431 20.7024C109.57 20.7521 109.721 20.777 109.883 20.777C110.003 20.777 110.107 20.7687 110.197 20.7521C110.286 20.7356 110.356 20.7223 110.405 20.7124L110.674 21.9403C110.588 21.9735 110.465 22.0066 110.306 22.0398C110.147 22.0762 109.948 22.0961 109.709 22.0994C109.318 22.1061 108.954 22.0365 108.616 21.8906C108.278 21.7448 108.004 21.5194 107.795 21.2145C107.586 20.9096 107.482 20.5268 107.482 20.0661V12.5341ZM115.744 14.3636V15.5568H111.572V14.3636H115.744ZM112.691 12.5341H114.178V19.7578C114.178 20.0462 114.221 20.2633 114.307 20.4091C114.393 20.5516 114.504 20.6494 114.64 20.7024C114.779 20.7521 114.93 20.777 115.092 20.777C115.212 20.777 115.316 20.7687 115.406 20.7521C115.495 20.7356 115.565 20.7223 115.614 20.7124L115.883 21.9403C115.797 21.9735 115.674 22.0066 115.515 22.0398C115.356 22.0762 115.157 22.0961 114.918 22.0994C114.527 22.1061 114.163 22.0365 113.825 21.8906C113.487 21.7448 113.213 21.5194 113.004 21.2145C112.795 20.9096 112.691 20.5268 112.691 20.0661V12.5341ZM120.523 22.1541C119.807 22.1541 119.182 21.9901 118.648 21.6619C118.115 21.3338 117.7 20.8748 117.405 20.2848C117.11 19.6948 116.963 19.0054 116.963 18.2166C116.963 17.4245 117.11 16.7318 117.405 16.1385C117.7 15.5452 118.115 15.0845 118.648 14.7564C119.182 14.4283 119.807 14.2642 120.523 14.2642C121.238 14.2642 121.863 14.4283 122.397 14.7564C122.93 15.0845 123.345 15.5452 123.64 16.1385C123.935 16.7318 124.082 17.4245 124.082 18.2166C124.082 19.0054 123.935 19.6948 123.64 20.2848C123.345 20.8748 122.93 21.3338 122.397 21.6619C121.863 21.9901 121.238 22.1541 120.523 22.1541ZM120.528 20.9062C120.992 20.9062 121.376 20.7836 121.681 20.5384C121.986 20.2931 122.211 19.9666 122.357 19.5589C122.506 19.1513 122.581 18.7022 122.581 18.2116C122.581 17.7244 122.506 17.277 122.357 16.8693C122.211 16.4583 121.986 16.1286 121.681 15.88C121.376 15.6314 120.992 15.5071 120.528 15.5071C120.06 15.5071 119.672 15.6314 119.364 15.88C119.059 16.1286 118.832 16.4583 118.683 16.8693C118.537 17.277 118.464 17.7244 118.464 18.2116C118.464 18.7022 118.537 19.1513 118.683 19.5589C118.832 19.9666 119.059 20.2931 119.364 20.5384C119.672 20.7836 120.06 20.9062 120.528 20.9062ZM127.228 17.4659V22H125.741V14.3636H127.168V15.6065H127.263C127.438 15.2022 127.714 14.8774 128.088 14.6321C128.466 14.3868 128.942 14.2642 129.515 14.2642C130.035 14.2642 130.491 14.3736 130.882 14.5923C131.273 14.8078 131.576 15.1293 131.792 15.5568C132.007 15.9844 132.115 16.513 132.115 17.1428V22H130.629V17.3217C130.629 16.7682 130.484 16.3357 130.196 16.0241C129.908 15.7093 129.512 15.5518 129.008 15.5518C128.663 15.5518 128.357 15.6264 128.088 15.7756C127.823 15.9247 127.612 16.1435 127.457 16.4318C127.304 16.7169 127.228 17.0616 127.228 17.4659Z" fill="#D4D8DD"/>
<path d="M176.672 14.4929C176.619 14.0223 176.4 13.6577 176.016 13.3991C175.631 13.1373 175.147 13.0064 174.564 13.0064C174.146 13.0064 173.785 13.0727 173.48 13.2053C173.175 13.3345 172.938 13.5135 172.769 13.7422C172.603 13.9676 172.521 14.2244 172.521 14.5128C172.521 14.7547 172.577 14.9635 172.69 15.1392C172.806 15.3149 172.956 15.4624 173.142 15.5817C173.331 15.6977 173.533 15.7955 173.749 15.875C173.964 15.9512 174.171 16.0142 174.37 16.0639L175.364 16.3224C175.689 16.402 176.022 16.5097 176.364 16.6456C176.705 16.7815 177.022 16.9605 177.313 17.1825C177.605 17.4046 177.84 17.6797 178.019 18.0078C178.201 18.3359 178.293 18.7287 178.293 19.1861C178.293 19.7628 178.143 20.2749 177.845 20.7223C177.55 21.1697 177.121 21.5227 176.558 21.7812C175.997 22.0398 175.32 22.169 174.524 22.169C173.762 22.169 173.102 22.0481 172.545 21.8061C171.989 21.5642 171.553 21.2211 171.238 20.777C170.923 20.3295 170.749 19.7992 170.716 19.1861H172.257C172.287 19.554 172.406 19.8606 172.615 20.1058C172.827 20.3478 173.097 20.5284 173.425 20.6477C173.757 20.7637 174.12 20.8217 174.514 20.8217C174.948 20.8217 175.335 20.7538 175.673 20.6179C176.014 20.4787 176.282 20.2865 176.478 20.0412C176.674 19.7926 176.771 19.5026 176.771 19.1712C176.771 18.8696 176.685 18.6226 176.513 18.4304C176.344 18.2382 176.113 18.0791 175.822 17.9531C175.533 17.8272 175.207 17.7161 174.842 17.62L173.639 17.2919C172.824 17.0698 172.178 16.7434 171.7 16.3125C171.226 15.8816 170.989 15.3116 170.989 14.6023C170.989 14.0156 171.148 13.5036 171.467 13.0661C171.785 12.6286 172.216 12.2888 172.759 12.0469C173.303 11.8016 173.916 11.679 174.599 11.679C175.288 11.679 175.896 11.8 176.423 12.0419C176.954 12.2839 177.371 12.617 177.676 13.0412C177.981 13.4621 178.14 13.946 178.153 14.4929H176.672ZM184.846 18.8331V14.3636H186.338V22H184.876V20.6776H184.797C184.621 21.0852 184.339 21.425 183.952 21.6967C183.567 21.9652 183.088 22.0994 182.515 22.0994C182.024 22.0994 181.59 21.9917 181.212 21.7763C180.838 21.5575 180.543 21.2344 180.327 20.8068C180.115 20.3793 180.009 19.8506 180.009 19.2209V14.3636H181.496V19.0419C181.496 19.5623 181.64 19.9766 181.928 20.2848C182.216 20.593 182.591 20.7472 183.052 20.7472C183.33 20.7472 183.607 20.6776 183.882 20.5384C184.16 20.3991 184.391 20.1887 184.573 19.907C184.759 19.6252 184.85 19.2673 184.846 18.8331ZM188.455 22V11.8182H189.941V15.6016H190.031C190.117 15.4425 190.241 15.2585 190.403 15.0497C190.566 14.8409 190.791 14.6586 191.08 14.5028C191.368 14.3438 191.749 14.2642 192.223 14.2642C192.839 14.2642 193.39 14.42 193.874 14.7315C194.357 15.0431 194.737 15.4922 195.012 16.0788C195.29 16.6655 195.43 17.3714 195.43 18.1967C195.43 19.022 195.292 19.7296 195.017 20.3196C194.742 20.9062 194.364 21.3587 193.884 21.6768C193.403 21.9917 192.854 22.1491 192.238 22.1491C191.774 22.1491 191.394 22.0713 191.099 21.9155C190.808 21.7597 190.579 21.5774 190.413 21.3686C190.248 21.1598 190.12 20.9742 190.031 20.8118H189.906V22H188.455ZM189.911 18.1818C189.911 18.7187 189.989 19.1894 190.145 19.5938C190.301 19.9981 190.526 20.3146 190.821 20.5433C191.116 20.7687 191.477 20.8814 191.905 20.8814C192.349 20.8814 192.72 20.7637 193.018 20.5284C193.317 20.2898 193.542 19.9666 193.695 19.5589C193.85 19.1513 193.928 18.6922 193.928 18.1818C193.928 17.678 193.852 17.2256 193.7 16.8246C193.55 16.4235 193.325 16.107 193.023 15.875C192.725 15.643 192.352 15.527 191.905 15.527C191.474 15.527 191.109 15.638 190.811 15.8601C190.516 16.0821 190.292 16.392 190.14 16.7898C189.987 17.1875 189.911 17.6515 189.911 18.1818ZM200.664 14.3636V15.5568H196.492V14.3636H200.664ZM197.611 12.5341H199.097V19.7578C199.097 20.0462 199.141 20.2633 199.227 20.4091C199.313 20.5516 199.424 20.6494 199.56 20.7024C199.699 20.7521 199.85 20.777 200.012 20.777C200.132 20.777 200.236 20.7687 200.325 20.7521C200.415 20.7356 200.485 20.7223 200.534 20.7124L200.803 21.9403C200.717 21.9735 200.594 22.0066 200.435 22.0398C200.276 22.0762 200.077 22.0961 199.838 22.0994C199.447 22.1061 199.083 22.0365 198.744 21.8906C198.406 21.7448 198.133 21.5194 197.924 21.2145C197.715 20.9096 197.611 20.5268 197.611 20.0661V12.5341ZM203.958 11.8182V22H202.472V11.8182H203.958ZM209.249 22.1541C208.497 22.1541 207.849 21.9934 207.306 21.6719C206.765 21.3471 206.348 20.8913 206.053 20.3047C205.761 19.7147 205.615 19.0237 205.615 18.2315C205.615 17.4493 205.761 16.7599 206.053 16.1634C206.348 15.5668 206.759 15.1011 207.286 14.7663C207.816 14.4316 208.436 14.2642 209.145 14.2642C209.576 14.2642 209.994 14.3355 210.398 14.478C210.802 14.6205 211.165 14.8442 211.487 15.1491C211.808 15.4541 212.062 15.8501 212.247 16.3374C212.433 16.8213 212.526 17.4096 212.526 18.1023V18.6293H206.455V17.5156H211.069C211.069 17.1245 210.99 16.7782 210.83 16.4766C210.671 16.1716 210.448 15.9313 210.159 15.7557C209.874 15.58 209.539 15.4922 209.155 15.4922C208.737 15.4922 208.373 15.5949 208.061 15.8004C207.753 16.0026 207.514 16.2678 207.345 16.5959C207.18 16.9207 207.097 17.2737 207.097 17.6548V18.5249C207.097 19.0353 207.186 19.4695 207.365 19.8274C207.548 20.1854 207.801 20.4588 208.126 20.6477C208.451 20.8333 208.83 20.9261 209.264 20.9261C209.546 20.9261 209.803 20.8864 210.035 20.8068C210.267 20.724 210.468 20.6013 210.637 20.4389C210.806 20.2765 210.935 20.076 211.024 19.8374L212.431 20.0909C212.319 20.5052 212.116 20.8681 211.825 21.1797C211.536 21.4879 211.173 21.7282 210.736 21.9006C210.302 22.0696 209.806 22.1541 209.249 22.1541ZM217.999 22V11.8182H219.486V15.6016H219.575C219.662 15.4425 219.786 15.2585 219.948 15.0497C220.111 14.8409 220.336 14.6586 220.624 14.5028C220.913 14.3438 221.294 14.2642 221.768 14.2642C222.384 14.2642 222.935 14.42 223.419 14.7315C223.902 15.0431 224.282 15.4922 224.557 16.0788C224.835 16.6655 224.975 17.3714 224.975 18.1967C224.975 19.022 224.837 19.7296 224.562 20.3196C224.287 20.9062 223.909 21.3587 223.428 21.6768C222.948 21.9917 222.399 22.1491 221.783 22.1491C221.319 22.1491 220.939 22.0713 220.644 21.9155C220.353 21.7597 220.124 21.5774 219.958 21.3686C219.793 21.1598 219.665 20.9742 219.575 20.8118H219.451V22H217.999ZM219.456 18.1818C219.456 18.7187 219.534 19.1894 219.69 19.5938C219.846 19.9981 220.071 20.3146 220.366 20.5433C220.661 20.7687 221.022 20.8814 221.45 20.8814C221.894 20.8814 222.265 20.7637 222.563 20.5284C222.862 20.2898 223.087 19.9666 223.24 19.5589C223.395 19.1513 223.473 18.6922 223.473 18.1818C223.473 17.678 223.397 17.2256 223.244 16.8246C223.095 16.4235 222.87 16.107 222.568 15.875C222.27 15.643 221.897 15.527 221.45 15.527C221.019 15.527 220.654 15.638 220.356 15.8601C220.061 16.0821 219.837 16.392 219.685 16.7898C219.532 17.1875 219.456 17.6515 219.456 18.1818ZM231.481 18.8331V14.3636H232.973V22H231.511V20.6776H231.431C231.256 21.0852 230.974 21.425 230.586 21.6967C230.202 21.9652 229.723 22.0994 229.15 22.0994C228.659 22.0994 228.225 21.9917 227.847 21.7763C227.472 21.5575 227.177 21.2344 226.962 20.8068C226.75 20.3793 226.644 19.8506 226.644 19.2209V14.3636H228.13V19.0419C228.13 19.5623 228.275 19.9766 228.563 20.2848C228.851 20.593 229.226 20.7472 229.686 20.7472C229.965 20.7472 230.242 20.6776 230.517 20.5384C230.795 20.3991 231.025 20.1887 231.208 19.907C231.393 19.6252 231.484 19.2673 231.481 18.8331ZM238.535 14.3636V15.5568H234.363V14.3636H238.535ZM235.482 12.5341H236.969V19.7578C236.969 20.0462 237.012 20.2633 237.098 20.4091C237.184 20.5516 237.295 20.6494 237.431 20.7024C237.57 20.7521 237.721 20.777 237.883 20.777C238.003 20.777 238.107 20.7687 238.197 20.7521C238.286 20.7356 238.356 20.7223 238.405 20.7124L238.674 21.9403C238.588 21.9735 238.465 22.0066 238.306 22.0398C238.147 22.0762 237.948 22.0961 237.709 22.0994C237.318 22.1061 236.954 22.0365 236.616 21.8906C236.278 21.7448 236.004 21.5194 235.795 21.2145C235.586 20.9096 235.482 20.5268 235.482 20.0661V12.5341ZM243.744 14.3636V15.5568H239.572V14.3636H243.744ZM240.691 12.5341H242.178V19.7578C242.178 20.0462 242.221 20.2633 242.307 20.4091C242.393 20.5516 242.504 20.6494 242.64 20.7024C242.779 20.7521 242.93 20.777 243.092 20.777C243.212 20.777 243.316 20.7687 243.406 20.7521C243.495 20.7356 243.565 20.7223 243.614 20.7124L243.883 21.9403C243.797 21.9735 243.674 22.0066 243.515 22.0398C243.356 22.0762 243.157 22.0961 242.918 22.0994C242.527 22.1061 242.163 22.0365 241.825 21.8906C241.487 21.7448 241.213 21.5194 241.004 21.2145C240.795 20.9096 240.691 20.5268 240.691 20.0661V12.5341ZM248.523 22.1541C247.807 22.1541 247.182 21.9901 246.648 21.6619C246.115 21.3338 245.7 20.8748 245.405 20.2848C245.11 19.6948 244.963 19.0054 244.963 18.2166C244.963 17.4245 245.11 16.7318 245.405 16.1385C245.7 15.5452 246.115 15.0845 246.648 14.7564C247.182 14.4283 247.807 14.2642 248.523 14.2642C249.238 14.2642 249.863 14.4283 250.397 14.7564C250.93 15.0845 251.345 15.5452 251.64 16.1385C251.935 16.7318 252.082 17.4245 252.082 18.2166C252.082 19.0054 251.935 19.6948 251.64 20.2848C251.345 20.8748 250.93 21.3338 250.397 21.6619C249.863 21.9901 249.238 22.1541 248.523 22.1541ZM248.528 20.9062C248.992 20.9062 249.376 20.7836 249.681 20.5384C249.986 20.2931 250.211 19.9666 250.357 19.5589C250.506 19.1513 250.581 18.7022 250.581 18.2116C250.581 17.7244 250.506 17.277 250.357 16.8693C250.211 16.4583 249.986 16.1286 249.681 15.88C249.376 15.6314 248.992 15.5071 248.528 15.5071C248.06 15.5071 247.672 15.6314 247.364 15.88C247.059 16.1286 246.832 16.4583 246.683 16.8693C246.537 17.277 246.464 17.7244 246.464 18.2116C246.464 18.7022 246.537 19.1513 246.683 19.5589C246.832 19.9666 247.059 20.2931 247.364 20.5384C247.672 20.7836 248.06 20.9062 248.528 20.9062ZM255.228 17.4659V22H253.741V14.3636H255.168V15.6065H255.263C255.438 15.2022 255.714 14.8774 256.088 14.6321C256.466 14.3868 256.942 14.2642 257.515 14.2642C258.035 14.2642 258.491 14.3736 258.882 14.5923C259.273 14.8078 259.576 15.1293 259.792 15.5568C260.007 15.9844 260.115 16.513 260.115 17.1428V22H258.629V17.3217C258.629 16.7682 258.484 16.3357 258.196 16.0241C257.908 15.7093 257.512 15.5518 257.008 15.5518C256.663 15.5518 256.357 15.6264 256.088 15.7756C255.823 15.9247 255.612 16.1435 255.457 16.4318C255.304 16.7169 255.228 17.0616 255.228 17.4659Z" fill="#D4D8DD"/>
<path d="M301.333 11.8332C301.333 11.5986 301.395 11.3682 301.513 11.1651C301.63 10.962 301.799 10.7936 302.003 10.6767C302.206 10.5598 302.437 10.4987 302.671 10.4995C302.906 10.5003 303.136 10.563 303.339 10.6812L311.337 15.3466C311.539 15.4637 311.706 15.6317 311.823 15.8339C311.939 16.0361 312.001 16.2653 312.001 16.4987C312.001 16.732 311.94 16.9614 311.824 17.1637C311.708 17.3661 311.54 17.5344 311.339 17.6519L303.339 22.3186C303.136 22.4368 302.906 22.4995 302.671 22.5003C302.437 22.5011 302.206 22.44 302.003 22.3231C301.799 22.2062 301.63 22.0378 301.513 21.8347C301.395 21.6317 301.333 21.4012 301.333 21.1666V11.8332Z" stroke="#D4D8DD" stroke-width="1.33333" stroke-linecap="round" stroke-linejoin="round"/>
<path d="M353.333 11.8332C353.333 11.5986 353.395 11.3682 353.513 11.1651C353.63 10.962 353.799 10.7936 354.003 10.6767C354.206 10.5598 354.437 10.4987 354.671 10.4995C354.906 10.5003 355.136 10.563 355.339 10.6812L363.337 15.3466C363.539 15.4637 363.706 15.6317 363.823 15.8339C363.939 16.0361 364.001 16.2653 364.001 16.4987C364.001 16.732 363.94 16.9614 363.824 17.1637C363.708 17.3661 363.54 17.5344 363.339 17.6519L355.339 22.3186C355.136 22.4368 354.906 22.4995 354.671 22.5003C354.437 22.5011 354.206 22.44 354.003 22.3231C353.799 22.2062 353.63 22.0378 353.513 21.8347C353.395 21.6317 353.333 21.4012 353.333 21.1666V11.8332Z" stroke="#727C88" stroke-width="1.33333" stroke-linecap="round" stroke-linejoin="round"/>
<path d="M382.672 14.4929C382.619 14.0223 382.4 13.6577 382.016 13.3991C381.631 13.1373 381.147 13.0064 380.564 13.0064C380.146 13.0064 379.785 13.0727 379.48 13.2053C379.175 13.3345 378.938 13.5135 378.769 13.7422C378.603 13.9676 378.521 14.2244 378.521 14.5128C378.521 14.7547 378.577 14.9635 378.69 15.1392C378.806 15.3149 378.956 15.4624 379.142 15.5817C379.331 15.6977 379.533 15.7955 379.749 15.875C379.964 15.9512 380.171 16.0142 380.37 16.0639L381.364 16.3224C381.689 16.402 382.022 16.5097 382.364 16.6456C382.705 16.7815 383.022 16.9605 383.313 17.1825C383.605 17.4046 383.84 17.6797 384.019 18.0078C384.201 18.3359 384.293 18.7287 384.293 19.1861C384.293 19.7628 384.143 20.2749 383.845 20.7223C383.55 21.1697 383.121 21.5227 382.558 21.7812C381.997 22.0398 381.32 22.169 380.524 22.169C379.762 22.169 379.102 22.0481 378.545 21.8061C377.989 21.5642 377.553 21.2211 377.238 20.777C376.923 20.3295 376.749 19.7992 376.716 19.1861H378.257C378.287 19.554 378.406 19.8606 378.615 20.1058C378.827 20.3478 379.097 20.5284 379.425 20.6477C379.757 20.7637 380.12 20.8217 380.514 20.8217C380.948 20.8217 381.335 20.7538 381.673 20.6179C382.014 20.4787 382.282 20.2865 382.478 20.0412C382.674 19.7926 382.771 19.5026 382.771 19.1712C382.771 18.8696 382.685 18.6226 382.513 18.4304C382.344 18.2382 382.113 18.0791 381.822 17.9531C381.533 17.8272 381.207 17.7161 380.842 17.62L379.639 17.2919C378.824 17.0698 378.178 16.7434 377.7 16.3125C377.226 15.8816 376.989 15.3116 376.989 14.6023C376.989 14.0156 377.148 13.5036 377.467 13.0661C377.785 12.6286 378.216 12.2888 378.759 12.0469C379.303 11.8016 379.916 11.679 380.599 11.679C381.288 11.679 381.896 11.8 382.423 12.0419C382.954 12.2839 383.371 12.617 383.676 13.0412C383.981 13.4621 384.14 13.946 384.153 14.4929H382.672ZM390.846 18.8331V14.3636H392.338V22H390.876V20.6776H390.797C390.621 21.0852 390.339 21.425 389.952 21.6967C389.567 21.9652 389.088 22.0994 388.515 22.0994C388.024 22.0994 387.59 21.9917 387.212 21.7763C386.838 21.5575 386.543 21.2344 386.327 20.8068C386.115 20.3793 386.009 19.8506 386.009 19.2209V14.3636H387.496V19.0419C387.496 19.5623 387.64 19.9766 387.928 20.2848C388.216 20.593 388.591 20.7472 389.052 20.7472C389.33 20.7472 389.607 20.6776 389.882 20.5384C390.16 20.3991 390.391 20.1887 390.573 19.907C390.759 19.6252 390.85 19.2673 390.846 18.8331ZM394.455 22V11.8182H395.941V15.6016H396.031C396.117 15.4425 396.241 15.2585 396.403 15.0497C396.566 14.8409 396.791 14.6586 397.08 14.5028C397.368 14.3438 397.749 14.2642 398.223 14.2642C398.839 14.2642 399.39 14.42 399.874 14.7315C400.357 15.0431 400.737 15.4922 401.012 16.0788C401.29 16.6655 401.43 17.3714 401.43 18.1967C401.43 19.022 401.292 19.7296 401.017 20.3196C400.742 20.9062 400.364 21.3587 399.884 21.6768C399.403 21.9917 398.854 22.1491 398.238 22.1491C397.774 22.1491 397.394 22.0713 397.099 21.9155C396.808 21.7597 396.579 21.5774 396.413 21.3686C396.248 21.1598 396.12 20.9742 396.031 20.8118H395.906V22H394.455ZM395.911 18.1818C395.911 18.7187 395.989 19.1894 396.145 19.5938C396.301 19.9981 396.526 20.3146 396.821 20.5433C397.116 20.7687 397.477 20.8814 397.905 20.8814C398.349 20.8814 398.72 20.7637 399.018 20.5284C399.317 20.2898 399.542 19.9666 399.695 19.5589C399.85 19.1513 399.928 18.6922 399.928 18.1818C399.928 17.678 399.852 17.2256 399.7 16.8246C399.55 16.4235 399.325 16.107 399.023 15.875C398.725 15.643 398.352 15.527 397.905 15.527C397.474 15.527 397.109 15.638 396.811 15.8601C396.516 16.0821 396.292 16.392 396.14 16.7898C395.987 17.1875 395.911 17.6515 395.911 18.1818ZM406.664 14.3636V15.5568H402.492V14.3636H406.664ZM403.611 12.5341H405.097V19.7578C405.097 20.0462 405.141 20.2633 405.227 20.4091C405.313 20.5516 405.424 20.6494 405.56 20.7024C405.699 20.7521 405.85 20.777 406.012 20.777C406.132 20.777 406.236 20.7687 406.325 20.7521C406.415 20.7356 406.485 20.7223 406.534 20.7124L406.803 21.9403C406.717 21.9735 406.594 22.0066 406.435 22.0398C406.276 22.0762 406.077 22.0961 405.838 22.0994C405.447 22.1061 405.083 22.0365 404.744 21.8906C404.406 21.7448 404.133 21.5194 403.924 21.2145C403.715 20.9096 403.611 20.5268 403.611 20.0661V12.5341ZM409.958 11.8182V22H408.472V11.8182H409.958ZM415.249 22.1541C414.497 22.1541 413.849 21.9934 413.306 21.6719C412.765 21.3471 412.348 20.8913 412.053 20.3047C411.761 19.7147 411.615 19.0237 411.615 18.2315C411.615 17.4493 411.761 16.7599 412.053 16.1634C412.348 15.5668 412.759 15.1011 413.286 14.7663C413.816 14.4316 414.436 14.2642 415.145 14.2642C415.576 14.2642 415.994 14.3355 416.398 14.478C416.802 14.6205 417.165 14.8442 417.487 15.1491C417.808 15.4541 418.062 15.8501 418.247 16.3374C418.433 16.8213 418.526 17.4096 418.526 18.1023V18.6293H412.455V17.5156H417.069C417.069 17.1245 416.99 16.7782 416.83 16.4766C416.671 16.1716 416.448 15.9313 416.159 15.7557C415.874 15.58 415.539 15.4922 415.155 15.4922C414.737 15.4922 414.373 15.5949 414.061 15.8004C413.753 16.0026 413.514 16.2678 413.345 16.5959C413.18 16.9207 413.097 17.2737 413.097 17.6548V18.5249C413.097 19.0353 413.186 19.4695 413.365 19.8274C413.548 20.1854 413.801 20.4588 414.126 20.6477C414.451 20.8333 414.83 20.9261 415.264 20.9261C415.546 20.9261 415.803 20.8864 416.035 20.8068C416.267 20.724 416.468 20.6013 416.637 20.4389C416.806 20.2765 416.935 20.076 417.024 19.8374L418.431 20.0909C418.319 20.5052 418.116 20.8681 417.825 21.1797C417.536 21.4879 417.173 21.7282 416.736 21.9006C416.302 22.0696 415.806 22.1541 415.249 22.1541ZM426.739 22.1491C426.122 22.1491 425.572 21.9917 425.088 21.6768C424.608 21.3587 424.23 20.9062 423.955 20.3196C423.683 19.7296 423.547 19.022 423.547 18.1967C423.547 17.3714 423.685 16.6655 423.96 16.0788C424.238 15.4922 424.619 15.0431 425.103 14.7315C425.587 14.42 426.136 14.2642 426.749 14.2642C427.223 14.2642 427.604 14.3438 427.892 14.5028C428.184 14.6586 428.409 14.8409 428.568 15.0497C428.731 15.2585 428.857 15.4425 428.946 15.6016H429.036V11.8182H430.522V22H429.07V20.8118H428.946C428.857 20.9742 428.727 21.1598 428.558 21.3686C428.393 21.5774 428.164 21.7597 427.872 21.9155C427.581 22.0713 427.203 22.1491 426.739 22.1491ZM427.067 20.8814C427.494 20.8814 427.856 20.7687 428.151 20.5433C428.449 20.3146 428.674 19.9981 428.827 19.5938C428.983 19.1894 429.061 18.7187 429.061 18.1818C429.061 17.6515 428.984 17.1875 428.832 16.7898C428.679 16.392 428.456 16.0821 428.161 15.8601C427.866 15.638 427.501 15.527 427.067 15.527C426.619 15.527 426.247 15.643 425.948 15.875C425.65 16.107 425.425 16.4235 425.272 16.8246C425.123 17.2256 425.048 17.678 425.048 18.1818C425.048 18.6922 425.125 19.1513 425.277 19.5589C425.43 19.9666 425.655 20.2898 425.953 20.5284C426.255 20.7637 426.626 20.8814 427.067 20.8814ZM432.644 22V14.3636H434.13V22H432.644ZM433.395 13.1854C433.136 13.1854 432.914 13.0992 432.728 12.9268C432.546 12.7512 432.455 12.5424 432.455 12.3004C432.455 12.0552 432.546 11.8464 432.728 11.674C432.914 11.4983 433.136 11.4105 433.395 11.4105C433.653 11.4105 433.873 11.4983 434.056 11.674C434.241 11.8464 434.334 12.0552 434.334 12.3004C434.334 12.5424 434.241 12.7512 434.056 12.9268C433.873 13.0992 433.653 13.1854 433.395 13.1854ZM441.852 16.228L440.505 16.4666C440.449 16.2943 440.359 16.1302 440.237 15.9744C440.117 15.8187 439.955 15.6911 439.749 15.5916C439.544 15.4922 439.287 15.4425 438.979 15.4425C438.558 15.4425 438.207 15.5369 437.925 15.7259C437.643 15.9115 437.502 16.1518 437.502 16.4467C437.502 16.7019 437.597 16.9074 437.786 17.0632C437.975 17.219 438.28 17.3466 438.7 17.446L439.914 17.7244C440.616 17.8868 441.14 18.1371 441.485 18.4751C441.829 18.8132 442.002 19.2524 442.002 19.7926C442.002 20.25 441.869 20.6577 441.604 21.0156C441.342 21.3703 440.976 21.6487 440.505 21.8509C440.038 22.053 439.496 22.1541 438.879 22.1541C438.024 22.1541 437.327 21.9718 436.786 21.6072C436.246 21.2393 435.915 20.7173 435.792 20.0412L437.229 19.8224C437.318 20.197 437.502 20.4804 437.781 20.6726C438.059 20.8615 438.422 20.956 438.869 20.956C439.357 20.956 439.746 20.8549 440.038 20.6527C440.329 20.4472 440.475 20.197 440.475 19.902C440.475 19.6634 440.386 19.4628 440.207 19.3004C440.031 19.138 439.761 19.0154 439.396 18.9325L438.104 18.6491C437.391 18.4867 436.864 18.2282 436.523 17.8736C436.185 17.5189 436.016 17.0698 436.016 16.5263C436.016 16.0755 436.142 15.6811 436.394 15.343C436.646 15.005 436.994 14.7415 437.438 14.5526C437.882 14.3603 438.391 14.2642 438.964 14.2642C439.789 14.2642 440.439 14.4432 440.913 14.8011C441.387 15.1558 441.7 15.6314 441.852 16.228ZM445.858 22.169C445.374 22.169 444.937 22.0795 444.546 21.9006C444.155 21.7183 443.845 21.4548 443.616 21.1101C443.391 20.7654 443.278 20.3428 443.278 19.8423C443.278 19.4115 443.361 19.0568 443.527 18.7784C443.692 18.5 443.916 18.2796 444.198 18.1172C444.48 17.9548 444.794 17.8321 445.142 17.7493C445.49 17.6664 445.845 17.6035 446.206 17.5604C446.664 17.5073 447.035 17.4643 447.32 17.4311C447.605 17.3946 447.812 17.3366 447.941 17.2571C448.071 17.1776 448.135 17.0483 448.135 16.8693V16.8345C448.135 16.4003 448.013 16.0639 447.767 15.8253C447.525 15.5866 447.164 15.4673 446.684 15.4673C446.183 15.4673 445.789 15.5784 445.5 15.8004C445.215 16.0192 445.018 16.2628 444.909 16.5312L443.512 16.2131C443.677 15.7491 443.919 15.3745 444.238 15.0895C444.559 14.8011 444.929 14.5923 445.346 14.4631C445.764 14.3305 446.203 14.2642 446.664 14.2642C446.969 14.2642 447.292 14.3007 447.633 14.3736C447.978 14.4432 448.299 14.5724 448.598 14.7614C448.899 14.9503 449.146 15.2204 449.338 15.5717C449.531 15.9197 449.627 16.3722 449.627 16.929V22H448.175V20.956H448.115C448.019 21.1482 447.875 21.3371 447.683 21.5227C447.491 21.7083 447.244 21.8625 446.942 21.9851C446.641 22.1077 446.279 22.169 445.858 22.169ZM446.181 20.9759C446.592 20.9759 446.944 20.8946 447.235 20.7322C447.53 20.5698 447.754 20.3577 447.907 20.0959C448.062 19.8307 448.14 19.5473 448.14 19.2457V18.2614C448.087 18.3144 447.984 18.3641 447.832 18.4105C447.683 18.4536 447.512 18.4917 447.32 18.5249C447.128 18.5547 446.94 18.5829 446.758 18.6094C446.576 18.6326 446.423 18.6525 446.301 18.669C446.012 18.7055 445.749 18.7668 445.51 18.853C445.275 18.9392 445.086 19.0634 444.944 19.2259C444.804 19.3849 444.735 19.5971 444.735 19.8622C444.735 20.2301 444.871 20.5085 445.142 20.6974C445.414 20.883 445.761 20.9759 446.181 20.9759ZM451.726 22V11.8182H453.213V15.6016H453.302C453.388 15.4425 453.512 15.2585 453.675 15.0497C453.837 14.8409 454.063 14.6586 454.351 14.5028C454.639 14.3438 455.021 14.2642 455.494 14.2642C456.111 14.2642 456.661 14.42 457.145 14.7315C457.629 15.0431 458.008 15.4922 458.284 16.0788C458.562 16.6655 458.701 17.3714 458.701 18.1967C458.701 19.022 458.564 19.7296 458.289 20.3196C458.013 20.9062 457.636 21.3587 457.155 21.6768C456.674 21.9917 456.126 22.1491 455.509 22.1491C455.045 22.1491 454.666 22.0713 454.371 21.9155C454.079 21.7597 453.851 21.5774 453.685 21.3686C453.519 21.1598 453.392 20.9742 453.302 20.8118H453.178V22H451.726ZM453.183 18.1818C453.183 18.7187 453.261 19.1894 453.416 19.5938C453.572 19.9981 453.798 20.3146 454.093 20.5433C454.387 20.7687 454.749 20.8814 455.176 20.8814C455.62 20.8814 455.992 20.7637 456.29 20.5284C456.588 20.2898 456.814 19.9666 456.966 19.5589C457.122 19.1513 457.2 18.6922 457.2 18.1818C457.2 17.678 457.124 17.2256 456.971 16.8246C456.822 16.4235 456.597 16.107 456.295 15.875C455.997 15.643 455.624 15.527 455.176 15.527C454.745 15.527 454.381 15.638 454.083 15.8601C453.788 16.0821 453.564 16.392 453.411 16.7898C453.259 17.1875 453.183 17.6515 453.183 18.1818ZM461.857 11.8182V22H460.37V11.8182H461.857ZM467.148 22.1541C466.396 22.1541 465.748 21.9934 465.204 21.6719C464.664 21.3471 464.246 20.8913 463.951 20.3047C463.66 19.7147 463.514 19.0237 463.514 18.2315C463.514 17.4493 463.66 16.7599 463.951 16.1634C464.246 15.5668 464.657 15.1011 465.184 14.7663C465.714 14.4316 466.334 14.2642 467.044 14.2642C467.474 14.2642 467.892 14.3355 468.296 14.478C468.701 14.6205 469.064 14.8442 469.385 15.1491C469.707 15.4541 469.96 15.8501 470.146 16.3374C470.331 16.8213 470.424 17.4096 470.424 18.1023V18.6293H464.354V17.5156H468.968C468.968 17.1245 468.888 16.7782 468.729 16.4766C468.57 16.1716 468.346 15.9313 468.058 15.7557C467.773 15.58 467.438 15.4922 467.053 15.4922C466.636 15.4922 466.271 15.5949 465.96 15.8004C465.651 16.0026 465.413 16.2678 465.244 16.5959C465.078 16.9207 464.995 17.2737 464.995 17.6548V18.5249C464.995 19.0353 465.085 19.4695 465.264 19.8274C465.446 20.1854 465.7 20.4588 466.024 20.6477C466.349 20.8333 466.729 20.9261 467.163 20.9261C467.445 20.9261 467.701 20.8864 467.933 20.8068C468.165 20.724 468.366 20.6013 468.535 20.4389C468.704 20.2765 468.833 20.076 468.923 19.8374L470.33 20.0909C470.217 20.5052 470.015 20.8681 469.723 21.1797C469.435 21.4879 469.072 21.7282 468.634 21.9006C468.2 22.0696 467.705 22.1541 467.148 22.1541ZM474.932 22.1491C474.316 22.1491 473.766 21.9917 473.282 21.6768C472.801 21.3587 472.423 20.9062 472.148 20.3196C471.876 19.7296 471.74 19.022 471.74 18.1967C471.74 17.3714 471.878 16.6655 472.153 16.0788C472.431 15.4922 472.813 15.0431 473.297 14.7315C473.78 14.42 474.329 14.2642 474.942 14.2642C475.416 14.2642 475.797 14.3438 476.086 14.5028C476.377 14.6586 476.603 14.8409 476.762 15.0497C476.924 15.2585 477.05 15.4425 477.14 15.6016H477.229V11.8182H478.716V22H477.264V20.8118H477.14C477.05 20.9742 476.921 21.1598 476.752 21.3686C476.586 21.5774 476.357 21.7597 476.066 21.9155C475.774 22.0713 475.396 22.1491 474.932 22.1491ZM475.26 20.8814C475.688 20.8814 476.049 20.7687 476.344 20.5433C476.642 20.3146 476.868 19.9981 477.02 19.5938C477.176 19.1894 477.254 18.7187 477.254 18.1818C477.254 17.6515 477.178 17.1875 477.025 16.7898C476.873 16.392 476.649 16.0821 476.354 15.8601C476.059 15.638 475.694 15.527 475.26 15.527C474.813 15.527 474.44 15.643 474.142 15.875C473.843 16.107 473.618 16.4235 473.466 16.8246C473.316 17.2256 473.242 17.678 473.242 18.1818C473.242 18.6922 473.318 19.1513 473.471 19.5589C473.623 19.9666 473.848 20.2898 474.147 20.5284C474.448 20.7637 474.819 20.8814 475.26 20.8814Z" fill="#727C88"/>
<rect x="500" width="163" height="33" rx="6" fill="#6790C4" fill-opacity="0.3"/>
<path d="M519.333 11.8332C519.333 11.5986 519.395 11.3682 519.513 11.1651C519.63 10.962 519.799 10.7936 520.003 10.6767C520.206 10.5598 520.437 10.4987 520.671 10.4995C520.906 10.5003 521.136 10.563 521.339 10.6812L529.337 15.3466C529.539 15.4637 529.706 15.6317 529.823 15.8339C529.939 16.0361 530.001 16.2653 530.001 16.4987C530.001 16.732 529.94 16.9614 529.824 17.1637C529.708 17.3661 529.54 17.5344 529.339 17.6519L521.339 22.3186C521.136 22.4368 520.906 22.4995 520.671 22.5003C520.437 22.5011 520.206 22.44 520.003 22.3231C519.799 22.2062 519.63 22.0378 519.513 21.8347C519.395 21.6317 519.333 21.4012 519.333 21.1666V11.8332Z" stroke="#E9ECFE" stroke-width="1.33333" stroke-linecap="round" stroke-linejoin="round"/>
<path d="M548.672 14.4929C548.619 14.0223 548.4 13.6577 548.016 13.3991C547.631 13.1373 547.147 13.0064 546.564 13.0064C546.146 13.0064 545.785 13.0727 545.48 13.2053C545.175 13.3345 544.938 13.5135 544.769 13.7422C544.603 13.9676 544.521 14.2244 544.521 14.5128C544.521 14.7547 544.577 14.9635 544.69 15.1392C544.806 15.3149 544.956 15.4624 545.142 15.5817C545.331 15.6977 545.533 15.7955 545.749 15.875C545.964 15.9512 546.171 16.0142 546.37 16.0639L547.364 16.3224C547.689 16.402 548.022 16.5097 548.364 16.6456C548.705 16.7815 549.022 16.9605 549.313 17.1825C549.605 17.4046 549.84 17.6797 550.019 18.0078C550.201 18.3359 550.293 18.7287 550.293 19.1861C550.293 19.7628 550.143 20.2749 549.845 20.7223C549.55 21.1697 549.121 21.5227 548.558 21.7812C547.997 22.0398 547.32 22.169 546.524 22.169C545.762 22.169 545.102 22.0481 544.545 21.8061C543.989 21.5642 543.553 21.2211 543.238 20.777C542.923 20.3295 542.749 19.7992 542.716 19.1861H544.257C544.287 19.554 544.406 19.8606 544.615 20.1058C544.827 20.3478 545.097 20.5284 545.425 20.6477C545.757 20.7637 546.12 20.8217 546.514 20.8217C546.948 20.8217 547.335 20.7538 547.673 20.6179C548.014 20.4787 548.282 20.2865 548.478 20.0412C548.674 19.7926 548.771 19.5026 548.771 19.1712C548.771 18.8696 548.685 18.6226 548.513 18.4304C548.344 18.2382 548.113 18.0791 547.822 17.9531C547.533 17.8272 547.207 17.7161 546.842 17.62L545.639 17.2919C544.824 17.0698 544.178 16.7434 543.7 16.3125C543.226 15.8816 542.989 15.3116 542.989 14.6023C542.989 14.0156 543.148 13.5036 543.467 13.0661C543.785 12.6286 544.216 12.2888 544.759 12.0469C545.303 11.8016 545.916 11.679 546.599 11.679C547.288 11.679 547.896 11.8 548.423 12.0419C548.954 12.2839 549.371 12.617 549.676 13.0412C549.981 13.4621 550.14 13.946 550.153 14.4929H548.672ZM556.846 18.8331V14.3636H558.338V22H556.876V20.6776H556.797C556.621 21.0852 556.339 21.425 555.952 21.6967C555.567 21.9652 555.088 22.0994 554.515 22.0994C554.024 22.0994 553.59 21.9917 553.212 21.7763C552.838 21.5575 552.543 21.2344 552.327 20.8068C552.115 20.3793 552.009 19.8506 552.009 19.2209V14.3636H553.496V19.0419C553.496 19.5623 553.64 19.9766 553.928 20.2848C554.216 20.593 554.591 20.7472 555.052 20.7472C555.33 20.7472 555.607 20.6776 555.882 20.5384C556.16 20.3991 556.391 20.1887 556.573 19.907C556.759 19.6252 556.85 19.2673 556.846 18.8331ZM560.455 22V11.8182H561.941V15.6016H562.031C562.117 15.4425 562.241 15.2585 562.403 15.0497C562.566 14.8409 562.791 14.6586 563.08 14.5028C563.368 14.3438 563.749 14.2642 564.223 14.2642C564.839 14.2642 565.39 14.42 565.874 14.7315C566.357 15.0431 566.737 15.4922 567.012 16.0788C567.29 16.6655 567.43 17.3714 567.43 18.1967C567.43 19.022 567.292 19.7296 567.017 20.3196C566.742 20.9062 566.364 21.3587 565.884 21.6768C565.403 21.9917 564.854 22.1491 564.238 22.1491C563.774 22.1491 563.394 22.0713 563.099 21.9155C562.808 21.7597 562.579 21.5774 562.413 21.3686C562.248 21.1598 562.12 20.9742 562.031 20.8118H561.906V22H560.455ZM561.911 18.1818C561.911 18.7187 561.989 19.1894 562.145 19.5938C562.301 19.9981 562.526 20.3146 562.821 20.5433C563.116 20.7687 563.477 20.8814 563.905 20.8814C564.349 20.8814 564.72 20.7637 565.018 20.5284C565.317 20.2898 565.542 19.9666 565.695 19.5589C565.85 19.1513 565.928 18.6922 565.928 18.1818C565.928 17.678 565.852 17.2256 565.7 16.8246C565.55 16.4235 565.325 16.107 565.023 15.875C564.725 15.643 564.352 15.527 563.905 15.527C563.474 15.527 563.109 15.638 562.811 15.8601C562.516 16.0821 562.292 16.392 562.14 16.7898C561.987 17.1875 561.911 17.6515 561.911 18.1818ZM572.664 14.3636V15.5568H568.492V14.3636H572.664ZM569.611 12.5341H571.097V19.7578C571.097 20.0462 571.141 20.2633 571.227 20.4091C571.313 20.5516 571.424 20.6494 571.56 20.7024C571.699 20.7521 571.85 20.777 572.012 20.777C572.132 20.777 572.236 20.7687 572.325 20.7521C572.415 20.7356 572.485 20.7223 572.534 20.7124L572.803 21.9403C572.717 21.9735 572.594 22.0066 572.435 22.0398C572.276 22.0762 572.077 22.0961 571.838 22.0994C571.447 22.1061 571.083 22.0365 570.744 21.8906C570.406 21.7448 570.133 21.5194 569.924 21.2145C569.715 20.9096 569.611 20.5268 569.611 20.0661V12.5341ZM575.958 11.8182V22H574.472V11.8182H575.958ZM581.249 22.1541C580.497 22.1541 579.849 21.9934 579.306 21.6719C578.765 21.3471 578.348 20.8913 578.053 20.3047C577.761 19.7147 577.615 19.0237 577.615 18.2315C577.615 17.4493 577.761 16.7599 578.053 16.1634C578.348 15.5668 578.759 15.1011 579.286 14.7663C579.816 14.4316 580.436 14.2642 581.145 14.2642C581.576 14.2642 581.994 14.3355 582.398 14.478C582.802 14.6205 583.165 14.8442 583.487 15.1491C583.808 15.4541 584.062 15.8501 584.247 16.3374C584.433 16.8213 584.526 17.4096 584.526 18.1023V18.6293H578.455V17.5156H583.069C583.069 17.1245 582.99 16.7782 582.83 16.4766C582.671 16.1716 582.448 15.9313 582.159 15.7557C581.874 15.58 581.539 15.4922 581.155 15.4922C580.737 15.4922 580.373 15.5949 580.061 15.8004C579.753 16.0026 579.514 16.2678 579.345 16.5959C579.18 16.9207 579.097 17.2737 579.097 17.6548V18.5249C579.097 19.0353 579.186 19.4695 579.365 19.8274C579.548 20.1854 579.801 20.4588 580.126 20.6477C580.451 20.8333 580.83 20.9261 581.264 20.9261C581.546 20.9261 581.803 20.8864 582.035 20.8068C582.267 20.724 582.468 20.6013 582.637 20.4389C582.806 20.2765 582.935 20.076 583.024 19.8374L584.431 20.0909C584.319 20.5052 584.116 20.8681 583.825 21.1797C583.536 21.4879 583.173 21.7282 582.736 21.9006C582.302 22.0696 581.806 22.1541 581.249 22.1541ZM595.602 16.228L594.255 16.4666C594.199 16.2943 594.109 16.1302 593.987 15.9744C593.867 15.8187 593.705 15.6911 593.499 15.5916C593.294 15.4922 593.037 15.4425 592.729 15.4425C592.308 15.4425 591.957 15.5369 591.675 15.7259C591.393 15.9115 591.252 16.1518 591.252 16.4467C591.252 16.7019 591.347 16.9074 591.536 17.0632C591.725 17.219 592.03 17.3466 592.45 17.446L593.664 17.7244C594.366 17.8868 594.89 18.1371 595.235 18.4751C595.579 18.8132 595.752 19.2524 595.752 19.7926C595.752 20.25 595.619 20.6577 595.354 21.0156C595.092 21.3703 594.726 21.6487 594.255 21.8509C593.788 22.053 593.246 22.1541 592.629 22.1541C591.774 22.1541 591.077 21.9718 590.536 21.6072C589.996 21.2393 589.665 20.7173 589.542 20.0412L590.979 19.8224C591.068 20.197 591.252 20.4804 591.531 20.6726C591.809 20.8615 592.172 20.956 592.619 20.956C593.107 20.956 593.496 20.8549 593.788 20.6527C594.079 20.4472 594.225 20.197 594.225 19.902C594.225 19.6634 594.136 19.4628 593.957 19.3004C593.781 19.138 593.511 19.0154 593.146 18.9325L591.854 18.6491C591.141 18.4867 590.614 18.2282 590.273 17.8736C589.935 17.5189 589.766 17.0698 589.766 16.5263C589.766 16.0755 589.892 15.6811 590.144 15.343C590.396 15.005 590.744 14.7415 591.188 14.5526C591.632 14.3603 592.141 14.2642 592.714 14.2642C593.539 14.2642 594.189 14.4432 594.663 14.8011C595.137 15.1558 595.45 15.6314 595.602 16.228ZM600.677 22.1541C599.925 22.1541 599.277 21.9934 598.733 21.6719C598.193 21.3471 597.775 20.8913 597.48 20.3047C597.189 19.7147 597.043 19.0237 597.043 18.2315C597.043 17.4493 597.189 16.7599 597.48 16.1634C597.775 15.5668 598.186 15.1011 598.713 14.7663C599.244 14.4316 599.864 14.2642 600.573 14.2642C601.004 14.2642 601.421 14.3355 601.826 14.478C602.23 14.6205 602.593 14.8442 602.914 15.1491C603.236 15.4541 603.489 15.8501 603.675 16.3374C603.861 16.8213 603.953 17.4096 603.953 18.1023V18.6293H597.883V17.5156H602.497C602.497 17.1245 602.417 16.7782 602.258 16.4766C602.099 16.1716 601.875 15.9313 601.587 15.7557C601.302 15.58 600.967 15.4922 600.583 15.4922C600.165 15.4922 599.801 15.5949 599.489 15.8004C599.181 16.0026 598.942 16.2678 598.773 16.5959C598.607 16.9207 598.525 17.2737 598.525 17.6548V18.5249C598.525 19.0353 598.614 19.4695 598.793 19.8274C598.975 20.1854 599.229 20.4588 599.554 20.6477C599.878 20.8333 600.258 20.9261 600.692 20.9261C600.974 20.9261 601.231 20.8864 601.463 20.8068C601.695 20.724 601.895 20.6013 602.064 20.4389C602.233 20.2765 602.363 20.076 602.452 19.8374L603.859 20.0909C603.746 20.5052 603.544 20.8681 603.252 21.1797C602.964 21.4879 602.601 21.7282 602.164 21.9006C601.73 22.0696 601.234 22.1541 600.677 22.1541ZM607.089 11.8182V22H605.603V11.8182H607.089ZM612.38 22.1541C611.628 22.1541 610.98 21.9934 610.436 21.6719C609.896 21.3471 609.479 20.8913 609.184 20.3047C608.892 19.7147 608.746 19.0237 608.746 18.2315C608.746 17.4493 608.892 16.7599 609.184 16.1634C609.479 15.5668 609.89 15.1011 610.417 14.7663C610.947 14.4316 611.567 14.2642 612.276 14.2642C612.707 14.2642 613.124 14.3355 613.529 14.478C613.933 14.6205 614.296 14.8442 614.618 15.1491C614.939 15.4541 615.193 15.8501 615.378 16.3374C615.564 16.8213 615.657 17.4096 615.657 18.1023V18.6293H609.586V17.5156H614.2C614.2 17.1245 614.12 16.7782 613.961 16.4766C613.802 16.1716 613.578 15.9313 613.29 15.7557C613.005 15.58 612.67 15.4922 612.286 15.4922C611.868 15.4922 611.504 15.5949 611.192 15.8004C610.884 16.0026 610.645 16.2678 610.476 16.5959C610.31 16.9207 610.228 17.2737 610.228 17.6548V18.5249C610.228 19.0353 610.317 19.4695 610.496 19.8274C610.678 20.1854 610.932 20.4588 611.257 20.6477C611.582 20.8333 611.961 20.9261 612.395 20.9261C612.677 20.9261 612.934 20.8864 613.166 20.8068C613.398 20.724 613.598 20.6013 613.767 20.4389C613.936 20.2765 614.066 20.076 614.155 19.8374L615.562 20.0909C615.449 20.5052 615.247 20.8681 614.956 21.1797C614.667 21.4879 614.304 21.7282 613.867 21.9006C613.433 22.0696 612.937 22.1541 612.38 22.1541ZM620.523 22.1541C619.783 22.1541 619.147 21.9867 618.613 21.652C618.083 21.3139 617.675 20.8482 617.39 20.255C617.105 19.6617 616.963 18.9822 616.963 18.2166C616.963 17.4411 617.109 16.7566 617.4 16.1634C617.692 15.5668 618.103 15.1011 618.633 14.7663C619.164 14.4316 619.788 14.2642 620.508 14.2642C621.088 14.2642 621.605 14.3719 622.059 14.5874C622.513 14.7995 622.879 15.0978 623.157 15.4822C623.439 15.8667 623.607 16.3158 623.66 16.8295H622.213C622.133 16.4716 621.951 16.1634 621.666 15.9048C621.384 15.6463 621.006 15.517 620.532 15.517C620.118 15.517 619.755 15.6264 619.444 15.8452C619.135 16.0606 618.895 16.3688 618.723 16.7699C618.55 17.1676 618.464 17.6383 618.464 18.1818C618.464 18.7386 618.549 19.2192 618.718 19.6236C618.887 20.0279 619.126 20.3411 619.434 20.5632C619.745 20.7853 620.112 20.8963 620.532 20.8963C620.814 20.8963 621.069 20.8449 621.298 20.7422C621.53 20.6361 621.724 20.4853 621.88 20.2898C622.039 20.0942 622.15 19.8589 622.213 19.5838H623.66C623.607 20.0777 623.446 20.5185 623.177 20.9062C622.909 21.294 622.549 21.599 622.099 21.821C621.651 22.0431 621.126 22.1541 620.523 22.1541ZM628.814 14.3636V15.5568H624.643V14.3636H628.814ZM625.761 12.5341H627.248V19.7578C627.248 20.0462 627.291 20.2633 627.377 20.4091C627.463 20.5516 627.574 20.6494 627.71 20.7024C627.849 20.7521 628 20.777 628.163 20.777C628.282 20.777 628.386 20.7687 628.476 20.7521C628.565 20.7356 628.635 20.7223 628.685 20.7124L628.953 21.9403C628.867 21.9735 628.744 22.0066 628.585 22.0398C628.426 22.0762 628.227 22.0961 627.989 22.0994C627.598 22.1061 627.233 22.0365 626.895 21.8906C626.557 21.7448 626.283 21.5194 626.075 21.2145C625.866 20.9096 625.761 20.5268 625.761 20.0661V12.5341ZM633.667 22.1541C632.915 22.1541 632.267 21.9934 631.724 21.6719C631.183 21.3471 630.766 20.8913 630.471 20.3047C630.179 19.7147 630.033 19.0237 630.033 18.2315C630.033 17.4493 630.179 16.7599 630.471 16.1634C630.766 15.5668 631.177 15.1011 631.704 14.7663C632.234 14.4316 632.854 14.2642 633.563 14.2642C633.994 14.2642 634.412 14.3355 634.816 14.478C635.22 14.6205 635.583 14.8442 635.905 15.1491C636.226 15.4541 636.48 15.8501 636.665 16.3374C636.851 16.8213 636.944 17.4096 636.944 18.1023V18.6293H630.873V17.5156H635.487C635.487 17.1245 635.407 16.7782 635.248 16.4766C635.089 16.1716 634.866 15.9313 634.577 15.7557C634.292 15.58 633.957 15.4922 633.573 15.4922C633.155 15.4922 632.791 15.5949 632.479 15.8004C632.171 16.0026 631.932 16.2678 631.763 16.5959C631.598 16.9207 631.515 17.2737 631.515 17.6548V18.5249C631.515 19.0353 631.604 19.4695 631.783 19.8274C631.965 20.1854 632.219 20.4588 632.544 20.6477C632.869 20.8333 633.248 20.9261 633.682 20.9261C633.964 20.9261 634.221 20.8864 634.453 20.8068C634.685 20.724 634.885 20.6013 635.055 20.4389C635.224 20.2765 635.353 20.076 635.442 19.8374L636.849 20.0909C636.737 20.5052 636.534 20.8681 636.243 21.1797C635.954 21.4879 635.591 21.7282 635.154 21.9006C634.72 22.0696 634.224 22.1541 633.667 22.1541ZM641.452 22.1491C640.835 22.1491 640.285 21.9917 639.801 21.6768C639.321 21.3587 638.943 20.9062 638.668 20.3196C638.396 19.7296 638.26 19.022 638.26 18.1967C638.26 17.3714 638.397 16.6655 638.673 16.0788C638.951 15.4922 639.332 15.0431 639.816 14.7315C640.3 14.42 640.848 14.2642 641.462 14.2642C641.936 14.2642 642.317 14.3438 642.605 14.5028C642.897 14.6586 643.122 14.8409 643.281 15.0497C643.444 15.2585 643.57 15.4425 643.659 15.6016H643.749V11.8182H645.235V22H643.783V20.8118H643.659C643.57 20.9742 643.44 21.1598 643.271 21.3686C643.106 21.5774 642.877 21.7597 642.585 21.9155C642.294 22.0713 641.916 22.1491 641.452 22.1491ZM641.78 20.8814C642.207 20.8814 642.569 20.7687 642.864 20.5433C643.162 20.3146 643.387 19.9981 643.54 19.5938C643.696 19.1894 643.773 18.7187 643.773 18.1818C643.773 17.6515 643.697 17.1875 643.545 16.7898C643.392 16.392 643.169 16.0821 642.874 15.8601C642.579 15.638 642.214 15.527 641.78 15.527C641.332 15.527 640.96 15.643 640.661 15.875C640.363 16.107 640.138 16.4235 639.985 16.8246C639.836 17.2256 639.761 17.678 639.761 18.1818C639.761 18.6922 639.838 19.1513 639.99 19.5589C640.143 19.9666 640.368 20.2898 640.666 20.5284C640.968 20.7637 641.339 20.8814 641.78 20.8814Z" fill="#E9ECFE"/>
</svg>
