<svg width="883" height="812" viewBox="0 0 883 812" fill="none" xmlns="http://www.w3.org/2000/svg">
<rect x="1.5" y="1.5" width="880" height="809" stroke="#A855F7" stroke-width="3" stroke-dasharray="6 6"/>
<path d="M458.264 124.661L407.649 208.707L375.554 261.968H516.223L565.058 180.865L598.933 124.661H458.264Z" fill="#BCD4FC"/>
<path d="M687.652 261.968H586.422H375.554L445.901 383.796H516.075H690.273H757.999L687.652 261.968Z" fill="#3B82F6"/>
<path d="M463.581 417.053L412.965 504.733L307.531 687.339H448.201L483.288 626.561L570.399 475.679L604.25 417.028L463.581 417.053Z" fill="#3B82F6"/>
<path d="M425.921 415.767L375.306 328.087L269.872 145.456L199.55 267.309L234.637 328.087L321.748 478.943L355.599 537.595L425.921 415.767Z" fill="#3B82F6"/>
<path d="M285.253 415.767L187.187 413.937L125 412.775L195.322 534.603L290 536.358L355.6 537.57L285.253 415.767Z" fill="#BCD4FC"/>
<path d="M533.928 538.881L581.403 624.731L611.495 679.154L681.817 557.327L635.999 474.468L604.275 417.028L533.928 538.881Z" fill="#BCD4FC"/>
<path d="M563.099 687H461.868H251L321.347 808.828H391.521H565.72H633.446L563.099 687Z" fill="#A855F7" fill-opacity="0.3"/>
<path d="M3 308.347L3 409.578L3 620.446L124.828 550.099L124.828 479.925V305.726L124.828 238L3 308.347Z" fill="#A855F7" fill-opacity="0.3"/>
</svg>
