<svg width="320" height="318" viewBox="0 0 320 318" fill="none" xmlns="http://www.w3.org/2000/svg">
<g clip-path="url(#clip0_11_187)">
<path d="M168.475 17.6639L142.888 59.8859L126.663 86.6426H197.775L222.463 45.8989L239.588 17.6639H168.475Z" fill="#BCD4FC"/>
<path d="M284.438 86.6426H233.263H126.663L162.225 147.845H197.7H285.763H320L284.438 86.6426Z" fill="#3B82F6"/>
<path d="M171.163 164.553L145.575 208.601L92.2751 300.336H163.388L181.125 269.803L225.163 194.005L242.275 164.54L171.163 164.553Z" fill="#3B82F6"/>
<path d="M152.125 163.907L126.538 119.859L73.2375 28.1107L37.6875 89.3257L55.425 119.859L99.4625 195.645L116.575 225.109L152.125 163.907Z" fill="#3B82F6"/>
<path d="M81.0125 163.907L31.4375 162.987L0 162.404L35.55 223.606L83.4125 224.488L116.575 225.097L81.0125 163.907Z" fill="#BCD4FC"/>
<path d="M206.725 225.755L230.725 268.884L245.938 296.224L281.488 235.022L258.325 193.396L242.288 164.54L206.725 225.755Z" fill="#BCD4FC"/>
</g>
<defs>
<clipPath id="clip0_11_187">
<rect width="320" height="318" fill="white"/>
</clipPath>
</defs>
</svg>
