<svg width="320" height="316" viewBox="0 0 320 316" fill="none" xmlns="http://www.w3.org/2000/svg">
<path d="M168.475 17.5528L142.888 59.5092L126.663 86.0976H197.775L222.463 45.6101L239.588 17.5528H168.475Z" fill="#CCCCCC"/>
<path d="M284.438 86.0977H233.263H126.663L162.225 146.915H197.7H285.763H320L284.438 86.0977Z" fill="white"/>
<path d="M171.162 163.518L145.575 207.289L92.2749 298.447H163.387L181.125 268.106L225.162 192.785L242.275 163.505L171.162 163.518Z" fill="white"/>
<path d="M152.125 162.876L126.538 119.105L73.2375 27.9339L37.6875 88.7639L55.425 119.105L99.4625 194.414L116.575 223.693L152.125 162.876Z" fill="white"/>
<path d="M81.0125 162.876L31.4375 161.962L0 161.382L35.55 222.2L83.4125 223.076L116.575 223.681L81.0125 162.876Z" fill="#CCCCCC"/>
<path d="M206.725 224.335L230.725 267.193L245.938 294.361L281.488 233.544L258.325 192.18L242.288 163.505L206.725 224.335Z" fill="#CCCCCC"/>
</svg>
